<svg width="568" height="403" viewBox="0 0 568 403" fill="none" xmlns="http://www.w3.org/2000/svg">
<g clip-path="url(#clip0)">
<path opacity="0.1" d="M188.836 402.774C216.498 402.774 238.921 399.166 238.921 394.716C238.921 390.266 216.498 386.658 188.836 386.658C161.175 386.658 138.751 390.266 138.751 394.716C138.751 399.166 161.175 402.774 188.836 402.774Z" fill="#008372"/>
<path opacity="0.1" d="M461.091 403C495.608 403 523.59 399.393 523.59 394.943C523.59 390.493 495.608 386.885 461.091 386.885C426.575 386.885 398.593 390.493 398.593 394.943C398.593 399.393 426.575 403 461.091 403Z" fill="#008372"/>
<path opacity="0.1" d="M7.11388 174.125H59.2806V245.345H10.933C10.8045 246.076 10.6811 246.813 10.5475 247.549H59.2806V304.986C59.1932 304.961 59.1161 304.93 59.0339 304.899C57.6563 304.353 56.2891 303.777 54.9218 303.159L54.048 302.762C52.6773 302.114 51.3066 301.427 49.9359 300.703C49.4579 300.451 48.9799 300.188 48.507 299.92C40.8975 295.651 33.9847 290.24 28.0083 283.877C27.8336 283.707 27.6691 283.527 27.4943 283.362C26.6616 282.456 25.8443 281.54 25.0528 280.603L24.179 279.573C23.2435 278.425 22.3388 277.246 21.4599 276.051C21.3314 275.876 21.208 275.701 21.0743 275.537C17.4997 270.572 14.5315 265.196 12.2334 259.524C12.1614 259.355 12.0998 259.169 12.0329 259.01C11.327 257.19 10.7017 255.354 10.1568 253.501C9.92036 252.723 9.6942 251.956 9.49888 251.148C9.42692 250.911 9.36523 250.679 9.30869 250.448C6.38912 239.033 6.04474 227.176 6.04474 215.401C6.04474 214.026 6.04474 212.647 6.04474 211.282C6.04474 206.52 6.10128 201.727 6.18352 196.938C6.18352 195.698 6.23492 194.462 6.26062 193.216C6.33258 190.055 6.43539 186.893 6.56903 183.732C6.59987 182.852 6.64099 181.977 6.68725 181.101C6.68725 180.597 6.71295 180.092 6.76435 179.588C6.88771 177.755 6.99052 175.937 7.11388 174.125Z" fill="#008372"/>
<path opacity="0.1" d="M59.2806 94.8266H30.6657C35.3172 87.534 40.3995 80.5264 45.8855 73.841C50.1364 68.61 54.6237 63.5129 59.2806 58.6012V94.8266Z" fill="#008372"/>
<path opacity="0.1" d="M59.2806 97.0302V171.921H7.27832C7.27832 171.705 7.3143 171.484 7.32972 171.268C7.37598 170.675 7.42224 170.083 7.47364 169.496C7.53018 168.807 7.59186 168.111 7.65869 167.437C7.72551 166.763 7.79747 165.939 7.87457 165.192C7.95167 164.446 8.02363 163.689 8.11101 162.942C8.1984 162.196 8.2755 161.449 8.36802 160.708C8.46054 159.966 8.54278 159.215 8.64044 158.473C8.71754 157.855 8.79978 157.243 8.88202 156.625C9.00025 155.755 9.12361 154.88 9.25725 154.015C9.25725 153.886 9.29323 153.752 9.31379 153.628C10.252 147.297 11.5303 141.02 13.1432 134.826C14.8315 128.328 16.9874 121.962 19.594 115.776C22.3643 109.305 25.6079 103.048 29.2984 97.0559L59.2806 97.0302Z" fill="#008372"/>
<path opacity="0.1" d="M71.735 174.12V245.345H183.157V174.12H71.735ZM71.735 247.544V308.709C72.3724 308.843 73.0046 308.971 73.6317 309.08C74.4849 309.244 75.333 309.394 76.2017 309.522C76.3662 309.548 76.5358 309.574 76.7157 309.589C77.055 309.646 77.4045 309.692 77.7437 309.739C78.6021 309.857 79.4554 309.955 80.3138 310.032C80.7199 310.073 81.1311 310.109 81.5423 310.14L82.5343 310.217C83.074 310.259 83.6086 310.289 84.138 310.305C84.467 310.305 84.7959 310.336 85.1352 310.346C85.3922 310.346 85.6492 310.346 85.9165 310.346C86.1838 310.346 86.5641 310.346 86.888 310.346C87.33 310.346 87.7721 310.346 88.209 310.346H88.8001C89.2421 310.346 89.6842 310.346 90.1211 310.305H90.1519C90.4552 310.305 90.7636 310.305 91.072 310.264C91.1576 310.269 91.2434 310.269 91.329 310.264C91.586 310.264 91.843 310.264 92.0897 310.228H92.2696L93.9916 310.094C94.557 310.042 95.1275 309.975 95.7032 309.914L96.8752 309.775C101.643 309.105 106.358 308.101 110.985 306.768C121.378 303.864 131.545 299.802 141.933 296.826C155.364 292.99 170.204 291.106 183.182 295.796V247.544H71.735ZM183.157 94.8265V0.00512401C170.958 -0.127258 158.792 1.30189 146.955 4.25785C118.741 11.3577 93.4262 26.7572 71.735 46.4247V94.8214H77.3274V97.0198H71.735V171.921H183.157V97.025H100.288V94.8265H183.157ZM326.272 62.7972C319.292 62.5501 312.353 60.3362 306.077 56.9175C294.075 50.3788 284.488 40.2825 273.776 31.7616C251.52 14.0144 223.918 3.30536 195.601 0.648697V94.8265H354.661L355.057 94.4095L326.272 62.7972ZM340.762 60.2229L356.126 77.1103V55.7951C350.98 56.4336 346.473 57.9524 340.783 60.2023L340.762 60.2229ZM356.126 323.897V247.544H323.388C323.301 247.219 323.214 246.89 323.111 246.56C323.209 246.89 323.291 247.219 323.383 247.544H195.621V302.762C196.834 303.663 198.032 304.611 199.219 305.573C200.499 306.603 201.764 307.689 203.033 308.755L204.313 309.816C204.925 310.331 205.542 310.846 206.164 311.329C207.397 312.332 208.643 313.32 209.9 314.295C210.522 314.81 211.16 315.273 211.792 315.757C221.829 323.444 232.417 330.381 243.47 336.511C245.948 337.884 248.448 339.224 250.97 340.532C252.651 341.392 254.342 342.247 256.038 343.076C258.587 344.322 261.157 345.523 263.748 346.68C287.632 357.419 312.888 364.788 338.793 368.577C344.547 369.428 350.323 370.097 356.121 370.585V323.892H356.635L356.126 323.897ZM195.621 97.025V171.921H356.146V97.025H195.621ZM195.621 174.12V245.345H356.146V174.12H195.621ZM368.606 55.7025V79.4786L388.215 57.9267C381.718 56.8763 375.182 56.1264 368.606 55.6767V55.7025ZM368.606 174.146V245.345H524.736V174.12L368.606 174.146ZM524.165 329.55L524.715 247.544H368.606V371.403C378.662 371.826 388.734 371.706 398.778 371.043H398.953C403.75 370.741 408.525 370.301 413.278 369.725H413.386C438.743 366.769 463.536 360.142 486.992 350.052L524.165 329.55ZM554.841 185.848C554.255 184.463 553.644 183.089 553.022 181.729C551.86 179.155 550.632 176.653 549.367 174.151H537.185V245.345H567.985C567.969 225.183 562.875 204.589 554.857 185.823L554.841 185.848ZM537.185 247.569V318.105C545.862 309.775 553.191 300.245 558.47 289.35C564.818 276.232 567.722 262.027 567.959 247.559L537.185 247.569ZM537.185 153.392V171.927H548.226C544.886 165.546 541.206 159.35 537.201 153.366L537.185 153.392ZM431.299 69.6757C430.487 69.3668 429.675 69.0527 428.858 68.749C420.238 65.5606 411.43 62.9092 402.484 60.8099L372.476 93.7968L371.901 94.4095L372.286 94.8317H479.087C464.212 84.576 448.177 76.123 431.315 69.65L431.299 69.6757ZM482.217 97.0507H370.796L368.606 99.0587V171.921H387.799H387.83H524.757V136.628C512.37 121.623 498.074 108.308 482.233 97.025L482.217 97.0507Z" fill="#008372"/>
<path opacity="0.1" d="M59.2806 134.805V171.921H7.27832C7.27832 171.705 7.3143 171.484 7.32972 171.268C7.37598 170.675 7.42224 170.083 7.47364 169.496C7.53018 168.807 7.59186 168.111 7.65869 167.437C7.72551 166.763 7.79747 165.939 7.87457 165.192C7.95167 164.446 8.02363 163.689 8.11101 162.942C8.1984 162.196 8.2755 161.449 8.36802 160.708C8.46054 159.966 8.54278 159.215 8.64044 158.473C8.71754 157.855 8.79978 157.243 8.88202 156.625C9.00025 155.755 9.12361 154.88 9.25725 154.015C9.25725 153.886 9.29323 153.752 9.31379 153.629C10.252 147.297 11.5303 141.02 13.1432 134.826L59.2806 134.805Z" fill="#008372"/>
<path opacity="0.1" d="M7.11388 174.125H59.2806V245.345H10.933C10.8045 246.076 10.6811 246.813 10.5475 247.549H59.2806V304.986C59.1932 304.961 59.1161 304.93 59.0339 304.899C57.6563 304.353 56.2891 303.777 54.9218 303.159L54.048 302.762C52.6773 302.114 51.3066 301.427 49.9359 300.703C49.4579 300.451 48.9799 300.188 48.507 299.92C40.8975 295.651 33.9847 290.24 28.0083 283.877C27.8336 283.707 27.6691 283.527 27.4943 283.362C26.6616 282.456 25.8443 281.54 25.0528 280.603L24.179 279.573C23.2435 278.425 22.3388 277.246 21.4599 276.051C21.3314 275.876 21.208 275.701 21.0743 275.537C17.4997 270.572 14.5315 265.196 12.2334 259.524C12.1614 259.355 12.0998 259.169 12.0329 259.01C11.327 257.19 10.7017 255.354 10.1568 253.501C9.92036 252.723 9.6942 251.956 9.49888 251.148C9.42692 250.911 9.36523 250.679 9.30869 250.448C6.38912 239.033 6.04474 227.176 6.04474 215.401C6.04474 214.026 6.04474 212.647 6.04474 211.282C6.04474 206.52 6.10128 201.727 6.18352 196.938C6.18352 195.698 6.23492 194.462 6.26062 193.216C6.33258 190.055 6.43539 186.893 6.56903 183.732C6.59987 182.852 6.64099 181.977 6.68725 181.101C6.68725 180.597 6.71295 180.092 6.76435 179.588C6.88771 177.755 6.99052 175.937 7.11388 174.125Z" fill="#008372"/>
<path opacity="0.1" d="M110.959 107.749V171.921H71.735V107.749H77.3274V86.0225H100.283V107.749H110.959Z" fill="#008372"/>
<path opacity="0.1" d="M110.959 174.12H71.7401V245.34H110.959V174.12Z" fill="#008372"/>
<path opacity="0.1" d="M71.735 247.549H110.959V306.758C106.332 308.089 101.617 309.092 96.8494 309.759L95.6775 309.903C95.1018 309.97 94.5313 310.027 93.9659 310.084C93.4004 310.14 92.8145 310.181 92.2439 310.217H92.064C91.8173 310.217 91.55 310.248 91.3084 310.253H91.0463C90.7379 310.253 90.4295 310.284 90.1211 310.295C89.6842 310.32 89.2473 310.325 88.8001 310.331C88.6099 310.331 88.43 310.331 88.2398 310.331C87.7978 310.331 87.3608 310.331 86.9188 310.331H85.9473C85.6852 310.331 85.4333 310.331 85.1609 310.331L84.1689 310.295C83.6548 310.295 83.0997 310.238 82.5651 310.202L81.5782 310.13L80.3498 310.017C79.4862 309.939 78.6278 309.842 77.7797 309.723L76.7517 309.579L76.2377 309.507C75.3793 309.373 74.5312 309.229 73.6677 309.064C73.0354 308.956 72.4083 308.822 71.771 308.693L71.735 247.549Z" fill="#008372"/>
<path opacity="0.1" d="M356.146 100.171H323.805V171.916H356.146V100.171Z" fill="#008372"/>
<path opacity="0.1" d="M356.151 174.12V245.345H195.621V214.624H281.127V232.747H323.805V174.12H356.151Z" fill="#008372"/>
<path opacity="0.1" d="M356.66 323.913H356.146V370.636C350.355 370.145 344.581 369.478 338.824 368.633C312.906 364.832 287.64 357.448 263.748 346.69C256.85 343.58 250.093 340.186 243.476 336.506C232.422 330.373 221.833 323.436 211.792 315.752C209.27 313.816 206.78 311.836 204.323 309.811C202.622 308.405 200.931 306.964 199.219 305.563C198.032 304.6 196.834 303.653 195.621 302.747V247.549H323.378C323.291 247.219 323.203 246.89 323.111 246.566C323.209 246.89 323.301 247.219 323.388 247.549H356.146V323.882C356.321 323.887 356.491 323.902 356.66 323.913Z" fill="#008372"/>
<path opacity="0.1" d="M440.495 94.8266H419.421V88.2673H428.868V68.7284C429.687 69.027 430.503 69.3342 431.315 69.65V88.2673H440.495V94.8266Z" fill="#008372"/>
<path opacity="0.1" d="M491.269 171.921H387.809C387.809 171.921 387.809 171.921 387.845 171.947L387.799 171.921H368.606V100.176H374.044V153.206H398.896V121.8H419.426V97.0302H440.5V121.821H461.03V153.227H491.269V171.921Z" fill="#008372"/>
<path opacity="0.1" d="M368.606 174.12V245.345H491.269V174.12H368.606ZM524.566 329.185L524.736 272.808H491.269V247.58H368.606V371.403C378.662 371.826 388.734 371.706 398.778 371.043H398.953C403.75 370.741 408.525 370.301 413.278 369.725H413.386C438.743 366.769 463.536 360.142 486.992 350.052" fill="#008372"/>
<path opacity="0.1" d="M539.365 247.549H567.979C567.728 262.011 564.829 276.216 558.486 289.335C553.207 300.234 545.872 309.764 537.206 318.09V272.782H539.365V247.549Z" fill="#008372"/>
<path opacity="0.1" d="M567.995 245.345H539.365V185.823H554.857C562.875 204.589 567.969 225.184 567.995 245.345Z" fill="#008372"/>
<path opacity="0.1" d="M356.151 120.116H338.824V142.61H356.151V120.116Z" fill="#008372"/>
<path opacity="0.1" d="M356.151 166.742H338.824V171.921H356.151V166.742Z" fill="#008372"/>
<path opacity="0.1" d="M356.151 174.12H338.824V189.231H356.151V174.12Z" fill="#008372"/>
<path opacity="0.1" d="M356.151 213.367H338.824V235.862H356.151V213.367Z" fill="#008372"/>
<path opacity="0.1" d="M356.151 259.993H338.824V282.487H356.151V259.993Z" fill="#008372"/>
<path opacity="0.1" d="M356.146 323.882C356.321 323.882 356.491 323.882 356.66 323.913H356.146V329.138H338.824V306.619H356.146V323.882Z" fill="#008372"/>
<path opacity="0.1" d="M356.146 353.234V370.61C350.355 370.119 344.581 369.452 338.824 368.608V353.234H356.146Z" fill="#008372"/>
<path opacity="0.1" d="M269.88 243.693H195.621V245.345H269.88V243.693Z" fill="#008372"/>
<path opacity="0.1" d="M269.88 247.544H195.621V253.876H269.88V247.544Z" fill="#008372"/>
<path opacity="0.1" d="M269.88 274.636H195.621V284.82H269.88V274.636Z" fill="#008372"/>
<path opacity="0.1" d="M269.875 305.579V315.762H211.792C209.27 313.833 206.779 311.853 204.318 309.821C202.617 308.415 200.931 306.974 199.214 305.579H269.875Z" fill="#008372"/>
<path opacity="0.1" d="M269.875 336.516V346.69H263.743C256.852 343.577 250.096 340.18 243.476 336.501L269.875 336.516Z" fill="#008372"/>
<path opacity="0.1" d="M413.402 181.024H398.783V195.667H413.402V181.024Z" fill="#008372"/>
<path opacity="0.1" d="M96.8854 112.8H82.267V127.443H96.8854V112.8Z" fill="#008372"/>
<path opacity="0.1" d="M96.8854 146.812H82.267V161.454H96.8854V146.812Z" fill="#008372"/>
<path opacity="0.1" d="M96.8854 180.823H82.267V195.466H96.8854V180.823Z" fill="#008372"/>
<path opacity="0.1" d="M96.8854 214.83H82.267V229.472H96.8854V214.83Z" fill="#008372"/>
<path opacity="0.1" d="M96.8854 248.841H82.267V263.484H96.8854V248.841Z" fill="#008372"/>
<path opacity="0.1" d="M96.8854 282.853H82.267V297.495H96.8854V282.853Z" fill="#008372"/>
<path opacity="0.1" d="M469.208 181.024H454.589V195.667H469.208V181.024Z" fill="#008372"/>
<path opacity="0.1" d="M413.402 217.141H398.783V231.784H413.402V217.141Z" fill="#008372"/>
<path opacity="0.1" d="M469.208 217.141H454.589V231.784H469.208V217.141Z" fill="#008372"/>
<path opacity="0.1" d="M413.402 253.254H398.783V267.896H413.402V253.254Z" fill="#008372"/>
<path opacity="0.1" d="M469.208 253.254H454.589V267.896H469.208V253.254Z" fill="#008372"/>
<path opacity="0.1" d="M413.402 289.371H398.783V304.013H413.402V289.371Z" fill="#008372"/>
<path opacity="0.1" d="M469.208 289.371H454.589V304.013H469.208V289.371Z" fill="#008372"/>
<path opacity="0.1" d="M413.402 325.488H398.783V340.131H413.402V325.488Z" fill="#008372"/>
<path opacity="0.1" d="M469.208 325.488H454.589V340.131H469.208V325.488Z" fill="#008372"/>
<path opacity="0.1" d="M398.783 371.043V361.6H413.396V369.699L398.783 371.043Z" fill="#008372"/>
<path opacity="0.1" d="M9.25214 153.618V161.995H59.2806V153.618H9.25214ZM14.238 161.47H10.1568V154.133H14.2689L14.238 161.47ZM19.2188 161.47H15.1067V154.133H19.2188V161.47ZM24.1892 161.47H20.0772V154.133H24.1892V161.47ZM29.17 161.47H25.063V154.133H29.1751L29.17 161.47ZM34.1456 161.47H30.0335V154.133H34.1456V161.47ZM39.1263 161.47H35.0142V154.133H39.1263V161.47ZM44.1071 161.47H39.995V154.133H44.1071V161.47ZM49.0826 161.47H44.9706V154.133H49.0826V161.47ZM54.0583 161.47H49.9462V154.133H54.0583V161.47ZM59.0339 161.47H54.9218V154.133H59.0339V161.47Z" fill="#008372"/>
<path opacity="0.1" d="M9.25214 177.992V186.368H59.2806V177.992H9.25214ZM14.238 185.838H10.1568V178.522H14.2689L14.238 185.838ZM19.2188 185.838H15.1067V178.522H19.2188V185.838ZM24.1892 185.838H20.0772V178.522H24.1892V185.838ZM29.17 185.838H25.063V178.522H29.1751L29.17 185.838ZM34.1456 185.838H30.0335V178.522H34.1456V185.838ZM39.1263 185.838H35.0142V178.522H39.1263V185.838ZM44.1071 185.838H39.995V178.522H44.1071V185.838ZM49.0826 185.838H44.9706V178.522H49.0826V185.838ZM54.0583 185.838H49.9462V178.522H54.0583V185.838ZM59.0339 185.838H54.9218V178.522H59.0339V185.838Z" fill="#008372"/>
<path opacity="0.1" d="M9.25214 202.375V210.767H59.2806V202.375H9.25214ZM14.238 210.222H10.1568V202.9H14.2689L14.238 210.222ZM19.2188 210.222H15.1067V202.9H19.2188V210.222ZM24.1892 210.222H20.0772V202.9H24.1892V210.222ZM29.17 210.222H25.063V202.9H29.1751L29.17 210.222ZM34.1456 210.222H30.0335V202.9H34.1456V210.222ZM39.1263 210.222H35.0142V202.9H39.1263V210.222ZM44.1071 210.222H39.995V202.9H44.1071V210.222ZM49.0826 210.222H44.9706V202.9H49.0826V210.222ZM54.0583 210.222H49.9462V202.9H54.0583V210.222ZM59.0339 210.222H54.9218V202.9H59.0339V210.222Z" fill="#008372"/>
<path opacity="0.1" d="M9.25214 226.759V235.125H59.2806V226.759H9.25214ZM14.238 234.605H10.1568V227.279H14.2689L14.238 234.605ZM19.2188 234.605H15.1067V227.279H19.2188V234.605ZM24.1892 234.605H20.0772V227.279H24.1892V234.605ZM29.17 234.605H25.063V227.279H29.1751L29.17 234.605ZM34.1456 234.605H30.0335V227.279H34.1456V234.605ZM39.1263 234.605H35.0142V227.279H39.1263V234.605ZM44.1071 234.605H39.995V227.279H44.1071V234.605ZM49.0826 234.605H44.9706V227.279H49.0826V234.605ZM54.0583 234.605H49.9462V227.279H54.0583V234.605ZM59.0339 234.605H54.9218V227.279H59.0339V234.605Z" fill="#008372"/>
<path opacity="0.1" d="M9.46802 251.137C9.66848 251.925 9.89464 252.713 10.1311 253.49V251.663H14.2432V258.984H12.0432C12.11 259.154 12.1768 259.339 12.2437 259.499H59.2806V251.137H9.46802ZM19.2342 258.984H15.1221V251.663H19.2342V258.984ZM24.2046 258.984H20.0926V251.663H24.2046V258.984ZM29.1854 258.984H25.063V251.663H29.1751L29.1854 258.984ZM34.161 258.984H30.0489V251.663H34.161V258.984ZM39.1417 258.984H35.0297V251.663H39.1417V258.984ZM44.1225 258.984H40.0104V251.663H44.1225V258.984ZM49.0981 258.984H44.986V251.663H49.0981V258.984ZM54.0737 258.984H49.9616V251.663H54.0737V258.984ZM59.0493 258.984H54.9372V251.663H59.0493V258.984Z" fill="#008372"/>
<path opacity="0.1" d="M21.0846 275.521C21.2131 275.686 21.3365 275.871 21.4701 276.036H24.1892V279.553C24.4822 279.903 24.77 280.253 25.0682 280.582V276.015H29.1802V283.362H27.5148C27.6793 283.532 27.8387 283.713 28.0288 283.877H59.296V275.521H21.0846ZM34.1455 283.362H30.0335V276.046H34.1455V283.362ZM39.1263 283.362H35.0142V276.046H39.1263V283.362ZM44.107 283.362H39.995V276.046H44.107V283.362ZM49.0826 283.362H44.9706V276.046H49.0826V283.362ZM54.0582 283.362H49.9462V276.046H54.0582V283.362ZM59.0338 283.362H54.9218V276.046H59.0338V283.362Z" fill="#008372"/>
<path opacity="0.1" d="M48.5275 299.9C48.9953 300.167 49.4733 300.415 49.9565 300.682V300.425H54.0685V302.742L54.9424 303.148V300.425H59.0544V304.878C59.1333 304.918 59.216 304.949 59.3011 304.971V299.9H48.5275Z" fill="#008372"/>
<path opacity="0.1" d="M387.809 171.921H387.84H387.809ZM356.146 323.877H356.66H356.146ZM323.111 246.56C323.209 246.89 323.291 247.219 323.383 247.544C323.301 247.219 323.214 246.89 323.111 246.56ZM387.809 171.906H387.84H387.809ZM77.348 94.811V97.0095H100.309V94.811H77.348ZM356.146 323.877H356.66H356.146ZM323.111 246.56C323.209 246.89 323.291 247.219 323.383 247.544C323.301 247.219 323.214 246.89 323.111 246.56ZM387.809 171.906H387.84H387.809ZM356.146 323.861H356.66H356.146ZM323.111 246.56C323.209 246.89 323.291 247.219 323.383 247.544C323.301 247.219 323.214 246.89 323.111 246.56Z" fill="#008372"/>
<path d="M237.266 195.476C237.266 195.476 235.241 195.193 235.241 192.238C235.241 189.282 233.792 183.763 233.792 183.763C233.792 183.737 232.537 174.151 230.805 172.627C229.073 171.103 226.847 162.155 226.847 162.155C226.847 162.155 226.467 157.299 225.691 156.254C224.915 155.209 223.866 152.65 222.319 149C220.772 145.35 214.321 142.822 214.321 142.822C214.321 142.822 202.658 136.046 199.353 133.837C199.053 133.656 198.772 133.444 198.515 133.204C197.94 132.447 195.431 132.432 195.431 132.432C195.169 130.774 194.917 128.869 194.835 127.144C194.835 126.959 194.835 126.774 194.809 126.588C198.495 124.406 201.271 120.966 202.627 116.899C202.689 116.703 202.74 116.497 202.797 116.301C203.018 116.228 203.221 116.11 203.394 115.954C203.566 115.798 203.704 115.608 203.799 115.395C204.097 114.731 204.103 113.954 204.473 113.336C204.904 112.605 205.727 112.213 206.374 111.662C208.009 110.272 208.43 107.93 208.353 105.798C208.302 104.073 208.024 102.333 208.132 100.619L208.163 100.186C208.194 99.9288 208.23 99.6714 208.276 99.4243C208.528 98.1474 209.078 96.9427 209.387 95.6761C209.695 94.4096 209.726 92.9834 209.006 91.8919C207.952 90.2907 205.758 89.9715 203.83 89.8067C201.646 89.6214 199.692 89.8634 198.294 88.0459C197.64 87.096 196.904 86.2053 196.094 85.3841C195.806 85.1164 193.01 83.407 193.01 83.2938C190.281 82.0277 187.188 81.79 184.298 82.6245C182.848 83.0466 181.481 83.7365 180.011 84.0815C176.84 84.8332 173.19 84.0197 170.497 85.8372C168.996 86.8669 168.096 88.5041 167.253 90.1002C166.568 91.4148 165.872 92.7277 165.166 94.0389C164.03 96.1961 162.874 98.3894 162.396 100.778C162.295 101.298 162.233 101.825 162.211 102.354V102.38C162.211 102.57 162.211 102.761 162.211 102.951V103.193C162.211 103.373 162.211 103.548 162.242 103.708C162.272 103.867 162.267 103.919 162.283 104.027C162.298 104.135 162.324 104.377 162.355 104.542C162.386 104.707 162.447 104.995 162.509 105.222C162.535 105.319 162.571 105.412 162.601 105.505C162.653 105.68 162.715 105.85 162.781 106.02C162.817 106.107 162.853 106.2 162.894 106.287C162.972 106.468 163.064 106.643 163.157 106.802C163.198 106.874 163.229 106.941 163.27 107.008C163.413 107.248 163.571 107.478 163.743 107.698C164.843 109.073 166.462 109.948 167.659 111.235C167.659 111.287 167.659 111.338 167.659 111.384C167.659 111.529 167.659 111.668 167.659 111.812C167.723 114.682 168.486 117.494 169.881 120.002C171.277 122.51 173.263 124.638 175.668 126.202C175.668 126.398 175.693 126.598 175.704 126.794C175.804 128.322 175.785 129.856 175.647 131.382C175.438 131.135 175.176 130.938 174.88 130.806C174.585 130.674 174.264 130.61 173.94 130.62C173.72 130.609 173.498 130.628 173.283 130.676L173.236 130.64V130.686C172.105 130.964 170.713 132.143 169.381 135.495C169.381 135.495 165.331 140.067 162.247 139.877C159.163 139.686 151.355 144.634 151.355 144.634C151.355 144.634 143.737 149.587 142.103 154.632C141.189 157.494 140.094 160.293 138.823 163.014L129.407 182.45L127.669 197.87C127.669 197.87 128.631 204.728 128.44 205.773C128.25 206.819 132.393 216.246 132.393 216.246C132.393 216.246 146.081 240.336 151.674 241.571L152.075 241.288C152.314 241.413 152.568 241.509 152.83 241.571L153.982 240.758C154.051 241.665 154.021 242.576 153.894 243.476C153.123 245.855 154.182 261.378 155.529 264.421C156.875 267.464 156.397 307.36 156.397 307.36L156.207 310.882C156.207 310.882 156.207 310.995 156.253 311.191L156.207 312.025L156.346 312.097C156.49 313.214 156.443 314.347 156.207 315.448C155.724 316.993 155.529 321.359 155.529 321.359C155.529 321.359 151.679 346.01 153.504 350.963C155.328 355.916 156.881 361.343 156.881 361.343C156.881 361.343 158.808 367.521 156.973 368.577C155.138 369.632 149.921 371.403 150.995 373.977C151.972 376.356 155.678 382.73 156.228 383.662L156.181 384.151L155.426 392.353C155.548 393.436 155.841 394.492 156.295 395.483C157.122 397.27 158.731 399.123 161.789 398.922C162.303 398.886 162.9 398.825 163.475 398.747C169.073 397.996 175.966 395.493 175.966 395.493C175.608 395.266 175.28 394.994 174.989 394.685C174.714 394.418 174.496 394.098 174.348 393.744C174.201 393.39 174.127 393.009 174.131 392.626C174.213 391.133 171.422 384.017 170.728 382.267C170.62 382.014 170.563 381.87 170.563 381.87C170.563 381.87 176.927 375.208 175.868 369.303C175.868 369.303 168.826 365.184 171.144 362.923C173.462 360.663 177.605 354.171 177.605 354.171C177.605 354.171 177.796 329.895 177.605 326.271C177.407 323.755 177.526 321.224 177.96 318.738C178.037 318.363 178.13 317.997 178.227 317.637C181.433 318.116 184.67 318.362 187.911 318.373C189.093 318.373 190.296 318.373 191.509 318.301C191.509 318.644 191.525 319.015 191.556 319.413C191.823 325.426 192.321 335.971 192.728 339.889C193.303 345.506 196.485 360.643 196.485 360.643C196.485 360.643 190.414 364.545 197.544 374.163C197.544 374.163 197.544 377.648 197.071 378.153C196.566 379.802 196.159 381.48 195.853 383.178C195.555 384.99 195.431 386.823 195.914 387.776C197.071 390.051 204.01 389.866 204.01 389.866L204.18 389.835C205.49 389.699 206.814 389.826 208.074 390.207C209.335 390.588 210.508 391.216 211.525 392.054C214.162 394.175 224.169 393.243 229.587 392.569C231.71 392.301 233.129 392.054 233.129 392.054C233.197 391.813 233.222 391.562 233.201 391.313C233.144 389.979 232.101 387.055 225.028 384.445C225.028 384.445 218.377 379.965 218.469 376.063H218.33H217.559C218.12 376.032 218.479 376.063 218.479 376.063C218.479 376.063 215.873 366.538 216.937 365.766C218.001 364.993 214.814 354.439 214.814 354.439C214.814 354.439 212.99 336.727 212.892 335.487C212.896 334.422 213.057 333.364 213.37 332.346L212.892 322.636C212.892 322.636 212.8 319.408 212.892 318.357C212.876 317.446 212.803 316.536 212.671 315.634C212.625 315.273 212.579 314.898 212.527 314.527C215.02 313.894 216.639 313.307 216.639 313.307L216.351 279.506C218.469 275.387 218.86 266.352 218.849 259.942C218.849 255.823 218.664 252.775 218.664 252.775L221.558 248.043C221.558 248.043 222.226 242.38 221.168 241.139C220.7 240.578 220.911 239.996 221.296 239.517C221.496 239.358 221.708 239.214 221.928 239.085C221.928 239.085 221.897 239.038 221.862 238.971C222.064 238.802 222.278 238.649 222.504 238.513C222.504 238.513 221.476 236.917 222.396 236.243C223.26 236.83 224.031 237.272 224.617 237.633C224.575 238.009 224.534 238.225 224.534 238.225L224.781 237.71C225.346 238.029 225.691 238.225 225.691 238.225C225.691 238.225 230.224 229.179 230.127 227.845C230.029 226.512 233.211 220.895 233.211 220.895C233.211 220.895 233.596 217.945 235.334 216.709C237.071 215.473 236.68 206.52 236.68 206.52C236.68 206.52 237.164 201.855 238.32 199.95C239.477 198.045 237.266 195.476 237.266 195.476ZM150.522 191.507L150.61 193.664C150.096 192.835 149.726 192.238 149.726 192.238L150.522 191.507Z" fill="url(#paint0_linear)"/>
<path d="M225.938 234.317L224.827 239.054C224.827 239.054 215.935 234.508 214.331 228.731C212.728 222.954 217.014 220.761 217.014 220.761L225.3 224.277L225.938 234.317Z" fill="white"/>
<path opacity="0.1" d="M225.938 234.317L224.827 239.054C224.827 239.054 215.935 234.508 214.331 228.731C212.728 222.954 217.014 220.761 217.014 220.761L225.3 224.277L225.938 234.317Z" fill="black"/>
<path d="M176.032 395.524C176.032 395.524 167.808 398.552 162.154 398.933C159.152 399.133 157.574 397.29 156.762 395.514C156.319 394.526 156.032 393.475 155.914 392.399L156.649 384.239L157.04 379.893L169.052 376.768L170.754 381.978L170.913 382.375C171.597 384.115 174.336 391.194 174.254 392.672C174.251 393.05 174.324 393.425 174.468 393.775C174.613 394.124 174.827 394.441 175.097 394.706C175.373 395.017 175.687 395.292 176.032 395.524Z" fill="white"/>
<path d="M232.208 391.375C232.229 391.622 232.205 391.872 232.137 392.111C232.137 392.111 214.547 395.051 210.949 392.111C209.935 391.252 208.752 390.615 207.477 390.241C206.203 389.867 204.864 389.764 203.547 389.938C203.547 389.938 196.742 390.123 195.606 387.879C195.133 386.936 195.256 385.109 195.549 383.307C195.848 381.618 196.246 379.949 196.742 378.307L197.014 378.091L198.633 376.789L217.59 376.227H217.734C217.641 380.109 224.169 384.563 224.169 384.563C231.103 387.137 232.126 390.046 232.208 391.375Z" fill="white"/>
<path opacity="0.1" d="M232.209 391.374C232.227 391.623 232.2 391.872 232.131 392.111C232.131 392.111 214.547 395.051 210.949 392.111C209.935 391.253 208.754 390.616 207.48 390.242C206.206 389.868 204.869 389.764 203.553 389.938C203.553 389.938 196.742 390.123 195.611 387.879C195.138 386.931 195.256 385.109 195.549 383.307C198.171 383.569 202.309 384.223 203.933 385.783C206.39 388.157 210.553 390.525 213.108 390.71C215.107 390.839 227.068 391.22 232.209 391.374Z" fill="black"/>
<path opacity="0.1" d="M176.032 395.524C176.032 395.524 167.808 398.552 162.154 398.933C159.152 399.133 157.574 397.29 156.767 395.509C158.859 396.214 161.764 396.956 163.29 396.276C165.1 395.473 171.514 394.953 175.112 394.731C175.386 395.032 175.695 395.298 176.032 395.524Z" fill="black"/>
<path d="M188.235 151.559C181.45 148.917 172.722 140.191 174.902 136.113C175.386 135.084 175.673 133.973 175.75 132.838C175.89 131.298 175.911 129.749 175.811 128.205C175.659 125.676 175.355 123.159 174.902 120.667C174.902 120.667 196.084 121.146 194.85 124.271C194.491 125.188 194.434 126.779 194.532 128.56C194.629 130.341 194.886 132.355 195.154 134.059C195.524 136.396 195.894 138.178 195.894 138.178C195.894 138.178 194.598 139.995 193.838 140.093C193.077 140.191 197.97 155.322 188.235 151.559Z" fill="#CF6F80"/>
<path opacity="0.1" d="M170.898 382.375L170.738 382.55C164.406 374.878 156.747 384.439 156.747 384.439L156.634 384.239L157.025 379.893L169.037 376.768L170.738 381.978L170.898 382.375Z" fill="black"/>
<path opacity="0.1" d="M217.739 376.768C217.739 376.768 213.113 376.67 210.646 378.853C208.179 381.036 196.254 379.327 196.768 378.853C196.92 378.618 197.012 378.35 197.035 378.071L198.654 376.768L217.611 376.207C217.683 376.552 217.739 376.768 217.739 376.768Z" fill="black"/>
<path d="M178.777 316.524C178.433 317.378 178.171 318.262 177.996 319.166C177.567 321.64 177.448 324.158 177.641 326.662C177.832 330.266 177.641 354.418 177.641 354.418C177.641 354.418 173.576 360.859 171.309 363.129C169.042 365.4 175.935 369.478 175.935 369.478C176.963 375.347 170.733 381.978 170.733 381.978C164.401 374.307 156.742 383.873 156.742 383.873C156.742 383.873 152.578 376.665 151.54 374.091C150.502 371.516 155.606 369.735 157.4 368.69C159.194 367.645 157.312 361.482 157.312 361.482C157.312 361.482 155.796 356.081 153.997 351.154C152.198 346.227 155.981 321.699 155.981 321.699C155.981 321.699 156.176 317.343 156.644 315.824C156.88 314.728 156.927 313.6 156.783 312.488C156.752 312.112 156.716 311.798 156.69 311.587C156.665 311.376 156.644 311.278 156.644 311.278L156.716 311.154L159.286 306.356C159.286 306.356 180.011 313.502 178.777 316.524Z" fill="#008372"/>
<path d="M217.739 376.202C217.739 376.202 213.113 376.104 210.646 378.261C208.179 380.418 196.254 378.735 196.768 378.261C197.282 377.787 197.241 374.281 197.241 374.281C190.245 364.715 196.213 360.833 196.213 360.833C196.213 360.833 193.087 345.773 192.522 340.187C192.126 336.285 191.638 325.797 191.376 319.809C191.263 317.235 191.196 315.464 191.196 315.464L196.912 314.31L197.647 314.161L211.432 311.391C211.432 311.391 211.813 313.966 212.07 316.071C212.198 316.97 212.27 317.877 212.286 318.785C212.193 319.814 212.286 323.037 212.286 323.037L212.753 332.701C212.448 333.715 212.29 334.768 212.286 335.826C212.378 337.057 214.172 354.675 214.172 354.675C214.172 354.675 217.292 365.189 216.228 365.946C215.164 366.702 217.739 376.202 217.739 376.202Z" fill="#008372"/>
<path opacity="0.1" d="M194.85 124.271C194.491 125.188 194.434 126.779 194.532 128.56C191.694 130.271 188.433 131.146 185.121 131.084C181.81 131.023 178.583 130.026 175.812 128.21C175.659 125.68 175.355 123.161 174.902 120.667C174.902 120.667 196.084 121.136 194.85 124.271Z" fill="black"/>
<path d="M203.039 112.893C203.043 114.748 202.751 116.592 202.175 118.356C200.887 122.306 198.247 125.674 194.72 127.863C191.193 130.053 187.007 130.922 182.901 130.319C178.796 129.716 175.036 127.679 172.285 124.567C169.535 121.455 167.971 117.47 167.87 113.315C167.87 113.171 167.87 113.037 167.87 112.893C167.83 110.554 168.256 108.231 169.121 106.059C169.987 103.886 171.276 101.909 172.913 100.241C174.55 98.5725 176.503 97.2477 178.656 96.3433C180.81 95.439 183.122 94.9733 185.457 94.9733C187.792 94.9733 190.104 95.439 192.257 96.3433C194.411 97.2477 196.363 98.5725 198 100.241C199.637 101.909 200.926 103.886 201.792 106.059C202.658 108.231 203.084 110.554 203.044 112.893H203.039Z" fill="#CF6F80"/>
<path opacity="0.1" d="M188.235 151.559C181.45 148.918 172.722 140.191 174.902 136.113C175.386 135.084 175.673 133.973 175.75 132.839L185.038 140.484L190.785 145.205L195.154 134.064C195.524 136.401 195.894 138.183 195.894 138.183C195.894 138.183 194.598 140 193.838 140.098C193.077 140.196 197.97 155.322 188.235 151.559Z" fill="black"/>
<path d="M212.255 185.349L204.498 315.865L194.383 316.53L168.189 240.851L172.486 151.003L173.39 132.02L185.038 141.601L190.79 146.323L195.287 134.857L203.65 142.157L212.255 185.349Z" fill="#008372"/>
<path opacity="0.1" d="M178.777 316.524C178.433 317.378 178.171 318.262 177.996 319.166C170.635 318.027 163.487 315.79 156.788 312.529L156.649 312.457L156.695 311.628L156.721 311.196L159.291 306.397C159.291 306.397 180.011 313.502 178.777 316.524Z" fill="black"/>
<path opacity="0.1" d="M197.03 319.186C195.148 319.507 193.25 319.723 191.345 319.835C191.232 317.261 191.165 315.489 191.165 315.489L196.881 314.336L197.03 319.186Z" fill="black"/>
<path opacity="0.1" d="M212.039 316.097C208.384 317.05 202.74 318.12 197.688 317.451L197.616 314.187L211.401 311.417C211.401 311.417 211.782 313.966 212.039 316.097Z" fill="black"/>
<path opacity="0.1" d="M197.595 318.048C176.521 321.652 157.22 311.319 157.22 311.319L157.405 307.818C157.405 307.818 157.883 268.128 156.557 265.085C155.231 262.042 154.197 246.612 154.948 244.244C155.698 241.875 152.208 206.36 152.208 206.36L151.643 191.944L130.949 183.547L140.201 164.229C141.451 161.521 142.525 158.735 143.419 155.889C145.027 150.874 152.496 145.947 152.496 145.947C152.496 145.947 160.155 141.025 163.182 141.21C166.21 141.395 170.178 136.854 170.178 136.854C173.108 129.374 175.76 132.761 175.76 132.761C175.76 133.117 175.76 132.761 175.616 133.868C174.588 142.08 192.239 168.029 192.491 168.487L194.172 209.501L195.873 261.404L197.595 318.048Z" fill="black"/>
<path d="M197.03 318.048C175.955 321.652 156.649 311.319 156.649 311.319L156.839 307.818C156.839 307.818 157.317 268.128 155.986 265.085C154.655 262.042 153.627 246.612 154.382 244.244C155.138 241.875 151.643 206.36 151.643 206.36L151.072 191.944L130.368 183.516L139.62 164.199C140.867 161.489 141.942 158.703 142.838 155.858C144.442 150.843 151.915 145.916 151.915 145.916C151.915 145.916 159.574 140.994 162.596 141.179C165.619 141.365 169.592 136.824 169.592 136.824C172.527 129.343 175.76 132.73 175.76 132.73C175.76 133.086 175.452 133.245 175.616 133.837C177.878 141.802 191.674 167.998 191.926 168.456L193.627 209.47L195.328 261.373L197.03 318.048Z" fill="white"/>
<path opacity="0.1" d="M191.35 169.625C189.083 168.678 177.076 154.946 177.076 154.946V151.821C176.639 150.792 174.043 151.42 171.936 152.141L172.841 133.158L173.869 134.012C176.12 141.972 191.088 169.167 191.35 169.625Z" fill="black"/>
<path d="M191.921 168.487C189.649 167.54 177.641 153.809 177.641 153.809V150.684C177.204 149.654 174.609 150.282 172.501 151.003L173.411 132.02L174.439 132.875C176.696 140.834 191.669 168.034 191.921 168.487Z" fill="white"/>
<path opacity="0.1" d="M157.22 236.969C157.502 236.969 171.874 235.455 171.874 235.455C171.874 235.455 180.576 252.594 180.006 256.765C179.435 260.935 178.402 264.627 174.902 263.973C171.401 263.319 156.063 264.488 156.063 264.488L157.22 236.969Z" fill="black"/>
<path d="M156.649 235.831C156.932 235.831 171.304 234.317 171.304 234.317C171.304 234.317 180.001 251.462 179.435 255.627C178.87 259.792 177.826 263.489 174.331 262.835C170.836 262.181 155.493 263.35 155.493 263.35L156.649 235.831Z" fill="white"/>
<path d="M167.479 227.784C167.479 227.784 180.669 234.883 180.952 237.051C181.234 239.219 174.239 236.104 172.727 235.728C171.733 235.488 170.72 235.329 169.7 235.254L159.62 235.527L167.479 227.784Z" fill="#CF6F80"/>
<path opacity="0.1" d="M187.67 170.511C188.436 170.511 189.057 169.888 189.057 169.121C189.057 168.353 188.436 167.73 187.67 167.73C186.903 167.73 186.282 168.353 186.282 169.121C186.282 169.888 186.903 170.511 187.67 170.511Z" fill="black"/>
<path d="M187.67 169.944C188.436 169.944 189.057 169.322 189.057 168.554C189.057 167.787 188.436 167.164 187.67 167.164C186.903 167.164 186.282 167.787 186.282 168.554C186.282 169.322 186.903 169.944 187.67 169.944Z" fill="#3F3D56"/>
<path opacity="0.1" d="M190.224 230.687C190.991 230.687 191.612 230.065 191.612 229.297C191.612 228.529 190.991 227.907 190.224 227.907C189.458 227.907 188.836 228.529 188.836 229.297C188.836 230.065 189.458 230.687 190.224 230.687Z" fill="black"/>
<path d="M190.224 230.116C190.991 230.116 191.612 229.493 191.612 228.726C191.612 227.958 190.991 227.336 190.224 227.336C189.458 227.336 188.836 227.958 188.836 228.726C188.836 229.493 189.458 230.116 190.224 230.116Z" fill="#3F3D56"/>
<path opacity="0.1" d="M189.052 200.599C189.819 200.599 190.44 199.977 190.44 199.209C190.44 198.441 189.819 197.819 189.052 197.819C188.286 197.819 187.665 198.441 187.665 199.209C187.665 199.977 188.286 200.599 189.052 200.599Z" fill="black"/>
<path d="M189.052 200.033C189.819 200.033 190.44 199.41 190.44 198.643C190.44 197.875 189.819 197.252 189.052 197.252C188.286 197.252 187.665 197.875 187.665 198.643C187.665 199.41 188.286 200.033 189.052 200.033Z" fill="#3F3D56"/>
<path d="M221.044 234.966C221.044 234.966 221.99 236.387 221.044 237.051C220.098 237.715 221.137 239.321 221.137 239.321C221.137 239.321 218.777 240.706 219.816 241.952C220.854 243.198 220.196 248.826 220.196 248.826L217.359 253.532C217.359 253.532 217.528 256.564 217.539 260.662C217.539 267.057 217.163 276.046 215.087 280.145L215.375 313.77C215.375 313.77 205.439 317.405 197.122 316.298L195.889 262.341C195.889 262.341 197.688 231.743 198.351 225.873C198.739 222.826 198.897 219.754 198.824 216.683C198.824 216.683 198.541 207.498 197.59 203.235C197.59 203.235 196.562 184.767 196.459 179.655C196.413 177.209 196.541 170.073 196.685 163.287C196.845 155.868 197.025 148.871 197.025 148.871L195.148 134.002C195.148 134.002 197.025 133.812 197.59 134.568C197.843 134.805 198.119 135.017 198.412 135.202C201.651 137.395 213.092 144.14 213.092 144.14C213.092 144.14 219.425 146.662 220.941 150.277C222.458 153.891 223.511 156.455 224.246 157.485C224.981 158.514 225.382 163.354 225.382 163.354C225.382 163.354 227.562 172.261 229.263 173.77C230.965 175.278 232.208 184.875 232.208 184.875L217.174 196.717C217.174 196.717 215.853 216.415 215.57 217.177C215.287 217.939 221.044 234.966 221.044 234.966Z" fill="white"/>
<path d="M221.615 234.966C221.615 234.966 222.555 236.387 221.615 237.051C220.674 237.715 221.702 239.321 221.702 239.321C221.702 239.321 219.358 240.722 220.386 241.968C221.414 243.214 220.767 248.841 220.767 248.841L217.929 253.547C217.929 253.547 218.099 256.58 218.114 260.678C218.114 267.072 217.739 276.062 215.663 280.16L215.945 313.785C215.945 313.785 205.994 317.42 197.688 316.313L196.459 262.356C196.459 262.356 198.258 231.758 198.921 225.889C199.31 222.842 199.466 219.769 199.389 216.699C199.389 216.699 199.106 207.514 198.161 203.251C198.161 203.251 197.133 184.783 197.025 179.67C196.978 177.224 197.112 170.089 197.251 163.303C197.41 155.884 197.59 148.887 197.59 148.887L195.112 133.817C195.112 133.817 197.59 133.817 198.161 134.584C198.411 134.824 198.687 135.036 198.983 135.217C202.221 137.41 213.668 144.155 213.668 144.155C213.668 144.155 219.996 146.678 221.512 150.292C223.028 153.907 224.082 156.471 224.822 157.5C225.562 158.53 225.953 163.37 225.953 163.37C225.953 163.37 228.132 172.277 229.834 173.785C231.535 175.294 232.764 184.87 232.764 184.87L217.729 196.712C217.729 196.712 216.408 216.41 216.12 217.172C215.832 217.934 221.615 234.966 221.615 234.966Z" fill="white"/>
<path opacity="0.1" d="M203.609 153.258L204.966 157.222L197.821 164.43C197.981 157.016 198.161 150.014 198.161 150.014L195.683 134.944C195.683 134.944 198.161 134.944 198.731 135.711C198.981 135.951 199.257 136.161 199.554 136.34L205.629 153.896L203.609 153.258Z" fill="black"/>
<path d="M203.039 152.12L204.401 156.084L197.256 163.292C197.415 155.873 197.595 148.876 197.595 148.876L195.112 133.806C195.112 133.806 197.595 133.806 198.161 134.574C198.413 134.812 198.688 135.024 198.983 135.207L205.064 152.758L203.039 152.12Z" fill="white"/>
<path opacity="0.1" d="M203.039 112.893C203.043 114.748 202.751 116.592 202.175 118.356C202.078 118.371 201.979 118.366 201.883 118.342C201.788 118.318 201.698 118.276 201.62 118.217C201.486 113.583 199.209 109.232 196.408 105.53C195.621 104.413 194.668 103.423 193.581 102.596C192.482 101.769 191.115 101.382 189.746 101.509C188.204 101.72 186.842 102.771 185.285 102.905C183.229 103.075 181.388 101.648 179.348 101.576C178.518 101.584 177.7 101.769 176.947 102.119C176.195 102.469 175.526 102.975 174.984 103.605C173.912 104.875 173.115 106.355 172.645 107.95C171.837 110.369 171.397 112.896 171.34 115.447C171.314 116.888 171.175 118.695 169.839 119.22C169.939 118.16 169.819 117.091 169.485 116.079C169.152 115.068 168.612 114.137 167.901 113.346L167.87 113.315C167.87 113.171 167.87 113.037 167.87 112.893C167.83 110.554 168.256 108.231 169.121 106.059C169.987 103.886 171.276 101.909 172.913 100.241C174.55 98.5725 176.503 97.2477 178.656 96.3433C180.81 95.439 183.122 94.9733 185.457 94.9733C187.792 94.9733 190.104 95.439 192.257 96.3433C194.411 97.2477 196.363 98.5725 198 100.241C199.637 101.909 200.926 103.886 201.792 106.059C202.658 108.231 203.084 110.554 203.044 112.893H203.039Z" fill="black"/>
<path d="M192.738 84.9207C190.067 83.6622 187.029 83.4242 184.195 84.2514C182.771 84.6736 181.43 85.3583 179.985 85.7033C176.901 86.4498 173.303 85.6415 170.656 87.4487C169.186 88.4784 168.302 90.1053 167.479 91.6859L165.423 95.6092C164.303 97.7561 163.172 99.9391 162.704 102.302C162.237 104.666 162.519 107.312 164.015 109.212C165.105 110.597 166.714 111.467 167.896 112.769C168.604 113.562 169.141 114.492 169.474 115.502C169.806 116.512 169.927 117.58 169.828 118.639C171.17 118.124 171.299 116.312 171.329 114.87C171.387 112.32 171.827 109.793 172.635 107.374C173.104 105.778 173.901 104.298 174.974 103.028C175.516 102.399 176.185 101.893 176.938 101.543C177.69 101.194 178.508 101.008 179.338 101C181.394 101.072 183.239 102.493 185.274 102.323C186.816 102.194 188.184 101.139 189.736 100.933C191.105 100.803 192.472 101.191 193.57 102.019C194.657 102.845 195.609 103.835 196.392 104.954C199.199 108.656 201.476 112.996 201.61 117.64C202.19 118.067 203.028 117.511 203.316 116.852C203.604 116.193 203.614 115.421 203.979 114.793C204.401 114.067 205.208 113.681 205.84 113.135C207.444 111.75 207.845 109.418 207.783 107.302C207.721 105.186 207.31 103.039 207.711 100.959C207.952 99.6817 208.497 98.4872 208.795 97.2258C209.094 95.9644 209.13 94.5486 208.425 93.4622C207.397 91.8661 205.233 91.5521 203.347 91.4028C201.204 91.2174 199.286 91.4543 197.919 89.6471C197.277 88.7041 196.555 87.8186 195.76 87.0007C195.488 86.733 192.738 85.034 192.738 84.9207Z" fill="#512E4E"/>
<path opacity="0.1" d="M136.87 193.494L131.499 183.547L129.797 198.895C129.797 198.895 130.743 205.712 130.553 206.757C130.363 207.802 134.429 217.172 134.429 217.172C134.429 217.172 147.86 241.134 153.344 242.369L171.874 229.107L166.96 222.856C166.96 222.856 165.259 222.192 164.832 222.856C164.832 222.856 155.709 207.133 154.763 205.995C153.817 204.857 154.002 202.586 154.002 202.586C154.002 202.586 152.583 201.073 153.056 199.652C153.529 198.231 150.317 193.303 150.317 193.303L153.246 190.559L136.87 193.494Z" fill="black"/>
<path d="M131.782 182.414L130.363 183.547L128.661 198.895C128.661 198.895 129.607 205.712 129.417 206.757C129.227 207.802 133.298 217.172 133.298 217.172C133.298 217.172 146.724 241.134 152.208 242.369L170.743 229.107L165.824 222.856C165.824 222.856 164.123 222.192 163.696 222.856C163.696 222.856 154.573 207.133 153.627 205.995C152.681 204.857 152.871 202.586 152.871 202.586C152.871 202.586 151.453 201.073 151.926 199.652C152.398 198.231 149.181 193.303 149.181 193.303L152.111 190.559L131.782 182.414Z" fill="white"/>
<path opacity="0.1" d="M219.816 242.539C220.844 243.79 220.196 249.407 220.196 249.407L217.359 254.113C217.359 254.113 217.528 257.151 217.539 261.244L212.769 262.737C212.338 262.872 211.881 262.902 211.436 262.824C210.991 262.746 210.571 262.562 210.211 262.289C209.852 262.015 209.563 261.659 209.368 261.251C209.174 260.843 209.08 260.394 209.094 259.941L209.916 233.37L221.044 237.633C220.098 238.292 221.137 239.908 221.137 239.908C221.137 239.908 218.777 241.288 219.816 242.539Z" fill="black"/>
<path d="M220.386 241.968C221.414 243.219 220.767 248.841 220.767 248.841L217.929 253.547C217.929 253.547 218.099 256.58 218.114 260.678L213.257 262.197C212.835 262.328 212.387 262.357 211.952 262.28C211.517 262.203 211.106 262.023 210.754 261.755C210.402 261.487 210.119 261.139 209.928 260.739C209.738 260.34 209.646 259.9 209.659 259.458L210.486 232.803L221.62 237.066C220.669 237.725 221.707 239.337 221.707 239.337C221.707 239.337 219.358 240.722 220.386 241.968Z" fill="white"/>
<path d="M224.072 229.302C224.072 229.302 223.316 234.137 221.425 234.42C219.533 234.703 218.685 242.241 216.799 241.973C214.912 241.705 216.161 234.966 216.228 233.658C216.295 232.35 214.172 226.934 215.76 225.704C217.349 224.473 222.376 225.704 222.376 225.704L224.072 229.302Z" fill="#CF6F80"/>
<path opacity="0.1" d="M228.096 192.073L231.664 184.865C231.664 184.865 233.082 190.358 233.082 193.293C233.082 196.228 235.066 196.516 235.066 196.516C235.066 196.516 237.241 199.09 236.094 200.964C234.948 202.839 234.485 207.503 234.485 207.503C234.485 207.503 234.861 216.405 233.159 217.636C231.458 218.866 231.103 221.806 231.103 221.806C231.103 221.806 227.978 227.392 228.076 228.72C228.173 230.049 223.727 239.043 223.727 239.043C223.727 239.043 225.902 227.866 213.231 223.036C213.231 223.036 213.134 219.242 214.079 218.202C215.025 217.162 216.5 216.688 215.575 211.432C214.65 206.175 215.308 199.894 215.308 198.632C215.308 197.371 218.145 189.504 218.145 189.504L228.096 192.073Z" fill="black"/>
<path d="M229.638 183.835L232.753 184.865C232.753 184.865 234.177 190.358 234.177 193.293C234.177 196.228 236.161 196.516 236.161 196.516C236.161 196.516 238.335 199.09 237.189 200.965C236.043 202.839 235.586 207.503 235.586 207.503C235.586 207.503 235.961 216.405 234.259 217.636C232.558 218.866 232.178 221.806 232.178 221.806C232.178 221.806 229.058 227.392 229.155 228.721C229.253 230.049 224.802 239.043 224.802 239.043C224.802 239.043 226.981 227.866 214.306 223.036C214.306 223.036 214.213 219.242 215.159 218.202C216.105 217.162 217.58 216.688 216.655 211.432C215.729 206.175 216.387 199.894 216.387 198.632C216.387 197.371 219.225 189.504 219.225 189.504L229.638 183.835Z" fill="white"/>
<path opacity="0.1" d="M160.838 370.662C160.838 370.662 165.804 367.536 169.063 369.807C172.321 372.078 160.838 370.662 160.838 370.662Z" fill="black"/>
<path opacity="0.1" d="M199.42 360.998C199.42 360.998 203.815 360.432 207.505 364.411C211.196 368.391 199.42 360.998 199.42 360.998Z" fill="black"/>
<g opacity="0.1">
<path opacity="0.1" d="M205.85 112.007C205.218 112.553 204.406 112.944 203.984 113.67C203.624 114.293 203.614 115.06 203.326 115.73C203.038 116.399 202.201 116.945 201.62 116.523C201.486 111.889 199.204 107.538 196.403 103.831C195.619 102.713 194.667 101.723 193.581 100.897C192.481 100.068 191.111 99.6809 189.741 99.8104C188.199 100.021 186.842 101.072 185.285 101.2C183.229 101.376 181.383 99.9494 179.343 99.8773C178.513 99.8856 177.695 100.071 176.944 100.422C176.192 100.773 175.524 101.28 174.984 101.911C173.911 103.179 173.114 104.657 172.645 106.251C171.837 108.67 171.397 111.197 171.34 113.748C171.309 115.184 171.175 116.976 169.849 117.511C169.88 117.892 169.88 118.274 169.849 118.654C171.185 118.139 171.319 116.327 171.35 114.885C171.407 112.335 171.847 109.808 172.655 107.389C173.125 105.793 173.921 104.313 174.994 103.044C175.535 102.415 176.204 101.909 176.955 101.559C177.707 101.209 178.524 101.024 179.353 101.015C181.409 101.087 183.259 102.508 185.295 102.338C186.837 102.21 188.204 101.154 189.751 100.948C191.122 100.819 192.491 101.206 193.591 102.035C194.678 102.86 195.63 103.851 196.413 104.969C199.214 108.671 201.496 113.011 201.63 117.655C202.211 118.083 203.049 117.527 203.337 116.868C203.624 116.209 203.635 115.436 203.995 114.808C204.416 114.082 205.228 113.696 205.86 113.15C207.464 111.765 207.865 109.433 207.803 107.317C207.803 107.25 207.803 107.183 207.803 107.121C207.706 108.954 207.217 110.823 205.85 112.007Z" fill="black"/>
<path opacity="0.1" d="M167.906 111.642C166.724 110.339 165.11 109.469 164.025 108.089C163.112 106.868 162.59 105.398 162.529 103.873C162.368 105.778 162.899 107.678 164.025 109.222C165.11 110.607 166.724 111.477 167.906 112.78C169.041 114.054 169.723 115.669 169.844 117.372C169.922 116.336 169.791 115.294 169.458 114.309C169.125 113.324 168.597 112.417 167.906 111.642Z" fill="black"/>
<path opacity="0.1" d="M208.806 96.0983C208.502 97.3597 207.963 98.5593 207.716 99.831C207.57 100.681 207.516 101.544 207.557 102.405C207.574 101.915 207.627 101.426 207.716 100.943C207.963 99.6662 208.502 98.4718 208.806 97.2104C208.982 96.5146 209.04 95.7939 208.975 95.0789C208.943 95.4223 208.887 95.763 208.806 96.0983Z" fill="black"/>
</g>
<path opacity="0.1" d="M68.2243 391.596C95.8855 391.596 118.309 387.988 118.309 383.538C118.309 379.088 95.8855 375.481 68.2243 375.481C40.5632 375.481 18.1393 379.088 18.1393 383.538C18.1393 387.988 40.5632 391.596 68.2243 391.596Z" fill="#008372"/>
<path d="M69.8384 229.184H66.6155V301.866H69.8384V229.184Z" fill="#535461"/>
<path d="M90.0902 301.645L89.8898 304.919L89.6019 309.553L89.4837 311.479L89.201 316.113L89.0776 318.038L88.7898 322.672L85.5413 375.223C85.4001 377.484 84.404 379.607 82.7558 381.158C81.1077 382.709 78.9312 383.574 76.6695 383.574H59.7792C57.5179 383.573 55.3421 382.709 53.6948 381.158C52.0474 379.606 51.0525 377.484 50.9125 375.223L47.6794 322.636L47.3916 318.002L47.2733 316.076L46.9855 311.443L46.8673 309.517L46.5794 304.883L46.3738 301.609C46.3381 300.979 46.4313 300.348 46.6478 299.755C46.8642 299.162 47.1993 298.62 47.6325 298.161C48.0657 297.703 48.5878 297.338 49.1669 297.089C49.7459 296.84 50.3697 296.712 50.9999 296.713H85.5464C86.1742 296.718 86.7943 296.852 87.3683 297.107C87.9423 297.362 88.4582 297.732 88.8839 298.194C89.3097 298.656 89.6364 299.201 89.8439 299.794C90.0514 300.388 90.1352 301.018 90.0902 301.645Z" fill="#3F3D56"/>
<path d="M89.8898 304.92L89.602 309.538H46.8467L46.5589 304.92H89.8898Z" fill="#9D9CB5"/>
<path d="M89.4837 311.463L89.201 316.087H47.2528L46.965 311.463H89.4837Z" fill="#9D9CB5"/>
<path d="M89.0777 318.018L88.795 322.636H47.6589L47.371 318.018H89.0777Z" fill="#9D9CB5"/>
<path d="M41.6398 256.425C60.4063 270.028 68.2398 291.302 68.2398 291.302C68.2398 291.302 45.6234 290.524 26.8518 276.922C8.08022 263.319 0.262146 242.05 0.262146 242.05C0.262146 242.05 22.8682 242.823 41.6398 256.425Z" fill="#008372"/>
<path d="M0.246765 242.05C0.246765 242.05 23.7267 255.102 31.2569 265.909C38.7871 276.716 68.2398 291.302 68.2398 291.302" stroke="#535461" stroke-width="2" stroke-miterlimit="10"/>
<path d="M53.755 229.024C63.9683 236.423 68.2397 248.002 68.2397 248.002C68.2397 248.002 55.9292 247.58 45.7108 240.181C35.4923 232.783 31.2311 221.198 31.2311 221.198C31.2311 221.198 43.5365 221.621 53.755 229.024Z" fill="#008372"/>
<path d="M31.2311 221.198C31.2311 221.198 44.0094 228.304 48.106 234.183C52.2027 240.063 68.2397 248.002 68.2397 248.002" stroke="#535461" stroke-width="2" stroke-miterlimit="10"/>
<path d="M83.0689 247.415C71.3341 260.333 68.8514 277.215 68.8514 277.215C68.8514 277.215 85.3974 273.148 97.1219 260.225C108.846 247.302 111.339 230.425 111.339 230.425C111.339 230.425 94.8037 234.497 83.0689 247.415Z" fill="#008372"/>
<path d="M111.35 230.43C111.35 230.43 96.0631 243.672 92.1771 252.795C88.2912 261.919 68.8514 277.215 68.8514 277.215" stroke="#535461" stroke-width="2" stroke-miterlimit="10"/>
<path d="M513.839 242.869C513.839 242.869 505.353 200.578 508.601 195.317C508.601 195.317 508.719 190.425 508.524 184.19C508.524 183.954 508.524 183.717 508.524 183.475C509.096 183.857 509.691 184.2 510.308 184.505C513.301 186.045 516.737 186.489 520.022 185.761L517.452 182.893C516.836 182.208 516.193 181.467 516.059 180.561C515.926 179.655 516.296 178.846 516.615 178.038C519.056 171.86 519.185 164.09 514.481 159.374C510.508 155.41 509.542 150.292 505.229 146.673C502.078 144.021 500.346 140.134 498.712 136.376C497.329 133.199 495.936 129.997 495.144 126.629C494.528 123.998 494.281 121.275 493.433 118.706C492.585 116.137 490.996 113.639 488.514 112.491C487.63 112.085 486.648 111.853 485.841 111.312C484.782 110.597 484.145 109.433 483.379 108.414C479.488 103.265 466.458 106.298 460.29 108.388C458.613 108.914 457.06 109.776 455.725 110.921L455.782 110.828C455.828 110.751 455.884 110.674 455.936 110.597C455.261 111.144 454.678 111.795 454.209 112.527C453.309 113.954 452.934 115.617 452.184 117.161C451.279 118.989 446.247 124.091 448.411 126.145C448.562 126.283 448.736 126.395 448.925 126.475C449.737 126.814 450.632 126.903 451.495 126.732L451.402 126.954C450.663 128.766 450.284 130.706 450.287 132.663C450.287 141.123 457.252 147.981 465.851 147.981C467.468 147.982 469.075 147.734 470.616 147.244C470.652 147.44 470.683 147.636 470.719 147.831C470.719 147.908 470.744 147.986 470.755 148.063L470.482 148.444C470.469 148.42 470.453 148.398 470.436 148.377L462.366 159.673C461.133 160.543 454.029 165.692 453.628 169.553C453.207 173.78 452.785 178.728 452.785 178.728L452.728 179.788C452.376 180.084 451.963 180.299 451.52 180.419C451.076 180.539 450.612 180.561 450.158 180.484C447.64 180.072 447.64 189.751 447.64 189.751C447.64 189.751 445.964 191.296 444.813 189.957C443.661 188.618 440.618 193.154 440.618 193.154L421.549 193.978L421.112 194.004L420.084 190.817C419.973 190.481 419.735 190.202 419.42 190.041C419.105 189.88 418.74 189.85 418.403 189.957C418.323 189.983 418.246 190.016 418.172 190.055L418.1 190.096L417.966 190.189L417.899 190.25C417.862 190.284 417.828 190.32 417.796 190.358L417.735 190.431L417.704 190.461C417.585 190.626 417.507 190.816 417.475 191.016C417.442 191.216 417.458 191.421 417.519 191.615L418.403 194.349C414.723 195.09 410.96 197.18 414.029 202.936L398.475 200.058L403.507 204.291L429.485 209.661C429.141 210.278 429.367 211.174 430.441 212.436C435.067 217.878 443.497 219.355 446.889 219.736C447.785 221.744 448.904 223.644 450.225 225.4L449.932 230.821C449.932 230.821 441.343 272.144 439.77 274.239C440.564 273.338 441.291 272.379 441.945 271.371C439.452 279.861 435.967 291.482 435.052 293.222C433.582 296.002 432.22 307.252 433.895 307.973C434.409 308.194 435.879 308.086 437.976 307.926V308.858L437.884 344.172C437.884 344.172 438.305 365.832 437.149 367.897C435.992 369.962 435.684 374.292 435.684 374.292C435.684 374.292 431.058 382.833 427.393 386.267C427.368 386.294 427.34 386.318 427.311 386.339L427.198 385.536C427.198 385.536 422.793 391.107 413.047 390.793C413.047 390.793 407.182 394.613 415.879 394.819C424.576 395.025 435.684 394.51 435.684 394.51C435.684 394.51 443.44 382.668 449.937 384.213V393.187H451.927V384.069C452.849 383.46 453.639 382.671 454.247 381.748C454.856 380.825 455.271 379.787 455.468 378.699C455.638 377.577 455.514 376.429 455.106 375.37C454.699 374.311 454.023 373.377 453.145 372.659C452.75 372.302 452.434 371.867 452.215 371.382C451.997 370.896 451.881 370.371 451.875 369.838L451.803 369.9C451.803 369.72 451.757 369.534 451.736 369.344C451.166 364.71 450.451 355.149 452.975 348.075C456.434 338.375 457.483 324.865 454.964 316.823C454.152 314.252 453.484 311.638 452.965 308.992C452.903 308.657 452.847 308.338 452.795 308.04C454.517 308.273 456.222 308.617 457.899 309.069C463.733 310.681 476.496 310.979 487.393 310.892C487.419 311.191 487.45 311.505 487.486 311.819C487.68 314.002 488.086 316.161 488.699 318.265C490.066 322.384 490.693 340.543 490.693 340.543C490.693 340.543 492.456 355.473 491.495 361.549C490.981 364.926 490.467 368.319 490.174 371.728V371.794C490.174 371.794 487.285 380.032 485.173 384.506C485.121 384.62 485.065 384.733 485.013 384.841C484.45 384.892 483.896 385.015 483.363 385.207C483.363 385.207 480.531 390.87 477.709 391.807C474.887 392.744 475.823 395.828 482.212 394.695C488.601 393.563 498.249 392.636 498.249 392.636L498.665 386.859L500.629 384.398L500.115 390.159L502.207 389.748L501.929 382.74L505.142 378.714C505.142 378.714 509.023 375.254 503.255 368.448V368.597C503.194 368.499 503.137 368.396 503.07 368.299V368.268C502.114 366.785 501.354 364.02 502.747 359.114C505.265 350.248 506.73 342.2 506.73 342.2C506.73 342.2 512.353 320.643 505.594 310.444H505.892C505.2 309.009 504.71 307.484 504.438 305.913C504.403 305.728 504.373 305.537 504.345 305.342C509.346 305.053 514.255 304.147 518.259 302.191C518.244 302.17 515.833 251.014 513.839 242.869ZM450.343 207.189V207.292L449.315 207.344L450.343 207.189ZM446.817 207.678C446.648 207.716 446.49 207.792 446.355 207.9C445.913 208.526 445.635 209.254 445.548 210.016L443.944 209.655C443.944 209.655 442.818 209.413 441.199 209.141L440.433 208.368C442.541 208.193 444.731 207.936 446.817 207.678Z" fill="url(#paint1_linear)"/>
<path d="M499.878 382.812L499.267 390.108L501.318 389.696L501.009 381.783L499.878 382.812Z" fill="#1D2366"/>
<path d="M453.088 348.173C450.616 355.226 451.315 364.746 451.87 369.369C452.076 371.079 452.266 372.119 452.266 372.119C452.266 372.119 448.57 380.552 448.262 380.871C447.953 381.191 437.385 387.652 437.385 387.652L429.999 391.972C429.999 391.972 422.505 388.682 426.098 387.549C426.832 387.254 427.493 386.802 428.035 386.226C431.634 382.802 436.152 374.291 436.152 374.291C436.152 374.291 436.46 369.972 437.591 367.918C438.722 365.863 438.31 344.275 438.31 344.275L438.398 309.085V304.497L452.456 304.6C452.545 306.158 452.747 307.706 453.063 309.234C453.567 311.871 454.221 314.477 455.021 317.039C457.498 325.066 456.47 338.509 453.088 348.173Z" fill="#FFB0B1"/>
<path opacity="0.1" d="M452.266 372.119C452.266 372.119 448.57 380.552 448.262 380.872C447.953 381.191 437.385 387.652 437.385 387.652L429.999 391.972C429.999 391.972 422.505 388.682 426.098 387.549C426.832 387.254 427.493 386.803 428.035 386.226L428.354 388.476L430.816 388.373L451.891 369.38C452.076 371.079 452.266 372.119 452.266 372.119Z" fill="black"/>
<path d="M452.009 369.859L430.816 388.98L428.354 389.083L427.84 385.479C427.84 385.479 423.533 391.029 413.962 390.721C413.962 390.721 408.215 394.525 416.732 394.731C425.25 394.937 436.126 394.422 436.126 394.422C436.126 394.422 443.723 382.581 450.081 384.125V393.068H452.035V384.043C452.943 383.431 453.718 382.64 454.313 381.72C454.909 380.8 455.312 379.769 455.499 378.688C455.668 377.575 455.548 376.438 455.151 375.384C454.754 374.331 454.093 373.398 453.232 372.675C452.848 372.314 452.541 371.877 452.33 371.393C452.12 370.909 452.01 370.387 452.009 369.859Z" fill="#1D2366"/>
<path d="M501.832 359.17C500.464 364.061 501.21 366.816 502.145 368.293V368.324C503.345 370.149 504.179 372.189 504.602 374.333L504.684 374.796L495.042 388.877L489.809 390.937C489.809 390.937 481.395 388.059 482.932 387.235C483.317 387.034 483.918 385.963 484.607 384.486C486.663 380.032 489.501 371.815 489.501 371.815V371.748C489.799 368.355 490.272 364.973 490.796 361.605C491.736 355.546 490.009 340.671 490.009 340.671C490.009 340.671 489.393 322.584 488.056 318.471C487.453 316.379 487.052 314.234 486.859 312.066C486.581 309.491 486.519 307.37 486.519 307.37C486.519 307.37 492.06 299.647 502.217 307.988C503.029 308.653 503.744 309.43 504.34 310.295C511.356 320.293 505.707 342.319 505.707 342.319C505.707 342.319 504.294 350.33 501.832 359.17Z" fill="#FFB0B1"/>
<path opacity="0.1" d="M504.7 374.796L495.057 388.878L489.824 390.937C489.824 390.937 481.41 388.059 482.947 387.235C483.333 387.034 483.934 385.963 484.623 384.486C488.185 384.455 490.03 387.853 490.03 387.853L494.543 387.132C494.543 387.132 500.495 375.414 501.832 374.698C503.168 373.983 502.037 369.349 502.037 369.349V368.17C502.073 368.211 502.104 368.257 502.145 368.299V368.33C503.345 370.154 504.18 372.195 504.602 374.338L504.7 374.796Z" fill="black"/>
<path d="M490.338 388.157C490.338 388.157 487.768 383.43 482.844 385.176C482.844 385.176 480.074 390.839 477.303 391.756C474.533 392.672 475.458 395.761 481.718 394.634C487.979 393.506 497.416 392.574 497.416 392.574L497.828 386.813L504.191 378.694C504.191 378.694 507.984 375.249 502.341 368.469V369.648C502.341 369.648 503.471 374.281 502.135 374.997C500.798 375.713 494.867 387.436 494.867 387.436L490.338 388.157Z" fill="#1D2366"/>
<path opacity="0.1" d="M452.471 304.59C452.56 306.147 452.763 307.696 453.078 309.224C447.29 308.374 441.919 308.796 438.398 309.074V304.487L452.471 304.59Z" fill="black"/>
<path opacity="0.1" d="M504.911 311.577C504.911 311.577 496.686 311.978 486.879 312.061C486.602 309.486 486.54 307.365 486.54 307.365C486.54 307.365 492.081 299.642 502.238 307.983C503.05 308.648 503.765 309.425 504.361 310.29C504.52 310.728 504.704 311.158 504.911 311.577Z" fill="black"/>
<path d="M504.911 310.65C504.911 310.65 468.889 312.395 457.91 309.311C446.93 306.227 436.049 308.899 434.409 308.184C432.769 307.468 434.101 296.26 435.54 293.484C436.979 290.709 444.874 262.644 444.874 262.644L452.471 222.97L460.475 220.761L461.04 220.601L474.985 216.75L485.203 213.923C485.203 213.923 505.522 293.382 503.78 299.241C503.147 301.484 503.045 303.845 503.482 306.135C503.748 307.698 504.229 309.218 504.911 310.65Z" fill="#1D2366"/>
<path d="M425.99 195.837C425.99 195.837 418.794 203.559 424.242 207.864C429.691 212.168 433.273 208.276 433.273 208.276L425.99 195.837Z" fill="#C7DAF5"/>
<path opacity="0.1" d="M425.99 195.837C425.99 195.837 418.794 203.559 424.242 207.864C429.691 212.168 433.273 208.276 433.273 208.276L425.99 195.837Z" fill="black"/>
<path d="M484.129 145.061C484.129 145.061 483.286 145.864 482.017 147.049C480.207 148.743 477.529 151.219 475.155 153.294C471.865 156.162 469.151 158.267 470.122 156.471C471.094 154.674 470.909 151.543 470.426 148.614C470.39 148.418 470.359 148.223 470.323 148.032C469.923 145.881 469.392 143.755 468.735 141.668C468.735 141.668 474.049 134.79 476.99 132.077C478.084 131.047 478.85 130.625 478.897 131.34C478.948 132.303 479.668 134.429 480.562 136.685C480.588 136.757 480.613 136.824 480.644 136.896C481.24 138.44 481.914 140.026 482.505 141.396C483.41 143.496 484.129 145.061 484.129 145.061Z" fill="#FFB0B1"/>
<path opacity="0.1" d="M480.644 136.896C480.145 139.586 478.933 142.094 477.135 144.155C475.338 146.216 473.021 147.756 470.426 148.614C470.017 146.263 469.452 143.943 468.735 141.668C468.735 141.668 478.742 128.72 478.897 131.34C478.933 132.334 479.714 134.538 480.644 136.896Z" fill="black"/>
<path opacity="0.1" d="M469.429 152.074L470.724 150.246C470.724 150.246 471.582 155.487 474.738 153.175C477.894 150.864 478.048 170.572 478.048 170.572L474.661 221.301L450.184 219.834L450.878 195.322L453.648 182.965L460.5 165.002L464.576 159.065L469.429 152.074Z" fill="black"/>
<path d="M478.048 170.887L474.964 216.755L474.641 221.615L460.994 220.797L460.48 220.766L450.199 220.148L450.893 195.631L453.664 183.274L460.516 165.311L464.592 159.374L469.444 152.357L470.739 150.534C470.739 150.534 471.598 155.775 474.754 153.464L474.82 153.417C477.905 151.461 478.048 170.887 478.048 170.887Z" fill="#1D2366"/>
<path d="M454.008 178.98C454.008 178.98 452.78 181.554 450.313 181.137C447.845 180.72 447.85 190.405 447.85 190.405C447.85 190.405 446.211 191.949 445.08 190.611C443.949 189.272 440.968 193.798 440.968 193.798L422.289 194.621C422.289 194.621 430.6 198.426 428.971 209.939C428.971 209.939 457.19 208.188 458.115 205.516C459.04 202.844 454.008 178.98 454.008 178.98Z" fill="white"/>
<path opacity="0.03" d="M454.008 178.98C454.008 178.98 452.78 181.554 450.313 181.137C447.845 180.72 447.85 190.405 447.85 190.405C447.85 190.405 446.211 191.949 445.08 190.611C443.949 189.272 440.968 193.798 440.968 193.798L422.289 194.621C422.289 194.621 430.6 198.426 428.971 209.939C428.971 209.939 457.19 208.188 458.115 205.516C459.04 202.844 454.008 178.98 454.008 178.98Z" fill="black"/>
<path d="M399.724 200.671L404.648 204.883L445.183 213.414L440.156 208.276L399.724 200.671Z" fill="white"/>
<path d="M469.506 153.696C468.832 154.725 466.905 159.997 465.296 164.6C463.954 168.436 462.834 171.808 462.834 171.808C462.834 171.808 460.217 188.871 458.881 191.955C457.545 195.039 458.269 207.066 458.269 207.066L453.289 236.768C453.289 236.768 451.032 252.085 447.547 261.234C444.108 270.239 440.279 274.461 440.161 274.594C441.703 272.504 450.107 231.346 450.107 231.346L452.883 179.438C452.883 179.438 453.289 174.506 453.7 170.289C454.111 166.073 462.438 160.317 462.438 160.317L470.467 148.882C471.274 149.963 470.734 151.847 469.506 153.696Z" fill="white"/>
<path d="M448.57 220.406C448.57 220.406 436.748 219.891 431.022 213.002C425.296 206.113 444.258 210.253 444.258 210.253L449.187 211.385L448.57 220.406Z" fill="#FFB0B1"/>
<path opacity="0.1" d="M503.78 299.246C503.147 301.489 503.045 303.85 503.482 306.14C490.585 307.056 476.789 303.565 476.789 303.565C474.219 305.934 467.45 309.425 467.45 309.425L463.759 263.602C461.4 257.424 460.475 225.055 460.475 225.055C460.475 225.055 460.685 223.361 460.989 220.823C460.989 220.761 460.989 220.694 461.014 220.632C461.934 213.543 463.759 200.233 464.653 198.437C465.887 195.965 460.86 189.391 460.86 189.391L463.147 169.852L463.425 167.494C468.246 165.336 471.942 158.448 471.942 158.448L474.779 153.469C477.863 151.487 478.023 170.912 478.023 170.912L474.939 216.781L485.157 213.954C485.157 213.954 505.522 293.387 503.78 299.246Z" fill="black"/>
<path d="M517.015 302.412C502.957 309.404 477.406 302.927 477.406 302.927C474.836 305.295 468.066 308.786 468.066 308.786L464.371 262.964C462.017 256.785 461.091 224.416 461.091 224.416C461.091 224.416 464.062 200.264 465.296 197.798C465.656 197.077 465.481 196.006 465.054 194.853C462.957 189.364 462.185 183.456 462.803 177.611L463.79 169.213L464.062 166.86C468.889 164.698 472.585 157.809 472.585 157.809L475.155 153.299L479.883 144.989L482.125 141.056L482.505 141.401L485.409 144.037C485.409 144.037 486.643 145.066 488.493 146.611C492.518 150.009 499.472 155.992 503.06 159.652C506.216 162.875 507.213 175.412 507.501 184.849C507.691 191.064 507.578 195.934 507.578 195.934C504.397 201.181 512.718 243.301 512.718 243.301C514.656 251.441 517.015 302.412 517.015 302.412Z" fill="white"/>
<path opacity="0.03" d="M490.03 157.706C490.03 157.706 480.382 176.102 481.503 183.094C482.623 190.086 485.81 197.999 484.273 199.847C483.745 200.548 483.062 201.116 482.279 201.508C481.495 201.9 480.631 202.105 479.755 202.108C478.213 202.211 474.101 205.089 474.101 205.397C474.101 205.706 470.302 205.706 466.905 207.148C463.507 208.59 458.49 209.408 458.49 209.408C458.49 209.408 448.724 209.099 447.815 210.026C446.905 210.953 445.969 216.498 447.917 220.92C449.865 225.343 452.029 228.643 453.664 229.246C455.298 229.848 465.671 226.368 474.085 225.544C482.5 224.72 491.634 218.042 491.634 218.042C491.634 218.042 501.693 214.438 503.456 208.378C505.219 202.319 501.302 169.012 501.302 169.012C501.302 169.012 498.342 153.489 490.03 157.706Z" fill="black"/>
<path opacity="0.03" d="M488.796 156.162C488.796 156.162 479.148 174.563 480.279 181.549C481.41 188.536 484.587 196.454 483.045 198.308C482.518 199.009 481.837 199.578 481.054 199.97C480.271 200.362 479.407 200.567 478.532 200.568C476.99 200.671 472.878 203.549 472.878 203.858C472.878 204.167 469.079 204.167 465.681 205.603C462.284 207.04 457.267 207.864 457.267 207.864C457.267 207.864 447.501 207.555 446.596 208.481C445.692 209.408 444.746 214.958 446.699 219.376C448.652 223.793 450.811 227.099 452.446 227.701C454.08 228.303 464.453 224.823 472.867 224.004C481.282 223.186 490.416 216.498 490.416 216.498C490.416 216.498 500.47 212.894 502.212 206.839C503.955 200.784 500.058 167.468 500.058 167.468C500.058 167.468 497.108 151.95 488.796 156.162Z" fill="black"/>
<path d="M489.727 156.779C489.727 156.779 480.079 175.181 481.21 182.167C482.34 189.154 485.517 197.072 483.98 198.921C483.454 199.623 482.772 200.194 481.988 200.587C481.204 200.98 480.339 201.185 479.462 201.186C477.92 201.289 473.808 204.167 473.808 204.471C473.808 204.775 470.015 204.78 466.612 206.221C463.209 207.663 458.197 208.482 458.197 208.482C458.197 208.482 448.431 208.173 447.522 209.099C446.612 210.026 445.676 215.576 447.624 219.994C449.572 224.411 451.736 227.717 453.371 228.319C455.005 228.921 465.378 225.441 473.792 224.617C482.207 223.793 491.341 217.116 491.341 217.116C491.341 217.116 501.4 213.512 503.163 207.452C504.926 201.392 501.035 168.086 501.035 168.086C501.035 168.086 498.033 152.589 489.727 156.779Z" fill="white"/>
<path opacity="0.1" d="M489.516 206.134C489.516 206.134 481.806 204.589 484.489 207.163C487.172 209.738 487.157 211.993 490.441 211.89C493.726 211.787 489.516 206.134 489.516 206.134Z" fill="black"/>
<path opacity="0.1" d="M502.546 261.522C502.546 261.522 499.061 263.885 505.728 269.333C512.395 274.78 502.546 261.522 502.546 261.522Z" fill="black"/>
<path opacity="0.1" d="M495.895 280.948C495.895 281.257 494.661 292.275 499.277 295.029C503.893 297.784 495.895 280.948 495.895 280.948Z" fill="black"/>
<path d="M422.608 194.596C418.886 194.724 410.847 195.862 415.016 203.652C418.701 210.546 424.895 205.938 428.38 202.442C427.53 199.183 425.464 196.374 422.608 194.596Z" fill="#FFB0B1"/>
<path d="M428.426 202.38L428.58 202.221L428.426 202.38Z" fill="#FFB0B1"/>
<path opacity="0.1" d="M488.493 146.925C484.546 149.628 481.235 151.909 480.588 152.382C478.82 153.695 475.448 161.403 473.273 165.336C471.541 168.503 465.913 169.316 463.79 169.517L464.062 167.164C468.889 165.002 472.585 158.113 472.585 158.113L482.125 141.359L485.409 144.351C485.409 144.351 486.643 145.38 488.493 146.925Z" fill="black"/>
<path d="M488.493 146.616C484.546 149.319 481.235 151.6 480.588 152.079C478.82 153.387 475.448 161.094 473.273 165.027C471.541 168.194 465.913 169.007 463.79 169.208L464.062 166.855C468.889 164.693 472.585 157.804 472.585 157.804L482.125 141.051L485.409 144.032C485.409 144.032 486.643 145.051 488.493 146.616Z" fill="#DCE7FF"/>
<path d="M480.896 133.498C480.898 136.588 479.963 139.607 478.213 142.152C476.147 145.162 473.072 147.331 469.546 148.264C466.02 149.197 462.277 148.834 458.996 147.239C455.715 145.645 453.113 142.925 451.663 139.573C450.212 136.222 450.009 132.46 451.091 128.972C452.173 125.483 454.467 122.498 457.557 120.559C460.648 118.62 464.33 117.855 467.936 118.402C471.541 118.95 474.832 120.774 477.21 123.543C479.588 126.313 480.896 129.845 480.896 133.498Z" fill="#FFB0B1"/>
<path opacity="0.1" d="M507.501 184.855C505.414 183.568 503.714 181.739 502.582 179.562C501.724 177.863 501.153 175.901 499.688 174.696C498.367 173.615 496.604 173.353 494.959 172.869C489.552 171.267 485.018 166.325 484.849 160.682C484.767 158.025 485.594 155.374 485.219 152.743C485.006 151.254 484.414 149.845 483.502 148.65C483.049 148.078 482.552 147.543 482.017 147.049C481.297 146.369 480.541 145.71 479.883 144.989C479.469 144.543 479.107 144.051 478.804 143.522C478.56 143.089 478.361 142.632 478.213 142.157C477.185 139.006 478.12 135.269 476.99 132.082L476.928 131.907C476.501 130.774 475.633 129.641 474.425 129.554C473.217 129.466 472.184 130.47 471.032 130.918C468.622 131.855 466.021 130.259 464.011 128.632C462.001 127.005 459.734 125.146 457.18 125.507C455.489 125.749 454.152 126.902 452.595 127.499C452.243 127.636 451.88 127.741 451.51 127.813C452.828 124.521 455.25 121.791 458.359 120.093C461.468 118.394 465.071 117.834 468.548 118.507C472.025 119.18 475.16 121.045 477.413 123.782C479.666 126.518 480.898 129.955 480.896 133.503C480.898 134.574 480.786 135.642 480.562 136.69C480.588 136.762 480.613 136.829 480.644 136.901C481.24 138.445 481.914 140.031 482.505 141.401L485.409 144.037C485.409 144.037 486.643 145.066 488.493 146.611C492.518 150.009 499.472 155.992 503.06 159.652C506.216 162.886 507.203 175.417 507.501 184.855Z" fill="black"/>
<path d="M452.415 118.093C453.15 116.595 453.515 114.916 454.394 113.495C455.684 111.436 457.935 110.118 460.248 109.32C466.288 107.235 479.051 104.207 482.865 109.32C483.615 110.349 484.237 111.492 485.275 112.203C486.067 112.744 487.023 112.975 487.892 113.382C490.323 114.525 491.875 117.017 492.703 119.56C493.53 122.104 493.777 124.832 494.384 127.453C495.16 130.815 496.522 134.002 497.879 137.168C499.478 140.906 501.174 144.783 504.258 147.424C508.468 151.028 509.398 156.131 513.304 160.085C517.93 164.78 517.781 172.529 515.396 178.681C515.083 179.49 514.728 180.334 514.852 181.194C514.975 182.054 515.612 182.836 516.214 183.521L518.743 186.379C512.759 187.825 505.99 184.695 503.204 179.201C502.346 177.502 501.775 175.546 500.305 174.336C498.989 173.255 497.221 172.997 495.581 172.513C490.174 170.907 485.64 165.959 485.471 160.316C485.389 157.665 486.216 155.013 485.841 152.388C485.632 150.889 485.039 149.47 484.119 148.269C482.705 146.42 480.572 145.18 479.421 143.12C477.473 139.676 478.953 135.202 477.55 131.505C477.118 130.372 476.255 129.24 475.047 129.152C473.839 129.065 472.806 130.069 471.649 130.516C469.244 131.454 466.643 129.863 464.633 128.23C462.623 126.598 460.356 124.745 457.797 125.11C456.106 125.347 454.774 126.501 453.217 127.103C452.065 127.546 449.732 127.942 448.724 126.969C446.596 125.007 451.526 119.926 452.415 118.093Z" fill="#591D4B"/>
<path opacity="0.1" d="M504.633 177.503C503.769 175.803 503.204 173.847 501.734 172.642C500.418 171.561 498.65 171.298 497.005 170.815C491.603 169.213 487.069 164.266 486.895 158.623C486.812 155.971 487.64 153.314 487.27 150.689C487.054 149.199 486.462 147.79 485.548 146.596C484.129 144.747 481.996 143.506 480.85 141.447C478.902 138.008 480.382 133.534 478.974 129.832C478.547 128.704 477.678 127.572 476.476 127.479C475.273 127.386 474.229 128.401 473.078 128.848C470.672 129.785 468.066 128.189 466.062 126.562C464.057 124.936 461.78 123.077 459.225 123.437C457.534 123.679 456.198 124.833 454.646 125.43C453.494 125.873 451.156 126.274 450.148 125.301C448.03 123.242 452.96 118.17 453.844 116.348C454.579 114.844 454.944 113.171 455.828 111.75C455.874 111.673 455.926 111.596 455.977 111.518C455.316 112.067 454.745 112.717 454.286 113.444C453.407 114.865 453.042 116.533 452.307 118.042C451.418 119.864 446.488 124.951 448.611 126.995C449.639 127.973 451.952 127.572 453.104 127.129C454.646 126.526 455.992 125.373 457.683 125.136C460.254 124.771 462.515 126.629 464.52 128.256C466.524 129.883 469.146 131.479 471.541 130.542C472.693 130.094 473.7 129.085 474.934 129.178C476.167 129.271 476.99 130.398 477.437 131.531C478.84 135.228 477.36 139.702 479.308 143.146C480.459 145.169 482.592 146.436 484.006 148.295C484.926 149.495 485.519 150.915 485.728 152.413C486.103 155.039 485.275 157.691 485.358 160.342C485.527 166.006 490.061 170.933 495.468 172.539C497.098 173.023 498.876 173.281 500.192 174.362C501.667 175.572 502.248 177.528 503.091 179.227C505.877 184.721 512.646 187.851 518.629 186.404L517.437 185.055C512.251 185.133 507.003 182.177 504.633 177.503Z" fill="black"/>
<path opacity="0.1" d="M469.197 154.004C468.524 155.034 466.596 160.306 464.988 164.909C463.482 164.322 462.114 160.579 462.114 160.579L470.143 149.139C470.965 150.272 470.426 152.151 469.197 154.004Z" fill="black"/>
<path d="M469.506 153.695C468.832 154.725 466.905 159.997 465.296 164.6C463.79 164.018 462.423 160.27 462.423 160.27L470.451 148.835C471.274 149.963 470.734 151.847 469.506 153.695Z" fill="#DCE7FF"/>
<path d="M422.823 206.293L418.372 192.233C418.319 192.068 418.3 191.895 418.314 191.722C418.328 191.55 418.377 191.382 418.456 191.229C418.535 191.075 418.644 190.939 418.776 190.827C418.908 190.716 419.061 190.632 419.225 190.58C419.557 190.476 419.915 190.508 420.223 190.668C420.531 190.828 420.764 191.104 420.87 191.435L425.321 205.48L424.879 208.42L422.823 206.293Z" fill="#BE8B87"/>
<path opacity="0.1" d="M418.794 190.997C419.126 190.892 419.486 190.923 419.795 191.083C420.104 191.243 420.337 191.519 420.444 191.852L424.895 205.897L424.561 208.1L424.885 208.44L425.327 205.5L420.85 191.455C420.743 191.124 420.511 190.849 420.203 190.689C419.895 190.529 419.536 190.497 419.205 190.6C418.926 190.691 418.685 190.872 418.521 191.115C418.609 191.068 418.7 191.029 418.794 190.997Z" fill="white"/>
<path d="M422.823 206.293L425.322 205.5L424.957 207.91L424.879 208.44L424.15 207.678L422.823 206.293Z" fill="#EFC8C4"/>
<path d="M424.15 207.678C424.193 207.623 424.247 207.578 424.309 207.544C424.345 207.522 424.387 207.509 424.43 207.509C424.472 207.509 424.514 207.522 424.55 207.544C424.585 207.587 424.615 207.634 424.638 207.683C424.672 207.74 424.718 207.789 424.773 207.825C424.828 207.862 424.891 207.885 424.957 207.895L424.879 208.409L424.15 207.678Z" fill="#727A9C"/>
<path d="M418.346 197.227C418.346 197.227 427.275 197.175 425.172 200.98C423.07 204.785 419.786 205.243 419.786 205.243L418.346 197.227Z" fill="#FFB0B1"/>
<path d="M362.818 26.474H362.432C347.094 26.474 333.53 34.6036 325.727 46.5998C317.924 34.6036 304.36 26.474 289.022 26.474H288.636C277.126 26.5839 266.123 31.2395 258.02 39.4292C249.917 47.6189 245.368 58.6809 245.362 70.2112C245.362 84.5294 251.623 104.846 263.83 121.563C287.089 153.417 325.727 181.287 325.727 181.287C325.727 181.287 364.365 153.423 387.619 121.563C399.832 104.846 406.087 84.5294 406.087 70.2112C406.081 58.6818 401.533 47.6206 393.431 39.431C385.329 31.2415 374.328 26.5852 362.818 26.474ZM357.303 124.014C355.556 124.007 353.852 123.472 352.414 122.477C350.977 121.483 349.873 120.077 349.248 118.443H340.078C339.474 118.439 338.887 118.247 338.397 117.892C337.908 117.538 337.542 117.039 337.349 116.466L334.532 107.966L325.619 139.161C325.446 139.762 325.082 140.289 324.584 140.665C324.085 141.041 323.478 141.245 322.854 141.246H322.674C322.023 141.215 321.402 140.96 320.916 140.525C320.429 140.091 320.106 139.502 320.001 138.857L310.816 83.5203L304.103 116.265C303.949 116.887 303.591 117.44 303.087 117.835C302.583 118.229 301.962 118.444 301.322 118.443H288.405C288.018 118.46 287.631 118.397 287.269 118.26C286.906 118.123 286.575 117.914 286.295 117.645C286.015 117.377 285.793 117.054 285.641 116.697C285.489 116.34 285.41 115.956 285.41 115.568C285.41 115.179 285.489 114.795 285.641 114.438C285.793 114.081 286.015 113.759 286.295 113.49C286.575 113.221 286.906 113.012 287.269 112.875C287.631 112.738 288.018 112.676 288.405 112.692H299.06L308.57 68.6666C308.726 68.0157 309.103 67.4393 309.636 67.036C310.169 66.6327 310.826 66.4275 311.494 66.4554C312.162 66.4834 312.799 66.7428 313.297 67.1893C313.795 67.6359 314.122 68.2418 314.224 68.9035L323.604 125.352L331.592 97.442C331.758 96.8542 332.11 96.336 332.594 95.9649C333.079 95.5937 333.67 95.3894 334.28 95.3826H334.337C334.941 95.3828 335.529 95.574 336.019 95.929C336.508 96.2841 336.873 96.7847 337.061 97.3597L342.155 112.708H349.135C349.631 111.197 350.535 109.854 351.745 108.825C352.956 107.797 354.426 107.123 355.995 106.879C357.563 106.635 359.169 106.829 360.634 107.441C362.099 108.053 363.367 109.059 364.297 110.347C365.228 111.635 365.785 113.155 365.907 114.741C366.029 116.326 365.712 117.914 364.99 119.33C364.268 120.746 363.17 121.935 361.816 122.765C360.462 123.595 358.905 124.034 357.318 124.034L357.303 124.014Z" fill="#FE5172"/>
</g>
<defs>
<linearGradient id="paint0_linear" x1="183.157" y1="398.948" x2="183.157" y2="82.1353" gradientUnits="userSpaceOnUse">
<stop stop-color="#808080" stop-opacity="0.25"/>
<stop offset="0.54" stop-color="#808080" stop-opacity="0.12"/>
<stop offset="1" stop-color="#808080" stop-opacity="0.1"/>
</linearGradient>
<linearGradient id="paint1_linear" x1="114735" y1="239039" x2="114735" y2="76416.7" gradientUnits="userSpaceOnUse">
<stop stop-color="#808080" stop-opacity="0.25"/>
<stop offset="0.54" stop-color="#808080" stop-opacity="0.12"/>
<stop offset="1" stop-color="#808080" stop-opacity="0.1"/>
</linearGradient>
<clipPath id="clip0">
<rect width="568" height="403" fill="white"/>
</clipPath>
</defs>
</svg>
