<svg width="653" height="482" viewBox="0 0 653 482" fill="none" xmlns="http://www.w3.org/2000/svg">
<g clip-path="url(#clip0)">
<path opacity="0.1" d="M42.7388 188.919H99.4927V266.19H46.8885C46.7543 266.989 46.6201 267.782 46.4691 268.581H99.4927V330.887C99.4032 330.887 99.3138 330.82 99.2299 330.787C97.7385 330.195 96.2471 329.567 94.7558 328.904C94.437 328.759 94.1238 328.608 93.7994 328.469C92.3081 327.765 90.8167 327.02 89.3253 326.234C88.8052 325.961 88.2851 325.676 87.7762 325.385C79.4967 320.771 71.9717 314.92 65.4616 308.035C65.2659 307.851 65.0869 307.65 64.9024 307.476C63.9964 306.493 63.1071 305.499 62.2459 304.482C61.9215 304.108 61.6083 303.728 61.2895 303.365C60.2717 302.125 59.2874 300.84 58.3366 299.55C58.1912 299.354 58.057 299.164 57.9172 298.991C54.0225 293.608 50.7927 287.775 48.2979 281.619C48.2196 281.434 48.1469 281.233 48.0742 281.06C47.3024 279.105 46.6033 277.122 45.9993 275.1C45.742 274.256 45.4904 273.424 45.2779 272.547C45.1996 272.296 45.138 272.039 45.0709 271.787C41.9279 259.414 41.5644 246.555 41.5644 233.758C41.5644 232.268 41.5644 230.779 41.5644 229.289C41.6091 224.064 41.6706 218.845 41.7489 213.631C41.7787 212.291 41.8067 210.945 41.8328 209.593C41.9111 206.17 42.023 202.741 42.1684 199.303C42.2019 198.354 42.2467 197.399 42.297 196.454C42.3194 195.907 42.3473 195.36 42.3809 194.812C42.4816 192.835 42.6009 190.87 42.7388 188.919Z" fill="#008372"/>
<path opacity="0.1" d="M99.4927 102.883H68.3586C73.4219 94.976 78.9516 87.3768 84.9184 80.1257C89.549 74.4503 94.4258 68.9201 99.4927 63.5911V102.883Z" fill="#008372"/>
<path opacity="0.1" d="M99.4927 105.263V186.528H42.9178C42.9178 186.293 42.9513 186.053 42.9737 185.819C43.024 185.176 43.0744 184.539 43.1303 183.897C43.1862 183.148 43.2589 182.4 43.3316 181.663C43.4043 180.925 43.477 180.031 43.5665 179.221C43.656 178.411 43.7287 177.59 43.8182 176.78C43.9077 175.97 43.9972 175.16 44.0978 174.356C44.1985 173.552 44.288 172.736 44.3998 171.932C44.4837 171.267 44.5676 170.597 44.6627 169.926C44.7913 168.982 44.9255 168.038 45.0653 167.1C45.0653 166.955 45.1101 166.815 45.1325 166.675C46.1546 159.806 47.5435 152.996 49.2934 146.275C51.1309 139.226 53.4766 132.318 56.3121 125.607C59.3251 118.575 62.8543 111.775 66.871 105.263H99.4927Z" fill="#008372"/>
<path opacity="0.1" d="M113.049 188.919V266.19H234.275V188.919H113.049ZM113.049 268.581V334.943C113.743 335.082 114.425 335.222 115.113 335.339C116.036 335.518 116.964 335.68 117.909 335.82L118.468 335.898C118.838 335.959 119.212 336.01 119.587 336.054C120.521 336.188 121.455 336.289 122.383 336.378C122.82 336.423 123.273 336.456 123.714 336.496L124.794 336.574C125.381 336.618 125.963 336.652 126.544 336.674C126.902 336.674 127.26 336.702 127.624 336.713C127.987 336.725 128.183 336.713 128.474 336.713H129.531C130.012 336.713 130.493 336.713 130.968 336.713H131.583C132.064 336.713 132.545 336.713 133.02 336.669H133.048C133.384 336.669 133.714 336.669 134.05 336.63C134.145 336.635 134.24 336.635 134.335 336.63C134.614 336.63 134.894 336.63 135.162 336.596C135.226 336.591 135.289 336.591 135.353 336.596C135.973 336.557 136.6 336.507 137.232 336.451C137.864 336.395 138.462 336.328 139.094 336.261L140.364 336.105C145.551 335.379 150.681 334.289 155.715 332.842C167.029 329.692 178.086 325.284 189.394 322.061C204.002 317.9 220.154 315.85 234.269 320.916V268.581H113.049ZM234.275 102.883V0.0111251C221.004 -0.13471 207.769 1.41399 194.892 4.61958C164.194 12.3227 136.628 29.0304 113.049 50.369V102.877H119.151V105.263H113.049V186.528H234.275V105.263H144.111V102.872L234.275 102.883ZM390.018 68.1325C382.423 67.8644 374.873 65.468 368.039 61.7533C354.986 54.6646 344.55 43.7049 332.895 34.4656C308.679 15.2107 278.647 3.58617 247.837 0.70379V102.883H420.878L421.309 102.431L390.018 68.1325ZM405.784 65.3395L422.5 83.6672V60.5188C416.874 61.2282 411.975 62.8761 405.784 65.3172V65.3395ZM422.5 351.421V268.581H386.853C386.763 268.229 386.663 267.871 386.551 267.514C386.657 267.871 386.752 268.229 386.847 268.581H247.837V328.485C249.157 329.463 250.46 330.496 251.752 331.535C253.146 332.675 254.531 333.827 255.907 334.993L257.294 336.138C257.96 336.697 258.636 337.255 259.307 337.786C260.653 338.87 262.009 339.942 263.373 341.003C264.056 341.54 264.742 342.067 265.431 342.584C276.355 350.923 287.877 358.449 299.904 365.102C302.6 366.604 305.324 368.051 308.064 369.464C309.887 370.403 311.723 371.322 313.573 372.224C316.347 373.576 319.143 374.879 321.962 376.134C347.948 387.785 375.428 395.779 403.614 399.886C409.87 400.805 416.154 401.532 422.467 402.064V351.41H423.026L422.5 351.421ZM247.837 105.263V186.528H422.5V105.263H247.837ZM247.837 188.908V266.19H422.5V188.919L247.837 188.908ZM436.057 60.4071V86.2703L457.387 62.8817C450.318 61.7161 443.208 60.8912 436.057 60.4071ZM436.057 188.919V266.19H605.933V188.919H436.057ZM605.334 357.549L605.933 268.581H436.057V402.964C446.999 403.418 457.957 403.286 468.885 402.567H469.075C474.295 402.232 479.491 401.755 484.662 401.137H484.78C512.377 397.928 539.36 390.729 564.883 379.765L605.334 357.549ZM638.705 201.61C638.06 200.121 637.398 198.631 636.72 197.141C635.456 194.348 634.125 191.634 632.749 188.924H619.495V266.19H653C652.972 244.304 647.424 221.96 638.705 201.61ZM619.495 268.581V345.109C628.929 336.077 636.91 325.737 642.648 313.917C649.555 299.678 652.715 284.272 652.978 268.575L619.495 268.581ZM619.495 166.402V186.511H631.508C627.866 179.598 623.856 172.886 619.495 166.402ZM504.287 75.5731C503.403 75.2323 502.514 74.8916 501.625 74.5676C492.249 71.1066 482.667 68.2298 472.934 65.954L440.285 101.738L439.647 102.425L440.067 102.877H556.27C540.085 91.7536 522.635 82.588 504.287 75.5731ZM559.682 105.263H438.439L436.057 107.436V186.528H456.945H605.933V148.208C592.461 131.936 576.911 117.497 559.682 105.263Z" fill="#008372"/>
<path opacity="0.1" d="M99.4927 146.259V186.528H42.9178C42.9178 186.293 42.9513 186.053 42.9737 185.819C43.024 185.176 43.0744 184.539 43.1303 183.897C43.1862 183.149 43.2589 182.4 43.3316 181.663C43.4043 180.925 43.477 180.032 43.5665 179.222C43.656 178.412 43.7287 177.59 43.8182 176.78C43.9077 175.971 43.9972 175.161 44.0978 174.356C44.1985 173.552 44.288 172.736 44.3998 171.932C44.4837 171.267 44.5676 170.597 44.6627 169.926C44.7913 168.982 44.9255 168.038 45.0653 167.1C45.0653 166.955 45.1101 166.815 45.1325 166.675C46.1546 159.806 47.5435 152.996 49.2934 146.275L99.4927 146.259Z" fill="#008372"/>
<path opacity="0.1" d="M42.7388 188.919H99.4927V266.19H46.8885C46.7543 266.989 46.6201 267.782 46.4691 268.581H99.4927V330.887C99.4032 330.887 99.3138 330.82 99.2299 330.787C97.7385 330.195 96.2471 329.567 94.7558 328.904C94.437 328.759 94.1238 328.608 93.7994 328.469C92.3081 327.765 90.8167 327.02 89.3253 326.234C88.8052 325.961 88.2851 325.676 87.7762 325.385C79.4967 320.771 71.9717 314.92 65.4616 308.035C65.2659 307.851 65.0869 307.65 64.9024 307.476C63.9964 306.493 63.1071 305.499 62.2459 304.482C61.9215 304.108 61.6083 303.728 61.2895 303.365C60.2717 302.125 59.2874 300.84 58.3366 299.55C58.1912 299.354 58.057 299.164 57.9172 298.991C54.0225 293.608 50.7927 287.775 48.2979 281.619C48.2196 281.434 48.1469 281.233 48.0742 281.06C47.3024 279.105 46.6033 277.122 45.9993 275.1C45.742 274.256 45.4904 273.424 45.2779 272.547C45.1996 272.296 45.138 272.039 45.0709 271.787C41.9279 259.414 41.5644 246.555 41.5644 233.758C41.5644 232.268 41.5644 230.779 41.5644 229.289C41.6091 224.064 41.6706 218.845 41.7489 213.631C41.7787 212.291 41.8067 210.945 41.8328 209.593C41.9111 206.17 42.023 202.741 42.1684 199.303C42.2019 198.354 42.2467 197.399 42.297 196.454C42.3194 195.907 42.3473 195.36 42.3809 194.812C42.4816 192.835 42.6009 190.87 42.7388 188.919Z" fill="#008372"/>
<path opacity="0.1" d="M155.721 116.904V186.528H113.044V116.904H119.128V93.3311H144.105V116.904H155.721Z" fill="#008372"/>
<path opacity="0.1" d="M155.715 188.913H113.044V266.185H155.715V188.913Z" fill="#008372"/>
<path opacity="0.1" d="M113.049 268.581H155.721V332.82C150.687 334.267 145.557 335.356 140.369 336.077C139.944 336.138 139.525 336.188 139.1 336.233C138.473 336.306 137.852 336.373 137.232 336.428L135.358 336.579H135.168L134.34 336.624H134.055C133.72 336.624 133.39 336.663 133.054 336.669H133.026C132.545 336.669 132.07 336.702 131.589 336.713H130.974C130.498 336.713 130.023 336.713 129.536 336.713H128.485H127.629C127.266 336.713 126.908 336.713 126.544 336.669C125.97 336.646 125.388 336.613 124.799 336.568L123.72 336.49C123.273 336.456 122.825 336.412 122.383 336.367C121.444 336.285 120.512 336.179 119.587 336.049L118.468 335.892L117.909 335.814C116.975 335.674 116.047 335.518 115.113 335.339C114.419 335.216 113.737 335.077 113.049 334.931V268.581Z" fill="#008372"/>
<path opacity="0.1" d="M422.495 108.681H387.306V186.522H422.495V108.681Z" fill="#008372"/>
<path opacity="0.1" d="M422.5 188.913V266.19H247.837V232.858H340.87V252.521H387.306V188.913H422.5Z" fill="#008372"/>
<path opacity="0.1" d="M423.054 351.438C422.869 351.438 422.685 351.438 422.495 351.405V402.098C416.19 401.58 409.907 400.856 403.647 399.925C375.451 395.819 347.961 387.83 321.962 376.184C314.456 372.803 307.104 369.118 299.904 365.129C287.881 358.473 276.361 350.948 265.437 342.612C262.685 340.512 259.975 338.365 257.305 336.172C255.454 334.641 253.62 333.077 251.752 331.563C250.466 330.519 249.162 329.485 247.837 328.502V268.581H386.847C386.747 268.223 386.657 267.871 386.556 267.514C386.663 267.871 386.763 268.223 386.853 268.581H422.5V351.399C422.685 351.405 422.869 351.421 423.054 351.438Z" fill="#008372"/>
<path opacity="0.1" d="M514.275 102.883H491.345V95.7665H501.619V74.5676C502.51 74.8953 503.397 75.2305 504.281 75.5731V95.7665H514.269L514.275 102.883Z" fill="#008372"/>
<path opacity="0.1" d="M569.525 186.528H456.945C456.956 186.531 456.968 186.531 456.979 186.528H456.928H436.057V108.687H441.974V166.223H469.008V132.148H491.351V105.263H514.281V132.165H536.612V166.24H569.53L569.525 186.528Z" fill="#008372"/>
<path opacity="0.1" d="M436.057 188.919V266.19H569.53V188.919H436.057ZM605.742 357.142L605.932 295.975H569.53V268.603H436.057V402.964C446.999 403.418 457.957 403.286 468.885 402.567H469.075C474.295 402.232 479.491 401.755 484.662 401.137H484.78C512.377 397.929 539.36 390.729 564.883 379.765" fill="#008372"/>
<path opacity="0.1" d="M621.844 268.581H652.978C652.709 284.272 649.555 299.684 642.648 313.917C636.91 325.742 628.929 336.082 619.495 345.115V295.958H621.844V268.581Z" fill="#008372"/>
<path opacity="0.1" d="M653 266.19H621.844V201.61H638.705C647.424 221.96 652.972 244.304 653 266.19Z" fill="#008372"/>
<path opacity="0.1" d="M422.5 130.322H403.647V154.727H422.5V130.322Z" fill="#008372"/>
<path opacity="0.1" d="M422.5 180.908H403.647V186.528H422.5V180.908Z" fill="#008372"/>
<path opacity="0.1" d="M422.5 188.913H403.647V205.308H422.5V188.913Z" fill="#008372"/>
<path opacity="0.1" d="M422.5 231.495H403.647V255.901H422.5V231.495Z" fill="#008372"/>
<path opacity="0.1" d="M422.5 282.082H403.647V306.488H422.5V282.082Z" fill="#008372"/>
<path opacity="0.1" d="M422.5 351.399C422.685 351.399 422.869 351.399 423.059 351.438C422.875 351.438 422.69 351.438 422.5 351.405V357.074H403.647V332.669H422.5V351.399Z" fill="#008372"/>
<path opacity="0.1" d="M422.5 383.25V402.098C416.192 401.58 409.907 400.856 403.647 399.925V383.25H422.5Z" fill="#008372"/>
<path opacity="0.1" d="M328.634 264.397H247.837V266.19H328.634V264.397Z" fill="#008372"/>
<path opacity="0.1" d="M328.634 268.575H247.837V275.446H328.634V268.575Z" fill="#008372"/>
<path opacity="0.1" d="M328.634 297.969H247.837V309.018H328.634V297.969Z" fill="#008372"/>
<path opacity="0.1" d="M328.634 331.541V342.59H265.437C262.685 340.497 259.975 338.348 257.305 336.144C255.449 334.619 253.614 333.055 251.752 331.541H328.634Z" fill="#008372"/>
<path opacity="0.1" d="M328.634 365.107V376.184H321.962C314.456 372.803 307.104 369.118 299.904 365.13L328.634 365.107Z" fill="#008372"/>
<path opacity="0.1" d="M484.791 196.404H468.885V212.291H484.791V196.404Z" fill="#008372"/>
<path opacity="0.1" d="M140.408 122.384H124.503V138.27H140.408V122.384Z" fill="#008372"/>
<path opacity="0.1" d="M140.408 159.285H124.503V175.172H140.408V159.285Z" fill="#008372"/>
<path opacity="0.1" d="M140.408 196.186H124.503V212.073H140.408V196.186Z" fill="#008372"/>
<path opacity="0.1" d="M140.408 233.082H124.503V248.968H140.408V233.082Z" fill="#008372"/>
<path opacity="0.1" d="M140.408 269.983H124.503V285.87H140.408V269.983Z" fill="#008372"/>
<path opacity="0.1" d="M140.408 306.884H124.503V322.771H140.408V306.884Z" fill="#008372"/>
<path opacity="0.1" d="M545.51 196.404H529.604V212.291H545.51V196.404Z" fill="#008372"/>
<path opacity="0.1" d="M484.791 235.59H468.885V251.476H484.791V235.59Z" fill="#008372"/>
<path opacity="0.1" d="M545.51 235.59H529.604V251.476H545.51V235.59Z" fill="#008372"/>
<path opacity="0.1" d="M484.791 274.77H468.885V290.657H484.791V274.77Z" fill="#008372"/>
<path opacity="0.1" d="M545.51 274.77H529.604V290.657H545.51V274.77Z" fill="#008372"/>
<path opacity="0.1" d="M484.791 313.956H468.885V329.843H484.791V313.956Z" fill="#008372"/>
<path opacity="0.1" d="M545.51 313.956H529.604V329.843H545.51V313.956Z" fill="#008372"/>
<path opacity="0.1" d="M484.791 353.142H468.885V369.029H484.791V353.142Z" fill="#008372"/>
<path opacity="0.1" d="M545.51 353.142H529.604V369.029H545.51V353.142Z" fill="#008372"/>
<path opacity="0.1" d="M468.885 402.567V392.322H484.785V401.109L468.885 402.567Z" fill="#008372"/>
<path opacity="0.1" d="M45.0653 166.659V175.747H99.4927V166.659H45.0653ZM50.4846 175.177H46.0105V167.234H50.4846V175.177ZM55.9038 175.177H51.4297V167.234H55.9038V175.177ZM61.3119 175.177H56.8378V167.234H61.3119V175.177ZM66.7312 175.177H62.2571V167.234H66.7312V175.177ZM72.1448 175.177H67.6707V167.234H72.1448V175.177ZM77.5641 175.177H73.09V167.234H77.5641V175.177ZM82.9833 175.177H78.5092V167.234H82.9833V175.177ZM88.397 175.177H83.9229V167.234H88.397V175.177ZM93.8106 175.177H89.3365V167.234H93.8106V175.177ZM99.2299 175.177H94.7558V167.234H99.2299V175.177Z" fill="#008372"/>
<path opacity="0.1" d="M45.0653 193.114V202.202H99.4927V193.114H45.0653ZM50.4846 201.633H46.0105V193.689H50.4846V201.633ZM55.9038 201.633H51.4297V193.689H55.9038V201.633ZM61.3119 201.633H56.8378V193.689H61.3119V201.633ZM66.7312 201.633H62.2571V193.689H66.7312V201.633ZM72.1448 201.633H67.6707V193.689H72.1448V201.633ZM77.5641 201.633H73.09V193.689H77.5641V201.633ZM82.9833 201.633H78.5092V193.689H82.9833V201.633ZM88.397 201.633H83.9229V193.689H88.397V201.633ZM93.8106 201.633H89.3365V193.689H93.8106V201.633ZM99.2299 201.633H94.7558V193.689H99.2299V201.633Z" fill="#008372"/>
<path opacity="0.1" d="M45.0653 219.575V228.658H99.4927V219.575H45.0653ZM50.4846 228.082H46.0105V220.139H50.4846V228.082ZM55.9038 228.082H51.4297V220.139H55.9038V228.082ZM61.3119 228.082H56.8378V220.139H61.3119V228.082ZM66.7312 228.082H62.2571V220.139H66.7312V228.082ZM72.1448 228.082H67.6707V220.139H72.1448V228.082ZM77.5641 228.082H73.09V220.139H77.5641V228.082ZM82.9833 228.082H78.5092V220.139H82.9833V228.082ZM88.397 228.082H83.9229V220.139H88.397V228.082ZM93.8106 228.082H89.3365V220.139H93.8106V228.082ZM99.2299 228.082H94.7558V220.139H99.2299V228.082Z" fill="#008372"/>
<path opacity="0.1" d="M45.0653 246.03V255.113H99.4927V246.03H45.0653ZM50.4846 254.543H46.0105V246.589H50.4846V254.543ZM55.9038 254.543H51.4297V246.589H55.9038V254.543ZM61.3119 254.543H56.8378V246.589H61.3119V254.543ZM66.7312 254.543H62.2571V246.589H66.7312V254.543ZM72.1448 254.543H67.6707V246.589H72.1448V254.543ZM77.5641 254.543H73.09V246.589H77.5641V254.543ZM82.9833 254.543H78.5092V246.589H82.9833V254.543ZM88.397 254.543H83.9229V246.589H88.397V254.543ZM93.8106 254.543H89.3365V246.589H93.8106V254.543ZM99.2299 254.543H94.7558V246.589H99.2299V254.543Z" fill="#008372"/>
<path opacity="0.1" d="M45.3282 272.474C45.5407 273.335 45.7924 274.184 46.0496 275.027V273.05H50.5237V280.987H48.1245C48.1916 281.177 48.2643 281.373 48.3426 281.546H99.5151V272.474H45.3282ZM55.9542 280.987H51.4801V273.05H55.9542V280.987ZM61.3622 280.987H56.8881V273.05H61.3622V280.987ZM66.7815 280.987H62.3074V273.05H66.7815V280.987ZM72.1951 280.987H67.7211V273.05H72.1951V280.987ZM77.6144 280.987H73.1403V273.05H77.6144V280.987ZM83.0336 280.987H78.5596V273.05H83.0336V280.987ZM88.4473 280.987H83.9732V273.05H88.4473V280.987ZM93.861 280.987H89.3869V273.05H93.861V280.987ZM99.2802 280.987H94.8061V273.05H99.2802V280.987Z" fill="#008372"/>
<path opacity="0.1" d="M57.934 298.93C58.0794 299.108 58.2136 299.31 58.3534 299.488H61.3119V303.304L62.2682 304.421V299.466H66.7423V307.476H64.9024C65.0813 307.661 65.2547 307.856 65.4616 308.035H99.4815V298.93H57.934ZM72.1728 307.476H67.6987V299.499H72.1728V307.476ZM77.592 307.476H73.1179V299.499H77.592V307.476ZM83.0113 307.476H78.5372V299.499H83.0113V307.476ZM88.4249 307.476H83.9508V299.499H88.4249V307.476ZM93.8386 307.476H89.3645V299.499H93.8386V307.476ZM99.2578 307.476H94.7837V299.499H99.2578V307.476Z" fill="#008372"/>
<path opacity="0.1" d="M87.793 325.385C88.3075 325.675 88.8276 325.944 89.3477 326.229V325.949H93.8218V328.469C94.1462 328.608 94.4538 328.759 94.7726 328.904V325.949H99.2467V330.787C99.3317 330.825 99.4196 330.857 99.5095 330.882V325.385H87.793Z" fill="#008372"/>
<path opacity="0.1" d="M422.495 351.399H423.054H422.495ZM386.551 267.514C386.657 267.871 386.752 268.229 386.847 268.581C386.763 268.229 386.663 267.871 386.551 267.514ZM119.151 102.883V105.263H144.133V102.872L119.151 102.883ZM422.5 351.399H423.059H422.5ZM386.551 267.514C386.657 267.871 386.752 268.229 386.847 268.581C386.763 268.229 386.663 267.871 386.551 267.514ZM422.495 351.399H423.054H422.495ZM386.551 267.514C386.657 267.871 386.752 268.229 386.847 268.581C386.763 268.229 386.663 267.871 386.551 267.514Z" fill="#008372"/>
<path opacity="0.1" d="M491.832 482C521.928 482 546.326 478.086 546.326 473.258C546.326 468.43 521.928 464.516 491.832 464.516C461.735 464.516 437.337 468.43 437.337 473.258C437.337 478.086 461.735 482 491.832 482Z" fill="#008372"/>
<path opacity="0.1" d="M246.059 473.258C276.155 473.258 300.553 469.344 300.553 464.516C300.553 459.688 276.155 455.774 246.059 455.774C215.962 455.774 191.564 459.688 191.564 464.516C191.564 469.344 215.962 473.258 246.059 473.258Z" fill="#008372"/>
<path d="M308.797 233.355C308.783 233.3 308.754 233.25 308.713 233.21C307.879 232.389 297.253 217.379 297.253 217.379C297.253 217.379 296.694 215.704 295.788 213.525C296.079 213.15 296.297 212.723 296.431 212.268C296.48 212.075 296.516 211.879 296.538 211.682C296.538 211.62 296.582 211.57 296.599 211.509C296.793 210.751 296.774 209.954 296.543 209.207C296.481 209.399 296.404 209.586 296.314 209.766C296.103 209.115 295.822 208.489 295.475 207.9C294.066 205.476 292.052 203.431 290.57 201.068C288.326 197.397 287.434 193.059 288.048 188.801C288.048 189.019 288.048 189.243 288.048 189.461C288.104 188.616 288.216 187.776 288.383 186.947C288.617 186.003 288.93 185.08 289.317 184.187C290.649 181.143 292.802 178.49 294.11 175.434C294.55 174.404 294.883 173.331 295.106 172.233C295.567 170.4 295.735 168.505 295.604 166.619C295.604 167.066 295.531 167.513 295.464 167.954C295.322 163.42 293.489 159.103 290.324 155.85C285.755 151.263 279.195 149.482 272.92 148.543C270.283 148.236 267.765 147.276 265.594 145.75C263.183 144.192 260.068 143.817 257.249 144.158C254.01 144.508 250.999 145.994 248.754 148.353C245.773 151.627 244.481 156.263 241.003 159.022C238.894 160.698 236.221 161.48 233.766 162.62C231.311 163.759 228.99 165.413 228.201 167.86C228.201 167.86 228.201 167.826 228.201 167.809V167.949L228.168 168.038C227.351 170.932 228.928 173.876 229.75 176.764C230.606 179.752 230.662 182.908 230.707 185.997C230.768 189.773 230.824 193.555 230.763 197.337C230.735 198.823 230.684 200.325 230.573 201.806C229.249 202.205 227.963 202.721 226.73 203.347C225.478 204.163 220.791 209.218 220.791 209.218L211.625 244.198L211.748 244.338L211.625 244.812L212.089 244.706C213.386 246.103 217.262 250.08 221.445 252.56L221.837 259.42C221.837 259.42 222.307 266.302 228.643 269.145C228.789 271.53 229.242 281.216 227.144 285.054C225.692 287.858 225.009 290.995 225.165 294.148C225.165 294.148 225.897 299.969 225.064 303.03C224.577 305.076 224.541 307.203 224.958 309.264C224.958 309.264 224.958 309.94 224.958 311.102C224.958 317.296 225.03 337.149 224.958 339.395C224.851 342.048 224.958 381.29 224.958 381.29C224.958 381.29 224.437 400.902 222.771 406.215C221.104 411.527 221.524 429.117 221.524 429.117C221.524 429.117 220.478 450.07 224.175 454.204C224.175 454.388 224.141 454.578 224.135 454.763C224.135 454.846 224.135 454.941 224.135 455.025C224.091 456.617 224.398 458.31 225.769 458.829C228.565 459.902 232.262 463.119 232.961 464.041C233.66 464.963 237.726 467.258 243.027 466.644C246.349 466.271 249.691 466.118 253.033 466.186C253.033 466.186 255.124 465.806 254.447 463.209C254.011 461.589 252.378 459.097 251.215 457.461C251.427 457.516 251.634 457.561 251.83 457.6L252.031 457.639H252.188C252.274 457.645 252.36 457.645 252.445 457.639H252.557C252.661 457.648 252.766 457.648 252.87 457.639C254.274 457.505 259.509 459.941 260.443 461.55C261.377 463.158 264.671 464.382 267.154 464.689C268.63 464.868 272.355 464.566 275.481 464.164C277.056 464.001 278.615 463.718 280.146 463.315C280.884 463.035 281.04 462.142 280.828 461.136C280.577 459.859 279.894 458.707 278.893 457.874C277.987 457.232 276.79 455.539 275.906 454.154L275.671 453.779C277.232 452.293 280.05 447.434 280.906 446.428C281.946 445.205 279.228 400.466 279.228 400.466V378.039L283.395 356.812L286.309 345.578L288.809 328.619C288.809 328.619 293.182 308.811 291.834 306.867C291.834 306.828 290.716 286.434 289.541 281.535C289.032 279.351 289.161 274.435 289.463 269.653C289.778 269.34 289.999 268.944 290.098 268.511C290.197 268.078 290.17 267.626 290.022 267.207C289.939 266.92 289.83 266.642 289.698 266.374C289.698 266.291 289.698 266.201 289.698 266.117C292.114 265.007 294.638 264.15 297.231 263.559C301.398 262.743 300.357 260.598 300.357 260.598C300.357 260.598 301.297 258.761 301.918 257.638C302.538 256.515 302.024 246.605 301.918 245.79C301.878 245.46 301.621 243.639 301.325 241.572C302.661 240.623 304.401 239.444 306.297 238.327C309.904 236.193 309.093 233.942 308.797 233.355ZM254.436 374.978C254.436 374.978 251.31 382.943 252.563 384.982C253.815 387.021 252.356 394.59 252.356 394.59L251.31 405.823C251.31 405.823 248.396 426.659 249.436 431.558C250.253 435.401 250.555 446.881 250.65 451.668C250.578 451.696 250.509 451.729 250.443 451.768L250.303 451.841C250.784 449.959 250.583 446.149 248.195 438.485L247.994 406.829C247.994 406.829 247.624 370.263 250.516 366.174C253.407 362.085 254.431 355.142 254.431 355.142C254.431 355.142 253.804 365.157 253.396 367.811C252.988 370.464 254.436 374.978 254.436 374.978ZM248.614 453.662C248.586 453.729 248.553 453.796 248.53 453.858L248.374 453.656C248.454 453.664 248.534 453.666 248.614 453.662Z" fill="url(#paint0_linear)"/>
<path d="M280.498 466.208C278.882 466.828 270.118 467.884 267.668 467.588C265.219 467.292 261.975 466.052 261.052 464.432C260.13 462.812 254.956 460.365 253.569 460.522C253.001 460.539 252.434 460.459 251.892 460.287C250.935 459.998 250 459.639 249.095 459.215C248.969 458.51 248.99 457.788 249.157 457.092C249.189 456.952 249.23 456.814 249.28 456.679C249.606 455.762 250.282 455.011 251.159 454.589L251.36 454.494C251.748 454.327 252.153 454.203 252.568 454.126C256.964 453.282 275.101 454.975 275.101 454.975C275.101 454.975 275.61 455.885 276.309 457.014C277.181 458.41 278.367 460.114 279.262 460.756C280.253 461.603 280.926 462.761 281.169 464.041C281.382 465.03 281.225 465.935 280.498 466.208Z" fill="white"/>
<path opacity="0.1" d="M280.498 466.208C278.882 466.828 270.124 467.884 267.674 467.588C265.224 467.292 261.981 466.046 261.052 464.432C260.124 462.818 254.962 460.365 253.575 460.522C252.188 460.678 249.101 459.215 249.101 459.215C249.101 459.215 248.62 456.98 250.018 455.455L252.814 457.438C252.814 457.438 260.297 459.757 261.684 461.907C263.071 464.058 265.599 465.259 269.251 465.477C271.98 465.655 278.25 464.594 281.186 464.063C281.382 465.03 281.231 465.935 280.498 466.208Z" fill="black"/>
<path d="M253.726 469.057C250.427 468.993 247.128 469.148 243.849 469.521C238.598 470.135 234.588 467.845 233.889 466.901C233.19 465.957 229.571 462.767 226.792 461.65C225.433 461.125 225.114 459.416 225.176 457.818C225.176 457.734 225.176 457.639 225.176 457.556C225.227 456.544 225.377 455.539 225.623 454.556L247.384 454.092L249.269 456.645L249.56 457.036L250.706 458.595C250.706 458.595 251.226 459.276 251.908 460.27C253.061 461.946 254.671 464.421 255.102 466.058C255.79 468.677 253.726 469.057 253.726 469.057Z" fill="white"/>
<path opacity="0.1" d="M253.726 469.057C250.427 468.993 247.128 469.148 243.849 469.521C238.604 470.135 234.588 467.845 233.895 466.901C233.201 465.957 229.571 462.739 226.792 461.661C225.433 461.136 225.114 459.427 225.176 457.829C226.73 458.192 229.997 459.12 231.277 460.734C232.955 462.89 235.958 466.516 240.225 466.745C243.67 466.929 252.059 466.315 255.135 466.069C255.795 468.677 253.726 469.057 253.726 469.057Z" fill="black"/>
<path opacity="0.1" d="M251.137 454.567C250.885 456.433 250.108 456.936 249.548 457.047C249.412 457.074 249.271 457.074 249.134 457.047C249.061 457.042 248.988 457.031 248.916 457.014C248.916 457.014 229.376 461.326 225.427 457.835C225.327 457.745 225.234 457.648 225.148 457.544C225.199 456.532 225.349 455.528 225.595 454.545L247.356 454.081L249.241 456.634C249.567 455.717 250.242 454.967 251.12 454.545L251.137 454.567Z" fill="black"/>
<path opacity="0.1" d="M276.303 456.991C275.867 457.472 275.504 457.745 275.274 457.65C274.245 457.237 265.812 455.802 263.133 457.036C260.454 458.271 251.388 457.237 251.388 457.237C251.388 457.237 251.388 456.165 251.338 454.444C251.726 454.277 252.131 454.153 252.546 454.075C256.942 453.232 275.079 454.925 275.079 454.925C275.079 454.925 275.61 455.863 276.303 456.991Z" fill="black"/>
<path d="M289.066 330.636L286.594 347.696L283.719 359.002L279.603 380.374V402.997C279.603 402.997 282.276 448.009 281.247 449.238C280.218 450.467 276.309 457.466 275.28 457.059C274.251 456.651 265.817 455.21 263.138 456.438C260.46 457.667 251.394 456.645 251.394 456.645C251.394 456.645 251.187 439.178 250.158 434.245C249.129 429.313 252.009 408.349 252.009 408.349L253.038 397.048C253.038 397.048 254.481 389.44 253.245 387.384C252.009 385.329 255.096 377.329 255.096 377.329C255.096 377.329 253.659 372.799 254.073 370.129C254.487 367.459 255.096 357.387 255.096 357.387C255.096 357.387 254.073 364.381 251.215 368.487C248.357 372.592 248.721 409.388 248.721 409.388L248.922 441.228C254.073 458.086 248.922 456.438 248.922 456.438C248.922 456.438 229.381 460.756 225.433 457.26C221.485 453.763 222.614 431.754 222.614 431.754C222.614 431.754 222.206 414.08 223.85 408.74C225.494 403.399 226.015 383.664 226.015 383.664C226.015 383.664 225.908 344.199 226.015 341.534C226.093 339.3 226.015 319.296 226.015 313.046C226.015 311.884 226.015 311.197 226.015 311.197L228.375 305.343L256.338 301.846H269.715C269.715 301.846 289.849 306.571 291.929 308.61C291.974 308.644 292.012 308.686 292.041 308.733C293.389 310.705 289.066 330.636 289.066 330.636Z" fill="#008372"/>
<path opacity="0.1" d="M255.113 420.247C255.113 420.247 261.265 435.044 264.167 436.072C267.07 437.1 255.113 420.247 255.113 420.247Z" fill="black"/>
<path opacity="0.1" d="M257.389 442.032C257.389 442.032 278.16 443.06 277.953 445.322C277.746 447.585 257.389 442.032 257.389 442.032Z" fill="black"/>
<path opacity="0.1" d="M229.599 436.116C230.422 436.893 245.443 438.351 244.207 439.77C242.971 441.189 230.835 443.948 230.835 443.948L229.599 436.116Z" fill="black"/>
<path opacity="0.1" d="M227.133 410.588C227.133 411.203 230.22 430.318 231.048 431.139C231.876 431.96 238.66 432.782 238.66 432.782L227.133 410.588Z" fill="black"/>
<path d="M249.532 149.309C246.584 152.599 245.309 157.263 241.875 160.045C239.789 161.721 237.149 162.519 234.722 163.659C232.295 164.799 229.89 166.536 229.169 169.117C228.363 172.021 229.918 174.987 230.735 177.892C231.579 180.897 231.63 184.037 231.68 187.182C231.736 190.986 231.797 194.79 231.73 198.594C231.63 204.521 231.137 210.721 227.989 215.743C239.359 219.357 251.45 219.849 263.373 220.312C265.665 220.476 267.966 220.418 270.247 220.139C272.222 219.746 274.177 219.252 276.102 218.659C279.909 217.653 283.831 217.151 287.768 217.167C289.485 217.167 291.236 217.274 292.891 216.827C294.547 216.38 296.14 215.235 296.588 213.581C296.985 212.095 296.403 210.514 295.643 209.179C294.256 206.744 292.287 204.711 290.8 202.309C289.281 199.771 288.38 196.914 288.169 193.965C287.958 191.016 288.444 188.06 289.586 185.333C290.906 182.266 293.031 179.596 294.328 176.524C295.657 173.225 296.011 169.615 295.347 166.121C294.682 162.628 293.029 159.399 290.581 156.816C286.068 152.202 279.592 150.415 273.395 149.465C270.786 149.157 268.297 148.196 266.158 146.672C263.782 145.108 260.7 144.728 257.915 145.074C254.702 145.434 251.726 146.937 249.532 149.309Z" fill="#3F3D56"/>
<g opacity="0.1">
<path opacity="0.1" d="M289.759 182.109C288.619 184.801 288.13 187.724 288.333 190.639C288.458 188.554 288.941 186.506 289.759 184.584C291.074 181.517 293.199 178.847 294.496 175.775C295.557 173.21 296.003 170.432 295.799 167.664C295.684 169.604 295.244 171.511 294.496 173.306C293.199 176.378 291.074 179.043 289.759 182.109Z" fill="black"/>
<path opacity="0.1" d="M231.848 186.422C231.881 188.612 231.915 190.807 231.92 192.997C231.92 189.98 231.892 186.969 231.848 183.959C231.803 180.836 231.747 177.674 230.903 174.663C230.343 172.753 229.516 170.815 229.225 168.887C228.727 171.625 230.142 174.401 230.903 177.132C231.747 180.115 231.803 183.299 231.848 186.422Z" fill="black"/>
<path opacity="0.1" d="M293.081 213.631C291.403 214.084 289.681 213.983 287.964 213.972C284.03 213.947 280.109 214.439 276.303 215.436C274.378 216.026 272.424 216.518 270.448 216.91C268.166 217.193 265.862 217.253 263.569 217.089C252.048 216.637 240.365 216.151 229.331 212.861C229.003 213.591 228.63 214.3 228.212 214.983C239.582 218.592 251.674 219.089 263.591 219.553C265.885 219.717 268.189 219.657 270.47 219.374C272.439 218.985 274.386 218.495 276.303 217.905C280.101 216.905 284.014 216.407 287.942 216.424C289.659 216.424 291.404 216.531 293.059 216.078C294.714 215.626 296.308 214.492 296.756 212.838C296.944 212.072 296.925 211.27 296.7 210.514C296.202 212.078 294.664 213.168 293.081 213.631Z" fill="black"/>
</g>
<path d="M276.516 207.012C276.102 207.939 274.357 215.949 273.943 216.771C273.529 217.592 271.27 230.736 271.063 231.473C270.856 232.21 256.17 228.39 256.17 228.39L247.328 220.988L238.24 211.955C238.24 211.955 237.972 203.806 244.666 201.191C245.121 201.013 245.588 200.867 246.064 200.756C254.185 198.806 253.368 174.144 253.368 174.144L270.034 181.333C270.034 181.333 266.947 195.723 267.053 198.499C267.081 199.432 267.814 200.013 268.77 200.365C270.249 200.785 271.788 200.951 273.323 200.856C273.323 200.856 276.93 206.09 276.516 207.012Z" fill="#FBBEBE"/>
<path d="M306.353 234.037L308.718 234.657C308.718 234.657 310.469 237.316 306.353 239.791C303.739 241.376 301.23 243.128 298.842 245.036L286.678 248.734L284.334 241.388L295.654 232.808L306.353 234.037Z" fill="#008372"/>
<path opacity="0.1" d="M306.353 234.037L308.718 234.657C308.718 234.657 310.469 237.316 306.353 239.791C303.739 241.376 301.23 243.128 298.842 245.036L286.678 248.734L284.334 241.388L295.654 232.808L306.353 234.037Z" fill="black"/>
<path d="M217.581 241.131L212.85 245.756C212.85 245.756 221.384 255.621 227.95 256.236C234.515 256.85 238.749 248.734 238.749 248.734L233.067 239.796L217.581 241.131Z" fill="#008372"/>
<path opacity="0.1" d="M217.581 241.131L212.85 245.756C212.85 245.756 221.384 255.621 227.95 256.236C234.515 256.85 238.749 248.734 238.749 248.734L233.067 239.796L217.581 241.131Z" fill="black"/>
<path opacity="0.1" d="M262.523 190.259C271.613 190.259 278.982 182.899 278.982 173.82C278.982 164.74 271.613 157.38 262.523 157.38C253.433 157.38 246.064 164.74 246.064 173.82C246.064 182.899 253.433 190.259 262.523 190.259Z" fill="black"/>
<path d="M262.523 189.025C271.613 189.025 278.982 181.665 278.982 172.585C278.982 163.506 271.613 156.146 262.523 156.146C253.433 156.146 246.064 163.506 246.064 172.585C246.064 181.665 253.433 189.025 262.523 189.025Z" fill="#FBBEBE"/>
<path opacity="0.1" d="M292.052 310.599C288.304 311.027 284.613 311.853 281.04 313.062C274.888 315.107 226.68 313.096 226.009 313.062C226.009 311.9 226.009 311.213 226.009 311.213L228.369 305.359L256.332 301.862H269.71C269.71 301.862 289.843 306.588 291.924 308.627C292.008 309.856 292.052 310.599 292.052 310.599Z" fill="black"/>
<path opacity="0.1" d="M276.516 207.012C276.102 207.939 274.357 215.949 273.943 216.771C273.529 217.592 271.27 230.736 271.063 231.473C270.856 232.21 256.17 228.39 256.17 228.39L247.328 220.988L238.24 211.955C238.24 211.955 237.972 203.805 244.666 201.191L261.287 220.279L268.77 200.365C270.249 200.785 271.788 200.951 273.323 200.856C273.323 200.856 276.93 206.09 276.516 207.012Z" fill="black"/>
<path d="M261.287 220.893L244.274 201.342C243.279 200.707 242.14 200.329 240.962 200.243C239.784 200.156 238.603 200.363 237.524 200.845C233.716 202.493 228.984 203.828 227.748 204.649C226.512 205.47 221.882 210.554 221.882 210.554L235.673 246.589L229.599 270.324C229.599 270.324 230.528 282.451 228.162 286.87C226.722 289.695 226.047 292.847 226.205 296.014C226.205 296.014 226.926 301.874 226.104 304.951C225.624 307.009 225.587 309.146 225.998 311.219C225.998 311.219 274.872 313.275 281.04 311.219C284.612 310.006 288.304 309.18 292.052 308.756C292.052 308.756 290.934 288.199 289.815 283.267C288.697 278.334 290.744 259.532 290.744 259.532L289.407 239.389L297.427 218.72C297.427 218.72 293.081 205.47 288.551 204.135C288.551 204.135 280.325 202.18 278.574 201.258C276.824 200.337 271.678 199.51 271.678 199.51L268.977 200.415L261.287 220.893Z" fill="#008372"/>
<path opacity="0.1" d="M285.024 238.708L249.224 236.277C248.318 236.215 247.534 236.899 247.472 237.804L243.629 294.26C243.567 295.165 244.252 295.948 245.158 296.01L280.957 298.441C281.863 298.503 282.648 297.819 282.709 296.914L286.553 240.458C286.614 239.553 285.93 238.77 285.024 238.708Z" fill="black"/>
<path d="M286.256 237.482L250.457 235.051C249.551 234.989 248.766 235.673 248.705 236.578L244.861 293.034C244.8 293.939 245.484 294.722 246.39 294.784L282.19 297.215C283.096 297.277 283.88 296.593 283.942 295.688L287.785 239.232C287.847 238.327 287.162 237.544 286.256 237.482Z" fill="#3F3D56"/>
<path d="M285.075 241.908L251.027 239.595L247.528 290.991L281.576 293.303L285.075 241.908Z" fill="white"/>
<path opacity="0.1" d="M282.022 255.026L254.21 253.082L253.667 260.824L281.479 262.768L282.022 255.026Z" fill="black"/>
<path opacity="0.1" d="M281.016 285.793L276.602 285.493L276.327 289.528L280.741 289.828L281.016 285.793Z" fill="black"/>
<path opacity="0.1" d="M276.662 276.055L254.07 274.521L253.795 278.555L276.387 280.09L276.662 276.055Z" fill="black"/>
<path d="M280.861 239.986L257.337 238.388L256.914 244.591L280.439 246.189L280.861 239.986Z" fill="#3F3D56"/>
<path opacity="0.1" d="M280.861 239.986L257.337 238.388L256.914 244.591L280.439 246.189L280.861 239.986Z" fill="black"/>
<path opacity="0.1" d="M263.345 309.465C263.345 309.465 263.138 339.886 255.113 357.354C255.113 357.354 264.788 334.334 264.788 333.412C264.788 332.49 270.135 322.827 268.703 319.95C267.271 317.073 263.345 309.465 263.345 309.465Z" fill="black"/>
<path opacity="0.1" d="M263.782 168.474C263.474 165.781 264.134 163.067 265.644 160.816C265.464 163.072 266.103 165.319 267.444 167.144C268.785 168.969 270.739 170.252 272.948 170.759C272.759 170.595 272.625 170.379 272.562 170.137C272.499 169.896 272.511 169.641 272.596 169.407C273.742 170.703 274.62 172.239 275.918 173.378C277.215 174.518 279.161 175.2 280.688 174.39C282.763 173.272 282.785 170.329 282.248 168.038C281.096 163.161 278.732 158.652 275.375 154.928C274.537 153.802 273.45 152.886 272.198 152.25C270.947 151.614 269.565 151.276 268.161 151.263C264.984 151.018 261.684 151.297 258.838 152.721C257.236 153.595 255.735 154.642 254.364 155.844L246.534 162.223C245.781 162.765 245.136 163.444 244.632 164.223C244.296 164.875 244.095 165.587 244.04 166.318C243.84 168.407 244.227 170.511 245.157 172.392C246.088 174.274 247.525 175.859 249.308 176.97C249.27 175.319 249.725 173.694 250.614 172.301C251.503 170.909 252.787 169.812 254.302 169.15C254.539 169.348 254.731 169.595 254.866 169.873C255 170.152 255.073 170.455 255.079 170.764L256.729 167.826C256.975 167.291 257.361 166.834 257.848 166.502C258.866 165.944 260.135 166.603 261.002 167.39C261.869 168.178 262.713 169.161 263.877 169.284L263.921 164.91" fill="black"/>
<path d="M263.782 167.86C263.473 165.165 264.133 162.449 265.644 160.196C265.141 164.664 268.513 169.278 272.953 170.139C272.765 169.977 272.63 169.761 272.567 169.52C272.504 169.28 272.516 169.026 272.601 168.792C273.748 170.088 274.626 171.619 275.923 172.764C277.221 173.909 279.167 174.585 280.694 173.77C282.769 172.652 282.791 169.709 282.254 167.424C281.102 162.546 278.738 158.038 275.381 154.314C274.339 153.045 273.026 152.026 271.539 151.331C270.462 150.933 269.33 150.703 268.183 150.649C265.006 150.403 261.707 150.677 258.86 152.101C257.259 152.978 255.759 154.027 254.386 155.23L246.556 161.609C245.802 162.15 245.157 162.828 244.655 163.609C244.318 164.26 244.116 164.972 244.062 165.703C243.862 167.792 244.25 169.894 245.18 171.775C246.111 173.656 247.548 175.24 249.33 176.35C249.294 174.699 249.749 173.075 250.638 171.683C251.527 170.29 252.81 169.193 254.324 168.53C254.561 168.729 254.752 168.976 254.886 169.254C255.02 169.532 255.094 169.836 255.102 170.144L256.746 167.217C256.99 166.682 257.377 166.224 257.865 165.893C258.882 165.335 260.152 165.994 261.019 166.782C261.886 167.569 262.73 168.547 263.893 168.675L263.938 164.296" fill="#3F3D56"/>
<path d="M271.578 271.553C270.14 270.827 246.372 274.53 246.372 274.53C246.372 274.53 242.457 273.413 232.994 271.86C223.531 270.307 222.927 261.068 222.927 261.068L221.893 242.573L225.086 239.78L238.766 248.717C238.766 248.717 238.978 253.236 238.766 254.052C238.632 254.61 238.274 255.275 238.307 255.728C238.318 255.85 238.368 255.966 238.451 256.057C238.534 256.148 238.645 256.209 238.766 256.23C239.694 256.465 252.345 258.509 252.345 258.509C252.345 258.509 281.667 256.504 288.976 266.369C289.555 267.093 289.994 267.919 290.268 268.804C292.08 275.547 272.881 272.195 271.578 271.553Z" fill="#FBBEBE"/>
<path opacity="0.1" d="M290.285 268.843C289.166 269.341 288.473 269.698 288.473 269.698C288.473 269.698 277.981 269.391 272.087 267.257C266.192 265.123 259.028 265.503 259.028 265.503C259.028 265.503 234.465 261.28 238.274 255.767C238.284 255.889 238.335 256.005 238.417 256.096C238.5 256.187 238.611 256.248 238.732 256.269C239.661 256.504 252.311 258.548 252.311 258.548C252.311 258.548 281.633 256.543 288.943 266.408C289.54 267.128 289.995 267.954 290.285 268.843Z" fill="black"/>
<path d="M300.486 236.299C300.486 236.299 301.929 246.471 302.029 247.298C302.13 248.125 302.65 258.085 302.029 259.219C301.409 260.353 300.486 262.196 300.486 262.196C300.486 262.196 301.515 264.352 297.399 265.179C293.283 266.006 288.451 268.464 288.451 268.464C288.451 268.464 277.953 268.156 272.092 266C266.231 263.844 259.028 264.252 259.028 264.252C259.028 264.252 227.849 258.906 241.227 252.381C254.604 245.857 264.067 254.694 264.067 254.694L278.982 253.772C278.982 253.772 284.541 250.376 286.085 250.689C287.175 250.827 288.282 250.649 289.273 250.175L289.379 239.383L300.486 236.299Z" fill="#FBBEBE"/>
<path opacity="0.1" d="M224.851 211.33L221.865 211.174L212.816 246.365C212.816 246.365 222.586 243.896 226.798 246.365C231.009 248.834 238.732 249.343 238.732 249.343L235.852 221.29L224.851 211.33Z" fill="black"/>
<path d="M224.851 210.71L221.865 210.553L212.816 245.745C212.816 245.745 222.586 243.276 226.798 245.745C231.009 248.214 238.732 248.723 238.732 248.723L235.852 220.67L224.851 210.71Z" fill="#008372"/>
<path opacity="0.1" d="M293.288 218.418L297.399 219.346C297.399 219.346 307.896 234.428 308.718 235.271C309.54 236.115 304.803 239.182 302.852 239.182C300.9 239.182 291.331 240.299 288.551 242.88C285.772 245.46 286.929 232.473 286.929 232.177C286.929 231.881 290.38 223.686 290.38 223.686L293.288 218.418Z" fill="black"/>
<path d="M293.288 217.804L297.399 218.726C297.399 218.726 307.896 233.836 308.718 234.657C309.54 235.478 304.803 238.567 302.852 238.567C300.9 238.567 291.331 239.685 288.551 242.265C285.772 244.846 286.929 231.859 286.929 231.563C286.929 231.266 290.402 223.044 290.402 223.044L293.288 217.804Z" fill="#008372"/>
<g opacity="0.1">
<path opacity="0.1" d="M265.616 160.246C265.592 159.817 265.601 159.388 265.644 158.961C264.792 160.237 264.207 161.671 263.921 163.178V164.474C263.921 164.474 263.921 164.446 263.921 164.43V164.737C263.921 165.642 263.921 166.552 263.893 167.457H263.815V167.876C263.815 167.731 263.815 167.591 263.787 167.446C262.669 167.267 261.869 166.329 261.036 165.58C260.202 164.832 258.899 164.117 257.881 164.692C257.394 165.022 257.007 165.48 256.763 166.016L255.102 168.943C255.094 168.635 255.021 168.332 254.887 168.055C254.753 167.777 254.561 167.532 254.324 167.334C252.809 167.996 251.526 169.093 250.636 170.486C249.747 171.878 249.293 173.504 249.33 175.155C247.802 174.198 246.524 172.893 245.601 171.345C244.678 169.798 244.137 168.054 244.023 166.256C243.926 168.263 244.366 170.26 245.299 172.04C246.232 173.82 247.624 175.32 249.33 176.384C249.294 174.733 249.749 173.108 250.638 171.716C251.527 170.324 252.81 169.227 254.324 168.563C254.561 168.762 254.752 169.009 254.886 169.287C255.02 169.565 255.094 169.869 255.102 170.178L256.746 167.251C256.99 166.715 257.377 166.257 257.865 165.927C258.882 165.368 260.152 166.027 261.019 166.815C261.886 167.602 262.73 168.58 263.893 168.709C263.893 167.278 263.908 165.852 263.938 164.43C264.213 162.937 264.783 161.515 265.616 160.246Z" fill="black"/>
<path opacity="0.1" d="M263.726 165.871C263.754 165.491 263.798 165.111 263.854 164.754L263.916 163.212C263.748 164.088 263.684 164.98 263.726 165.871Z" fill="black"/>
<path opacity="0.1" d="M280.694 172.535C279.167 173.351 277.221 172.669 275.923 171.53C274.626 170.39 273.748 168.854 272.601 167.558C272.516 167.792 272.505 168.047 272.567 168.288C272.63 168.53 272.765 168.746 272.953 168.91C272.842 168.91 272.735 168.854 272.629 168.826C273.748 170.111 274.637 171.619 275.923 172.736C277.209 173.853 279.167 174.557 280.694 173.742C282.22 172.926 282.657 171.016 282.522 169.155C282.422 170.619 281.896 171.887 280.694 172.535Z" fill="black"/>
<path opacity="0.1" d="M272.596 168.815C270.725 168.306 269.056 167.238 267.81 165.754C266.565 164.27 265.803 162.442 265.627 160.514C265.308 164.899 268.619 169.295 272.953 170.139C272.769 169.978 272.636 169.767 272.572 169.531C272.509 169.295 272.517 169.046 272.596 168.815Z" fill="black"/>
</g>
<path d="M541.176 260.113C541.176 260.113 538.972 259.805 538.972 256.605C538.972 253.404 537.395 247.41 537.395 247.41C537.395 247.41 536.03 236.981 534.146 235.327C532.261 233.674 529.839 223.965 529.839 223.965C529.839 223.965 529.425 218.698 528.581 217.564C527.736 216.43 526.596 213.654 524.912 209.693C523.229 205.733 516.227 203.018 516.227 203.018C516.227 203.018 503.537 195.667 499.941 193.27C499.612 193.072 499.305 192.84 499.024 192.578C498.398 191.762 495.668 191.745 495.668 191.745C495.383 189.941 495.109 187.874 495.02 186.003C495.02 185.802 495.02 185.601 495.02 185.4C499.03 183.032 502.05 179.299 503.526 174.887C503.593 174.675 503.649 174.457 503.711 174.239C503.956 174.163 504.183 174.036 504.375 173.867C504.568 173.698 504.723 173.489 504.829 173.256C505.148 172.535 505.159 171.697 505.562 171.021C506.032 170.228 506.926 169.804 507.631 169.211C509.409 167.698 509.868 165.156 509.784 162.849C509.728 160.972 509.426 159.084 509.544 157.224C509.544 157.067 509.544 156.911 509.577 156.755C509.611 156.481 509.65 156.196 509.7 155.928C509.974 154.543 510.573 153.235 510.908 151.861C511.244 150.487 511.277 148.94 510.494 147.756C509.348 146.018 506.96 145.672 504.863 145.521C502.486 145.32 500.389 145.577 498.839 143.605C498.129 142.575 497.328 141.611 496.446 140.723C496.133 140.432 493.09 138.572 493.09 138.455C490.113 137.072 486.736 136.813 483.583 137.723C482 138.181 480.518 138.93 478.913 139.304C475.468 140.119 471.497 139.237 468.567 141.209C466.934 142.326 465.955 144.108 465.038 145.834C464.292 147.257 463.535 148.681 462.767 150.107C461.525 152.448 460.273 154.827 459.753 157.419C459.644 157.985 459.575 158.559 459.546 159.134C459.546 159.341 459.546 159.548 459.546 159.754C459.546 159.844 459.546 159.933 459.546 160.022C459.546 160.212 459.546 160.402 459.579 160.581C459.613 160.76 459.579 160.81 459.618 160.927C459.658 161.045 459.669 161.307 459.702 161.486C459.736 161.665 459.803 161.983 459.87 162.223C459.87 162.329 459.937 162.43 459.971 162.536C460.004 162.642 460.094 162.91 460.166 163.095C460.239 163.279 460.245 163.29 460.289 163.385C460.373 163.581 460.474 163.771 460.575 163.944C460.619 164.016 460.653 164.089 460.698 164.162C460.851 164.423 461.023 164.673 461.212 164.91C462.403 166.402 464.171 167.351 465.474 168.748C465.474 168.804 465.474 168.86 465.474 168.915C465.474 169.066 465.474 169.217 465.474 169.373C465.554 172.488 466.394 175.536 467.923 178.253C469.451 180.969 471.621 183.271 474.243 184.958C474.243 185.171 474.271 185.388 474.282 185.606C474.391 187.263 474.371 188.925 474.221 190.578C473.992 190.311 473.707 190.098 473.386 189.955C473.065 189.812 472.716 189.742 472.364 189.751C472.124 189.739 471.883 189.76 471.648 189.813L471.598 189.774V189.824C470.367 190.125 468.852 191.405 467.403 195.041C467.403 195.041 462.996 200.002 459.641 199.795C456.285 199.588 447.79 204.962 447.79 204.962C447.79 204.962 439.502 210.33 437.723 215.804C436.729 218.909 435.535 221.947 434.15 224.898L423.876 245.969L421.991 262.727C421.991 262.727 423.037 270.162 422.83 271.301C422.623 272.441 427.131 282.663 427.131 282.663C427.131 282.663 442.024 308.795 448.109 310.135L448.545 309.834C448.806 309.965 449.082 310.067 449.367 310.135L450.62 309.258C450.697 310.24 450.664 311.228 450.519 312.202C449.686 314.788 450.838 331.625 452.303 334.926C453.768 338.227 453.248 381.519 453.248 381.519L453.041 385.334C453.041 385.334 453.041 385.457 453.092 385.669L453.041 386.574L453.192 386.652C453.349 387.866 453.298 389.098 453.041 390.294C452.516 391.97 452.303 396.702 452.303 396.702C452.303 396.702 448.109 423.447 450.1 428.821C452.091 434.195 453.774 440.083 453.774 440.083C453.774 440.083 455.871 446.786 453.875 447.903C451.878 449.02 446.224 451.003 447.376 453.791C448.439 456.371 452.471 463.287 453.069 464.298L453.019 464.857L452.197 473.755C452.33 474.93 452.649 476.076 453.142 477.151C454.043 479.095 455.787 481.101 459.121 480.883C459.68 480.844 460.323 480.782 460.955 480.698C467.045 479.877 474.539 477.163 474.539 477.163C474.151 476.917 473.796 476.622 473.482 476.286C473.183 475.996 472.946 475.648 472.785 475.264C472.625 474.88 472.544 474.467 472.549 474.051C472.638 472.426 469.601 464.711 468.841 462.806L468.667 462.382C468.667 462.382 475.591 455.148 474.439 448.746C474.439 448.746 466.777 444.278 469.299 441.82C471.821 439.362 476.329 432.324 476.329 432.324C476.329 432.324 476.536 405.986 476.329 402.059C476.113 399.327 476.243 396.58 476.715 393.881C476.799 393.479 476.9 393.082 477.006 392.685C480.497 393.212 484.023 393.479 487.553 393.484C488.844 393.484 490.148 393.458 491.468 393.406C491.468 393.778 491.485 394.18 491.519 394.612C491.809 401.137 492.352 412.583 492.794 416.834C493.42 422.922 496.882 439.351 496.882 439.351C496.882 439.351 490.277 443.579 498.034 454.02C498.034 454.02 498.034 457.796 497.52 458.349C496.97 460.14 496.527 461.963 496.194 463.806C495.87 465.767 495.735 467.761 496.261 468.789C497.52 471.258 505.07 471.057 505.07 471.057C505.13 471.043 505.192 471.034 505.254 471.029C506.679 470.879 508.12 471.014 509.492 471.426C510.865 471.838 512.141 472.52 513.246 473.431C516.115 475.733 526.998 474.727 532.898 473.99C535.208 473.694 536.752 473.431 536.752 473.431C536.826 473.17 536.853 472.897 536.83 472.627C536.769 471.18 535.633 468.007 527.938 465.175C527.938 465.175 520.701 460.315 520.802 456.081H520.639H519.806C520.332 456.064 520.701 456.064 520.701 456.064C520.701 456.064 517.865 445.736 519.023 444.892C520.181 444.049 516.713 432.603 516.713 432.603C516.713 432.603 514.728 413.387 514.616 412.046C514.624 410.891 514.801 409.743 515.142 408.639L514.616 398.098C514.616 398.098 514.516 394.596 514.616 393.456C514.605 392.467 514.527 391.48 514.381 390.501C514.331 390.11 514.281 389.702 514.225 389.3C516.937 388.613 518.699 387.982 518.699 387.982L518.386 351.31C520.69 346.841 521.115 337.032 521.104 330.083C521.104 325.614 520.902 322.307 520.902 322.307L524.051 317.174C524.051 317.174 524.778 311.029 523.626 309.683C523.117 309.074 523.346 308.443 523.766 307.923C523.986 307.743 524.22 307.578 524.465 307.432C524.437 307.393 524.413 307.352 524.392 307.309C524.612 307.125 524.846 306.959 525.091 306.812C525.091 306.812 523.973 305.08 524.974 304.348C525.913 304.985 526.752 305.493 527.39 305.856C527.345 306.264 527.3 306.499 527.3 306.499L527.569 305.94C528.184 306.286 528.559 306.499 528.559 306.499C528.559 306.499 533.491 296.684 533.385 295.243C533.279 293.802 536.741 287.702 536.741 287.702C536.741 287.702 537.16 284.495 539.05 283.155C540.941 281.814 540.516 272.1 540.516 272.1C540.516 272.1 541.041 267.039 542.3 264.978C543.558 262.917 541.176 260.113 541.176 260.113ZM446.794 255.806L446.89 258.146C446.33 257.247 445.928 256.605 445.928 256.605L446.794 255.806Z" fill="url(#paint1_linear)"/>
<path d="M528.849 302.253L527.641 307.393C527.641 307.393 517.966 302.449 516.227 296.193C514.488 289.936 519.141 287.551 519.141 287.551L528.162 291.361L528.849 302.253Z" fill="white"/>
<path opacity="0.1" d="M528.849 302.253L527.641 307.393C527.641 307.393 517.966 302.449 516.227 296.193C514.488 289.936 519.141 287.551 519.141 287.551L528.162 291.361L528.849 302.253Z" fill="black"/>
<path d="M474.551 477.157C474.551 477.157 465.602 480.441 459.451 480.855C456.184 481.073 454.468 479.073 453.584 477.146C453.104 476.083 452.791 474.952 452.656 473.794L453.466 464.94L453.891 460.231L466.961 456.835L468.813 462.494L468.986 462.918C469.724 464.812 472.711 472.487 472.621 474.09C472.614 474.505 472.691 474.917 472.848 475.301C473.004 475.685 473.237 476.033 473.533 476.325C473.835 476.644 474.177 476.924 474.551 477.157Z" fill="white"/>
<path d="M535.644 472.655C535.667 472.925 535.641 473.198 535.566 473.459C535.566 473.459 516.428 476.643 512.513 473.459C511.413 472.529 510.13 471.838 508.747 471.432C507.365 471.025 505.912 470.91 504.482 471.096C504.482 471.096 497.078 471.297 495.842 468.862C495.327 467.84 495.461 465.857 495.78 463.907C496.106 462.073 496.539 460.26 497.078 458.477L497.374 458.243L499.136 456.83L519.761 456.221H519.918C519.817 460.433 526.914 465.264 526.914 465.264C534.47 468.057 535.583 471.214 535.644 472.655Z" fill="white"/>
<path opacity="0.1" d="M535.65 472.655C535.67 472.926 535.641 473.198 535.566 473.459C535.566 473.459 516.428 476.643 512.519 473.459C511.418 472.528 510.134 471.837 508.75 471.43C507.366 471.023 505.913 470.91 504.482 471.096C504.482 471.096 497.072 471.297 495.836 468.862C495.327 467.839 495.456 465.856 495.775 463.901C498.627 464.186 503.129 464.896 504.896 466.594C507.569 469.163 512.1 471.733 514.873 471.94C517.066 472.074 530.102 472.487 535.65 472.655Z" fill="black"/>
<path opacity="0.1" d="M474.551 477.157C474.551 477.157 465.602 480.441 459.451 480.855C456.184 481.073 454.468 479.073 453.584 477.146C455.866 477.911 459.026 478.71 460.687 477.978C462.655 477.101 469.635 476.542 473.55 476.302C473.845 476.629 474.181 476.917 474.551 477.157Z" fill="black"/>
<path d="M487.828 212.442C480.445 209.576 470.949 200.108 473.32 195.684C473.844 194.566 474.157 193.362 474.243 192.131C474.396 190.459 474.418 188.778 474.31 187.103C474.144 184.358 473.813 181.626 473.32 178.92C473.32 178.92 496.367 179.439 495.025 182.83C494.634 183.83 494.567 185.556 494.678 187.483C494.79 189.41 495.064 191.606 495.355 193.455C495.752 195.985 496.161 197.924 496.161 197.924C496.161 197.924 494.746 199.895 493.924 200.002C493.101 200.108 498.42 216.547 487.828 212.442Z" fill="#CF6F80"/>
<path opacity="0.1" d="M468.964 462.89L468.79 463.08C461.9 454.757 453.567 465.136 453.567 465.136L453.444 464.912L453.869 460.203L466.939 456.807L468.79 462.466L468.964 462.89Z" fill="black"/>
<path opacity="0.1" d="M519.929 456.807C519.929 456.807 514.896 456.707 512.211 459.075C509.527 461.443 496.552 459.583 497.111 459.075C497.274 458.817 497.374 458.524 497.402 458.22L499.164 456.807L519.789 456.198C519.868 456.589 519.929 456.807 519.929 456.807Z" fill="black"/>
<path d="M477.537 391.445C477.163 392.371 476.878 393.331 476.687 394.311C476.221 396.995 476.091 399.728 476.301 402.444C476.508 406.354 476.301 432.558 476.301 432.558C476.301 432.558 471.877 439.546 469.405 442.01C466.934 444.473 474.439 448.897 474.439 448.897C475.557 455.271 468.779 462.466 468.779 462.466C461.889 454.143 453.556 464.516 453.556 464.516C453.556 464.516 449.026 456.695 447.896 453.902C446.767 451.109 452.32 449.182 454.272 448.043C456.224 446.903 454.171 440.222 454.171 440.222C454.171 440.222 452.527 434.363 450.569 429.017C448.612 423.671 452.728 397.065 452.728 397.065C452.728 397.065 452.941 392.333 453.45 390.686C453.704 389.496 453.755 388.272 453.601 387.066C453.567 386.658 453.528 386.323 453.5 386.088C453.472 385.854 453.45 385.753 453.45 385.753L453.528 385.619L456.324 380.413C456.324 380.413 478.879 388.166 477.537 391.445Z" fill="#008372"/>
<path d="M519.929 456.193C519.929 456.193 514.896 456.086 512.211 458.427C509.527 460.767 496.552 458.941 497.111 458.427C497.671 457.913 497.62 454.115 497.62 454.115C490.009 443.73 496.502 439.518 496.502 439.518C496.502 439.518 493.107 423.179 492.492 417.118C492.061 412.89 491.53 401.478 491.245 395.015C491.122 392.222 491.049 390.294 491.049 390.294L497.212 389.071L498.012 388.915L513.011 385.904C513.011 385.904 513.425 388.697 513.705 390.981C513.846 391.957 513.923 392.94 513.934 393.925C513.839 395.043 513.934 398.545 513.934 398.545L514.448 409.024C514.116 410.124 513.943 411.266 513.934 412.415C514.04 413.756 515.992 432.865 515.992 432.865C515.992 432.865 519.387 444.272 518.229 445.093C517.071 445.914 519.929 456.193 519.929 456.193Z" fill="#008372"/>
<path opacity="0.1" d="M495.025 182.847C494.634 183.847 494.567 185.573 494.678 187.5C491.591 189.357 488.043 190.306 484.44 190.239C480.837 190.172 477.326 189.091 474.31 187.12C474.144 184.375 473.813 181.642 473.32 178.937C473.32 178.937 496.367 179.456 495.025 182.847Z" fill="black"/>
<path d="M503.923 170.513C503.984 175.581 502.027 180.466 498.481 184.093C494.936 187.719 490.094 189.791 485.02 189.852C479.946 189.913 475.055 187.957 471.424 184.417C467.793 180.876 465.719 176.039 465.658 170.971C465.658 170.815 465.658 170.669 465.658 170.513C465.658 165.443 467.675 160.581 471.264 156.996C474.853 153.412 479.721 151.398 484.796 151.398C489.872 151.398 494.74 153.412 498.329 156.996C501.918 160.581 503.934 165.443 503.934 170.513H503.923Z" fill="#CF6F80"/>
<path opacity="0.1" d="M487.828 212.442C480.445 209.576 470.949 200.108 473.32 195.684C473.844 194.566 474.157 193.362 474.243 192.131L484.349 200.432L490.601 205.554L495.355 193.471C495.752 196.002 496.161 197.94 496.161 197.94C496.161 197.94 494.746 199.912 493.924 200.018C493.101 200.124 498.42 216.547 487.828 212.442Z" fill="black"/>
<path d="M513.962 249.125L505.523 390.73L494.516 391.451L466.011 309.342L470.686 211.861L471.676 191.265L484.349 201.66L490.601 206.783L495.495 194.343L504.594 202.264L513.962 249.125Z" fill="#008372"/>
<path opacity="0.1" d="M477.537 391.445C477.163 392.371 476.878 393.331 476.687 394.311C468.671 393.078 460.885 390.651 453.59 387.11L453.439 387.032L453.489 386.133V385.664L456.285 380.458C456.285 380.458 478.879 388.166 477.537 391.445Z" fill="black"/>
<path opacity="0.1" d="M497.397 394.333C495.349 394.683 493.284 394.92 491.211 395.043C491.088 392.25 491.015 390.323 491.015 390.323L497.212 389.071L497.397 394.333Z" fill="black"/>
<path opacity="0.1" d="M513.727 390.981C509.751 392.015 503.604 393.177 498.112 392.451L498.034 388.915L513.033 385.904C513.033 385.904 513.431 388.674 513.727 390.981Z" fill="black"/>
<path opacity="0.1" d="M498.012 393.099C475.082 397.009 454.082 385.798 454.082 385.798L454.283 381.999C454.283 381.999 454.803 338.937 453.36 335.635C451.917 332.334 450.793 315.615 451.61 313.062C452.426 310.51 448.629 271.966 448.629 271.966L448.014 256.325L425.481 247.181L435.548 226.217C436.907 223.278 438.076 220.255 439.049 217.167C440.799 211.721 448.925 206.375 448.925 206.375C448.925 206.375 457.258 201.035 460.552 201.236C463.846 201.437 468.164 196.51 468.164 196.51C471.352 188.394 474.237 192.041 474.237 192.041C474.237 192.432 474.237 192.041 474.081 193.242C472.962 202.152 492.167 230.306 492.441 230.808L494.293 275.307L496.144 331.619L498.012 393.099Z" fill="black"/>
<path d="M497.397 393.099C474.467 397.009 453.461 385.798 453.461 385.798L453.668 381.999C453.668 381.999 454.182 338.937 452.739 335.635C451.297 332.334 450.172 315.598 450.995 313.023C451.817 310.448 447.997 271.944 447.997 271.944L447.376 256.303L424.849 247.159L434.916 226.194C436.272 223.256 437.441 220.236 438.417 217.151C440.167 211.721 448.321 206.37 448.321 206.37C448.321 206.37 456.654 201.029 459.943 201.23C463.231 201.432 467.571 196.51 467.571 196.51C470.764 188.394 474.282 192.041 474.282 192.041C474.282 192.432 473.947 192.6 474.126 193.242C476.586 201.884 491.597 230.306 491.871 230.808L493.722 275.307L495.534 331.647L497.397 393.099Z" fill="white"/>
<path opacity="0.1" d="M491.217 232.065C488.75 231.037 475.686 216.14 475.686 216.14V212.749C475.211 211.632 472.381 212.313 470.093 213.095L471.078 192.5L472.196 193.427C474.64 202.063 490.948 231.568 491.217 232.065Z" fill="black"/>
<path d="M491.837 230.836C489.366 229.803 476.301 214.911 476.301 214.911V211.514C475.826 210.397 473.001 211.079 470.708 211.861L471.676 191.287L472.795 192.209C475.261 200.834 491.563 230.334 491.837 230.836Z" fill="white"/>
<path opacity="0.1" d="M454.082 305.13C454.389 305.13 470.026 303.488 470.026 303.488C470.026 303.488 479.495 322.089 478.874 326.608C478.253 331.127 477.129 335.138 473.32 334.429C469.512 333.719 452.823 334.987 452.823 334.987L454.082 305.13Z" fill="black"/>
<path d="M453.461 303.896C453.774 303.896 469.411 302.253 469.411 302.253C469.411 302.253 478.874 320.883 478.259 325.352C477.643 329.82 476.508 333.881 472.705 333.172C468.902 332.463 452.203 333.731 452.203 333.731L453.461 303.896Z" fill="white"/>
<path d="M465.245 295.187C465.245 295.187 479.595 302.896 479.903 305.242C480.21 307.588 472.599 304.214 470.955 303.801C469.872 303.544 468.77 303.372 467.661 303.287L456.693 303.583L465.245 295.187Z" fill="#CF6F80"/>
<path opacity="0.1" d="M487.207 233.026C488.041 233.026 488.717 232.351 488.717 231.518C488.717 230.685 488.041 230.01 487.207 230.01C486.373 230.01 485.697 230.685 485.697 231.518C485.697 232.351 486.373 233.026 487.207 233.026Z" fill="black"/>
<path d="M487.207 232.411C488.041 232.411 488.717 231.736 488.717 230.903C488.717 230.07 488.041 229.395 487.207 229.395C486.373 229.395 485.697 230.07 485.697 230.903C485.697 231.736 486.373 232.411 487.207 232.411Z" fill="#3F3D56"/>
<path opacity="0.1" d="M489.986 298.315C490.82 298.315 491.496 297.64 491.496 296.807C491.496 295.974 490.82 295.299 489.986 295.299C489.152 295.299 488.476 295.974 488.476 296.807C488.476 297.64 489.152 298.315 489.986 298.315Z" fill="black"/>
<path d="M489.986 297.695C490.82 297.695 491.496 297.02 491.496 296.187C491.496 295.354 490.82 294.679 489.986 294.679C489.152 294.679 488.476 295.354 488.476 296.187C488.476 297.02 489.152 297.695 489.986 297.695Z" fill="#3F3D56"/>
<path opacity="0.1" d="M488.717 265.671C489.551 265.671 490.227 264.996 490.227 264.163C490.227 263.33 489.551 262.654 488.717 262.654C487.883 262.654 487.207 263.33 487.207 264.163C487.207 264.996 487.883 265.671 488.717 265.671Z" fill="black"/>
<path d="M488.717 265.056C489.551 265.056 490.227 264.381 490.227 263.548C490.227 262.715 489.551 262.04 488.717 262.04C487.883 262.04 487.207 262.715 487.207 263.548C487.207 264.381 487.883 265.056 488.717 265.056Z" fill="#3F3D56"/>
<path d="M523.525 302.974C523.525 302.974 524.554 304.516 523.525 305.208C522.496 305.901 523.626 307.677 523.626 307.677C523.626 307.677 521.059 309.174 522.189 310.532C523.318 311.889 522.602 317.984 522.602 317.984L519.515 323.117C519.515 323.117 519.7 326.407 519.711 330.854C519.711 337.792 519.303 347.545 517.043 351.991L517.345 388.473C517.345 388.473 506.535 392.423 497.486 391.216L496.144 332.675C496.144 332.675 498.101 299.477 498.823 293.109C499.245 289.803 499.417 286.47 499.337 283.138C499.337 283.138 499.03 273.173 497.995 268.553C497.995 268.553 496.876 248.51 496.765 242.963C496.714 240.31 496.854 232.568 497.011 225.206C497.184 217.156 497.38 209.565 497.38 209.565L495.338 193.427C495.338 193.427 497.38 193.226 497.995 194.041C498.27 194.298 498.57 194.528 498.89 194.728C502.419 197.108 514.868 204.426 514.868 204.426C514.868 204.426 521.758 207.163 523.408 211.084C525.058 215.005 526.204 217.787 527.004 218.905C527.804 220.022 528.24 225.273 528.24 225.273C528.24 225.273 530.611 234.936 532.462 236.573C534.313 238.21 535.644 248.6 535.644 248.6L519.286 261.448C519.286 261.448 517.849 282.82 517.541 283.646C517.233 284.473 523.525 302.974 523.525 302.974Z" fill="white"/>
<path d="M524.146 302.974C524.146 302.974 525.169 304.516 524.146 305.208C523.123 305.901 524.241 307.677 524.241 307.677C524.241 307.677 521.674 309.175 522.804 310.532C523.934 311.889 523.218 317.984 523.218 317.984L520.142 323.117C520.142 323.117 520.326 326.407 520.343 330.854C520.343 337.792 519.935 347.545 517.675 351.991L517.983 388.474C517.983 388.474 507.172 392.423 498.124 391.216L496.787 332.675C496.787 332.675 498.739 299.477 499.466 293.109C499.889 289.803 500.059 286.47 499.975 283.138C499.975 283.138 499.667 273.173 498.638 268.553C498.638 268.553 497.52 248.51 497.402 242.964C497.352 240.31 497.492 232.568 497.648 225.206C497.822 217.156 498.017 209.565 498.017 209.565L495.322 193.209C495.322 193.209 498.017 193.209 498.638 194.041C498.911 194.301 499.211 194.532 499.533 194.728C503.056 197.108 515.505 204.426 515.505 204.426C515.505 204.426 522.379 207.163 524.057 211.084C525.734 215.006 526.853 217.787 527.653 218.905C528.452 220.022 528.889 225.273 528.889 225.273C528.889 225.273 531.26 234.936 533.111 236.573C534.962 238.21 536.299 248.6 536.299 248.6L519.94 261.448C519.94 261.448 518.503 282.82 518.19 283.646C517.877 284.473 524.146 302.974 524.146 302.974Z" fill="white"/>
<path opacity="0.1" d="M504.555 214.307L506.037 218.608L498.258 226.429C498.431 218.379 498.627 210.788 498.627 210.788L495.931 194.438C495.931 194.438 498.627 194.438 499.248 195.27C499.521 195.53 499.821 195.761 500.142 195.957L506.753 215L504.555 214.307Z" fill="black"/>
<path d="M503.923 213.073L505.405 217.368L497.631 225.189C497.799 217.139 498 209.548 498 209.548L495.299 193.192C495.299 193.192 498.001 193.192 498.616 194.024C498.89 194.283 499.19 194.513 499.511 194.712L506.16 213.771L503.923 213.073Z" fill="white"/>
<path opacity="0.1" d="M503.923 170.513C503.925 172.526 503.608 174.526 502.984 176.44C502.878 176.457 502.771 176.454 502.667 176.429C502.563 176.404 502.465 176.358 502.38 176.295C502.229 171.267 499.757 166.541 496.709 162.525C495.851 161.314 494.814 160.24 493.633 159.341C492.437 158.444 490.95 158.024 489.461 158.162C487.783 158.391 486.301 159.531 484.606 159.676C482.369 159.861 480.367 158.313 478.147 158.241C477.244 158.248 476.353 158.448 475.534 158.828C474.715 159.208 473.987 159.758 473.399 160.441C472.231 161.817 471.364 163.421 470.854 165.15C469.975 167.775 469.496 170.517 469.433 173.284C469.405 174.848 469.254 176.808 467.8 177.378C467.91 176.229 467.78 175.069 467.417 173.973C467.054 172.876 466.466 171.867 465.692 171.01L465.658 170.971C465.658 170.815 465.658 170.669 465.658 170.513C465.658 165.443 467.675 160.581 471.264 156.996C474.853 153.412 479.721 151.398 484.796 151.398C489.872 151.398 494.74 153.412 498.329 156.996C501.918 160.581 503.934 165.443 503.934 170.513H503.923Z" fill="black"/>
<path d="M492.738 140.164C489.832 138.799 486.526 138.54 483.443 139.438C481.894 139.896 480.434 140.639 478.863 141.013C475.507 141.823 471.592 140.946 468.712 142.907C467.112 144.024 466.151 145.789 465.256 147.51L463.019 151.761C461.799 154.09 460.569 156.459 460.06 159.022C459.551 161.586 459.859 164.458 461.486 166.525C462.666 168.022 464.422 168.966 465.709 170.379C466.481 171.24 467.067 172.253 467.429 173.351C467.791 174.45 467.921 175.612 467.812 176.764C469.266 176.205 469.411 174.233 469.445 172.669C469.507 169.902 469.986 167.161 470.865 164.536C471.376 162.806 472.242 161.202 473.41 159.827C473.998 159.142 474.726 158.591 475.545 158.211C476.364 157.83 477.255 157.629 478.158 157.62C480.395 157.699 482.403 159.246 484.617 159.056C486.295 158.916 487.783 157.777 489.472 157.548C490.961 157.407 492.449 157.827 493.644 158.726C494.826 159.623 495.862 160.697 496.714 161.91C499.768 165.932 502.245 170.636 502.391 175.68C503.023 176.138 503.934 175.535 504.247 174.82C504.561 174.105 504.572 173.267 504.969 172.585C505.427 171.798 506.306 171.373 506.993 170.781C508.738 169.278 509.175 166.748 509.107 164.452C509.04 162.156 508.593 159.827 509.029 157.57C509.292 156.19 509.885 154.889 510.209 153.52C510.534 152.152 510.573 150.616 509.807 149.437C508.688 147.711 506.334 147.364 504.281 147.202C501.949 147.001 499.863 147.258 498.375 145.298C497.675 144.276 496.889 143.315 496.026 142.426C495.719 142.13 492.738 140.287 492.738 140.164Z" fill="#512E4E"/>
<path opacity="0.1" d="M431.935 257.962L426.096 247.175L424.245 263.822C424.245 263.822 425.274 271.217 425.067 272.351C424.86 273.485 429.284 283.652 429.284 283.652C429.284 283.652 443.898 309.655 449.865 310.99L469.998 296.6L464.652 289.819C464.652 289.819 462.801 289.098 462.336 289.819C462.336 289.819 452.404 272.759 451.38 271.53C450.357 270.301 450.553 267.827 450.553 267.827C450.553 267.827 449.009 266.184 449.524 264.643C450.038 263.101 446.571 257.761 446.571 257.761L449.759 254.783L431.935 257.962Z" fill="black"/>
<path d="M426.404 245.941L424.86 247.175L423.009 263.822C423.009 263.822 424.038 271.218 423.831 272.352C423.624 273.486 428.054 283.652 428.054 283.652C428.054 283.652 442.662 309.655 448.629 310.99L468.796 296.6L463.444 289.819C463.444 289.819 461.593 289.098 461.128 289.819C461.128 289.819 451.201 272.759 450.172 271.53C449.143 270.302 449.35 267.827 449.35 267.827C449.35 267.827 447.807 266.185 448.321 264.643C448.836 263.101 445.335 257.761 445.335 257.761L448.523 254.784L426.404 245.941Z" fill="white"/>
<path opacity="0.1" d="M522.189 311.174C523.307 312.532 522.602 318.632 522.602 318.632L519.515 323.732C519.515 323.732 519.7 327.027 519.711 331.474L514.521 333.094C514.051 333.24 513.553 333.272 513.069 333.187C512.584 333.102 512.127 332.903 511.735 332.605C511.343 332.308 511.028 331.921 510.816 331.478C510.604 331.034 510.502 330.546 510.517 330.055L511.417 301.231L523.525 305.851C522.496 306.566 523.626 308.32 523.626 308.32C523.626 308.32 521.059 309.817 522.189 311.174Z" fill="black"/>
<path d="M522.804 310.56C523.922 311.912 523.218 318.011 523.218 318.011L520.142 323.117C520.142 323.117 520.326 326.407 520.343 330.854L515.058 332.502C514.599 332.645 514.112 332.677 513.639 332.595C513.165 332.512 512.718 332.318 512.334 332.027C511.951 331.737 511.643 331.359 511.436 330.926C511.229 330.492 511.128 330.016 511.143 329.535L512.044 300.611L524.146 305.242C523.111 305.957 524.241 307.711 524.241 307.711C524.241 307.711 521.674 309.202 522.804 310.56Z" fill="white"/>
<path d="M526.819 296.807C526.819 296.807 525.997 302.052 523.939 302.36C521.881 302.667 520.958 310.845 518.906 310.56C516.853 310.275 518.212 302.952 518.285 301.533C518.358 300.114 516.048 294.237 517.77 292.902C519.493 291.567 524.974 292.902 524.974 292.902L526.819 296.807Z" fill="#CF6F80"/>
<path opacity="0.1" d="M531.17 256.42L535.046 248.6C535.046 248.6 536.595 254.56 536.595 257.744C536.595 260.928 538.754 261.241 538.754 261.241C538.754 261.241 541.12 264.034 539.873 266.073C538.625 268.112 538.128 273.162 538.128 273.162C538.128 273.162 538.536 282.82 536.685 284.155C534.834 285.49 534.42 288.679 534.42 288.679C534.42 288.679 531.025 294.74 531.131 296.181C531.237 297.623 526.4 307.381 526.4 307.381C526.4 307.381 528.766 295.254 514.98 290.015C514.98 290.015 514.873 285.903 515.902 284.775C516.931 283.646 518.537 283.099 517.53 277.424C516.523 271.748 517.239 264.905 517.239 263.537C517.239 262.168 520.326 253.638 520.326 253.638L531.17 256.42Z" fill="black"/>
<path d="M532.893 247.482L536.282 248.6C536.282 248.6 537.831 254.56 537.831 257.744C537.831 260.928 539.99 261.241 539.99 261.241C539.99 261.241 542.356 264.034 541.108 266.073C539.861 268.112 539.358 273.161 539.358 273.161C539.358 273.161 539.772 282.82 537.921 284.155C536.069 285.49 535.684 288.679 535.684 288.679C535.684 288.679 532.289 294.74 532.395 296.181C532.501 297.622 527.658 307.381 527.658 307.381C527.658 307.381 530.024 295.254 516.238 290.014C516.238 290.014 516.137 285.903 517.166 284.775C518.195 283.646 519.801 283.099 518.794 277.423C517.787 271.748 518.503 264.905 518.503 263.537C518.503 262.168 521.59 253.638 521.59 253.638L532.893 247.482Z" fill="white"/>
<path opacity="0.1" d="M458.019 450.182C458.019 450.182 463.421 446.791 466.967 449.255C470.513 451.718 458.019 450.182 458.019 450.182Z" fill="black"/>
<path opacity="0.1" d="M500.008 439.697C500.008 439.697 504.79 439.083 508.805 443.401C512.821 447.719 500.008 439.697 500.008 439.697Z" fill="black"/>
<g opacity="0.1">
<path opacity="0.1" d="M506.993 169.552C506.306 170.15 505.422 170.569 504.963 171.356C504.572 172.032 504.561 172.87 504.247 173.591C503.934 174.311 503.023 174.909 502.385 174.451C502.24 169.424 499.762 164.704 496.714 160.682C495.862 159.47 494.826 158.397 493.644 157.503C492.448 156.602 490.958 156.18 489.466 156.319C487.788 156.548 486.312 157.687 484.617 157.833C482.38 158.017 480.373 156.47 478.152 156.397C477.25 156.404 476.36 156.604 475.542 156.984C474.724 157.363 473.997 157.914 473.41 158.598C472.242 159.973 471.375 161.577 470.865 163.307C469.986 165.932 469.507 168.673 469.445 171.44C469.411 172.999 469.266 174.943 467.823 175.524C467.856 175.938 467.856 176.355 467.823 176.769C469.282 176.211 469.428 174.239 469.461 172.675C469.524 169.908 470.003 167.166 470.882 164.542C471.392 162.812 472.259 161.208 473.427 159.833C474.014 159.148 474.741 158.598 475.559 158.217C476.377 157.837 477.267 157.635 478.169 157.626C480.406 157.704 482.419 159.252 484.634 159.062C486.312 158.922 487.8 157.782 489.483 157.553C490.974 157.413 492.464 157.833 493.661 158.732C494.843 159.628 495.879 160.702 496.731 161.916C499.779 165.938 502.257 170.641 502.402 175.686C503.039 176.144 503.951 175.54 504.264 174.825C504.577 174.11 504.589 173.272 504.98 172.591C505.439 171.803 506.322 171.379 507.01 170.787C508.755 169.284 509.191 166.754 509.124 164.458C509.124 164.385 509.124 164.318 509.124 164.245C509.012 166.245 508.481 168.273 506.993 169.552Z" fill="black"/>
<path opacity="0.1" d="M465.703 169.161C464.422 167.748 462.666 166.798 461.486 165.301C460.49 163.98 459.922 162.385 459.859 160.732C459.683 162.799 460.261 164.86 461.486 166.536C462.666 168.033 464.422 168.977 465.703 170.39C466.94 171.772 467.684 173.524 467.817 175.373C467.901 174.249 467.757 173.119 467.394 172.052C467.031 170.984 466.456 170.001 465.703 169.161Z" fill="black"/>
<path opacity="0.1" d="M510.209 152.291C509.879 153.66 509.292 154.962 509.024 156.341C508.862 157.274 508.804 158.222 508.85 159.168C508.869 158.634 508.927 158.102 509.024 157.576C509.292 156.196 509.879 154.895 510.209 153.526C510.399 152.771 510.461 151.989 510.394 151.213C510.358 151.577 510.296 151.937 510.209 152.291Z" fill="black"/>
</g>
<path opacity="0.1" d="M74.2309 468.599C104.327 468.599 128.725 464.685 128.725 459.857C128.725 455.029 104.327 451.115 74.2309 451.115C44.1344 451.115 19.7364 455.029 19.7364 459.857C19.7364 464.685 44.1344 468.599 74.2309 468.599Z" fill="#008372"/>
<path d="M75.9869 292.383H72.4804V371.241H75.9869V292.383Z" fill="#535461"/>
<path d="M98.0275 371.006L97.8038 374.559L97.4962 379.586L97.3675 381.675L97.0543 386.703L96.9201 388.792L96.6125 393.819L93.0724 450.836C92.9214 453.289 91.8393 455.592 90.0466 457.276C88.254 458.959 85.8858 459.896 83.4251 459.896H65.0422C62.5747 459.897 60.2004 458.955 58.4064 457.263C56.6125 455.571 55.5349 453.257 55.3949 450.796L51.8548 393.78L51.5472 388.753L51.4186 386.664L51.0998 381.636L50.9711 379.547L50.6636 374.52L50.4399 370.967C50.4011 370.286 50.5016 369.604 50.735 368.963C50.9685 368.322 51.3301 367.735 51.7978 367.238C52.2655 366.741 52.8296 366.345 53.4557 366.072C54.0818 365.8 54.7568 365.658 55.4397 365.655H93.0332C93.7191 365.658 94.397 365.802 95.0252 366.077C95.6534 366.352 96.2187 366.753 96.6864 367.254C97.1541 367.755 97.5143 368.346 97.7449 368.992C97.9755 369.637 98.0717 370.322 98.0275 371.006Z" fill="#3F3D56"/>
<path d="M97.8037 374.553L97.4906 379.569H50.9711L50.658 374.553H97.8037Z" fill="#9D9CB5"/>
<path d="M97.3619 381.658L97.0543 386.675H51.413L51.0998 381.658H97.3619Z" fill="#9D9CB5"/>
<path d="M96.9201 388.77L96.6125 393.78H51.8548L51.5416 388.77H96.9201Z" fill="#9D9CB5"/>
<path d="M45.3282 321.944C65.7525 336.702 74.2588 359.784 74.2588 359.784C74.2588 359.784 49.6513 358.94 29.2214 344.182C8.7916 329.424 0.274044 306.359 0.274044 306.359C0.274044 306.359 24.8816 307.186 45.3282 321.944Z" fill="#008372"/>
<path d="M0.274044 306.359C0.274044 306.359 25.8155 320.52 34.0087 332.245C42.2019 343.97 74.2365 359.795 74.2365 359.795" stroke="#535461" stroke-width="2" stroke-miterlimit="10"/>
<path d="M58.4876 292.215C69.6058 300.242 74.2365 312.805 74.2365 312.805C74.2365 312.805 60.8142 312.347 49.724 304.32C38.6338 296.293 33.9752 283.725 33.9752 283.725C33.9752 283.725 47.3751 284.183 58.4876 292.215Z" fill="#008372"/>
<path d="M33.9752 283.725C33.9752 283.725 47.8784 291.433 52.3413 297.813C56.8042 304.192 74.2365 312.805 74.2365 312.805" stroke="#535461" stroke-width="2" stroke-miterlimit="10"/>
<path d="M90.3879 312.168C77.62 326.184 74.9187 344.5 74.9187 344.5C74.9187 344.5 92.9214 340.087 105.678 326.066C118.435 312.046 121.147 293.735 121.147 293.735C121.147 293.735 103.156 298.153 90.3879 312.168Z" fill="#008372"/>
<path d="M121.159 293.74C121.159 293.74 104.526 308.107 100.298 318.006C96.07 327.904 74.9187 344.5 74.9187 344.5" stroke="#535461" stroke-width="2" stroke-miterlimit="10"/>
</g>
<defs>
<linearGradient id="paint0_linear" x1="260.353" y1="466.745" x2="260.353" y2="144.069" gradientUnits="userSpaceOnUse">
<stop stop-color="#808080" stop-opacity="0.25"/>
<stop offset="0.54" stop-color="#808080" stop-opacity="0.12"/>
<stop offset="1" stop-color="#808080" stop-opacity="0.1"/>
</linearGradient>
<linearGradient id="paint1_linear" x1="106416" y1="302399" x2="106416" y2="90900.7" gradientUnits="userSpaceOnUse">
<stop stop-color="#808080" stop-opacity="0.25"/>
<stop offset="0.54" stop-color="#808080" stop-opacity="0.12"/>
<stop offset="1" stop-color="#808080" stop-opacity="0.1"/>
</linearGradient>
<clipPath id="clip0">
<rect width="653" height="482" fill="white"/>
</clipPath>
</defs>
</svg>
