<svg width="288" height="417" viewBox="0 0 288 417" fill="none" xmlns="http://www.w3.org/2000/svg">
<path fill-rule="evenodd" clip-rule="evenodd" d="M197.791 37.3818C234.73 30.6717 268.371 -12.4809 302.328 3.54144C334.639 18.7873 335.078 66.8525 335.983 102.587C336.722 131.797 313.512 154.531 306.872 182.984C299.229 215.736 318.095 256.736 294.435 280.624C270.996 304.29 231.038 291.274 197.791 293.118C162.05 295.1 124.794 308.325 93.0384 291.793C59.3786 274.27 31.0408 241.073 25.6323 203.493C20.4353 167.383 48.4648 136.629 66.1126 104.705C80.1642 79.286 91.7668 50.3122 117.618 37.0956C142.013 24.623 170.837 42.2784 197.791 37.3818Z" fill="#00BFA6" fill-opacity="0.16"/>
<path d="M153.343 234.217H88.853V306.37H153.343V234.217Z" fill="#CCCCCC"/>
<path d="M56.0221 414.892H23.1911L19.6735 386.735H59.5397L56.0221 414.892Z" fill="#E6E6E6"/>
<path d="M121.948 394.497L120.84 409.652C120.79 410.338 120.887 411.027 121.125 411.673C121.362 412.318 121.735 412.905 122.218 413.394C122.701 413.884 123.283 414.264 123.925 414.51C124.567 414.756 125.254 414.862 125.941 414.82L133.72 414.348C134.081 414.327 134.432 414.225 134.749 414.052C135.066 413.879 135.341 413.639 135.555 413.347C135.768 413.056 135.915 412.721 135.984 412.366C136.054 412.012 136.045 411.646 135.957 411.296L131.639 394.012L121.948 394.497Z" fill="#E6E6E6"/>
<path d="M187.021 403.459C196.177 405.602 202.718 408.648 207.015 412.771C208.545 414.228 210.547 415.087 212.657 415.191C215.352 415.333 217.555 415.031 219.211 414.291H219.211C219.635 414.104 220.002 413.806 220.272 413.43C220.543 413.053 220.708 412.611 220.75 412.149C220.8 411.68 220.724 411.206 220.529 410.776C220.335 410.346 220.029 409.976 219.643 409.705L197.928 394.245L188.704 397.937L186.552 400.09C186.319 400.323 186.144 400.607 186.039 400.92C185.934 401.232 185.903 401.565 185.949 401.891C185.994 402.218 186.115 402.529 186.301 402.801C186.487 403.073 186.734 403.299 187.021 403.459H187.021Z" fill="#E6E6E6"/>
<path d="M158.844 156.018L96.7737 155.443C96.9298 146.397 99.0332 137.515 103.631 129.566C106.651 124.345 106.586 118.664 105.858 113.877C104.735 106.491 107.346 98.9331 113.149 94.231C117.584 90.6314 123.181 88.7784 128.886 89.0212L130.092 89.0714C134.017 89.2346 137.839 90.3821 141.207 92.4085C144.574 94.4348 147.378 97.2751 149.363 100.669C151.379 104.291 152.193 108.462 151.685 112.577C151.292 116.45 152.233 120.361 154.435 124.31C158.234 132.982 159.057 144.078 158.844 156.018Z" fill="#2F2E41"/>
<path d="M200.372 395.051L188.19 398.231L128.869 268.921L132.577 395.051H120.395C107.378 335.71 83.8759 267.225 94.442 245.603L157.47 241.893L200.372 395.051Z" fill="#008372"/>
<path d="M128.34 134.312C137.408 134.312 144.759 126.957 144.759 117.883C144.759 108.81 137.408 101.455 128.34 101.455C119.272 101.455 111.92 108.81 111.92 117.883C111.92 126.957 119.272 134.312 128.34 134.312Z" fill="#FFB9B9"/>
<path d="M142.64 148.091L115.628 146.501C118.275 140.421 119.333 134.567 118.276 129.012H138.403C138.357 133.277 140.479 140.655 142.64 148.091Z" fill="#FFB9B9"/>
<path d="M159.589 246.663L100.268 250.903L106.359 145.706L116.687 142.791L128.34 145.441L139.992 139.611L147.407 142.262L159.589 246.663Z" fill="#008372"/>
<path d="M110.331 322.447L69.8132 313.173C81.8614 273.196 103.567 181.742 96.5606 149.151L117.747 139.611L110.331 322.447Z" fill="#E6E6E6"/>
<path d="M90.7345 206.916L75.3746 197.377L88.4739 158.99C89.9349 155.028 92.7332 151.703 96.3851 149.587L100.798 147.031L98.1496 185.718L90.7345 206.916Z" fill="#E6E6E6"/>
<path d="M194.811 313.703C182.022 321.106 150.055 325.232 136.019 320.062C134.987 283.943 132.961 181.775 139.462 138.552L162.767 148.091L160.648 176.709C149.507 201.189 181.859 286.457 194.811 313.703Z" fill="#E6E6E6"/>
<path d="M192.957 202.147L178.656 197.377L159.589 175.648L162.767 148.091L194.546 192.607L192.957 202.147Z" fill="#E6E6E6"/>
<path d="M148.139 222.774C148.373 223.802 149.005 224.694 149.896 225.256C150.786 225.819 151.864 226.004 152.891 225.773L165.03 223.022L163.276 215.269L151.136 218.02C150.109 218.253 149.216 218.884 148.654 219.776C148.092 220.668 147.907 221.746 148.139 222.774Z" fill="#FFB9B9"/>
<path d="M142.64 113.644C133.52 109.891 124.513 109.62 115.628 113.114L111.92 99.8647H145.818L142.64 113.644Z" fill="#2F2E41"/>
<path d="M159.059 213.806L165.945 226.525C177.526 223.293 187.563 213.104 197.194 201.087L194.546 192.607L178.127 196.847L159.059 213.806Z" fill="#E6E6E6"/>
<path d="M154.028 187.573H151.909C151.909 157.591 145.739 136.697 139.727 136.697L139.197 134.577C144.589 134.577 148.027 143.273 149.961 150.568C152.583 160.458 154.028 173.6 154.028 187.573Z" fill="#052018"/>
<path d="M105.3 180.153H103.181C103.181 152.695 109.393 135.637 118.541 135.637L118.011 137.757C111.684 137.757 105.3 150.866 105.3 180.153Z" fill="#052018"/>
<path d="M152.968 193.402C155.894 193.402 158.265 191.029 158.265 188.103C158.265 185.176 155.894 182.803 152.968 182.803C150.043 182.803 147.672 185.176 147.672 188.103C147.672 191.029 150.043 193.402 152.968 193.402Z" fill="#052018"/>
<path d="M96.8254 192.872H94.7068C94.7068 185.275 98.9836 179.093 104.24 179.093V181.213C100.152 181.213 96.8254 186.443 96.8254 192.872Z" fill="#052018"/>
<path d="M113.774 192.872H111.656C111.656 186.443 108.329 181.213 104.24 181.213V179.093C109.497 179.093 113.774 185.275 113.774 192.872Z" fill="#052018"/>
<path d="M112.715 195.522C113.885 195.522 114.834 194.573 114.834 193.402C114.834 192.231 113.885 191.282 112.715 191.282C111.545 191.282 110.596 192.231 110.596 193.402C110.596 194.573 111.545 195.522 112.715 195.522Z" fill="#052018"/>
<path d="M95.7661 195.522C96.9361 195.522 97.8847 194.573 97.8847 193.402C97.8847 192.231 96.9361 191.282 95.7661 191.282C94.596 191.282 93.6475 192.231 93.6475 193.402C93.6475 194.573 94.596 195.522 95.7661 195.522Z" fill="#052018"/>
<path d="M69.2836 173.909L82.5022 176.271L112.715 219.255L96.6641 215.476L69.2836 173.909Z" fill="#FEFEFE"/>
<path d="M66.939 173.383C66.7376 173.386 66.5407 173.443 66.3689 173.548C66.1971 173.653 66.0567 173.803 65.9624 173.981C65.8681 174.159 65.8234 174.359 65.8329 174.561C65.8424 174.762 65.9059 174.957 66.0165 175.126L94.2579 218C94.4155 218.239 94.6589 218.409 94.9381 218.475L108.078 221.568C108.299 221.621 108.532 221.604 108.744 221.521C108.956 221.438 109.137 221.293 109.265 221.104C109.392 220.916 109.459 220.693 109.457 220.465C109.455 220.237 109.384 220.015 109.253 219.829L78.2458 175.715C78.1617 175.595 78.0548 175.492 77.9311 175.414C77.8074 175.335 77.6694 175.281 77.525 175.256L67.1508 173.402C67.0809 173.389 67.0101 173.383 66.939 173.383Z" fill="#FE5172"/>
<path d="M84.556 204.037L85.3409 211.948L97.7267 210.718C98.7751 210.614 99.7392 210.097 100.407 209.282C101.075 208.466 101.391 207.419 101.287 206.37C101.183 205.321 100.667 204.356 99.8521 203.688C99.0372 203.02 97.9904 202.703 96.942 202.807L84.556 204.037Z" fill="#FFB9B9"/>
<path d="M73.7859 203.121C73.8039 205.818 74.8866 208.399 76.798 210.301C78.7095 212.203 81.2949 213.273 83.9907 213.276H86.0273L87.51 200.912L75.2337 196.49L73.7859 203.121Z" fill="#E6E6E6"/>
<path d="M14.7601 376.319C23.2139 387.647 40.7623 388.839 40.7623 388.839C40.7623 388.839 44.6044 371.665 36.1506 360.337C27.6969 349.009 10.1485 347.817 10.1485 347.817C10.1485 347.817 6.30632 364.991 14.7601 376.319Z" fill="#E6E6E6"/>
<path d="M57.8255 380.577C52.2471 388.052 40.6675 388.839 40.6675 388.839C40.6675 388.839 38.1322 377.506 43.7106 370.031C49.289 362.556 60.8687 361.77 60.8687 361.77C60.8687 361.77 63.404 373.102 57.8255 380.577Z" fill="#E6E6E6"/>
<path d="M304.6 414.691H0V416.005H304.6V414.691Z" fill="#FE5172"/>
</svg>
