<svg width="305" height="328" viewBox="0 0 305 328" fill="none" xmlns="http://www.w3.org/2000/svg">
<path d="M153.343 145.217H88.853V217.37H153.343V145.217Z" fill="#CCCCCC"/>
<path d="M56.022 325.892H23.191L19.6733 297.735H59.5396L56.022 325.892Z" fill="#E6E6E6"/>
<path d="M121.948 305.497L120.84 320.652C120.79 321.338 120.887 322.027 121.125 322.673C121.362 323.318 121.735 323.905 122.218 324.394C122.701 324.884 123.283 325.264 123.925 325.51C124.567 325.756 125.254 325.862 125.94 325.82L133.72 325.348C134.081 325.327 134.432 325.225 134.749 325.052C135.066 324.879 135.341 324.639 135.555 324.347C135.768 324.056 135.915 323.721 135.984 323.366C136.054 323.012 136.045 322.646 135.957 322.296L131.639 305.012L121.948 305.497Z" fill="#E6E6E6"/>
<path d="M187.021 314.459C196.177 316.602 202.718 319.648 207.015 323.771C208.545 325.228 210.547 326.087 212.657 326.191C215.352 326.333 217.555 326.031 219.211 325.291H219.211C219.635 325.104 220.002 324.806 220.272 324.43C220.543 324.053 220.708 323.611 220.75 323.149C220.8 322.68 220.724 322.206 220.529 321.776C220.335 321.346 220.028 320.976 219.643 320.705L197.928 305.245L188.704 308.937L186.552 311.09C186.319 311.323 186.143 311.607 186.039 311.92C185.934 312.232 185.903 312.565 185.949 312.891C185.994 313.218 186.115 313.529 186.301 313.801C186.487 314.073 186.733 314.299 187.021 314.459H187.021Z" fill="#E6E6E6"/>
<path d="M158.844 67.0184L96.7734 66.4434C96.9295 57.3975 99.033 48.5146 103.631 40.5658C106.651 35.3453 106.585 29.6638 105.858 24.8773C104.735 17.4907 107.346 9.93312 113.149 5.23103C117.584 1.63139 123.181 -0.221569 128.886 0.0211523L130.091 0.071394C134.017 0.234643 137.839 1.38212 141.206 3.40848C144.574 5.43483 147.378 8.27513 149.362 11.6686C151.379 15.2912 152.192 19.4617 151.685 23.5772C151.291 27.4496 152.233 31.3614 154.435 35.3104C158.234 43.982 159.056 55.0785 158.844 67.0184Z" fill="#2F2E41"/>
<path d="M200.372 306.051L188.19 309.231L128.869 179.921L132.577 306.051H120.395C107.378 246.71 83.876 178.225 94.4421 156.603L157.47 152.893L200.372 306.051Z" fill="#00855D"/>
<path d="M128.34 45.3119C137.408 45.3119 144.759 37.9565 144.759 28.8832C144.759 19.8099 137.408 12.4545 128.34 12.4545C119.272 12.4545 111.92 19.8099 111.92 28.8832C111.92 37.9565 119.272 45.3119 128.34 45.3119Z" fill="#FFB9B9"/>
<path d="M142.64 59.0908L115.628 57.501C118.275 51.4215 119.333 45.5672 118.276 40.0124H138.403C138.357 44.2774 140.478 51.655 142.64 59.0908Z" fill="#FFB9B9"/>
<path d="M159.589 157.663L100.269 161.903L106.359 56.7061L116.688 53.7912L128.34 56.4409L139.992 50.6112L147.407 53.2615L159.589 157.663Z" fill="#00855D"/>
<path d="M110.332 233.447L69.8135 224.173C81.8617 184.196 103.567 92.742 96.5608 60.1507L117.747 50.6115L110.332 233.447Z" fill="#E6E6E6"/>
<path d="M90.7344 117.916L75.3745 108.377L88.4737 69.9895C89.9347 66.0284 92.7331 62.7026 96.385 60.5871L100.798 58.0309L98.1495 96.7178L90.7344 117.916Z" fill="#E6E6E6"/>
<path d="M194.811 224.703C182.022 232.106 150.055 236.232 136.02 231.062C134.987 194.943 132.961 92.7753 139.462 49.5516L162.767 59.0908L160.648 87.7085C149.507 112.189 181.859 197.457 194.811 224.703Z" fill="#E6E6E6"/>
<path d="M192.957 113.147L178.656 108.377L159.589 86.6484L162.767 59.0906L194.546 103.607L192.957 113.147Z" fill="#E6E6E6"/>
<path d="M148.139 133.774C148.373 134.802 149.005 135.694 149.895 136.256C150.786 136.819 151.863 137.004 152.891 136.773L165.03 134.022L163.276 126.269L151.136 129.02C150.109 129.253 149.216 129.884 148.654 130.776C148.092 131.668 147.906 132.746 148.139 133.774Z" fill="#FFB9B9"/>
<path d="M142.64 24.6436C133.52 20.8913 124.513 20.6198 115.628 24.1136L111.92 10.8647H145.818L142.64 24.6436Z" fill="#2F2E41"/>
<path d="M159.06 124.806L165.945 137.525C177.526 134.293 187.563 124.104 197.194 112.087L194.546 103.607L178.127 107.847L159.06 124.806Z" fill="#E6E6E6"/>
<path d="M154.027 98.5727H151.909C151.909 68.5907 145.739 47.6967 139.727 47.6967L139.197 45.5769C144.589 45.5769 148.027 54.2728 149.961 61.568C152.583 71.4579 154.027 84.5997 154.027 98.5727Z" fill="#052018"/>
<path d="M105.3 91.1533H103.181C103.181 63.6946 109.393 46.6368 118.541 46.6368L118.011 48.7566C111.684 48.7566 105.3 61.8661 105.3 91.1533Z" fill="#052018"/>
<path d="M152.968 104.402C155.894 104.402 158.265 102.029 158.265 99.1026C158.265 96.1757 155.894 93.803 152.968 93.803C150.043 93.803 147.672 96.1757 147.672 99.1026C147.672 102.029 150.043 104.402 152.968 104.402Z" fill="#052018"/>
<path d="M96.8256 103.872H94.707C94.707 96.2745 98.9838 90.0933 104.241 90.0933V92.2132C100.152 92.2132 96.8256 97.4434 96.8256 103.872Z" fill="#052018"/>
<path d="M113.774 103.872H111.655C111.655 97.4434 108.329 92.2132 104.24 92.2132V90.0933C109.497 90.0933 113.774 96.2745 113.774 103.872Z" fill="#052018"/>
<path d="M112.715 106.522C113.885 106.522 114.833 105.573 114.833 104.402C114.833 103.231 113.885 102.282 112.715 102.282C111.545 102.282 110.596 103.231 110.596 104.402C110.596 105.573 111.545 106.522 112.715 106.522Z" fill="#052018"/>
<path d="M95.7661 106.522C96.9361 106.522 97.8847 105.573 97.8847 104.402C97.8847 103.231 96.9361 102.282 95.7661 102.282C94.596 102.282 93.6475 103.231 93.6475 104.402C93.6475 105.573 94.596 106.522 95.7661 106.522Z" fill="#052018"/>
<path d="M69.2837 84.9091L82.5023 87.2708L112.715 130.255L96.6642 126.476L69.2837 84.9091Z" fill="#FEFEFE"/>
<path d="M66.9389 84.3828C66.7375 84.3858 66.5406 84.443 66.3688 84.5482C66.197 84.6535 66.0566 84.803 65.9623 84.9811C65.868 85.1592 65.8233 85.3595 65.8328 85.5608C65.8423 85.7621 65.9057 85.9572 66.0164 86.1256L94.2578 129C94.4154 129.239 94.6588 129.409 94.9379 129.475L108.078 132.568C108.299 132.621 108.531 132.604 108.743 132.521C108.955 132.438 109.137 132.293 109.265 132.104C109.392 131.916 109.459 131.693 109.457 131.465C109.455 131.237 109.384 131.015 109.253 130.829L78.2457 86.7151C78.1616 86.5949 78.0547 86.4925 77.931 86.4137C77.8073 86.3349 77.6693 86.2812 77.5249 86.2558L67.1507 84.402C67.0808 84.3894 67.0099 84.383 66.9389 84.3828Z" fill="#FE5172"/>
<path d="M84.5562 115.037L85.3411 122.948L97.7268 121.718C98.7752 121.614 99.7393 121.097 100.407 120.282C101.075 119.466 101.392 118.419 101.287 117.37C101.183 116.321 100.667 115.356 99.8523 114.688C99.0374 114.02 97.9906 113.703 96.9422 113.807L84.5562 115.037Z" fill="#FFB9B9"/>
<path d="M73.7861 114.121C73.8041 116.818 74.8868 119.399 76.7983 121.301C78.7098 123.203 81.2951 124.273 83.9909 124.276H86.0276L87.5102 111.912L75.2339 107.49L73.7861 114.121Z" fill="#E6E6E6"/>
<path d="M14.7601 287.319C23.2139 298.647 40.7623 299.839 40.7623 299.839C40.7623 299.839 44.6044 282.665 36.1506 271.337C27.6969 260.009 10.1485 258.817 10.1485 258.817C10.1485 258.817 6.30632 275.991 14.7601 287.319Z" fill="#E6E6E6"/>
<path d="M57.8257 291.577C52.2473 299.052 40.6676 299.839 40.6676 299.839C40.6676 299.839 38.1323 288.506 43.7107 281.031C49.2891 273.556 60.8688 272.77 60.8688 272.77C60.8688 272.77 63.4041 284.102 57.8257 291.577Z" fill="#E6E6E6"/>
<path d="M304.6 325.691H0V327.005H304.6V325.691Z" fill="#FE5172"/>
</svg>
