<svg width="288" height="401" viewBox="0 0 288 401" fill="none" xmlns="http://www.w3.org/2000/svg">
<path fill-rule="evenodd" clip-rule="evenodd" d="M192.791 37.3818C229.73 30.6717 263.371 -12.4809 297.328 3.54144C329.639 18.7873 330.078 66.8525 330.983 102.587C331.722 131.797 308.512 154.531 301.872 182.984C294.229 215.736 313.095 256.736 289.435 280.624C265.996 304.29 226.038 291.274 192.791 293.118C157.05 295.1 119.794 308.325 88.0384 291.793C54.3786 274.27 26.0408 241.073 20.6323 203.493C15.4353 167.383 43.4648 136.629 61.1126 104.705C75.1642 79.286 86.7668 50.3122 112.618 37.0956C137.013 24.623 165.837 42.2784 192.791 37.3818Z" fill="#0026FF" fill-opacity="0.16"/>
<path d="M153.343 218.217H88.853V290.37H153.343V218.217Z" fill="#CCCCCC"/>
<path d="M56.022 398.892H23.191L19.6733 370.735H59.5396L56.022 398.892Z" fill="#E6E6E6"/>
<path d="M121.948 378.497L120.84 393.652C120.79 394.338 120.887 395.027 121.125 395.673C121.362 396.318 121.735 396.905 122.218 397.394C122.701 397.884 123.283 398.264 123.925 398.51C124.567 398.756 125.254 398.862 125.94 398.82L133.72 398.349C134.081 398.327 134.432 398.226 134.749 398.052C135.066 397.879 135.341 397.639 135.555 397.347C135.768 397.056 135.915 396.721 135.984 396.366C136.054 396.012 136.045 395.646 135.957 395.296L131.639 378.012L121.948 378.497Z" fill="#E6E6E6"/>
<path d="M187.021 387.459C196.177 389.602 202.718 392.648 207.015 396.771C208.545 398.228 210.547 399.087 212.657 399.191C215.352 399.333 217.555 399.031 219.211 398.291H219.211C219.635 398.104 220.002 397.806 220.272 397.43C220.543 397.053 220.708 396.611 220.75 396.149C220.8 395.68 220.724 395.206 220.529 394.776C220.335 394.346 220.028 393.976 219.643 393.705L197.928 378.245L188.704 381.937L186.552 384.09C186.319 384.323 186.143 384.607 186.039 384.92C185.934 385.232 185.903 385.565 185.949 385.891C185.994 386.218 186.115 386.529 186.301 386.801C186.487 387.073 186.733 387.299 187.021 387.459H187.021Z" fill="#E6E6E6"/>
<path d="M158.844 140.018L96.7737 139.443C96.9298 130.397 99.0332 121.515 103.631 113.566C106.651 108.345 106.586 102.664 105.858 97.8773C104.735 90.4907 107.346 82.9331 113.149 78.231C117.584 74.6314 123.181 72.7784 128.886 73.0212L130.092 73.0714C134.017 73.2346 137.839 74.3821 141.207 76.4085C144.574 78.4348 147.378 81.2751 149.363 84.6686C151.379 88.2912 152.193 92.4617 151.685 96.5772C151.292 100.45 152.233 104.361 154.435 108.31C158.234 116.982 159.057 128.078 158.844 140.018Z" fill="#2F2E41"/>
<path d="M200.372 379.051L188.19 382.231L128.869 252.921L132.577 379.051H120.395C107.378 319.71 83.876 251.225 94.4421 229.603L157.47 225.893L200.372 379.051Z" fill="#0026FF"/>
<path d="M128.34 118.312C137.408 118.312 144.759 110.957 144.759 101.883C144.759 92.81 137.408 85.4546 128.34 85.4546C119.272 85.4546 111.92 92.81 111.92 101.883C111.92 110.957 119.272 118.312 128.34 118.312Z" fill="#FFB9B9"/>
<path d="M142.64 132.091L115.628 130.501C118.275 124.422 119.333 118.567 118.276 113.012H138.403C138.357 117.277 140.478 124.655 142.64 132.091Z" fill="#FFB9B9"/>
<path d="M159.589 230.663L100.269 234.903L106.359 129.706L116.688 126.791L128.34 129.441L139.992 123.611L147.407 126.262L159.589 230.663Z" fill="#0026FF"/>
<path d="M110.331 306.447L69.8132 297.173C81.8614 257.196 103.567 165.742 96.5606 133.151L117.747 123.612L110.331 306.447Z" fill="#E6E6E6"/>
<path d="M90.7344 190.916L75.3745 181.377L88.4737 142.99C89.9347 139.028 92.7331 135.703 96.385 133.587L100.798 131.031L98.1495 169.718L90.7344 190.916Z" fill="#E6E6E6"/>
<path d="M194.811 297.703C182.022 305.106 150.055 309.232 136.02 304.062C134.987 267.943 132.961 165.775 139.462 122.552L162.767 132.091L160.648 160.708C149.507 185.189 181.859 270.456 194.811 297.703Z" fill="#E6E6E6"/>
<path d="M192.957 186.147L178.656 181.377L159.589 159.648L162.767 132.091L194.546 176.607L192.957 186.147Z" fill="#E6E6E6"/>
<path d="M148.139 206.774C148.373 207.802 149.005 208.694 149.895 209.257C150.786 209.819 151.863 210.005 152.891 209.773L165.03 207.023L163.276 199.27L151.136 202.02C150.109 202.253 149.216 202.884 148.654 203.776C148.092 204.668 147.906 205.746 148.139 206.774Z" fill="#FFB9B9"/>
<path d="M142.64 97.6436C133.52 93.8914 124.513 93.6199 115.628 97.1137L111.92 83.8647H145.818L142.64 97.6436Z" fill="#2F2E41"/>
<path d="M159.059 197.806L165.945 210.525C177.526 207.293 187.563 197.104 197.194 185.087L194.546 176.607L178.127 180.847L159.059 197.806Z" fill="#E6E6E6"/>
<path d="M154.027 171.573H151.909C151.909 141.591 145.739 120.697 139.727 120.697L139.197 118.577C144.589 118.577 148.027 127.273 149.961 134.568C152.583 144.458 154.027 157.6 154.027 171.573Z" fill="#052018"/>
<path d="M105.3 164.153H103.181C103.181 136.694 109.393 119.637 118.541 119.637L118.011 121.757C111.684 121.757 105.3 134.866 105.3 164.153Z" fill="#052018"/>
<path d="M152.968 177.402C155.894 177.402 158.265 175.029 158.265 172.103C158.265 169.176 155.894 166.803 152.968 166.803C150.043 166.803 147.672 169.176 147.672 172.103C147.672 175.029 150.043 177.402 152.968 177.402Z" fill="#052018"/>
<path d="M96.8254 176.872H94.7068C94.7068 169.274 98.9836 163.093 104.24 163.093V165.213C100.152 165.213 96.8254 170.443 96.8254 176.872Z" fill="#052018"/>
<path d="M113.774 176.872H111.656C111.656 170.443 108.329 165.213 104.24 165.213V163.093C109.497 163.093 113.774 169.274 113.774 176.872Z" fill="#052018"/>
<path d="M112.715 179.522C113.885 179.522 114.833 178.573 114.833 177.402C114.833 176.232 113.885 175.282 112.715 175.282C111.545 175.282 110.596 176.232 110.596 177.402C110.596 178.573 111.545 179.522 112.715 179.522Z" fill="#052018"/>
<path d="M95.7661 179.522C96.9361 179.522 97.8847 178.573 97.8847 177.402C97.8847 176.232 96.9361 175.282 95.7661 175.282C94.596 175.282 93.6475 176.232 93.6475 177.402C93.6475 178.573 94.596 179.522 95.7661 179.522Z" fill="#052018"/>
<path d="M69.2837 157.909L82.5023 160.271L112.715 203.255L96.6642 199.476L69.2837 157.909Z" fill="#FEFEFE"/>
<path d="M66.9389 157.383C66.7375 157.386 66.5406 157.443 66.3688 157.548C66.197 157.653 66.0566 157.803 65.9623 157.981C65.868 158.159 65.8233 158.359 65.8328 158.561C65.8423 158.762 65.9057 158.957 66.0164 159.126L94.2578 202C94.4154 202.239 94.6588 202.409 94.9379 202.475L108.078 205.568C108.299 205.621 108.531 205.604 108.743 205.521C108.955 205.438 109.137 205.293 109.265 205.104C109.392 204.916 109.459 204.693 109.457 204.465C109.455 204.237 109.384 204.015 109.253 203.829L78.2457 159.715C78.1616 159.595 78.0547 159.492 77.931 159.414C77.8073 159.335 77.6693 159.281 77.5249 159.256L67.1507 157.402C67.0808 157.389 67.0099 157.383 66.9389 157.383Z" fill="#FE5172"/>
<path d="M84.5562 188.037L85.3411 195.948L97.7268 194.718C98.7752 194.613 99.7393 194.097 100.407 193.282C101.075 192.466 101.392 191.419 101.287 190.37C101.183 189.321 100.667 188.356 99.8523 187.688C99.0374 187.02 97.9906 186.703 96.9422 186.807L84.5562 188.037Z" fill="#FFB9B9"/>
<path d="M73.7859 187.121C73.8039 189.818 74.8866 192.399 76.798 194.301C78.7095 196.203 81.2949 197.272 83.9907 197.276H86.0273L87.51 184.912L75.2337 180.49L73.7859 187.121Z" fill="#E6E6E6"/>
<path d="M14.7601 360.319C23.2139 371.647 40.7623 372.839 40.7623 372.839C40.7623 372.839 44.6044 355.665 36.1506 344.337C27.6969 333.009 10.1485 331.817 10.1485 331.817C10.1485 331.817 6.30632 348.991 14.7601 360.319Z" fill="#E6E6E6"/>
<path d="M57.8257 364.577C52.2473 372.052 40.6676 372.839 40.6676 372.839C40.6676 372.839 38.1323 361.506 43.7107 354.031C49.2891 346.556 60.8688 345.77 60.8688 345.77C60.8688 345.77 63.4041 357.102 57.8257 364.577Z" fill="#E6E6E6"/>
<path d="M304.6 398.691H0V400.005H304.6V398.691Z" fill="#FE5172"/>
</svg>
