<svg width="131" height="28" viewBox="0 0 131 28" fill="none" xmlns="http://www.w3.org/2000/svg">
<path d="M21.508 27V10.224L14.956 22.716H12.184L5.632 10.224V27H0.664V1.44H5.992L13.552 15.984L21.184 1.44H26.476V27H21.508ZM39.776 27.36C37.736 27.36 35.972 26.916 34.484 26.028C33.02 25.14 31.88 23.964 31.064 22.5C30.248 21.012 29.84 19.404 29.84 17.676C29.84 15.9 30.236 14.268 31.028 12.78C31.844 11.268 32.996 10.068 34.484 9.18C35.972 8.268 37.748 7.812 39.812 7.812C41.876 7.812 43.64 8.268 45.104 9.18C46.568 10.068 47.684 11.256 48.452 12.744C49.244 14.208 49.64 15.792 49.64 17.496C49.64 18.12 49.604 18.66 49.532 19.116H34.952C35.072 20.58 35.612 21.732 36.572 22.572C37.556 23.412 38.684 23.832 39.956 23.832C40.916 23.832 41.816 23.604 42.656 23.148C43.52 22.668 44.108 22.044 44.42 21.276L48.56 22.428C47.864 23.868 46.748 25.056 45.212 25.992C43.676 26.904 41.864 27.36 39.776 27.36ZM34.844 16.056H44.708C44.564 14.64 44.024 13.5 43.088 12.636C42.176 11.748 41.06 11.304 39.74 11.304C38.444 11.304 37.328 11.748 36.392 12.636C35.48 13.5 34.964 14.64 34.844 16.056ZM51.4268 17.568C51.4268 15.768 51.7868 14.124 52.5068 12.636C53.2268 11.148 54.2228 9.972 55.4948 9.108C56.7668 8.244 58.2188 7.812 59.8508 7.812C61.2428 7.812 62.4908 8.16 63.5948 8.856C64.7228 9.528 65.5988 10.392 66.2228 11.448V0.719999H71.0468V21.6C71.0468 22.128 71.1308 22.5 71.2988 22.716C71.4668 22.908 71.7548 23.028 72.1628 23.076V27C71.2988 27.168 70.6148 27.252 70.1108 27.252C69.2468 27.252 68.5268 27.036 67.9508 26.604C67.3988 26.172 67.0868 25.608 67.0148 24.912L66.9428 23.724C66.2468 24.9 65.2988 25.8 64.0988 26.424C62.9228 27.048 61.6868 27.36 60.3908 27.36C58.6388 27.36 57.0908 26.928 55.7468 26.064C54.4028 25.176 53.3468 24 52.5788 22.536C51.8108 21.048 51.4268 19.392 51.4268 17.568ZM66.2228 20.088V15.588C65.8388 14.532 65.1788 13.656 64.2428 12.96C63.3068 12.264 62.3468 11.916 61.3628 11.916C60.3788 11.916 59.5148 12.192 58.7708 12.744C58.0268 13.272 57.4508 13.98 57.0428 14.868C56.6348 15.732 56.4308 16.668 56.4308 17.676C56.4308 18.708 56.6588 19.656 57.1148 20.52C57.5708 21.36 58.1828 22.032 58.9508 22.536C59.7428 23.016 60.6428 23.256 61.6508 23.256C62.5628 23.256 63.4628 22.956 64.3508 22.356C65.2628 21.756 65.8868 21 66.2228 20.088ZM75.7819 5.508V0.719999H80.6059V5.508H75.7819ZM75.7819 27V8.136H80.6059V27H75.7819ZM101.828 27.36C99.7877 27.36 98.0237 26.904 96.5357 25.992C95.0477 25.08 93.8957 23.88 93.0797 22.392C92.2637 20.904 91.8557 19.296 91.8557 17.568C91.8557 15.816 92.2517 14.196 93.0437 12.708C93.8597 11.22 95.0117 10.032 96.4997 9.144C97.9877 8.256 99.7517 7.812 101.792 7.812C103.856 7.812 105.608 8.256 107.048 9.144C108.512 10.032 109.604 11.196 110.324 12.636L105.608 14.076C104.768 12.636 103.484 11.916 101.756 11.916C100.82 11.916 99.9797 12.156 99.2357 12.636C98.4917 13.092 97.9037 13.752 97.4717 14.616C97.0397 15.456 96.8237 16.44 96.8237 17.568C96.8237 18.672 97.0397 19.656 97.4717 20.52C97.9277 21.36 98.5277 22.032 99.2717 22.536C100.016 23.016 100.844 23.256 101.756 23.256C102.62 23.256 103.412 23.052 104.132 22.644C104.876 22.212 105.392 21.672 105.68 21.024L110.396 22.464C109.748 23.88 108.668 25.056 107.156 25.992C105.668 26.904 103.892 27.36 101.828 27.36ZM112.068 21.42C112.068 20.196 112.404 19.128 113.076 18.216C113.772 17.28 114.732 16.56 115.956 16.056C117.18 15.552 118.584 15.3 120.168 15.3C120.96 15.3 121.764 15.372 122.58 15.516C123.396 15.636 124.104 15.816 124.704 16.056V15.048C124.704 13.848 124.344 12.924 123.624 12.276C122.928 11.628 121.884 11.304 120.492 11.304C119.46 11.304 118.476 11.484 117.54 11.844C116.604 12.204 115.62 12.732 114.588 13.428L113.04 10.26C114.288 9.444 115.56 8.832 116.856 8.424C118.176 8.016 119.556 7.812 120.996 7.812C123.684 7.812 125.772 8.484 127.26 9.828C128.772 11.172 129.528 13.092 129.528 15.588V21.6C129.528 22.128 129.612 22.5 129.78 22.716C129.948 22.908 130.248 23.028 130.68 23.076V27C130.248 27.096 129.852 27.156 129.492 27.18C129.156 27.228 128.868 27.252 128.628 27.252C127.668 27.252 126.936 27.036 126.432 26.604C125.928 26.172 125.628 25.644 125.532 25.02L125.424 24.048C124.584 25.128 123.552 25.956 122.328 26.532C121.128 27.084 119.892 27.36 118.62 27.36C117.348 27.36 116.22 27.108 115.236 26.604C114.252 26.076 113.472 25.368 112.896 24.48C112.344 23.568 112.068 22.548 112.068 21.42ZM123.804 22.392C124.404 21.816 124.704 21.264 124.704 20.736V18.828C123.456 18.324 122.196 18.072 120.924 18.072C119.652 18.072 118.62 18.348 117.828 18.9C117.036 19.428 116.64 20.136 116.64 21.024C116.64 21.744 116.928 22.392 117.504 22.968C118.08 23.544 118.908 23.832 119.988 23.832C120.708 23.832 121.404 23.7 122.076 23.436C122.772 23.172 123.348 22.824 123.804 22.392Z" fill="#0026FF"/>
<path d="M84.8497 27V21.816H88.8097V27H84.8497Z" fill="#FE5172"/>
</svg>
