<svg width="275" height="258" viewBox="0 0 275 258" fill="none" xmlns="http://www.w3.org/2000/svg">
<path fill-rule="evenodd" clip-rule="evenodd" d="M109.471 227.98C131.019 233.761 152.458 223.326 173.802 216.84C197.011 209.788 229.164 210.829 238.948 188.637C249.043 165.739 222.84 143.092 217.051 118.744C212.757 100.678 219.196 80.7824 209.537 64.9205C199.17 47.8949 181.815 36.191 162.917 29.8436C143.165 23.2097 120.345 19.0063 101.95 28.7852C84.1055 38.2711 83.4807 63.3599 70.5921 78.9228C54.9802 97.774 21.7066 104.429 19.1459 128.77C16.643 152.561 43.2066 168.432 59.3146 186.124C74.3417 202.63 87.9107 222.196 109.471 227.98Z" fill="#0026FF" fill-opacity="0.16"/>
<path d="M94.5 91.4999V38.4999L97.5 35.4999L180 34.9999V94.4999L98.5 93.9999L94.5 91.4999Z" fill="#FEFEFE"/>
<path d="M171.5 111L166.5 105.5V103.5L171.5 98.4999L178 104L182.5 98.9999L186.5 99.4999L190 105L184.5 111L190 116.5L187.5 121.5L184 123L178 117.5L171.5 123.5L167 119.5L166.5 117L171.5 111Z" fill="#FEFEFE"/>
<path d="M114 125.5L91 112.5L96.5 101L119.5 113.5L122.5 120.5L121.5 124.5L114 125.5Z" fill="#FEFEFE"/>
<path d="M171.072 119.309C170.88 119.512 170.883 119.838 171.078 120.038C171.273 120.237 171.587 120.235 171.778 120.032C171.97 119.829 171.967 119.502 171.772 119.303C171.577 119.104 171.264 119.106 171.072 119.309ZM174.636 111.972C174.363 111.972 174.141 112.202 174.141 112.487C174.141 112.771 174.363 113.002 174.636 113.002C174.91 113.002 175.132 112.771 175.132 112.487C175.132 112.202 174.91 111.972 174.636 111.972ZM176.387 108.912C176.114 108.912 175.892 109.142 175.892 109.427C175.892 109.712 176.114 109.942 176.387 109.942C176.661 109.942 176.882 109.712 176.882 109.427C176.882 109.142 176.661 108.912 176.387 108.912ZM173.804 117.311C173.612 117.514 173.615 117.84 173.81 118.04C174.005 118.239 174.318 118.236 174.51 118.034C174.702 117.831 174.699 117.504 174.504 117.305C174.309 117.105 173.995 117.108 173.804 117.311ZM177.335 114.814C177.062 114.814 176.84 115.044 176.84 115.329C176.84 115.613 177.061 115.844 177.335 115.844C177.609 115.844 177.831 115.613 177.831 115.329C177.83 115.044 177.609 114.814 177.335 114.814ZM171.195 116.044C171.001 115.844 170.687 115.847 170.495 116.05C170.303 116.253 170.306 116.579 170.501 116.778C170.696 116.978 171.01 116.975 171.201 116.772C171.393 116.569 171.391 116.243 171.195 116.044ZM170.448 101.655C170.256 101.857 170.259 102.184 170.454 102.383C170.649 102.583 170.962 102.58 171.154 102.377C171.346 102.174 171.343 101.848 171.148 101.648C170.953 101.449 170.64 101.452 170.448 101.655ZM168.977 104.746C168.786 104.949 168.788 105.275 168.983 105.474C169.178 105.674 169.492 105.671 169.684 105.468C169.876 105.265 169.873 104.939 169.678 104.739C169.483 104.54 169.169 104.543 168.977 104.746ZM173.283 103.053C173.475 102.85 173.472 102.524 173.277 102.324C173.082 102.125 172.768 102.128 172.577 102.33C172.385 102.533 172.387 102.859 172.582 103.059C172.778 103.258 173.091 103.255 173.283 103.053ZM173.212 106.634C173.403 106.431 173.401 106.105 173.206 105.905C173.011 105.706 172.697 105.709 172.505 105.912C172.314 106.114 172.316 106.441 172.511 106.64C172.706 106.84 173.02 106.837 173.212 106.634ZM178.344 111.24C178.071 111.24 177.849 111.471 177.849 111.755C177.849 112.04 178.07 112.27 178.344 112.27C178.618 112.27 178.84 112.04 178.84 111.755C178.84 111.471 178.618 111.24 178.344 111.24ZM180.348 107.094C180.075 107.094 179.853 107.324 179.853 107.609C179.853 107.894 180.075 108.124 180.348 108.124C180.622 108.124 180.844 107.894 180.844 107.609C180.844 107.324 180.622 107.094 180.348 107.094ZM184.322 116.752C184.059 116.677 183.786 116.839 183.714 117.114C183.642 117.388 183.798 117.671 184.062 117.746C184.326 117.821 184.598 117.659 184.67 117.385C184.742 117.11 184.586 116.827 184.322 116.752ZM180.682 117.059C180.418 116.984 180.146 117.145 180.074 117.42C180.002 117.694 180.158 117.978 180.422 118.053C180.686 118.128 180.958 117.966 181.03 117.691C181.102 117.417 180.946 117.133 180.682 117.059ZM187.758 116.761C187.494 116.686 187.222 116.848 187.15 117.122C187.078 117.397 187.233 117.68 187.497 117.755C187.761 117.83 188.033 117.668 188.106 117.393C188.177 117.119 188.022 116.836 187.758 116.761ZM184.659 113.615C184.395 113.54 184.123 113.702 184.051 113.977C183.979 114.252 184.135 114.535 184.399 114.61C184.663 114.684 184.935 114.523 185.007 114.248C185.079 113.973 184.923 113.69 184.659 113.615ZM184.228 119.602C183.964 119.527 183.691 119.689 183.619 119.964C183.547 120.238 183.703 120.521 183.967 120.596C184.231 120.671 184.503 120.509 184.575 120.234C184.647 119.96 184.491 119.677 184.228 119.602ZM181.471 104.42C181.543 104.145 181.388 103.862 181.124 103.787C180.86 103.712 180.588 103.874 180.516 104.149C180.444 104.423 180.599 104.706 180.863 104.781C181.127 104.856 181.4 104.694 181.471 104.42ZM181.626 110.343C181.353 110.342 181.131 110.573 181.131 110.858C181.131 111.142 181.353 111.373 181.626 111.373C181.9 111.373 182.122 111.142 182.122 110.858C182.122 110.573 181.9 110.343 181.626 110.343ZM185.091 100.754C184.827 100.679 184.555 100.841 184.482 101.116C184.41 101.39 184.566 101.673 184.83 101.748C185.094 101.823 185.366 101.661 185.438 101.386C185.51 101.112 185.354 100.829 185.091 100.754ZM186.721 103.912C186.457 103.837 186.185 103.999 186.112 104.273C186.04 104.548 186.196 104.831 186.46 104.906C186.724 104.981 186.996 104.819 187.068 104.545C187.14 104.27 186.984 103.987 186.721 103.912ZM183.916 105.453C183.652 105.378 183.38 105.54 183.307 105.815C183.236 106.089 183.391 106.372 183.655 106.447C183.919 106.522 184.191 106.36 184.263 106.086C184.335 105.811 184.179 105.528 183.916 105.453ZM185.458 111L189.592 106.701C190.197 106.071 190.5 105.239 190.5 104.415C190.5 103.59 190.197 102.757 189.592 102.129L186.53 98.9434C185.925 98.3144 185.124 97.9988 184.332 97.9999C183.539 97.999 182.739 98.3144 182.134 98.9434L178 103.243L173.866 98.9434C173.261 98.3144 172.46 97.9988 171.668 97.9999C170.876 97.999 170.075 98.3144 169.47 98.9434L166.408 102.129C165.803 102.757 165.499 103.59 165.5 104.415C165.499 105.239 165.803 106.071 166.408 106.701L170.542 111L166.408 115.299C165.803 115.928 165.499 116.761 165.5 117.585C165.499 118.409 165.803 119.242 166.408 119.871L169.47 123.056C170.075 123.685 170.875 124 171.668 124H171.671C172.462 124 173.262 123.685 173.866 123.056L178 118.756L182.134 123.056C182.739 123.685 183.539 124 184.332 124H184.334C185.126 124 185.926 123.685 186.53 123.056L189.593 119.871C190.197 119.242 190.501 118.409 190.5 117.585C190.501 116.761 190.197 115.928 189.593 115.299L185.458 111ZM167.492 105.572C167.186 105.254 167.035 104.839 167.034 104.415C167.035 103.991 167.186 103.575 167.492 103.257L170.555 100.072C170.861 99.7543 171.26 99.5964 171.668 99.5955C172.076 99.5964 172.475 99.7543 172.781 100.072L176.915 104.371L171.626 109.872L167.492 105.572ZM172.781 121.928C172.475 122.246 172.075 122.404 171.668 122.404C171.26 122.404 170.86 122.246 170.555 121.928L167.492 118.743C167.186 118.425 167.035 118.009 167.034 117.585C167.035 117.161 167.186 116.746 167.492 116.428L183.219 100.072C183.525 99.7543 183.924 99.5964 184.332 99.5955C184.739 99.5964 185.139 99.7543 185.445 100.072L188.507 103.257C188.813 103.575 188.965 103.991 188.965 104.415C188.965 104.838 188.813 105.254 188.507 105.573L172.781 121.928ZM188.507 118.743L185.445 121.928C185.139 122.246 184.74 122.404 184.332 122.404C183.924 122.404 183.525 122.246 183.219 121.928L179.085 117.628L184.374 112.128L188.507 116.428C188.813 116.746 188.965 117.161 188.966 117.585C188.965 118.009 188.813 118.425 188.507 118.743Z" fill="#0026FF"/>
<path d="M122.498 118.134L122.083 117.895C122.257 117.175 122.244 116.43 122.057 115.737L122.056 115.732C121.768 114.658 121.064 113.684 120.024 113.084L104.293 104.008L104.293 104.009L97.4697 100.071L97.7699 99.5519C98.0451 99.0765 97.9562 98.5111 97.5711 98.2892C97.1865 98.0679 96.6518 98.2726 96.3766 98.748L94.1398 102.62L91.9097 101.334L92.2762 100.7C92.78 99.8276 92.8852 98.8223 92.6424 97.9206L92.6408 97.9148C92.3997 97.0153 91.8064 96.1995 90.9348 95.6969L90.9343 95.6977L90.9333 95.6966C90.0616 95.1936 89.0556 95.0885 88.1538 95.331C87.2514 95.5712 86.4319 96.1641 85.9279 97.0375L81.4527 104.783C80.9483 105.655 80.8439 106.661 81.0865 107.562C81.3269 108.464 81.9209 109.283 82.7943 109.786C83.6671 110.291 84.6735 110.395 85.5753 110.152C86.4777 109.912 87.297 109.319 87.8006 108.446L88.1666 107.812L90.3966 109.099L88.1597 112.971C87.8844 113.446 87.974 114.011 88.3591 114.233C88.7433 114.455 89.2778 114.25 89.5523 113.775L89.8525 113.255L112.406 126.267C113.448 126.868 114.647 126.989 115.723 126.699C116.417 126.514 117.069 126.153 117.607 125.642L118.022 125.882C118.848 126.36 119.801 126.456 120.654 126.226C121.507 125.999 122.285 125.44 122.762 124.613L122.99 124.218L129.245 127.826C129.508 127.978 129.843 127.888 129.995 127.625C130.147 127.362 130.057 127.026 129.794 126.875L123.54 123.267L123.768 122.872C124.245 122.046 124.342 121.094 124.112 120.242L124.111 120.237C123.883 119.387 123.421 118.666 122.594 118.19L122.498 118.134ZM121.266 120.265C121.505 120.403 121.663 120.622 121.733 120.879C121.801 121.134 121.773 121.403 121.636 121.641L120.629 123.382C120.491 123.622 120.273 123.78 120.017 123.849C119.76 123.917 119.493 123.889 119.253 123.752L118.994 123.602L121.008 120.117L121.266 120.265ZM118.793 115.215C119.246 115.477 119.549 115.896 119.679 116.374C119.806 116.853 119.753 117.367 119.492 117.821L116.246 123.437C115.984 123.891 115.565 124.193 115.086 124.323C114.606 124.45 114.092 124.397 113.638 124.136L111.963 123.169L112.761 121.788C112.913 121.525 112.823 121.19 112.56 121.038C112.298 120.886 111.962 120.976 111.81 121.239L111.012 122.62L107.326 120.493L109.615 116.53C109.767 116.268 109.677 115.932 109.414 115.781C109.151 115.629 108.815 115.719 108.663 115.981L106.374 119.944L103.284 118.162L104.082 116.781C104.234 116.518 104.144 116.182 103.881 116.031C103.619 115.879 103.282 115.969 103.131 116.232L102.332 117.613L100.04 116.291L105.195 107.37L118.793 115.215ZM103.062 106.139L97.9077 115.06L95.2372 113.52L97.4821 109.635C97.6337 109.373 97.5437 109.037 97.2811 108.886C97.0181 108.734 96.6819 108.824 96.5301 109.086L94.286 112.971L92.1301 111.727L97.2844 102.806L103.062 106.139ZM92.9096 104.751L91.628 106.968L89.4154 105.691L90.6964 103.474L92.9096 104.751ZM90.2643 98.5577C90.3437 98.859 90.3117 99.1785 90.1442 99.4693L85.6692 107.216C85.5003 107.506 85.2388 107.694 84.9386 107.775C84.6367 107.855 84.3173 107.823 84.0272 107.656C83.7353 107.487 83.5483 107.227 83.4661 106.925C83.3867 106.624 83.4181 106.305 83.586 106.013L88.0613 98.2681C88.2294 97.9772 88.4898 97.7905 88.7918 97.7076C89.0929 97.6291 89.4124 97.6604 89.7048 97.8281C89.9955 97.9968 90.1824 98.2577 90.2643 98.5577Z" fill="#0026FF"/>
<path d="M175.039 30.5112H164.37L162.884 25.7771C161.727 22.4079 158.573 20.0948 155.01 19.9999H119.535C115.972 20.0941 112.819 22.4079 111.661 25.7771L110.175 30.5112H99.5035C98.5265 30.5126 97.5811 30.663 96.6927 30.9364C94.9726 31.4644 93.4643 32.4652 92.3051 33.7825C90.8162 35.4725 89.9032 37.682 89.8989 40.1094V87.9124C89.909 93.2091 94.2044 97.4999 99.5035 97.5107H175.039C180.34 97.4999 184.633 93.2091 184.645 87.9124V40.1094C184.633 34.8128 180.34 30.5212 175.039 30.5112ZM115.889 27.1031C116.19 25.8232 118.221 24.3339 119.535 24.4274L155.01 24.4289C156.324 24.3339 158.353 25.8232 158.654 27.1031L159.724 30.5112H114.82L115.889 27.1031ZM179.311 87.9117C179.307 90.2413 177.371 92.1766 175.039 92.1802H99.5027C97.1714 92.1766 95.2347 90.2413 95.2318 87.9117V57.0764C96.5184 57.7196 97.9656 58.0909 99.5027 58.0945H104.531V60.1903C104.538 63.8595 107.508 66.8244 111.179 66.8316H112.73C116.401 66.8244 119.369 63.8595 119.377 60.1903V58.0945H155.165V60.1903C155.174 63.8595 158.139 66.8244 161.812 66.8316H163.364C167.035 66.8244 170.003 63.8595 170.01 60.1903V58.0945H175.037C176.574 58.0916 178.022 57.7196 179.309 57.0764V87.9117H179.311ZM108.963 60.1903V52.7719C108.963 52.7698 108.963 52.7676 108.963 52.7647C108.97 51.5647 109.978 50.5589 111.179 50.5574H112.73C113.931 50.5589 114.939 51.5639 114.945 52.7647C114.945 52.7669 114.946 52.769 114.946 52.7719V60.1903C114.943 61.3932 113.934 62.4026 112.73 62.404H111.179C109.976 62.4026 108.965 61.3939 108.963 60.1903ZM159.597 60.1903V52.7719C159.597 52.7698 159.599 52.7676 159.599 52.7647C159.604 51.5647 160.612 50.5589 161.813 50.5574H163.366C164.567 50.5589 165.573 51.5639 165.579 52.7647C165.579 52.7669 165.58 52.769 165.58 52.7719V60.1903C165.579 61.3932 164.568 62.4026 163.366 62.404H161.813C160.61 62.4026 159.599 61.3939 159.597 60.1903ZM179.311 48.4976C179.307 50.8272 177.372 52.7611 175.039 52.7654H170.012C170 49.0998 167.033 46.1392 163.366 46.1313H161.814C158.144 46.1392 155.18 49.0998 155.167 52.7654H119.379C119.366 49.0998 116.399 46.1392 112.732 46.1313H111.182C107.513 46.1392 104.544 49.0998 104.533 52.7654H99.5049C97.1765 52.7618 95.2412 50.8308 95.234 48.5041V40.1102C95.234 39.5274 95.3564 38.9705 95.5745 38.4612C96.2297 36.9338 97.7568 35.8452 99.5049 35.8423H175.039C175.769 35.8438 176.458 36.0337 177.063 36.3647C178.348 37.069 179.241 38.4144 179.302 39.9483C179.305 40.003 179.311 40.0562 179.311 40.1116V48.4976V48.4976ZM144.202 61.3536H130.338V68.218H123.469V82.0719H130.338V88.9362H144.202V82.0719H151.073V68.218H144.202V61.3536ZM145.741 73.5477V76.7435H138.87V83.6079H135.672V76.7435H128.802V73.5477H135.672V66.6834H138.87V73.5477H145.741Z" fill="#0026FF"/>
</svg>
