<svg width="230" height="204" viewBox="0 0 230 204" fill="none" xmlns="http://www.w3.org/2000/svg">
<path fill-rule="evenodd" clip-rule="evenodd" d="M104.878 1.09699C126.738 4.3812 139.999 25.308 158.637 37.2459C179.052 50.3218 209.579 51.9395 219.145 74.2852C228.732 96.6796 215.874 122.605 204.367 144.068C194.33 162.788 177.189 175.559 159.009 186.446C142.345 196.427 124.142 205.958 104.878 203.652C86.5703 201.459 74.2376 185.477 59.3737 174.516C44.6034 163.625 25.324 156.858 18.3397 139.84C11.1705 122.371 19.4731 103.347 22.5124 84.6997C26.2168 61.9722 21.8898 35.4918 38.0152 19.1242C54.6565 2.23307 81.4832 -2.41776 104.878 1.09699Z" fill="#0026FF" fill-opacity="0.16"/>
<path d="M61 37L35 65V69L70 106L78.5 110L88.5 101.5L89 57L68.5 37H61Z" fill="#FEFEFE"/>
<path d="M147.5 101L143 95V57L166 45.5L178 52.5L179 63L195 65L202.5 74L201.5 84.5L194 92.5L192 103.5L181 109.5L147.5 101Z" fill="#FEFEFE"/>
<path d="M34.3648 60.7096L59.0312 36.0559C60.6081 34.4803 62.6946 33.6895 64.7603 33.6917C66.8248 33.6895 68.9119 34.4803 70.4883 36.0559L108.231 73.7815C109.807 75.356 110.598 77.4427 110.596 79.5068C110.598 81.5709 109.807 83.6587 108.23 85.2332L83.5659 109.888C81.9895 111.462 79.9018 112.253 77.8367 112.251H77.8307C75.7673 112.251 73.6834 111.462 72.1082 109.889L34.3654 72.1624C32.7895 70.5851 31.9983 68.5006 32 66.4354C31.9972 64.3708 32.7879 62.2857 34.3648 60.7096ZM37.2514 69.2788L74.9937 107.003C75.7744 107.783 76.7943 108.17 77.8362 108.172C78.8781 108.17 79.8996 107.783 80.6809 107.003L105.345 82.3485C106.126 81.5687 106.514 80.5488 106.515 79.5068C106.514 78.4654 106.125 77.446 105.346 76.6662L67.6022 38.9406C66.8215 38.1602 65.8016 37.7731 64.7608 37.7714C63.7195 37.7725 62.6991 38.1597 61.9172 38.9406L37.2514 63.5953C36.4707 64.3757 36.0828 65.3945 36.0811 66.4354C36.0822 67.4757 36.4701 68.4962 37.2514 69.2788ZM83.0942 79.1048V79.0101C83.0948 76.9135 83.9339 75.0107 85.2992 73.6692C86.6596 72.3232 88.5473 71.523 90.5876 71.5235C94.7265 71.5246 98.0798 74.8758 98.0815 79.0128C98.0804 83.152 94.7265 86.5026 90.5876 86.5037C86.4833 86.5015 83.1427 83.2071 83.0948 79.1097L83.0942 79.1048ZM86.7682 79.0057C86.7682 79.0249 86.7682 79.0249 86.7682 79.0249C86.7715 81.1237 88.4795 82.8271 90.587 82.8315C92.6962 82.8271 94.4031 81.1215 94.407 79.0128C94.4031 76.9058 92.6967 75.1996 90.587 75.1963C88.4404 75.2222 86.8056 76.7697 86.7682 78.9913V79.0057ZM77.9585 73.8228C73.8542 73.8212 70.5136 70.5262 70.4657 66.4288L70.4651 66.4238V66.3291C70.4657 64.2336 71.3054 62.3309 72.6702 60.9893C74.0311 59.6428 75.9188 58.8426 77.9585 58.8437C82.0975 58.8454 85.4508 62.1965 85.4524 66.3335C85.4513 70.4717 82.0969 73.8223 77.9585 73.8228ZM77.9585 62.5159C75.8119 62.5424 74.1771 64.0899 74.1391 66.312C74.1391 66.317 74.1396 66.322 74.1396 66.3258C74.1396 66.344 74.1396 66.344 74.1396 66.344C74.143 68.4434 75.8504 70.1467 77.9585 70.15C80.0677 70.1467 81.7741 68.4406 81.7785 66.3324C81.7741 64.2265 80.0677 62.5198 77.9585 62.5159ZM65.2716 61.1997C61.1673 61.1986 57.8267 57.9031 57.7793 53.8057L57.7788 53.7996V53.7055C57.7793 51.6094 58.619 49.7072 59.9838 48.3651C61.3442 47.0186 63.2319 46.2184 65.2716 46.2195C69.4106 46.2212 72.7639 49.5723 72.7655 53.7099C72.765 57.848 69.4106 61.1991 65.2716 61.1997ZM65.2716 49.8928C63.1255 49.9192 61.4907 51.4668 61.4527 53.6889C61.4527 53.6939 61.4527 53.6989 61.4527 53.7027C61.4527 53.7214 61.4527 53.7214 61.4527 53.7214C61.4566 55.8202 63.1635 57.5236 65.2716 57.5275C67.3807 57.5236 69.0877 55.818 69.0921 53.7099C69.0877 51.6028 67.3807 49.8961 65.2716 49.8928ZM77.1833 84.9215C81.3223 84.9226 84.6755 88.2743 84.6772 92.4114C84.6761 96.5506 81.3223 99.9012 77.1833 99.9012C73.079 99.9001 69.7384 96.6045 69.691 92.5072L69.6905 92.5017V92.408C69.691 90.3114 70.5302 88.4087 71.8955 87.0677C73.2559 85.7195 75.143 84.9204 77.1833 84.9215ZM73.3644 92.4036C73.3644 92.4218 73.3644 92.4218 73.3644 92.4218C73.3683 94.5217 75.0758 96.224 77.1833 96.2284C79.2924 96.224 80.9994 94.519 81.0032 92.4108C80.9994 90.3037 79.2924 88.5965 77.1833 88.5932C75.0372 88.6202 73.4019 90.1677 73.3644 92.3893C73.3644 92.3948 73.3644 92.3992 73.3644 92.4036ZM64.5542 72.2411C68.6932 72.2428 72.0465 75.5934 72.0481 79.7304C72.047 83.8685 68.6932 87.2202 64.5542 87.2213C60.4499 87.2191 57.1093 83.9236 57.062 79.8262L57.0614 79.8207V79.7271C57.062 77.6305 57.9011 75.7278 59.2664 74.3856C60.6268 73.0397 62.5145 72.2395 64.5542 72.2411ZM60.7353 79.7233C60.7353 79.7425 60.7353 79.7425 60.7353 79.7425C60.7387 81.8413 62.4461 83.5447 64.5542 83.548C66.6634 83.5447 68.3698 81.8386 68.3742 79.7304C68.3698 77.6234 66.6634 75.9161 64.5542 75.9128C62.4081 75.9398 60.7728 77.4862 60.7353 79.7089C60.7353 79.7144 60.7353 79.7188 60.7353 79.7233ZM51.8678 59.618C56.0068 59.6191 59.3601 62.9697 59.3618 67.1073C59.3612 71.246 56.0068 74.5966 51.8678 74.5977C47.7636 74.5966 44.423 71.3005 44.375 67.2037L44.3745 67.1982V67.104C44.375 65.0074 45.2147 63.1052 46.5795 61.7631C47.9404 60.4171 49.8281 59.6164 51.8678 59.618ZM48.049 67.1007C48.049 67.1194 48.049 67.1194 48.049 67.1194C48.0528 69.2182 49.7598 70.9216 51.8678 70.9255C53.977 70.9216 55.6834 69.216 55.6878 67.1078C55.6834 65.0008 53.977 63.2941 51.8678 63.2908C49.7212 63.3172 48.0864 64.8653 48.0484 67.0869C48.049 67.0919 48.049 67.0957 48.049 67.1007Z" fill="#0026FF"/>
<path d="M204.902 82.257C205.091 81.5511 205.231 80.8251 205.319 80.0808C206.227 72.2426 201.046 65.0891 193.529 63.076C192.774 62.8736 191.994 62.723 191.197 62.6303L181.45 61.4862C181.751 59.2049 181.561 56.8494 180.818 54.5985C180.789 54.5114 180.756 54.425 180.724 54.3379C180.67 54.182 180.618 54.0253 180.556 53.8704C180.277 53.1467 179.937 52.436 179.539 51.7454C179.109 51.0021 178.621 50.3138 178.09 49.671C177.801 49.3204 177.503 48.979 177.188 48.6597C175.212 46.6571 172.743 45.2622 170.092 44.5539C166.103 43.4849 161.662 43.9501 157.782 46.1882L153.702 48.5426L144.154 54.0524L144.154 54.0529L134.06 59.8784C130.18 62.116 127.557 65.7284 126.49 69.7152C125.454 73.5636 125.868 77.8038 127.997 81.4884C130.102 85.1355 133.521 87.5967 137.323 88.6447C137.612 95.3838 142.337 101.478 149.279 103.339L160.537 106.355L175.738 110.425C184.243 112.701 193.05 107.812 195.312 99.4296C195.917 97.1588 195.975 94.8714 195.574 92.6951C200.069 90.8652 203.603 87.0743 204.902 82.257ZM157.402 73.0381C156.553 72.8105 155.7 72.6579 154.851 72.5702C153.346 72.414 151.853 72.4703 150.409 72.7205C150.457 72.4853 150.509 72.2512 150.57 72.0219C150.934 70.6556 151.554 69.3928 152.372 68.2784C153.202 67.1483 154.238 66.1739 155.42 65.3973C157.712 63.8909 160.553 63.1367 163.516 63.488L163.517 63.4883L165.134 63.678L175.093 64.8472L174.854 66.8797L174.854 66.8803L174.14 72.9506L173.62 77.3815L157.402 73.0381V73.0381ZM159.824 49.7215C160.918 49.0902 162.067 48.6477 163.234 48.3832C165.18 47.9425 167.174 47.9965 169.037 48.495C169.551 48.6333 170.049 48.8163 170.538 49.0206C171.196 49.295 171.827 49.6282 172.423 50.0182C173.86 50.959 175.099 52.2178 176.005 53.785C176.349 54.3805 176.622 54.9976 176.845 55.6252C176.989 56.032 177.117 56.4419 177.213 56.8571C177.295 57.2097 177.358 57.5641 177.405 57.9205C177.41 57.9664 177.423 58.0114 177.428 58.0573C177.436 58.1307 177.436 58.2049 177.443 58.2786C177.534 59.1877 177.512 60.1026 177.387 61.0077L163.993 59.4359C160.128 58.9846 156.411 59.9255 153.375 61.8575L149.729 55.5467L159.824 49.7215ZM131.532 79.4503C129.973 76.7498 129.663 73.6515 130.432 70.7722C131.232 67.7926 133.186 65.0933 136.1 63.4125L146.195 57.5867L150.197 64.5145C148.538 66.3156 147.29 68.5059 146.627 70.9658C146.514 71.3893 146.424 71.8225 146.347 72.2603C146.295 72.5526 146.245 72.8454 146.211 73.1429C146.174 73.4619 146.15 73.7789 146.133 74.0954C142.176 76.0072 139.048 79.5104 137.826 84.0347C137.786 84.187 137.753 84.339 137.717 84.4912C135.167 83.6156 132.949 81.9012 131.532 79.4503ZM150.336 99.4004C147.14 98.5444 144.588 96.499 143.035 93.8935C142.184 92.4621 141.641 90.8742 141.458 89.2269C141.308 87.8881 141.397 86.5099 141.756 85.1431C141.761 85.125 141.764 85.1077 141.769 85.0901C142.515 82.3108 144.254 80.0467 146.545 78.5418C146.781 78.3871 147.021 78.237 147.268 78.0985C148.233 77.5598 149.275 77.153 150.365 76.893C152.267 76.439 154.314 76.4346 156.347 76.979L167.606 79.9945L161.595 102.415L150.336 99.4004ZM191.371 98.3747C190.548 101.44 188.521 103.881 185.872 105.366C183.225 106.846 179.991 107.342 176.795 106.486L165.536 103.47L171.546 81.0497L182.805 84.0652C186.002 84.9213 188.554 86.9658 190.106 89.5715C190.151 89.6456 190.191 89.7213 190.233 89.7959C190.929 91.0245 191.403 92.3607 191.619 93.7493C191.853 95.2567 191.787 96.8234 191.371 98.3747ZM183.862 80.1245L177.602 78.448L178.777 68.4508L179.144 65.3222L180.383 65.4676L190.722 66.6811C191.322 66.7508 191.907 66.864 192.473 67.0155C198.111 68.5256 201.949 73.8947 201.265 79.6045C201.201 80.1513 201.098 80.6836 200.96 81.2007C200.05 84.6181 197.542 87.3877 194.317 88.8005C192.36 84.685 188.635 81.404 183.862 80.1245Z" fill="#0026FF"/>
<rect x="89.1043" y="46.0533" width="51.2218" height="56.1071" fill="#FEFEFE"/>
<rect x="89.806" y="21.5067" width="51.2218" height="14.0268" fill="#FEFEFE"/>
<path d="M138.811 40.0893C142.51 40.0781 145.492 37.0946 145.502 33.4007V24.6887C145.492 20.9926 142.509 18.0112 138.811 18H91.5847C87.8862 18.0112 84.9048 20.9933 84.895 24.6887V33.4007C84.9048 37.0953 87.8869 40.0781 91.5847 40.0893H91.7159V41.6758C87.8013 43.096 84.9897 46.8019 84.9041 51.1838H84.8943V51.3648C84.8943 51.3662 84.8943 51.3675 84.8943 51.3675V96.134C84.9048 101.827 89.5225 106.444 95.2186 106.454H135.177C140.873 106.444 145.493 101.827 145.502 96.134V51.3675C145.502 51.3675 145.502 51.3662 145.502 51.3648V51.1838H145.493C145.408 46.8019 142.596 43.0981 138.682 41.6772V40.0893H138.811ZM140.304 96.1333C140.299 98.9344 137.98 101.254 135.177 101.259H95.2179C92.4162 101.254 90.0965 98.9358 90.0909 96.1333V94.8702H140.304V96.1333ZM140.304 89.6746H90.0909V56.3772H140.304V89.6746ZM140.295 51.1838H90.1014C90.2059 48.4647 92.4772 46.2485 95.2179 46.2429L135.177 46.2415C137.917 46.2485 140.19 48.4647 140.295 51.1838ZM96.9125 41.0481V40.0893H133.484V41.0481H96.9125ZM91.5847 34.8938C90.7813 34.8924 90.0929 34.2065 90.0922 33.4007V24.6887C90.0929 23.8849 90.782 23.1955 91.5847 23.1955H138.811C139.615 23.1955 140.303 23.8842 140.305 24.6887V33.4007C140.303 34.2058 139.615 34.8924 138.811 34.8952L91.5847 34.8938ZM108.442 86.5214H121.953V79.8286H128.648V66.3236H121.953V59.6307H108.442V66.3236H101.748V79.8286H108.442V86.5214ZM106.944 74.6344V71.5184H113.639V64.827H116.756V71.5184H123.452V74.6344H116.756V81.3245H113.639V74.6344H106.944Z" fill="#0026FF"/>
</svg>
