<svg width="234" height="210" viewBox="0 0 234 210" fill="none" xmlns="http://www.w3.org/2000/svg">
<path fill-rule="evenodd" clip-rule="evenodd" d="M121.121 26.1673C147.013 21.4702 170.595 -8.73664 194.397 2.47901C217.046 13.1511 217.354 46.7968 217.988 71.8112C218.506 92.2578 202.237 108.171 197.582 128.089C192.225 151.015 205.449 179.715 188.865 196.437C172.435 213.003 144.425 203.892 121.121 205.182C96.0671 206.57 69.9523 215.828 47.6925 204.255C24.0982 191.989 4.23438 168.751 0.443225 142.445C-3.1997 117.168 16.448 95.6402 28.8184 73.2934C38.6682 55.5002 46.8011 35.2186 64.9217 25.9669C82.022 17.2361 102.226 29.5949 121.121 26.1673Z" fill="#0026FF" fill-opacity="0.16"/>
<path d="M94.5 63.5H60.5V129.5H177V61H142V41.5H94.5V63.5Z" fill="#FEFEFE"/>
<path d="M86.5648 72.7969H68.2765V75.6257H86.5648V72.7969ZM86.5648 86.0103H68.2765V88.839H86.5648V86.0103ZM86.5648 99.067H68.2765V101.896H86.5648V99.067ZM86.5648 112.904H68.2765V115.732H86.5648V112.904ZM167.727 72.7969H149.437V75.6257H167.727V72.7969ZM167.727 86.0103H149.437V88.839H167.727V86.0103ZM167.727 99.067H149.437V101.896H167.727V99.067ZM167.727 112.904H149.437V115.732H167.727V112.904ZM116.515 64.4107H119.679V59.3529H124.691V56.178H119.679V51.1202H116.515V56.178H111.448V59.3529H116.515V64.4107ZM114.84 72.7969H104.73V75.6257H114.84V72.7969ZM121.267 75.6257H131.376V72.7969H121.267V75.6257ZM121.249 88.7015H131.359V85.8728H121.249V88.7015ZM114.821 85.8728H104.712V88.7015H114.821V85.8728ZM114.805 98.9494H104.696V101.778H114.805V98.9494ZM121.233 101.778H131.34V98.9494H121.233V101.778ZM144.313 57.8586V38H91.9273V57.8586H55.5V132H180.5V57.8586H144.313V57.8586ZM91.9281 126.342H61.1395V63.5169H91.9281V126.342ZM123.521 126.342H112.652V113.807H123.521V126.342ZM138.675 126.342H129.159V108.149H107.014V126.342H97.5661V43.6598H138.675V126.342ZM174.861 126.342H144.313V63.5169H174.861V126.342Z" fill="#0026FF"/>
</svg>
