<svg width="230" height="210" viewBox="0 0 230 210" fill="none" xmlns="http://www.w3.org/2000/svg">
<path fill-rule="evenodd" clip-rule="evenodd" d="M127.121 26.1673C153.013 21.4702 176.595 -8.73664 200.397 2.47901C223.046 13.1511 223.354 46.7968 223.988 71.8112C224.506 92.2578 208.237 108.171 203.582 128.089C198.225 151.015 211.449 179.715 194.865 196.437C178.435 213.003 150.425 203.892 127.121 205.182C102.067 206.57 75.9523 215.828 53.6925 204.255C30.0982 191.989 10.2344 168.751 6.44322 142.445C2.8003 117.168 22.448 95.6402 34.8184 73.2934C44.6682 55.5002 52.8011 35.2186 70.9217 25.9669C88.022 17.2361 108.226 29.5949 127.121 26.1673Z" fill="#00BFA6" fill-opacity="0.16"/>
<path d="M91 43.5H57V109.5H173.5V41H138.5V21.5H91V43.5Z" fill="#FEFEFE"/>
<path d="M83.0648 52.7969H64.7765V55.6257H83.0648V52.7969ZM83.0648 66.0103H64.7765V68.839H83.0648V66.0103ZM83.0648 79.067H64.7765V81.8958H83.0648V79.067ZM83.0648 92.9037H64.7765V95.7325H83.0648V92.9037ZM164.227 52.7969H145.937V55.6257H164.227V52.7969ZM164.227 66.0103H145.937V68.839H164.227V66.0103ZM164.227 79.067H145.937V81.8958H164.227V79.067ZM164.227 92.9037H145.937V95.7325H164.227V92.9037ZM113.015 44.4107H116.179V39.3529H121.191V36.178H116.179V31.1202H113.015V36.178H107.948V39.3529H113.015V44.4107ZM111.34 52.7969H101.23V55.6257H111.34V52.7969ZM117.767 55.6257H127.876V52.7969H117.767V55.6257ZM117.749 68.7015H127.859V65.8728H117.749V68.7015ZM111.321 65.8728H101.212V68.7015H111.321V65.8728ZM111.305 78.9494H101.196V81.7782H111.305V78.9494ZM117.733 81.7782H127.84V78.9494H117.733V81.7782ZM140.813 37.8586V18H88.4273V37.8586H52V112H177V37.8586H140.813V37.8586ZM88.4281 106.342H57.6395V43.5169H88.4281V106.342ZM120.021 106.342H109.152V93.8067H120.021V106.342ZM135.175 106.342H125.659V88.1491H103.514V106.342H94.0661V23.6598H135.175V106.342ZM171.361 106.342H140.813V43.5169H171.361V106.342Z" fill="#008372"/>
</svg>
