<svg width="32" height="32" viewBox="0 0 32 32" fill="none" xmlns="http://www.w3.org/2000/svg">
<path fill-rule="evenodd" clip-rule="evenodd" d="M24 15.9998C24 15.7346 23.8946 15.4802 23.7071 15.2927C23.5196 15.1052 23.2652 14.9998 23 14.9998H11.414L15.708 10.7078C15.8958 10.52 16.0013 10.2654 16.0013 9.9998C16.0013 9.73425 15.8958 9.47957 15.708 9.2918C15.5202 9.10403 15.2656 8.99854 15 8.99854C14.7344 8.99854 14.4798 9.10403 14.292 9.2918L8.292 15.2918C8.19887 15.3847 8.12499 15.495 8.07458 15.6165C8.02416 15.738 7.99821 15.8683 7.99821 15.9998C7.99821 16.1313 8.02416 16.2616 8.07458 16.3831C8.12499 16.5046 8.19887 16.6149 8.292 16.7078L14.292 22.7078C14.4798 22.8956 14.7344 23.0011 15 23.0011C15.2656 23.0011 15.5202 22.8956 15.708 22.7078C15.8958 22.52 16.0013 22.2653 16.0013 21.9998C16.0013 21.7342 15.8958 21.4796 15.708 21.2918L11.414 16.9998H23C23.2652 16.9998 23.5196 16.8944 23.7071 16.7069C23.8946 16.5194 24 16.265 24 15.9998Z" fill="#0026FF"/>
<rect x="-0.5" y="0.5" width="31" height="31" rx="15.5" transform="matrix(-1 0 0 1 31 0)" stroke="#0026FF"/>
</svg>
