<svg width="32" height="32" viewBox="0 0 32 32" fill="none" xmlns="http://www.w3.org/2000/svg">
<rect width="32" height="32" rx="16" fill="#0026FF"/>
<path fill-rule="evenodd" clip-rule="evenodd" d="M8 15.9998C8 15.7346 8.10536 15.4802 8.29289 15.2927C8.48043 15.1052 8.73478 14.9998 9 14.9998H20.586L16.292 10.7078C16.1042 10.52 15.9987 10.2654 15.9987 9.9998C15.9987 9.73425 16.1042 9.47957 16.292 9.2918C16.4798 9.10403 16.7344 8.99854 17 8.99854C17.2656 8.99854 17.5202 9.10403 17.708 9.2918L23.708 15.2918C23.8011 15.3847 23.875 15.495 23.9254 15.6165C23.9758 15.738 24.0018 15.8683 24.0018 15.9998C24.0018 16.1313 23.9758 16.2616 23.9254 16.3831C23.875 16.5046 23.8011 16.6149 23.708 16.7078L17.708 22.7078C17.5202 22.8956 17.2656 23.0011 17 23.0011C16.7344 23.0011 16.4798 22.8956 16.292 22.7078C16.1042 22.52 15.9987 22.2653 15.9987 21.9998C15.9987 21.7342 16.1042 21.4796 16.292 21.2918L20.586 16.9998H9C8.73478 16.9998 8.48043 16.8944 8.29289 16.7069C8.10536 16.5194 8 16.265 8 15.9998Z" fill="#FEFEFE"/>
</svg>
