<svg width="18" height="18" viewBox="0 0 18 18" fill="none" xmlns="http://www.w3.org/2000/svg">
<path fill-rule="evenodd" clip-rule="evenodd" d="M1.024 6L1 5.931C0.46 4.384 0 2.27 0 1C0 0.45 0.45 0 1 0H4C4.53043 0 5.03914 0.210714 5.41421 0.585786C5.78929 0.960859 6 1.46957 6 2V4C6 4.53043 5.78929 5.03914 5.41421 5.41421C5.03914 5.78929 4.53043 6 4 6H3.163C3.97037 7.98897 5.16842 9.79583 6.6863 11.3137C8.20417 12.8316 10.011 14.0296 12 14.837V14C12 13.4696 12.2107 12.9609 12.5858 12.5858C12.9609 12.2107 13.4696 12 14 12H16C16.5304 12 17.0391 12.2107 17.4142 12.5858C17.7893 12.9609 18 13.4696 18 14V17C18 17.45 17.45 18 17 18C15.275 18 13.56 17.544 12 17C6.886 15.168 2.832 11.114 1.024 6Z" fill="#FEFEFE"/>
</svg>
