<svg width="36" height="31" viewBox="0 0 36 31" fill="none" xmlns="http://www.w3.org/2000/svg">
<path d="M32.2996 7.50585C32.3224 7.83525 32.3224 8.16472 32.3224 8.49411C32.3224 18.5411 24.8986 30.1176 11.33 30.1176C7.14975 30.1176 3.26652 28.8705 0 26.7059C0.593932 26.7765 1.16494 26.8 1.78173 26.8C5.23092 26.8 8.4061 25.6 10.9417 23.553C7.69798 23.4824 4.97969 21.2941 4.04313 18.2823C4.50002 18.3529 4.95684 18.4 5.43658 18.4C6.099 18.4 6.76149 18.3058 7.3782 18.1412C3.99749 17.4352 1.46187 14.3765 1.46187 10.6823V10.5883C2.44407 11.153 3.5863 11.5059 4.79688 11.5529C2.80956 10.1882 1.50758 7.85879 1.50758 5.22348C1.50758 3.81174 1.87299 2.51762 2.51263 1.3882C6.14463 5.99996 11.6041 9.01167 17.7259 9.34114C17.6117 8.77643 17.5431 8.18826 17.5431 7.60001C17.5431 3.41173 20.8325 0 24.9213 0C27.0457 0 28.9644 0.917645 30.3122 2.4C31.9797 2.0706 33.5786 1.43528 34.9949 0.56471C34.4467 2.32946 33.2817 3.81181 31.7513 4.75292C33.2361 4.5883 34.6752 4.16467 36 3.5765C34.9951 5.08232 33.7387 6.42344 32.2996 7.50585Z" fill="#FEFEFE"/>
</svg>
