<svg width="283" height="200" viewBox="0 0 283 200" fill="none" xmlns="http://www.w3.org/2000/svg">
<g clip-path="url(#clip0)">
<path opacity="0.1" d="M94.0857 199.887C107.868 199.887 119.04 198.097 119.04 195.889C119.04 193.68 107.868 191.89 94.0857 191.89C80.3038 191.89 69.1313 193.68 69.1313 195.889C69.1313 198.097 80.3038 199.887 94.0857 199.887Z" fill="#00855D"/>
<path opacity="0.1" d="M229.734 200C246.932 200 260.873 198.21 260.873 196.001C260.873 193.793 246.932 192.002 229.734 192.002C212.536 192.002 198.595 193.793 198.595 196.001C198.595 198.21 212.536 200 229.734 200Z" fill="#00855D"/>
<path opacity="0.1" d="M3.54441 86.4143H29.5359V121.759H5.44722C5.3832 122.122 5.32173 122.488 5.25515 122.853H29.5359V151.358C29.4924 151.345 29.454 151.33 29.413 151.315C28.7266 151.044 28.0454 150.757 27.3642 150.451L26.9288 150.254C26.2459 149.932 25.563 149.592 24.88 149.232C24.6419 149.107 24.4037 148.977 24.1681 148.844C20.3767 146.725 16.9325 144.04 13.9548 140.882C13.8678 140.798 13.7858 140.708 13.6987 140.626C13.2839 140.177 12.8767 139.722 12.4823 139.257L12.0469 138.746C11.5808 138.176 11.1301 137.591 10.6921 136.998C10.6281 136.911 10.5666 136.824 10.5001 136.743C8.71901 134.279 7.24018 131.611 6.09515 128.796C6.0593 128.712 6.02857 128.62 5.99528 128.541C5.64357 127.638 5.33198 126.727 5.06051 125.807C4.94271 125.421 4.83002 125.04 4.73271 124.639C4.69685 124.521 4.66612 124.406 4.63795 124.292C3.1833 118.627 3.01172 112.742 3.01172 106.899C3.01172 106.217 3.01172 105.532 3.01172 104.855C3.01172 102.491 3.03989 100.112 3.08087 97.7361C3.08087 97.1203 3.10648 96.5071 3.11928 95.8887C3.15513 94.3199 3.20635 92.751 3.27294 91.1822C3.28831 90.7452 3.30879 90.3109 3.33184 89.8765C3.33184 89.6261 3.34465 89.3757 3.37026 89.1253C3.43172 88.2157 3.48294 87.3137 3.54441 86.4143Z" fill="#00855D"/>
<path opacity="0.1" d="M29.5359 47.0603H15.2788C17.5964 43.4411 20.1286 39.9634 22.8619 36.6456C24.9798 34.0496 27.2156 31.52 29.5359 29.0824V47.0603Z" fill="#00855D"/>
<path opacity="0.1" d="M29.536 48.1539V85.3208H3.62646C3.62646 85.2135 3.64439 85.1036 3.65207 84.9963C3.67512 84.7025 3.69817 84.4086 3.72378 84.1174C3.75195 83.775 3.78268 83.43 3.81598 83.0953C3.84927 82.7606 3.88513 82.3518 3.92354 81.9813C3.96195 81.6108 3.99781 81.2352 4.04135 80.8647C4.08488 80.4942 4.1233 80.1237 4.1694 79.7558C4.21549 79.3878 4.25647 79.0148 4.30513 78.6468C4.34354 78.3402 4.38452 78.0362 4.42549 77.7295C4.4844 77.2977 4.54586 76.8633 4.61245 76.4341C4.61245 76.3702 4.63037 76.3038 4.64062 76.2425C5.10805 73.1001 5.74495 69.9851 6.54856 66.9111C7.38974 63.6865 8.4639 60.5269 9.7626 57.4572C11.1429 54.2458 12.759 51.1405 14.5978 48.1667L29.536 48.1539Z" fill="#00855D"/>
<path opacity="0.1" d="M35.7412 86.4119V121.759H91.2559V86.4119H35.7412ZM35.7412 122.851V153.205C36.0588 153.272 36.3738 153.336 36.6862 153.389C37.1113 153.471 37.5339 153.545 37.9667 153.609C38.0487 153.622 38.1332 153.635 38.2228 153.642C38.3918 153.67 38.566 153.693 38.735 153.716C39.1627 153.775 39.5878 153.824 40.0155 153.862C40.2178 153.883 40.4227 153.9 40.6276 153.916L41.1219 153.954C41.3908 153.975 41.6571 153.99 41.9209 153.998C42.0848 153.998 42.2487 154.013 42.4177 154.018C42.5458 154.018 42.6738 154.018 42.807 154.018C42.9402 154.018 43.1297 154.018 43.291 154.018C43.5113 154.018 43.7315 154.018 43.9492 154.018H44.2437C44.464 154.018 44.6842 154.018 44.9019 153.998H44.9172C45.0683 153.998 45.222 153.998 45.3757 153.977C45.4183 153.98 45.4611 153.98 45.5037 153.977C45.6318 153.977 45.7598 153.977 45.8827 153.959H45.9724L46.8303 153.893C47.112 153.867 47.3963 153.834 47.6831 153.803L48.267 153.734C50.6425 153.402 52.9917 152.904 55.297 152.242C60.4753 150.801 65.5409 148.785 70.7167 147.308C77.4086 145.405 84.8022 144.469 91.2687 146.797V122.851H35.7412ZM91.2559 47.0604V0.0025917C85.178 -0.0631066 79.1165 0.646146 73.2188 2.11313C59.1615 5.63665 46.5486 13.279 35.7412 23.0396V47.0578H38.5276V48.1488H35.7412V85.3208H91.2559V48.1514H49.9675V47.0604H91.2559ZM162.562 31.1649C159.084 31.0423 155.626 29.9436 152.499 28.247C146.52 25.0019 141.743 19.9913 136.406 15.7626C125.317 6.95509 111.565 1.64043 97.456 0.321983V47.0604H176.706L176.903 46.8534L162.562 31.1649ZM169.781 29.8874L177.436 38.2682V27.6899C174.872 28.0068 172.626 28.7605 169.791 29.8771L169.781 29.8874ZM177.436 160.743V122.851H161.125C161.081 122.69 161.038 122.526 160.987 122.362C161.035 122.526 161.076 122.69 161.122 122.851H97.4663V150.254C98.0707 150.701 98.6674 151.172 99.259 151.649C99.8967 152.16 100.527 152.7 101.159 153.228L101.797 153.755C102.102 154.01 102.409 154.266 102.719 154.506C103.333 155.003 103.954 155.494 104.581 155.978C104.891 156.233 105.208 156.463 105.523 156.703C110.524 160.518 115.799 163.961 121.307 167.003C122.541 167.684 123.786 168.35 125.043 168.999C125.88 169.425 126.723 169.85 127.568 170.261C128.838 170.879 130.119 171.475 131.41 172.049C143.31 177.379 155.893 181.036 168.8 182.916C171.667 183.339 174.544 183.671 177.433 183.913V160.74H177.689L177.436 160.743ZM97.4663 48.1514V85.3208H177.446V48.1514H97.4663ZM97.4663 86.4119V121.759H177.446V86.4119H97.4663ZM183.654 27.644V39.4435L193.424 28.7478C190.187 28.2265 186.93 27.8543 183.654 27.6312V27.644ZM183.654 86.4246V121.759H261.444V86.4119L183.654 86.4246ZM261.16 163.549L261.434 122.851H183.654V184.319C188.665 184.529 193.683 184.469 198.687 184.14H198.774C201.164 183.99 203.543 183.772 205.912 183.486H205.965C218.599 182.019 230.952 178.731 242.639 173.723L261.16 163.549ZM276.444 92.2324C276.152 91.5451 275.847 90.8629 275.537 90.1883C274.958 88.9108 274.346 87.669 273.716 86.4272H267.647V121.759H282.992C282.985 111.754 280.447 101.533 276.452 92.2197L276.444 92.2324ZM267.647 122.863V157.869C271.97 153.734 275.622 149.005 278.252 143.598C281.415 137.088 282.862 130.038 282.979 122.858L267.647 122.863ZM267.647 76.1249V85.3234H273.148C271.484 82.1569 269.65 79.082 267.655 76.1121L267.647 76.1249ZM214.89 34.5786C214.486 34.4253 214.081 34.2694 213.674 34.1186C209.379 32.5363 204.991 31.2205 200.533 30.1786L185.582 46.5493L185.296 46.8534L185.488 47.0629H238.7C231.289 41.9732 223.299 37.7782 214.898 34.5658L214.89 34.5786ZM240.26 48.1642H184.745L183.654 49.1607V85.3208H193.217H193.232H261.454V67.8054C255.283 60.3587 248.16 53.7511 240.267 48.1514L240.26 48.1642Z" fill="#00855D"/>
<path opacity="0.1" d="M29.536 66.9009V85.3208H3.62646C3.62646 85.2135 3.64439 85.1036 3.65207 84.9963C3.67512 84.7024 3.69817 84.4086 3.72378 84.1173C3.75195 83.7749 3.78268 83.43 3.81598 83.0953C3.84927 82.7605 3.88513 82.3517 3.92354 81.9812C3.96195 81.6107 3.99781 81.2351 4.04135 80.8646C4.08488 80.4941 4.1233 80.1237 4.1694 79.7557C4.21549 79.3878 4.25647 79.0147 4.30513 78.6468C4.34354 78.3402 4.38452 78.0361 4.42549 77.7295C4.4844 77.2977 4.54586 76.8633 4.61245 76.4341C4.61245 76.3702 4.63037 76.3037 4.64062 76.2424C5.10805 73.1 5.74495 69.9851 6.54856 66.9111L29.536 66.9009Z" fill="#00855D"/>
<path opacity="0.1" d="M3.54441 86.4143H29.5359V121.759H5.44722C5.3832 122.122 5.32173 122.488 5.25515 122.853H29.5359V151.358C29.4924 151.345 29.454 151.33 29.413 151.315C28.7266 151.044 28.0454 150.757 27.3642 150.451L26.9288 150.254C26.2459 149.932 25.563 149.592 24.88 149.232C24.6419 149.107 24.4037 148.977 24.1681 148.844C20.3767 146.725 16.9325 144.04 13.9548 140.882C13.8678 140.798 13.7858 140.708 13.6987 140.626C13.2839 140.177 12.8767 139.722 12.4823 139.257L12.0469 138.746C11.5808 138.176 11.1301 137.591 10.6921 136.998C10.6281 136.911 10.5666 136.824 10.5001 136.743C8.71901 134.279 7.24018 131.611 6.09515 128.796C6.0593 128.712 6.02857 128.62 5.99528 128.541C5.64357 127.638 5.33198 126.727 5.06051 125.807C4.94271 125.421 4.83002 125.04 4.73271 124.639C4.69685 124.521 4.66612 124.406 4.63795 124.292C3.1833 118.627 3.01172 112.742 3.01172 106.899C3.01172 106.217 3.01172 105.532 3.01172 104.855C3.01172 102.491 3.03989 100.112 3.08087 97.7361C3.08087 97.1203 3.10648 96.5071 3.11928 95.8887C3.15513 94.3199 3.20635 92.751 3.27294 91.1822C3.28831 90.7452 3.30879 90.3109 3.33184 89.8765C3.33184 89.6261 3.34465 89.3757 3.37026 89.1253C3.43172 88.2157 3.48294 87.3137 3.54441 86.4143Z" fill="#00855D"/>
<path opacity="0.1" d="M55.2841 53.4738V85.3209H35.7412V53.4738H38.5276V42.6912H49.965V53.4738H55.2841Z" fill="#00855D"/>
<path opacity="0.1" d="M55.284 86.4119H35.7437V121.757H55.284V86.4119Z" fill="#00855D"/>
<path opacity="0.1" d="M35.7412 122.853H55.2841V152.237C52.9789 152.898 50.6297 153.396 48.2542 153.727L47.6703 153.798C47.3835 153.831 47.0992 153.859 46.8175 153.888C46.5358 153.916 46.2438 153.936 45.9596 153.954H45.8699C45.747 153.954 45.6138 153.969 45.4935 153.972H45.3629C45.2092 153.972 45.0555 153.987 44.9019 153.992C44.6842 154.005 44.4665 154.008 44.2437 154.01C44.1489 154.01 44.0593 154.01 43.9646 154.01C43.7443 154.01 43.5266 154.01 43.3064 154.01H42.8224C42.6917 154.01 42.5663 154.01 42.4305 154.01L41.9363 153.992C41.6802 153.992 41.4036 153.964 41.1372 153.946L40.6455 153.911L40.0334 153.854C39.6032 153.816 39.1755 153.768 38.7529 153.709L38.2407 153.637L37.9846 153.601C37.557 153.535 37.1344 153.463 36.7041 153.382C36.3891 153.328 36.0767 153.262 35.7591 153.198L35.7412 122.853Z" fill="#00855D"/>
<path opacity="0.1" d="M177.446 49.7125H161.333V85.3182H177.446V49.7125Z" fill="#00855D"/>
<path opacity="0.1" d="M177.449 86.4119V121.759H97.4663V106.513H140.068V115.507H161.332V86.4119H177.449Z" fill="#00855D"/>
<path opacity="0.1" d="M177.702 160.751H177.446V183.939C174.56 183.695 171.683 183.364 168.815 182.945C155.902 181.059 143.313 177.394 131.409 172.055C127.972 170.512 124.606 168.827 121.309 167.001C115.802 163.957 110.525 160.514 105.523 156.701C104.266 155.74 103.026 154.757 101.802 153.752C100.954 153.055 100.111 152.339 99.2585 151.644C98.6669 151.167 98.0702 150.697 97.4658 150.247V122.853H161.119C161.076 122.69 161.032 122.526 160.986 122.365C161.035 122.526 161.081 122.69 161.124 122.853H177.446V160.736C177.533 160.738 177.617 160.746 177.702 160.751Z" fill="#00855D"/>
<path opacity="0.1" d="M219.472 47.0603H208.972V43.8051H213.679V34.1084C214.087 34.2566 214.493 34.4091 214.898 34.5658V43.8051H219.472V47.0603Z" fill="#00855D"/>
<path opacity="0.1" d="M244.769 85.3208H193.222C193.222 85.3208 193.222 85.3208 193.24 85.3336L193.217 85.3208H183.654V49.7151H186.363V76.0329H198.746V60.4467H208.974V48.1539H219.474V60.4569H229.703V76.0432H244.769V85.3208Z" fill="#00855D"/>
<path opacity="0.1" d="M183.654 86.4119V121.759H244.769V86.4119H183.654ZM261.359 163.367L261.444 135.389H244.769V122.868H183.654V184.319C188.664 184.529 193.683 184.47 198.687 184.14H198.774C201.164 183.99 203.543 183.772 205.911 183.486H205.965C218.599 182.019 230.952 178.731 242.639 173.723" fill="#00855D"/>
<path opacity="0.1" d="M268.733 122.853H282.99C282.864 130.03 281.42 137.08 278.26 143.59C275.63 149 271.975 153.729 267.657 157.861V135.376H268.733V122.853Z" fill="#00855D"/>
<path opacity="0.1" d="M282.998 121.76H268.733V92.2197H276.452C280.447 101.533 282.985 111.754 282.998 121.76Z" fill="#00855D"/>
<path opacity="0.1" d="M177.449 59.6111H168.815V70.7744H177.449V59.6111Z" fill="#00855D"/>
<path opacity="0.1" d="M177.449 82.7502H168.815V85.3207H177.449V82.7502Z" fill="#00855D"/>
<path opacity="0.1" d="M177.449 86.4119H168.815V93.9112H177.449V86.4119Z" fill="#00855D"/>
<path opacity="0.1" d="M177.449 105.89H168.815V117.053H177.449V105.89Z" fill="#00855D"/>
<path opacity="0.1" d="M177.449 129.029H168.815V140.192H177.449V129.029Z" fill="#00855D"/>
<path opacity="0.1" d="M177.446 160.735C177.533 160.735 177.618 160.735 177.702 160.751H177.446V163.344H168.815V152.168H177.446V160.735Z" fill="#00855D"/>
<path opacity="0.1" d="M177.446 175.302V183.926C174.561 183.682 171.684 183.351 168.815 182.932V175.302H177.446Z" fill="#00855D"/>
<path opacity="0.1" d="M134.465 120.939H97.4663V121.759H134.465V120.939Z" fill="#00855D"/>
<path opacity="0.1" d="M134.465 122.851H97.4663V125.993H134.465V122.851Z" fill="#00855D"/>
<path opacity="0.1" d="M134.465 136.295H97.4663V141.349H134.465V136.295Z" fill="#00855D"/>
<path opacity="0.1" d="M134.462 151.652V156.706H105.523C104.267 155.749 103.025 154.766 101.799 153.757C100.952 153.06 100.112 152.344 99.2563 151.652H134.462Z" fill="#00855D"/>
<path opacity="0.1" d="M134.462 167.006V172.055H131.407C127.974 170.51 124.608 168.824 121.309 166.998L134.462 167.006Z" fill="#00855D"/>
<path opacity="0.1" d="M205.973 89.8381H198.689V97.1049H205.973V89.8381Z" fill="#00855D"/>
<path opacity="0.1" d="M48.2722 55.9802H40.9888V63.247H48.2722V55.9802Z" fill="#00855D"/>
<path opacity="0.1" d="M48.2722 72.8594H40.9888V80.1262H48.2722V72.8594Z" fill="#00855D"/>
<path opacity="0.1" d="M48.2722 89.7385H40.9888V97.0053H48.2722V89.7385Z" fill="#00855D"/>
<path opacity="0.1" d="M48.2722 106.615H40.9888V113.882H48.2722V106.615Z" fill="#00855D"/>
<path opacity="0.1" d="M48.2722 123.494H40.9888V130.761H48.2722V123.494Z" fill="#00855D"/>
<path opacity="0.1" d="M48.2722 140.374H40.9888V147.64H48.2722V140.374Z" fill="#00855D"/>
<path opacity="0.1" d="M233.778 89.8381H226.494V97.1049H233.778V89.8381Z" fill="#00855D"/>
<path opacity="0.1" d="M205.973 107.762H198.689V115.029H205.973V107.762Z" fill="#00855D"/>
<path opacity="0.1" d="M233.778 107.762H226.494V115.029H233.778V107.762Z" fill="#00855D"/>
<path opacity="0.1" d="M205.973 125.684H198.689V132.951H205.973V125.684Z" fill="#00855D"/>
<path opacity="0.1" d="M233.778 125.684H226.494V132.951H233.778V125.684Z" fill="#00855D"/>
<path opacity="0.1" d="M205.973 143.608H198.689V150.875H205.973V143.608Z" fill="#00855D"/>
<path opacity="0.1" d="M233.778 143.608H226.494V150.875H233.778V143.608Z" fill="#00855D"/>
<path opacity="0.1" d="M205.973 161.532H198.689V168.799H205.973V161.532Z" fill="#00855D"/>
<path opacity="0.1" d="M233.778 161.532H226.494V168.799H233.778V161.532Z" fill="#00855D"/>
<path opacity="0.1" d="M198.689 184.14V179.454H205.97V183.473L198.689 184.14Z" fill="#00855D"/>
<path opacity="0.1" d="M4.60986 76.2373V80.3945H29.536V76.2373H4.60986ZM7.09403 80.1339H5.0606V76.4928H7.10939L7.09403 80.1339ZM9.57563 80.1339H7.52683V76.4928H9.57563V80.1339ZM12.0521 80.1339H10.0033V76.4928H12.0521V80.1339ZM14.5337 80.1339H12.4875V76.4928H14.5363L14.5337 80.1339ZM17.0128 80.1339H14.964V76.4928H17.0128V80.1339ZM19.4944 80.1339H17.4456V76.4928H19.4944V80.1339ZM21.976 80.1339H19.9272V76.4928H21.976V80.1339ZM24.455 80.1339H22.4062V76.4928H24.455V80.1339ZM26.934 80.1339H24.8852V76.4928H26.934V80.1339ZM29.4131 80.1339H27.3643V76.4928H29.4131V80.1339Z" fill="#00855D"/>
<path opacity="0.1" d="M4.60986 88.3333V92.4904H29.536V88.3333H4.60986ZM7.09403 92.2273H5.0606V88.5964H7.10939L7.09403 92.2273ZM9.57563 92.2273H7.52683V88.5964H9.57563V92.2273ZM12.0521 92.2273H10.0033V88.5964H12.0521V92.2273ZM14.5337 92.2273H12.4875V88.5964H14.5363L14.5337 92.2273ZM17.0128 92.2273H14.964V88.5964H17.0128V92.2273ZM19.4944 92.2273H17.4456V88.5964H19.4944V92.2273ZM21.976 92.2273H19.9272V88.5964H21.976V92.2273ZM24.455 92.2273H22.4062V88.5964H24.455V92.2273ZM26.934 92.2273H24.8852V88.5964H26.934V92.2273ZM29.4131 92.2273H27.3643V88.5964H29.4131V92.2273Z" fill="#00855D"/>
<path opacity="0.1" d="M4.60986 100.434V104.599H29.536V100.434H4.60986ZM7.09403 104.328H5.0606V100.695H7.10939L7.09403 104.328ZM9.57563 104.328H7.52683V100.695H9.57563V104.328ZM12.0521 104.328H10.0033V100.695H12.0521V104.328ZM14.5337 104.328H12.4875V100.695H14.5363L14.5337 104.328ZM17.0128 104.328H14.964V100.695H17.0128V104.328ZM19.4944 104.328H17.4456V100.695H19.4944V104.328ZM21.976 104.328H19.9272V100.695H21.976V104.328ZM24.455 104.328H22.4062V100.695H24.455V104.328ZM26.934 104.328H24.8852V100.695H26.934V104.328ZM29.4131 104.328H27.3643V100.695H29.4131V104.328Z" fill="#00855D"/>
<path opacity="0.1" d="M4.60986 112.535V116.687H29.536V112.535H4.60986ZM7.09403 116.429H5.0606V112.793H7.10939L7.09403 116.429ZM9.57563 116.429H7.52683V112.793H9.57563V116.429ZM12.0521 116.429H10.0033V112.793H12.0521V116.429ZM14.5337 116.429H12.4875V112.793H14.5363L14.5337 116.429ZM17.0128 116.429H14.964V112.793H17.0128V116.429ZM19.4944 116.429H17.4456V112.793H19.4944V116.429ZM21.976 116.429H19.9272V112.793H21.976V116.429ZM24.455 116.429H22.4062V112.793H24.455V116.429ZM26.934 116.429H24.8852V112.793H26.934V116.429ZM29.4131 116.429H27.3643V112.793H29.4131V116.429Z" fill="#00855D"/>
<path opacity="0.1" d="M4.71729 124.634C4.81716 125.025 4.92985 125.416 5.04765 125.802V124.895H7.09645V128.528H6.00034C6.03363 128.612 6.06693 128.704 6.10022 128.784H29.5359V124.634H4.71729ZM9.58317 128.528H7.53438V124.895H9.58317V128.528ZM12.0597 128.528H10.0109V124.895H12.0597V128.528ZM14.5413 128.528H12.4873V124.895H14.5361L14.5413 128.528ZM17.0203 128.528H14.9715V124.895H17.0203V128.528ZM19.5019 128.528H17.4531V124.895H19.5019V128.528ZM21.9835 128.528H19.9347V124.895H21.9835V128.528ZM24.4625 128.528H22.4137V124.895H24.4625V128.528ZM26.9416 128.528H24.8928V124.895H26.9416V128.528ZM29.4206 128.528H27.3718V124.895H29.4206V128.528Z" fill="#00855D"/>
<path opacity="0.1" d="M10.5054 136.735C10.5694 136.817 10.6309 136.909 10.6974 136.991H12.0522V138.736C12.1982 138.91 12.3416 139.083 12.4901 139.247V136.98H14.5389V140.627H13.7092C13.7911 140.711 13.8705 140.8 13.9653 140.882H29.5438V136.735H10.5054ZM17.0129 140.627H14.9641V136.996H17.0129V140.627ZM19.4945 140.627H17.4457V136.996H19.4945V140.627ZM21.9761 140.627H19.9273V136.996H21.9761V140.627ZM24.4551 140.627H22.4063V136.996H24.4551V140.627ZM26.9341 140.627H24.8853V136.996H26.9341V140.627ZM29.4132 140.627H27.3644V136.996H29.4132V140.627Z" fill="#00855D"/>
<path opacity="0.1" d="M24.1782 148.833C24.4113 148.966 24.6494 149.089 24.8902 149.222V149.094H26.939V150.244L27.3743 150.446V149.094H29.4231V151.304C29.4624 151.324 29.5036 151.339 29.5461 151.35V148.833H24.1782Z" fill="#00855D"/>
<path opacity="0.1" d="M193.222 85.3209H193.237H193.222ZM177.446 160.733H177.702H177.446ZM160.986 122.363C161.035 122.526 161.076 122.69 161.122 122.851C161.081 122.69 161.038 122.526 160.986 122.363ZM193.222 85.3132H193.237H193.222ZM38.5376 47.0527V48.1438H49.9776V47.0527H38.5376ZM177.446 160.733H177.702H177.446ZM160.986 122.363C161.035 122.526 161.076 122.69 161.122 122.851C161.081 122.69 161.038 122.526 160.986 122.363ZM193.222 85.3132H193.237H193.222ZM177.446 160.725H177.702H177.446ZM160.986 122.363C161.035 122.526 161.076 122.69 161.122 122.851C161.081 122.69 161.038 122.526 160.986 122.363Z" fill="#00855D"/>
<path d="M118.215 97.0104C118.215 97.0104 117.206 96.8699 117.206 95.4033C117.206 93.9366 116.484 91.1975 116.484 91.1975C116.484 91.1848 115.859 86.4271 114.996 85.6708C114.133 84.9145 113.024 80.4737 113.024 80.4737C113.024 80.4737 112.835 78.0642 112.448 77.5455C112.061 77.0268 111.539 75.7569 110.768 73.9453C109.997 72.1337 106.783 70.8792 106.783 70.8792C106.783 70.8792 100.972 67.5166 99.3255 66.4205C99.1758 66.3304 99.0359 66.2251 98.908 66.1062C98.6212 65.7306 97.3714 65.7229 97.3714 65.7229C97.2408 64.9002 97.1153 63.9548 97.0744 63.0988C97.0744 63.0068 97.0744 62.9148 97.0616 62.8228C98.8978 61.7399 100.281 60.0325 100.957 58.0141C100.988 57.917 101.013 57.8148 101.041 57.7177C101.151 57.6815 101.253 57.6229 101.339 57.5454C101.425 57.468 101.493 57.3735 101.541 57.268C101.689 56.9384 101.692 56.5526 101.876 56.246C102.091 55.8831 102.501 55.6889 102.824 55.4155C103.638 54.7257 103.848 53.5631 103.81 52.5052C103.784 51.6493 103.646 50.7856 103.7 49.9348L103.715 49.7202C103.73 49.5924 103.748 49.4646 103.771 49.342C103.897 48.7083 104.171 48.1104 104.325 47.4819C104.478 46.8533 104.494 46.1455 104.135 45.6038C103.61 44.8092 102.516 44.6508 101.556 44.569C100.468 44.477 99.4945 44.5971 98.7979 43.6952C98.4719 43.2237 98.1051 42.7817 97.7018 42.3742C97.5584 42.2413 96.1652 41.393 96.1652 41.3368C94.8055 40.7085 93.2642 40.5905 91.8243 41.0046C91.1021 41.2141 90.4209 41.5565 89.6885 41.7277C88.1083 42.1008 86.29 41.6971 84.9481 42.599C84.2003 43.11 83.7521 43.9226 83.3321 44.7147C82.9906 45.3671 82.644 46.0186 82.2923 46.6693C81.7263 47.7399 81.1501 48.8284 80.9119 50.014C80.8619 50.272 80.831 50.5333 80.8197 50.7959V50.8086C80.8197 50.9032 80.8197 50.9977 80.8197 51.0923V51.2123C80.8197 51.3018 80.8197 51.3887 80.8351 51.4679C80.8505 51.5471 80.8479 51.5726 80.8556 51.6263C80.8633 51.6799 80.8761 51.8 80.8914 51.8818C80.9068 51.9636 80.9375 52.1066 80.9683 52.2191C80.9811 52.2676 80.999 52.3136 81.0144 52.3596C81.04 52.4465 81.0707 52.5308 81.104 52.6151C81.1219 52.6585 81.1399 52.7045 81.1604 52.748C81.1988 52.8374 81.2449 52.9243 81.291 53.0035C81.3115 53.0393 81.3268 53.0725 81.3473 53.1057C81.4188 53.2245 81.4974 53.3389 81.5829 53.4481C82.131 54.1303 82.9377 54.5647 83.5344 55.2035C83.5344 55.229 83.5344 55.2546 83.5344 55.2776C83.5344 55.3491 83.5344 55.4181 83.5344 55.4896C83.566 56.9142 83.9461 58.3096 84.6415 59.5542C85.3369 60.7989 86.3266 61.8552 87.5244 62.6312C87.5244 62.7283 87.5372 62.828 87.5424 62.9251C87.5923 63.6835 87.5829 64.4447 87.5142 65.2017C87.4099 65.0791 87.2793 64.9815 87.1322 64.9161C86.985 64.8506 86.825 64.819 86.6639 64.8235C86.5539 64.8181 86.4436 64.8276 86.3361 64.8516L86.3131 64.8337V64.8567C85.7496 64.9947 85.0556 65.5798 84.3923 67.2432C84.3923 67.2432 82.3743 69.5122 80.8377 69.4176C79.3011 69.3231 75.4109 71.7786 75.4109 71.7786C75.4109 71.7786 71.6155 74.2366 70.8011 76.7406C70.3459 78.1605 69.8002 79.55 69.1672 80.9004L64.4755 90.546L63.6099 98.1986C63.6099 98.1986 64.0888 101.602 63.994 102.121C63.8993 102.639 65.9634 107.318 65.9634 107.318C65.9634 107.318 72.7833 119.273 75.5697 119.887L75.7695 119.746C75.8887 119.808 76.0151 119.855 76.1459 119.887L76.7196 119.483C76.754 119.933 76.7394 120.385 76.6761 120.832C76.2919 122.012 76.8195 129.716 77.4905 131.226C78.1614 132.736 77.9233 152.536 77.9233 152.536L77.8285 154.284C77.8285 154.284 77.8285 154.34 77.8516 154.437L77.8285 154.851L77.8976 154.887C77.9694 155.441 77.9461 156.004 77.8285 156.55C77.5878 157.317 77.4905 159.483 77.4905 159.483C77.4905 159.483 75.5723 171.717 76.4814 174.175C77.3906 176.633 78.164 179.326 78.164 179.326C78.164 179.326 79.1244 182.393 78.2101 182.916C77.2958 183.44 74.6964 184.319 75.2317 185.597C75.7182 186.777 77.5647 189.94 77.8387 190.403L77.8157 190.646L77.4392 194.716C77.5002 195.253 77.6463 195.778 77.872 196.269C78.2844 197.156 79.0859 198.076 80.6097 197.976C80.8658 197.958 81.1629 197.928 81.4497 197.889C84.2387 197.516 87.673 196.275 87.673 196.275C87.4947 196.162 87.3312 196.027 87.1864 195.873C87.0493 195.741 86.9407 195.582 86.8671 195.406C86.7936 195.231 86.7567 195.042 86.7587 194.851C86.7997 194.11 85.409 190.579 85.0633 189.71C85.0095 189.585 84.9814 189.514 84.9814 189.514C84.9814 189.514 88.1519 186.207 87.6243 183.277C87.6243 183.277 84.1157 181.233 85.2708 180.111C86.4258 178.989 88.4899 175.767 88.4899 175.767C88.4899 175.767 88.5847 163.72 88.4899 161.921C88.3911 160.672 88.4505 159.416 88.6666 158.183C88.705 157.996 88.7511 157.815 88.7998 157.636C90.3971 157.874 92.0097 157.996 93.6247 158.001C94.2137 158.001 94.813 158.001 95.4174 157.966C95.4174 158.136 95.4251 158.32 95.4405 158.517C95.5736 161.502 95.822 166.735 96.0244 168.679C96.3112 171.467 97.8964 178.979 97.8964 178.979C97.8964 178.979 94.8719 180.916 98.424 185.689C98.424 185.689 98.424 187.419 98.1884 187.669C97.9369 188.487 97.7342 189.32 97.5814 190.163C97.4329 191.062 97.3714 191.972 97.6122 192.444C98.1884 193.574 101.646 193.482 101.646 193.482L101.73 193.467C102.383 193.399 103.043 193.462 103.671 193.651C104.299 193.84 104.883 194.152 105.39 194.568C106.704 195.62 111.69 195.158 114.389 194.823C115.447 194.69 116.154 194.568 116.154 194.568C116.188 194.448 116.2 194.324 116.19 194.2C116.161 193.538 115.642 192.087 112.118 190.791C112.118 190.791 108.804 188.568 108.85 186.632H108.781H108.397C108.676 186.616 108.855 186.632 108.855 186.632C108.855 186.632 107.557 181.905 108.087 181.521C108.617 181.138 107.029 175.9 107.029 175.9C107.029 175.9 106.12 167.11 106.071 166.495C106.073 165.966 106.153 165.441 106.309 164.936L106.071 160.117C106.071 160.117 106.025 158.515 106.071 157.994C106.063 157.541 106.027 157.09 105.961 156.642C105.938 156.463 105.915 156.277 105.889 156.093C107.131 155.778 107.938 155.487 107.938 155.487L107.795 138.713C108.85 136.669 109.044 132.184 109.039 129.003C109.039 126.959 108.947 125.446 108.947 125.446L110.389 123.098C110.389 123.098 110.722 120.288 110.194 119.672C109.961 119.393 110.066 119.105 110.258 118.867C110.358 118.788 110.463 118.716 110.573 118.652C110.573 118.652 110.558 118.629 110.54 118.596C110.641 118.512 110.748 118.436 110.86 118.369C110.86 118.369 110.348 117.577 110.806 117.242C111.237 117.533 111.621 117.753 111.913 117.932C111.892 118.118 111.872 118.226 111.872 118.226L111.995 117.97C112.276 118.129 112.448 118.226 112.448 118.226C112.448 118.226 114.707 113.736 114.658 113.075C114.609 112.413 116.195 109.625 116.195 109.625C116.195 109.625 116.387 108.161 117.252 107.548C118.118 106.935 117.923 102.491 117.923 102.491C117.923 102.491 118.164 100.176 118.74 99.2309C119.317 98.2855 118.215 97.0104 118.215 97.0104ZM74.996 95.0404L75.0396 96.111C74.7835 95.6997 74.5991 95.4033 74.5991 95.4033L74.996 95.0404Z" fill="url(#paint0_linear)"/>
<path d="M112.571 116.286L112.018 118.637C112.018 118.637 107.587 116.381 106.788 113.514C105.989 110.647 108.125 109.559 108.125 109.559L112.253 111.304L112.571 116.286Z" fill="white"/>
<path opacity="0.1" d="M112.571 116.286L112.018 118.637C112.018 118.637 107.587 116.381 106.788 113.514C105.989 110.647 108.125 109.559 108.125 109.559L112.253 111.304L112.571 116.286Z" fill="black"/>
<path d="M87.7064 196.29C87.7064 196.29 83.6088 197.792 80.7917 197.981C79.296 198.081 78.5098 197.166 78.1052 196.285C77.8841 195.795 77.7415 195.273 77.6826 194.739L78.0488 190.689L78.2435 188.532L84.2285 186.981L85.0762 189.567L85.1556 189.764C85.4962 190.628 86.8612 194.141 86.8202 194.874C86.8186 195.062 86.8549 195.248 86.9271 195.422C86.9993 195.595 87.1058 195.752 87.2403 195.884C87.3777 196.038 87.5343 196.175 87.7064 196.29Z" fill="white"/>
<path d="M115.696 194.231C115.706 194.354 115.694 194.477 115.66 194.596C115.66 194.596 106.896 196.055 105.103 194.596C104.598 194.17 104.009 193.854 103.374 193.668C102.739 193.482 102.072 193.431 101.415 193.518C101.415 193.518 98.0247 193.61 97.4587 192.496C97.2231 192.028 97.2846 191.121 97.4305 190.227C97.5795 189.389 97.7779 188.56 98.0247 187.746L98.1604 187.638L98.9671 186.992L108.412 186.713H108.484C108.438 188.64 111.69 190.85 111.69 190.85C115.145 192.128 115.655 193.571 115.696 194.231Z" fill="white"/>
<path opacity="0.1" d="M115.696 194.23C115.705 194.354 115.692 194.477 115.657 194.596C115.657 194.596 106.896 196.055 105.103 194.596C104.598 194.17 104.01 193.854 103.375 193.668C102.74 193.483 102.074 193.431 101.418 193.518C101.418 193.518 98.0248 193.61 97.4614 192.496C97.2258 192.025 97.2847 191.121 97.4307 190.227C98.7368 190.357 100.798 190.681 101.608 191.456C102.832 192.633 104.906 193.809 106.179 193.901C107.175 193.965 113.135 194.154 115.696 194.23Z" fill="black"/>
<path opacity="0.1" d="M87.706 196.29C87.706 196.29 83.6084 197.792 80.7913 197.981C79.2957 198.081 78.5095 197.166 78.1074 196.282C79.1497 196.632 80.5967 197 81.3573 196.663C82.2588 196.264 85.4549 196.006 87.2476 195.896C87.384 196.046 87.5379 196.178 87.706 196.29Z" fill="black"/>
<path d="M93.7862 75.2153C90.4056 73.9045 86.057 69.5736 87.1429 67.5499C87.3841 67.0392 87.5274 66.4881 87.5655 65.9248C87.6353 65.1603 87.6456 64.3914 87.5962 63.6252C87.5201 62.3704 87.3687 61.1213 87.1429 59.8845C87.1429 59.8845 97.6968 60.1221 97.0822 61.6731C96.9029 62.1279 96.8747 62.9175 96.9234 63.8015C96.972 64.6856 97.1001 65.6847 97.2333 66.5304C97.4177 67.6904 97.6021 68.5745 97.6021 68.5745C97.6021 68.5745 96.9567 69.4765 96.5776 69.525C96.1986 69.5736 98.6367 77.0831 93.7862 75.2153Z" fill="#CF6F80"/>
<path opacity="0.1" d="M85.1478 189.764L85.0684 189.851C81.9132 186.044 78.0974 190.789 78.0974 190.789L78.041 190.689L78.2357 188.532L84.2207 186.981L85.0684 189.567L85.1478 189.764Z" fill="black"/>
<path opacity="0.1" d="M108.486 186.982C108.486 186.982 106.181 186.933 104.952 188.016C103.723 189.1 97.7812 188.251 98.0373 188.016C98.1132 187.9 98.159 187.767 98.1705 187.628L98.9772 186.982L108.422 186.703C108.458 186.874 108.486 186.982 108.486 186.982Z" fill="black"/>
<path d="M89.074 157.084C88.9024 157.507 88.772 157.946 88.6848 158.395C88.4712 159.623 88.4118 160.872 88.5081 162.115C88.6028 163.904 88.5081 175.89 88.5081 175.89C88.5081 175.89 86.4823 179.086 85.3529 180.213C84.2235 181.34 87.6578 183.363 87.6578 183.363C88.17 186.276 85.0661 189.567 85.0661 189.567C81.9109 185.76 78.095 190.508 78.095 190.508C78.095 190.508 76.0206 186.93 75.5033 185.653C74.986 184.375 77.5291 183.491 78.4229 182.973C79.3166 182.454 78.3793 179.395 78.3793 179.395C78.3793 179.395 77.6238 176.715 76.7275 174.27C75.8311 171.825 77.716 159.652 77.716 159.652C77.716 159.652 77.8133 157.49 78.0464 156.736C78.164 156.193 78.1874 155.633 78.1155 155.081C78.1002 154.894 78.0822 154.738 78.0694 154.634C78.0566 154.529 78.0464 154.48 78.0464 154.48L78.0822 154.419L79.3627 152.038C79.3627 152.038 89.6887 155.584 89.074 157.084Z" fill="#00855D"/>
<path d="M108.486 186.701C108.486 186.701 106.181 186.652 104.952 187.723C103.723 188.793 97.7812 187.958 98.0373 187.723C98.2934 187.488 98.273 185.747 98.273 185.747C94.7874 181 97.7608 179.073 97.7608 179.073C97.7608 179.073 96.2037 171.6 95.922 168.827C95.7248 166.891 95.4815 161.686 95.3509 158.714C95.2945 157.437 95.2612 156.558 95.2612 156.558L98.1091 155.985L98.4753 155.911L105.344 154.537C105.344 154.537 105.533 155.814 105.661 156.859C105.725 157.305 105.761 157.755 105.769 158.206C105.723 158.717 105.769 160.316 105.769 160.316L106.002 165.112C105.85 165.615 105.771 166.138 105.769 166.663C105.815 167.274 106.709 176.018 106.709 176.018C106.709 176.018 108.263 181.235 107.733 181.611C107.203 181.986 108.486 186.701 108.486 186.701Z" fill="#00855D"/>
<path opacity="0.1" d="M97.0818 61.6731C96.9025 62.1279 96.8744 62.9175 96.923 63.8015C95.5094 64.6508 93.8842 65.0851 92.2344 65.0544C90.5845 65.0236 88.9768 64.5292 87.5959 63.6278C87.5198 62.3721 87.3685 61.1221 87.1426 59.8845C87.1426 59.8845 97.6964 60.117 97.0818 61.6731Z" fill="black"/>
<path d="M101.162 56.0263C101.164 56.947 101.019 57.8622 100.732 58.7373C100.09 60.698 98.7742 62.3693 97.017 63.4558C95.2597 64.5422 93.1741 64.9739 91.1287 64.6746C89.0833 64.3752 87.2098 63.3641 85.8393 61.8199C84.4688 60.2756 83.6897 58.2978 83.6395 56.2358C83.6395 56.1643 83.6395 56.0978 83.6395 56.0263C83.6196 54.8656 83.8315 53.7127 84.263 52.6346C84.6944 51.5566 85.3366 50.575 86.1523 49.7472C86.9679 48.9194 87.9406 48.2619 89.0136 47.8131C90.0866 47.3643 91.2384 47.1332 92.4019 47.1332C93.5654 47.1332 94.7172 47.3643 95.7902 47.8131C96.8632 48.2619 97.8359 48.9194 98.6515 49.7472C99.4672 50.575 100.109 51.5566 100.541 52.6346C100.972 53.7127 101.184 54.8656 101.164 56.0263H101.162Z" fill="#CF6F80"/>
<path opacity="0.1" d="M93.7862 75.2152C90.4056 73.9045 86.057 69.5735 87.1429 67.5499C87.3841 67.0392 87.5274 66.488 87.5655 65.9248L92.1932 69.7192L95.0564 72.0622L97.2333 66.5329C97.4177 67.6929 97.6021 68.577 97.6021 68.577C97.6021 68.577 96.9567 69.479 96.5776 69.5275C96.1986 69.5761 98.6367 77.083 93.7862 75.2152Z" fill="black"/>
<path d="M105.753 91.9846L101.889 156.757L96.8487 157.087L83.7979 119.529L85.9388 74.9393L86.3896 65.5186L92.1928 70.2736L95.0585 72.6167L97.2994 66.9264L101.466 70.5496L105.753 91.9846Z" fill="#00855D"/>
<path opacity="0.1" d="M89.0739 157.084C88.9022 157.507 88.7719 157.946 88.6846 158.395C85.0173 157.83 81.4555 156.72 78.118 155.101L78.0488 155.065L78.0719 154.654L78.0847 154.439L79.3652 152.058C79.3652 152.058 89.6885 155.584 89.0739 157.084Z" fill="black"/>
<path opacity="0.1" d="M98.1677 158.405C97.2302 158.564 96.2846 158.672 95.3352 158.727C95.2789 157.45 95.2456 156.571 95.2456 156.571L98.0934 155.998L98.1677 158.405Z" fill="black"/>
<path opacity="0.1" d="M105.646 156.872C103.825 157.345 101.013 157.876 98.4958 157.544L98.46 155.924L105.329 154.549C105.329 154.549 105.518 155.814 105.646 156.872Z" fill="black"/>
<path opacity="0.1" d="M98.45 157.841C87.9499 159.629 78.3334 154.501 78.3334 154.501L78.4256 152.763C78.4256 152.763 78.6637 133.066 78.003 131.556C77.3423 130.046 76.8275 122.388 77.2014 121.213C77.5753 120.037 75.8364 102.412 75.8364 102.412L75.5547 95.2578L65.2441 91.0904L69.8539 81.5035C70.4766 80.1594 71.0121 78.7768 71.4571 77.3642C72.2587 74.8755 75.9798 72.4303 75.9798 72.4303C75.9798 72.4303 79.7957 69.9876 81.3041 70.0796C82.8126 70.1715 84.7896 67.9179 84.7896 67.9179C86.2494 64.2053 87.5709 65.8866 87.5709 65.8866C87.5709 66.0629 87.5709 65.8866 87.4992 66.4359C86.987 70.5114 95.7814 83.3892 95.9069 83.6166L96.7444 103.971L97.592 129.729L98.45 157.841Z" fill="black"/>
<path d="M98.1676 157.84C87.6675 159.629 78.0485 154.501 78.0485 154.501L78.1432 152.763C78.1432 152.763 78.3814 133.066 77.7181 131.556C77.0548 130.046 76.5426 122.388 76.9191 121.213C77.2955 120.037 75.5541 102.412 75.5541 102.412L75.2698 95.2577L64.9541 91.075L69.5639 81.4881C70.1852 80.1435 70.7206 78.7609 71.1671 77.3488C71.9661 74.8601 75.6898 72.4149 75.6898 72.4149C75.6898 72.4149 79.5057 69.9722 81.0115 70.0642C82.5174 70.1562 84.497 67.9025 84.497 67.9025C85.9594 64.1899 87.5702 65.8712 87.5702 65.8712C87.5702 66.0475 87.4166 66.1267 87.4985 66.4206C88.6254 70.3733 95.4991 83.3738 95.6245 83.6012L96.4722 103.955L97.3199 129.714L98.1676 157.84Z" fill="white"/>
<path opacity="0.1" d="M95.3379 84.1812C94.2085 83.7111 88.226 76.8965 88.226 76.8965V75.3456C88.0084 74.8346 86.715 75.1463 85.665 75.504L86.1158 66.0833L86.628 66.5074C87.7497 70.4576 95.2073 83.9538 95.3379 84.1812Z" fill="black"/>
<path d="M95.6222 83.6165C94.4902 83.1464 88.5078 76.3319 88.5078 76.3319V74.7809C88.2901 74.2699 86.9968 74.5816 85.9468 74.9393L86.4001 65.5186L86.9123 65.9427C88.0365 69.8929 95.4967 83.3917 95.6222 83.6165Z" fill="white"/>
<path opacity="0.1" d="M78.3331 117.602C78.4739 117.602 85.6345 116.851 85.6345 116.851C85.6345 116.851 89.9702 125.357 89.6859 127.427C89.4017 129.496 88.8869 131.328 87.1429 131.004C85.3988 130.679 77.7568 131.259 77.7568 131.259L78.3331 117.602Z" fill="black"/>
<path d="M78.0489 117.038C78.1897 117.038 85.3503 116.286 85.3503 116.286C85.3503 116.286 89.6835 124.795 89.4018 126.862C89.1201 128.929 88.6002 130.764 86.8587 130.439C85.1172 130.115 77.4727 130.695 77.4727 130.695L78.0489 117.038Z" fill="white"/>
<path d="M83.445 113.044C83.445 113.044 90.0165 116.567 90.1574 117.643C90.2982 118.719 86.8127 117.173 86.0598 116.986C85.5642 116.867 85.0598 116.789 84.5514 116.751L79.5293 116.887L83.445 113.044Z" fill="#CF6F80"/>
<path opacity="0.1" d="M93.5044 84.6207C93.8863 84.6207 94.1959 84.3119 94.1959 83.9309C94.1959 83.5498 93.8863 83.241 93.5044 83.241C93.1226 83.241 92.813 83.5498 92.813 83.9309C92.813 84.3119 93.1226 84.6207 93.5044 84.6207Z" fill="black"/>
<path d="M93.5044 84.3395C93.8863 84.3395 94.1959 84.0306 94.1959 83.6496C94.1959 83.2686 93.8863 82.9597 93.5044 82.9597C93.1226 82.9597 92.813 83.2686 92.813 83.6496C92.813 84.0306 93.1226 84.3395 93.5044 84.3395Z" fill="#3F3D56"/>
<path opacity="0.1" d="M94.7774 114.485C95.1593 114.485 95.4689 114.176 95.4689 113.795C95.4689 113.414 95.1593 113.105 94.7774 113.105C94.3955 113.105 94.0859 113.414 94.0859 113.795C94.0859 114.176 94.3955 114.485 94.7774 114.485Z" fill="black"/>
<path d="M94.7774 114.202C95.1593 114.202 95.4689 113.893 95.4689 113.512C95.4689 113.131 95.1593 112.822 94.7774 112.822C94.3955 112.822 94.0859 113.131 94.0859 113.512C94.0859 113.893 94.3955 114.202 94.7774 114.202Z" fill="#3F3D56"/>
<path opacity="0.1" d="M94.1934 99.5529C94.5753 99.5529 94.8849 99.244 94.8849 98.863C94.8849 98.482 94.5753 98.1731 94.1934 98.1731C93.8115 98.1731 93.502 98.482 93.502 98.863C93.502 99.244 93.8115 99.5529 94.1934 99.5529Z" fill="black"/>
<path d="M94.1934 99.2719C94.5753 99.2719 94.8849 98.963 94.8849 98.582C94.8849 98.201 94.5753 97.8921 94.1934 97.8921C93.8115 97.8921 93.502 98.201 93.502 98.582C93.502 98.963 93.8115 99.2719 94.1934 99.2719Z" fill="#3F3D56"/>
<path d="M110.133 116.608C110.133 116.608 110.604 117.314 110.133 117.643C109.662 117.973 110.179 118.77 110.179 118.77C110.179 118.77 109.004 119.457 109.521 120.076C110.038 120.694 109.711 123.487 109.711 123.487L108.297 125.822C108.297 125.822 108.382 127.327 108.387 129.361C108.387 132.534 108.2 136.996 107.165 139.03L107.308 155.717C107.308 155.717 102.358 157.521 98.2144 156.972L97.5997 130.194C97.5997 130.194 98.4961 115.009 98.8265 112.096C99.0198 110.584 99.0985 109.059 99.0621 107.535C99.0621 107.535 98.9212 102.977 98.4474 100.861C98.4474 100.861 97.9352 91.6958 97.884 89.1586C97.861 87.9449 97.925 84.4035 97.9967 81.0359C98.0761 77.3539 98.1657 73.8815 98.1657 73.8815L97.231 66.5023C97.231 66.5023 98.1657 66.4078 98.4474 66.7834C98.5736 66.901 98.7108 67.0062 98.8572 67.0976C100.471 68.1861 106.171 71.5333 106.171 71.5333C106.171 71.5333 109.327 72.7854 110.082 74.5791C110.837 76.3728 111.363 77.6452 111.729 78.1562C112.095 78.6673 112.295 81.0691 112.295 81.0691C112.295 81.0691 113.381 85.4894 114.228 86.2381C115.076 86.9868 115.696 91.7495 115.696 91.7495L108.205 97.6263C108.205 97.6263 107.547 107.402 107.406 107.78C107.265 108.159 110.133 116.608 110.133 116.608Z" fill="white"/>
<path d="M110.417 116.608C110.417 116.608 110.886 117.313 110.417 117.643C109.949 117.973 110.461 118.77 110.461 118.77C110.461 118.77 109.293 119.465 109.805 120.083C110.318 120.701 109.995 123.494 109.995 123.494L108.581 125.83C108.581 125.83 108.666 127.335 108.673 129.368C108.673 132.542 108.486 137.003 107.452 139.037L107.593 155.725C107.593 155.725 102.635 157.529 98.496 156.979L97.8839 130.201C97.8839 130.201 98.7802 115.016 99.1106 112.103C99.3041 110.591 99.3821 109.067 99.3436 107.543C99.3436 107.543 99.2028 102.984 98.7316 100.869C98.7316 100.869 98.2194 91.7034 98.1656 89.1661C98.1425 87.9524 98.2091 84.411 98.2783 81.0434C98.3577 77.3614 98.4473 73.889 98.4473 73.889L97.2129 66.4102C97.2129 66.4102 98.4473 66.4102 98.7316 66.7909C98.8566 66.9099 98.9939 67.0152 99.1413 67.1052C100.755 68.1936 106.458 71.5408 106.458 71.5408C106.458 71.5408 109.611 72.7929 110.366 74.5866C111.122 76.3803 111.647 77.6527 112.015 78.1637C112.384 78.6748 112.579 81.0766 112.579 81.0766C112.579 81.0766 113.665 85.497 114.512 86.2456C115.36 86.9943 115.972 91.7468 115.972 91.7468L108.481 97.6236C108.481 97.6236 107.823 107.399 107.68 107.778C107.536 108.156 110.417 116.608 110.417 116.608Z" fill="white"/>
<path opacity="0.1" d="M101.446 76.0586L102.122 78.026L98.5624 81.6032C98.6418 77.9238 98.7315 74.4488 98.7315 74.4488L97.4971 66.97C97.4971 66.97 98.7315 66.97 99.0157 67.3507C99.1404 67.4694 99.2778 67.5739 99.4255 67.6624L102.453 76.3754L101.446 76.0586Z" fill="black"/>
<path d="M101.162 75.4939L101.841 77.4613L98.2808 81.0385C98.3602 77.3566 98.4499 73.8841 98.4499 73.8841L97.2129 66.4053C97.2129 66.4053 98.4499 66.4053 98.7316 66.786C98.8572 66.9043 98.9945 67.0096 99.1413 67.1003L102.171 75.8107L101.162 75.4939Z" fill="white"/>
<path opacity="0.1" d="M101.162 56.0263C101.164 56.947 101.019 57.8622 100.732 58.7373C100.683 58.7448 100.634 58.7426 100.586 58.7307C100.539 58.7189 100.494 58.6976 100.455 58.6683C100.388 56.3687 99.2538 54.2096 97.8581 52.3725C97.4662 51.8178 96.9912 51.3265 96.4495 50.916C95.902 50.5057 95.2209 50.3135 94.539 50.3769C93.7708 50.4817 93.0921 51.0029 92.3161 51.0693C91.2917 51.1537 90.3749 50.4459 89.3582 50.4101C88.9448 50.414 88.5371 50.5059 88.1622 50.6795C87.7872 50.8531 87.4537 51.1044 87.1839 51.4168C86.6498 52.0473 86.2529 52.7817 86.0186 53.5734C85.616 54.7739 85.3967 56.028 85.3681 57.2936C85.3553 58.0091 85.2862 58.9059 84.6203 59.1665C84.6705 58.6404 84.6105 58.1096 84.4443 57.6077C84.2781 57.1059 84.0093 56.6439 83.6548 56.2511L83.6395 56.2358C83.6395 56.1643 83.6395 56.0978 83.6395 56.0263C83.6196 54.8656 83.8315 53.7127 84.263 52.6346C84.6944 51.5566 85.3366 50.575 86.1523 49.7472C86.9679 48.9194 87.9406 48.2619 89.0136 47.8131C90.0866 47.3643 91.2384 47.1332 92.4019 47.1332C93.5654 47.1332 94.7172 47.3643 95.7902 47.8131C96.8632 48.2619 97.8359 48.9194 98.6515 49.7472C99.4672 50.575 100.109 51.5566 100.541 52.6346C100.972 53.7127 101.184 54.8656 101.164 56.0263H101.162Z" fill="black"/>
<path d="M96.0296 42.1442C94.6988 41.5197 93.1852 41.4015 91.7732 41.8121C91.0638 42.0216 90.3954 42.3614 89.6758 42.5326C88.1392 42.9031 86.3465 42.5019 85.0276 43.3988C84.2951 43.9098 83.8546 44.7172 83.4449 45.5017L82.4205 47.4487C81.8622 48.5142 81.2988 49.5975 81.0657 50.7703C80.8327 51.9431 80.9735 53.2565 81.7188 54.1993C82.2617 54.8866 83.0633 55.3185 83.6523 55.9649C84.0052 56.3581 84.2729 56.8198 84.4386 57.321C84.6043 57.8223 84.6644 58.3522 84.6152 58.8778C85.2837 58.6222 85.3477 57.7228 85.363 57.0074C85.3916 55.7418 85.6109 54.4876 86.0135 53.2871C86.2473 52.4952 86.6442 51.7607 87.1788 51.1306C87.4488 50.8185 87.7824 50.5673 88.1573 50.3937C88.5322 50.2201 88.9398 50.1281 89.3531 50.1239C90.3775 50.1597 91.2969 50.8649 92.311 50.7806C93.0793 50.7167 93.7605 50.1929 94.534 50.0907C95.2159 50.0263 95.8973 50.2186 96.4445 50.6298C96.9859 51.0397 97.4602 51.531 97.8504 52.0862C99.2487 53.9234 100.383 56.0773 100.45 58.3821C100.739 58.5941 101.157 58.3182 101.3 57.9911C101.444 57.6641 101.449 57.2808 101.63 56.9691C101.84 56.6088 102.243 56.4172 102.558 56.1463C103.357 55.459 103.556 54.3015 103.526 53.2514C103.495 52.2012 103.29 51.1357 103.49 50.1035C103.61 49.4698 103.882 48.877 104.03 48.251C104.179 47.625 104.197 46.9223 103.846 46.3832C103.334 45.5911 102.255 45.4352 101.315 45.3611C100.248 45.2692 99.2923 45.3867 98.6111 44.4898C98.2913 44.0218 97.9314 43.5824 97.5354 43.1765C97.3997 43.0436 96.0296 42.2004 96.0296 42.1442Z" fill="#512E4E"/>
<path opacity="0.1" d="M68.1938 96.0268L65.5176 91.0903L64.6699 98.7072C64.6699 98.7072 65.1411 102.09 65.0464 102.609C64.9516 103.128 66.9774 107.778 66.9774 107.778C66.9774 107.778 73.6693 119.669 76.4018 120.283L85.6342 113.701L83.1859 110.599C83.1859 110.599 82.3382 110.269 82.1257 110.599C82.1257 110.599 77.5799 102.795 77.1087 102.231C76.6374 101.666 76.7296 100.539 76.7296 100.539C76.7296 100.539 76.0228 99.788 76.2584 99.0828C76.494 98.3776 74.8934 95.9323 74.8934 95.9323L76.3532 94.5704L68.1938 96.0268Z" fill="black"/>
<path d="M65.6585 90.5281L64.9517 91.0902L64.104 98.707C64.104 98.707 64.5752 102.09 64.4805 102.609C64.3857 103.127 66.414 107.778 66.414 107.778C66.414 107.778 73.1033 119.669 75.8359 120.283L85.0709 113.701L82.62 110.599C82.62 110.599 81.7723 110.269 81.5598 110.599C81.5598 110.599 77.014 102.795 76.5428 102.231C76.0715 101.666 76.1663 100.539 76.1663 100.539C76.1663 100.539 75.4595 99.7879 75.6951 99.0826C75.9307 98.3774 74.3275 95.9322 74.3275 95.9322L75.7873 94.5703L65.6585 90.5281Z" fill="white"/>
<path opacity="0.1" d="M109.521 120.367C110.033 120.988 109.71 123.775 109.71 123.775L108.296 126.111C108.296 126.111 108.381 127.618 108.386 129.65L106.01 130.391C105.795 130.458 105.567 130.472 105.345 130.434C105.124 130.395 104.915 130.304 104.735 130.168C104.556 130.032 104.412 129.856 104.315 129.653C104.218 129.45 104.171 129.228 104.178 129.003L104.588 115.816L110.133 117.932C109.661 118.259 110.179 119.061 110.179 119.061C110.179 119.061 109.003 119.746 109.521 120.367Z" fill="black"/>
<path d="M109.805 120.083C110.317 120.704 109.994 123.494 109.994 123.494L108.581 125.83C108.581 125.83 108.665 127.335 108.673 129.369L106.253 130.122C106.042 130.188 105.82 130.202 105.603 130.164C105.386 130.126 105.181 130.036 105.006 129.903C104.83 129.77 104.689 129.597 104.594 129.399C104.499 129.201 104.453 128.983 104.46 128.763L104.872 115.535L110.42 117.651C109.946 117.978 110.463 118.778 110.463 118.778C110.463 118.778 109.293 119.465 109.805 120.083Z" fill="white"/>
<path d="M111.642 113.798C111.642 113.798 111.265 116.197 110.323 116.337C109.38 116.478 108.958 120.219 108.018 120.086C107.078 119.953 107.7 116.608 107.734 115.959C107.767 115.31 106.709 112.622 107.501 112.012C108.292 111.401 110.797 112.012 110.797 112.012L111.642 113.798Z" fill="#CF6F80"/>
<path opacity="0.1" d="M113.647 95.3216L115.424 91.7444C115.424 91.7444 116.131 94.4707 116.131 95.9271C116.131 97.3836 117.119 97.5266 117.119 97.5266C117.119 97.5266 118.203 98.8042 117.631 99.7343C117.06 100.664 116.83 102.979 116.83 102.979C116.83 102.979 117.017 107.397 116.169 108.008C115.321 108.618 115.145 110.077 115.145 110.077C115.145 110.077 113.588 112.85 113.636 113.509C113.685 114.168 111.47 118.632 111.47 118.632C111.47 118.632 112.553 113.085 106.24 110.688C106.24 110.688 106.192 108.805 106.663 108.289C107.134 107.773 107.869 107.538 107.408 104.929C106.947 102.32 107.275 99.2028 107.275 98.5768C107.275 97.9508 108.689 94.0466 108.689 94.0466L113.647 95.3216Z" fill="black"/>
<path d="M114.415 91.2334L115.967 91.7444C115.967 91.7444 116.676 94.4707 116.676 95.9272C116.676 97.3836 117.665 97.5267 117.665 97.5267C117.665 97.5267 118.748 98.8042 118.177 99.7343C117.606 100.664 117.378 102.979 117.378 102.979C117.378 102.979 117.565 107.397 116.717 108.008C115.87 108.618 115.68 110.077 115.68 110.077C115.68 110.077 114.126 112.85 114.174 113.509C114.223 114.168 112.005 118.632 112.005 118.632C112.005 118.632 113.091 113.085 106.776 110.688C106.776 110.688 106.73 108.805 107.201 108.289C107.672 107.773 108.407 107.538 107.946 104.929C107.485 102.32 107.813 99.2028 107.813 98.5768C107.813 97.9508 109.227 94.0466 109.227 94.0466L114.415 91.2334Z" fill="white"/>
<path opacity="0.1" d="M80.1362 183.951C80.1362 183.951 82.6102 182.4 84.2339 183.527C85.8575 184.654 80.1362 183.951 80.1362 183.951Z" fill="black"/>
<path opacity="0.1" d="M99.3589 179.155C99.3589 179.155 101.549 178.874 103.387 180.849C105.226 182.825 99.3589 179.155 99.3589 179.155Z" fill="black"/>
<g opacity="0.1">
<path opacity="0.1" d="M102.562 55.5868C102.247 55.8577 101.843 56.0519 101.633 56.4122C101.453 56.7213 101.448 57.102 101.305 57.4342C101.161 57.7664 100.744 58.0372 100.454 57.8277C100.388 55.5281 99.2508 53.369 97.8551 51.5293C97.4649 50.9741 96.9905 50.4828 96.4491 50.0729C95.901 49.6617 95.2188 49.4695 94.536 49.5338C93.7677 49.6385 93.0916 50.1598 92.3157 50.2236C91.2913 50.3105 90.3719 49.6027 89.3552 49.567C88.942 49.5711 88.5345 49.6633 88.1599 49.8373C87.7854 50.0114 87.4524 50.2633 87.1834 50.5763C86.6488 51.2054 86.2519 51.9391 86.0182 52.7302C85.6157 53.9308 85.3965 55.1849 85.3677 56.4505C85.3523 57.1634 85.2857 58.0525 84.625 58.3183C84.6404 58.507 84.6404 58.6967 84.625 58.8855C85.2909 58.63 85.3574 57.7306 85.3728 57.0152C85.4014 55.7495 85.6206 54.4954 86.0233 53.2949C86.257 52.503 86.6539 51.7685 87.1886 51.1384C87.4581 50.8263 87.7912 50.5751 88.1657 50.4015C88.5401 50.2279 88.9474 50.1359 89.3603 50.1317C90.3847 50.1674 91.3066 50.8726 92.3208 50.7883C93.0891 50.7244 93.7703 50.2006 94.5412 50.0984C95.2239 50.0342 95.9061 50.2264 96.4542 50.6376C96.9957 51.0475 97.47 51.5388 97.8602 52.094C99.2559 53.9311 100.393 56.0851 100.46 58.3898C100.749 58.6019 101.166 58.3259 101.31 57.9989C101.453 57.6718 101.458 57.2886 101.638 56.9768C101.848 56.6166 102.252 56.4249 102.567 56.1541C103.366 55.4668 103.566 54.3093 103.535 53.2591C103.535 53.2259 103.535 53.1927 103.535 53.162C103.487 54.0717 103.243 54.9992 102.562 55.5868Z" fill="black"/>
<path opacity="0.1" d="M83.6574 55.4054C83.0683 54.7589 82.2642 54.3271 81.7238 53.6423C81.2688 53.0361 81.0089 52.3064 80.9785 51.5497C80.8979 52.4953 81.1626 53.4382 81.7238 54.2045C82.2642 54.8918 83.0683 55.3236 83.6574 55.97C84.2229 56.6024 84.5624 57.4039 84.6229 58.2492C84.6621 57.7348 84.5968 57.2177 84.4308 56.729C84.2649 56.2404 84.0019 55.7902 83.6574 55.4054Z" fill="black"/>
<path opacity="0.1" d="M104.035 47.6915C103.884 48.3175 103.615 48.9128 103.492 49.5439C103.419 49.9657 103.393 50.394 103.413 50.8215C103.421 50.578 103.448 50.3355 103.492 50.0958C103.615 49.4622 103.884 48.8694 104.035 48.2434C104.123 47.8981 104.152 47.5404 104.12 47.1855C104.104 47.356 104.075 47.5251 104.035 47.6915Z" fill="black"/>
</g>
<path opacity="0.1" d="M33.9924 194.341C47.7743 194.341 58.9467 192.55 58.9467 190.342C58.9467 188.133 47.7743 186.343 33.9924 186.343C20.2105 186.343 9.03809 188.133 9.03809 190.342C9.03809 192.55 20.2105 194.341 33.9924 194.341Z" fill="#00855D"/>
<path d="M34.7962 113.739H33.1904V149.81H34.7962V113.739Z" fill="#535461"/>
<path d="M44.8865 149.7L44.7866 151.325L44.6432 153.624L44.5843 154.58L44.4435 156.88L44.382 157.835L44.2386 160.135L42.62 186.215C42.5497 187.337 42.0534 188.39 41.2322 189.16C40.411 189.93 39.3266 190.359 38.1998 190.36H29.7843C28.6577 190.359 27.5736 189.93 26.7528 189.16C25.9321 188.39 25.4363 187.337 25.3666 186.215L23.7558 160.117L23.6123 157.817L23.5534 156.862L23.41 154.562L23.3511 153.607L23.2077 151.307L23.1053 149.682C23.0875 149.369 23.1339 149.056 23.2418 148.762C23.3496 148.468 23.5165 148.198 23.7324 147.971C23.9482 147.743 24.2084 147.562 24.4969 147.439C24.7854 147.315 25.0962 147.251 25.4102 147.252H42.6226C42.9354 147.255 43.2443 147.321 43.5303 147.448C43.8163 147.574 44.0733 147.758 44.2855 147.987C44.4976 148.216 44.6604 148.487 44.7638 148.781C44.8671 149.076 44.9089 149.388 44.8865 149.7Z" fill="#3F3D56"/>
<path d="M44.7864 151.325L44.643 153.617H23.3407L23.1973 151.325H44.7864Z" fill="#9D9CB5"/>
<path d="M44.5844 154.573L44.4436 156.867H23.5433L23.3999 154.573H44.5844Z" fill="#9D9CB5"/>
<path d="M44.382 157.825L44.2411 160.117H23.7455L23.6021 157.825H44.382Z" fill="#9D9CB5"/>
<path d="M20.7464 127.258C30.0966 134.009 33.9995 144.566 33.9995 144.566C33.9995 144.566 22.7311 144.181 13.3784 137.43C4.02564 130.679 0.130371 120.124 0.130371 120.124C0.130371 120.124 11.3936 120.507 20.7464 127.258Z" fill="#00855D"/>
<path d="M0.123047 120.124C0.123047 120.124 11.8217 126.601 15.5735 131.964C19.3254 137.328 33.9999 144.566 33.9999 144.566" stroke="#535461" stroke-width="2" stroke-miterlimit="10"/>
<path d="M26.7828 113.66C31.8715 117.331 33.9997 123.078 33.9997 123.078C33.9997 123.078 27.8661 122.868 22.7749 119.197C17.6836 115.525 15.5605 109.776 15.5605 109.776C15.5605 109.776 21.6916 109.985 26.7828 113.66Z" fill="#00855D"/>
<path d="M15.5605 109.776C15.5605 109.776 21.9272 113.302 23.9683 116.22C26.0094 119.138 33.9997 123.078 33.9997 123.078" stroke="#535461" stroke-width="2" stroke-miterlimit="10"/>
<path d="M41.3884 122.786C35.5416 129.197 34.3047 137.575 34.3047 137.575C34.3047 137.575 42.5485 135.557 48.3901 129.144C54.2318 122.73 55.4739 114.354 55.4739 114.354C55.4739 114.354 47.2351 116.376 41.3884 122.786Z" fill="#00855D"/>
<path d="M55.479 114.357C55.479 114.357 47.8626 120.929 45.9265 125.457C43.9904 129.984 34.3047 137.576 34.3047 137.576" stroke="#535461" stroke-width="2" stroke-miterlimit="10"/>
<path d="M256.015 120.53C256.015 120.53 251.787 99.5426 253.405 96.9313C253.405 96.9313 253.464 94.5039 253.367 91.4096C253.367 91.2921 253.367 91.1746 253.367 91.0545C253.652 91.2439 253.949 91.4146 254.256 91.5655C255.747 92.3299 257.459 92.5504 259.096 92.189L257.815 90.7657C257.508 90.4259 257.188 90.058 257.121 89.6083C257.055 89.1586 257.239 88.7574 257.398 88.3563C258.615 85.2901 258.679 81.4344 256.335 79.0939C254.356 77.1265 253.874 74.5867 251.725 72.7904C250.156 71.4745 249.292 69.5454 248.478 67.6802C247.789 66.1037 247.095 64.5144 246.701 62.8433C246.393 61.5376 246.271 60.186 245.848 58.911C245.425 57.636 244.634 56.3967 243.397 55.8269C242.957 55.6251 242.467 55.5101 242.065 55.2418C241.538 54.8867 241.22 54.3092 240.839 53.8033C238.9 51.2482 232.408 52.7531 229.335 53.7905C228.499 54.0517 227.725 54.4794 227.06 55.0476L227.089 55.0016C227.112 54.9633 227.14 54.925 227.165 54.8867C226.829 55.158 226.539 55.4815 226.305 55.8448C225.857 56.5526 225.67 57.3779 225.296 58.1444C224.845 59.0515 222.338 61.5836 223.416 62.6031C223.492 62.6716 223.578 62.7269 223.672 62.7667C224.077 62.9347 224.523 62.9792 224.953 62.8944L224.907 63.0043C224.538 63.9038 224.35 64.8663 224.351 65.8379C224.351 70.036 227.821 73.4394 232.106 73.4394C232.911 73.4402 233.712 73.317 234.48 73.0741C234.498 73.1711 234.513 73.2682 234.531 73.3653C234.531 73.4037 234.544 73.442 234.549 73.4803L234.413 73.6694C234.406 73.6577 234.399 73.6466 234.39 73.6362L230.369 79.2421C229.755 79.6739 226.215 82.2291 226.016 84.1454C225.806 86.2432 225.596 88.6987 225.596 88.6987L225.567 89.225C225.392 89.3715 225.186 89.4782 224.965 89.5378C224.744 89.5973 224.513 89.6083 224.287 89.57C223.032 89.3655 223.032 94.1692 223.032 94.1692C223.032 94.1692 222.197 94.9357 221.623 94.2714C221.05 93.607 219.534 95.8581 219.534 95.8581L210.032 96.2669L209.815 96.2797L209.303 94.6981C209.247 94.5313 209.129 94.3929 208.972 94.313C208.815 94.2331 208.633 94.2181 208.465 94.2714C208.425 94.2844 208.387 94.3006 208.35 94.3199L208.314 94.3404L208.247 94.3864L208.214 94.417C208.196 94.4337 208.179 94.4516 208.163 94.4707L208.132 94.5065L208.117 94.5218C208.058 94.6034 208.019 94.6976 208.003 94.797C207.986 94.8964 207.994 94.9982 208.025 95.0941L208.465 96.4509C206.631 96.8188 204.757 97.8562 206.286 100.713L198.536 99.2845L201.043 101.385L213.987 104.05C213.815 104.356 213.928 104.801 214.463 105.427C216.768 108.128 220.968 108.861 222.658 109.05C223.105 110.046 223.662 110.989 224.32 111.861L224.174 114.551C224.174 114.551 219.895 135.059 219.111 136.099C219.507 135.652 219.869 135.176 220.194 134.676C218.952 138.889 217.216 144.656 216.76 145.52C216.028 146.899 215.349 152.482 216.184 152.84C216.44 152.95 217.172 152.896 218.217 152.817V153.279L218.171 170.805C218.171 170.805 218.381 181.555 217.805 182.579C217.229 183.604 217.075 185.753 217.075 185.753C217.075 185.753 214.77 189.992 212.944 191.696C212.932 191.709 212.918 191.721 212.903 191.732L212.847 191.333C212.847 191.333 210.652 194.098 205.797 193.942C205.797 193.942 202.874 195.838 207.208 195.94C211.541 196.042 217.075 195.787 217.075 195.787C217.075 195.787 220.94 189.91 224.177 190.676V195.13H225.168V190.605C225.628 190.303 226.021 189.911 226.324 189.453C226.628 188.995 226.834 188.48 226.932 187.94C227.017 187.383 226.955 186.814 226.752 186.288C226.549 185.762 226.212 185.299 225.775 184.943C225.578 184.765 225.421 184.549 225.312 184.309C225.203 184.068 225.145 183.807 225.142 183.542L225.106 183.573C225.106 183.484 225.083 183.392 225.073 183.297C224.789 180.998 224.433 176.253 225.69 172.742C227.414 167.928 227.936 161.223 226.681 157.232C226.277 155.956 225.944 154.659 225.685 153.346C225.654 153.18 225.626 153.021 225.601 152.873C226.459 152.989 227.308 153.16 228.144 153.384C231.051 154.184 237.409 154.332 242.839 154.289C242.852 154.437 242.867 154.593 242.885 154.749C242.982 155.832 243.184 156.903 243.489 157.948C244.17 159.992 244.483 169.004 244.483 169.004C244.483 169.004 245.361 176.414 244.882 179.429C244.626 181.105 244.37 182.789 244.224 184.48V184.513C244.224 184.513 242.785 188.602 241.732 190.822C241.707 190.878 241.679 190.934 241.653 190.988C241.372 191.014 241.096 191.075 240.831 191.169C240.831 191.169 239.42 193.98 238.014 194.445C236.608 194.91 237.074 196.441 240.257 195.879C243.441 195.316 248.248 194.857 248.248 194.857L248.455 191.99L249.433 190.768L249.177 193.628L250.22 193.423L250.081 189.946L251.682 187.947C251.682 187.947 253.615 186.23 250.742 182.853V182.927C250.711 182.878 250.683 182.827 250.65 182.778V182.763C250.173 182.027 249.794 180.655 250.488 178.22C251.743 173.82 252.473 169.826 252.473 169.826C252.473 169.826 255.275 159.128 251.907 154.066H252.056C251.711 153.354 251.467 152.597 251.331 151.818C251.314 151.726 251.299 151.631 251.285 151.534C253.777 151.391 256.223 150.942 258.218 149.971C258.21 149.96 257.009 124.573 256.015 120.53ZM224.379 102.823V102.874L223.867 102.9L224.379 102.823ZM222.622 103.066C222.538 103.085 222.459 103.122 222.392 103.176C222.172 103.487 222.033 103.848 221.99 104.226L221.191 104.047C221.191 104.047 220.63 103.927 219.823 103.792L219.442 103.409C220.492 103.322 221.583 103.194 222.622 103.066Z" fill="url(#paint1_linear)"/>
<path d="M249.059 189.981L248.754 193.602L249.776 193.397L249.623 189.47L249.059 189.981Z" fill="#1D2366"/>
<path d="M225.747 172.791C224.515 176.291 224.863 181.016 225.14 183.31C225.242 184.158 225.337 184.674 225.337 184.674C225.337 184.674 223.495 188.86 223.342 189.018C223.188 189.177 217.923 192.383 217.923 192.383L214.243 194.527C214.243 194.527 210.509 192.894 212.299 192.332C212.664 192.186 212.994 191.962 213.264 191.676C215.057 189.976 217.308 185.753 217.308 185.753C217.308 185.753 217.462 183.609 218.025 182.589C218.589 181.57 218.384 170.856 218.384 170.856L218.427 153.392V151.115L225.432 151.167C225.476 151.939 225.577 152.708 225.734 153.466C225.985 154.775 226.311 156.068 226.709 157.34C227.944 161.323 227.432 167.995 225.747 172.791Z" fill="#FFB0B1"/>
<path opacity="0.1" d="M225.337 184.674C225.337 184.674 223.495 188.86 223.342 189.018C223.188 189.176 217.923 192.383 217.923 192.383L214.243 194.527C214.243 194.527 210.509 192.894 212.299 192.332C212.664 192.186 212.994 191.961 213.264 191.675L213.423 192.792L214.65 192.741L225.15 183.315C225.242 184.158 225.337 184.674 225.337 184.674Z" fill="black"/>
<path d="M225.209 183.553L214.65 193.042L213.423 193.094L213.167 191.305C213.167 191.305 211.021 194.059 206.252 193.906C206.252 193.906 203.389 195.794 207.633 195.897C211.876 195.999 217.295 195.743 217.295 195.743C217.295 195.743 221.08 189.866 224.248 190.633V195.071H225.221V190.592C225.674 190.288 226.06 189.896 226.357 189.439C226.653 188.983 226.854 188.471 226.948 187.935C227.032 187.382 226.972 186.818 226.774 186.295C226.577 185.772 226.247 185.309 225.818 184.95C225.626 184.771 225.474 184.555 225.369 184.314C225.264 184.074 225.209 183.815 225.209 183.553Z" fill="#1D2366"/>
<path d="M250.032 178.248C249.351 180.676 249.722 182.043 250.188 182.776V182.791C250.786 183.697 251.202 184.709 251.413 185.773L251.454 186.003L246.649 192.991L244.042 194.013C244.042 194.013 239.85 192.585 240.615 192.176C240.807 192.077 241.107 191.545 241.45 190.812C242.475 188.602 243.888 184.524 243.888 184.524V184.49C244.037 182.807 244.273 181.128 244.534 179.457C245.002 176.449 244.142 169.068 244.142 169.068C244.142 169.068 243.835 160.092 243.169 158.05C242.868 157.012 242.668 155.948 242.572 154.871C242.434 153.594 242.403 152.541 242.403 152.541C242.403 152.541 245.164 148.708 250.224 152.848C250.629 153.178 250.985 153.563 251.282 153.992C254.778 158.954 251.963 169.885 251.963 169.885C251.963 169.885 251.259 173.861 250.032 178.248Z" fill="#FFB0B1"/>
<path opacity="0.1" d="M251.462 186.003L246.657 192.991L244.05 194.013C244.05 194.013 239.858 192.585 240.624 192.176C240.816 192.077 241.115 191.545 241.459 190.812C243.233 190.796 244.153 192.483 244.153 192.483L246.401 192.125C246.401 192.125 249.367 186.31 250.033 185.955C250.699 185.599 250.135 183.3 250.135 183.3V182.715C250.153 182.735 250.169 182.758 250.189 182.778V182.794C250.787 183.699 251.203 184.712 251.413 185.776L251.462 186.003Z" fill="black"/>
<path d="M244.306 192.634C244.306 192.634 243.025 190.288 240.572 191.154C240.572 191.154 239.191 193.965 237.811 194.42C236.431 194.874 236.892 196.408 240.011 195.848C243.13 195.288 247.832 194.826 247.832 194.826L248.037 191.967L251.208 187.937C251.208 187.937 253.098 186.228 250.286 182.863V183.448C250.286 183.448 250.849 185.748 250.183 186.103C249.517 186.458 246.562 192.276 246.562 192.276L244.306 192.634Z" fill="#1D2366"/>
<path opacity="0.1" d="M225.439 151.161C225.483 151.934 225.584 152.703 225.741 153.461C222.858 153.039 220.182 153.249 218.427 153.387V151.11L225.439 151.161Z" fill="black"/>
<path opacity="0.1" d="M251.566 154.629C251.566 154.629 247.468 154.828 242.582 154.869C242.444 153.591 242.413 152.539 242.413 152.539C242.413 152.539 245.174 148.706 250.234 152.845C250.639 153.175 250.995 153.561 251.292 153.99C251.371 154.208 251.463 154.421 251.566 154.629Z" fill="black"/>
<path d="M251.567 154.169C251.567 154.169 233.619 155.035 228.149 153.504C222.679 151.974 217.257 153.3 216.44 152.945C215.623 152.59 216.286 147.027 217.003 145.65C217.72 144.273 221.654 130.345 221.654 130.345L225.439 110.655L229.427 109.559L229.708 109.48L236.656 107.568L241.748 106.166C241.748 106.166 251.871 145.599 251.003 148.507C250.688 149.62 250.637 150.791 250.855 151.928C250.987 152.704 251.227 153.458 251.567 154.169Z" fill="#1D2366"/>
<path d="M212.245 97.1892C212.245 97.1892 208.66 101.022 211.374 103.158C214.089 105.294 215.874 103.362 215.874 103.362L212.245 97.1892Z" fill="#C7DAF5"/>
<path opacity="0.1" d="M212.245 97.1892C212.245 97.1892 208.66 101.022 211.374 103.158C214.089 105.294 215.874 103.362 215.874 103.362L212.245 97.1892Z" fill="black"/>
<path d="M241.212 71.9906C241.212 71.9906 240.792 72.3892 240.16 72.9769C239.258 73.8175 237.924 75.0465 236.741 76.0762C235.102 77.4994 233.749 78.5445 234.233 77.6527C234.717 76.761 234.625 75.2075 234.385 73.7536C234.367 73.6565 234.351 73.5594 234.333 73.4649C234.134 72.3971 233.87 71.3425 233.542 70.3068C233.542 70.3068 236.19 66.8931 237.655 65.5466C238.2 65.0355 238.582 64.826 238.605 65.1812C238.631 65.659 238.989 66.7142 239.435 67.8334C239.448 67.8692 239.46 67.9024 239.476 67.9381C239.773 68.7047 240.108 69.4917 240.403 70.1713C240.854 71.2138 241.212 71.9906 241.212 71.9906Z" fill="#FFB0B1"/>
<path opacity="0.1" d="M239.476 67.9383C239.227 69.2737 238.623 70.518 237.728 71.541C236.832 72.564 235.677 73.3282 234.385 73.7538C234.181 72.5874 233.899 71.4359 233.542 70.3069C233.542 70.3069 238.528 63.8808 238.605 65.1813C238.623 65.6745 239.012 66.7681 239.476 67.9383Z" fill="black"/>
<path opacity="0.1" d="M233.888 75.4708L234.533 74.5637C234.533 74.5637 234.961 77.1648 236.533 76.0176C238.106 74.8703 238.182 84.6514 238.182 84.6514L236.495 109.827L224.299 109.099L224.645 96.9338L226.025 90.8015L229.439 81.8867L231.47 78.9406L233.888 75.4708Z" fill="black"/>
<path d="M238.183 84.8072L236.646 107.571L236.485 109.983L229.685 109.577L229.429 109.561L224.307 109.255L224.653 97.0871L226.033 90.9548L229.447 82.04L231.478 79.0939L233.895 75.6113L234.541 74.7068C234.541 74.7068 234.969 77.3079 236.541 76.1607L236.574 76.1377C238.111 75.1667 238.183 84.8072 238.183 84.8072Z" fill="#1D2366"/>
<path d="M226.205 88.824C226.205 88.824 225.593 90.1015 224.363 89.8946C223.134 89.6876 223.137 94.4938 223.137 94.4938C223.137 94.4938 222.32 95.2603 221.756 94.596C221.193 93.9317 219.708 96.1776 219.708 96.1776L210.401 96.5864C210.401 96.5864 214.542 98.4747 213.73 104.188C213.73 104.188 227.79 103.319 228.251 101.993C228.712 100.667 226.205 88.824 226.205 88.824Z" fill="white"/>
<path opacity="0.03" d="M226.205 88.824C226.205 88.824 225.593 90.1015 224.363 89.8946C223.134 89.6876 223.137 94.4938 223.137 94.4938C223.137 94.4938 222.32 95.2603 221.756 94.596C221.193 93.9317 219.708 96.1776 219.708 96.1776L210.401 96.5864C210.401 96.5864 214.542 98.4747 213.73 104.188C213.73 104.188 227.79 103.319 228.251 101.993C228.712 100.667 226.205 88.824 226.205 88.824Z" fill="black"/>
<path d="M199.158 99.5886L201.612 101.679L221.808 105.913L219.303 103.363L199.158 99.5886Z" fill="white"/>
<path d="M233.926 76.2755C233.59 76.7865 232.63 79.403 231.828 81.6873C231.16 83.5908 230.602 85.2645 230.602 85.2645C230.602 85.2645 229.298 93.7322 228.632 95.2627C227.966 96.7932 228.328 102.762 228.328 102.762L225.846 117.503C225.846 117.503 224.722 125.104 222.985 129.644C221.272 134.113 219.364 136.209 219.305 136.275C220.073 135.238 224.261 114.812 224.261 114.812L225.644 89.0512C225.644 89.0512 225.846 86.6033 226.051 84.5107C226.256 82.418 230.405 79.5614 230.405 79.5614L234.405 73.8865C234.807 74.4231 234.538 75.3582 233.926 76.2755Z" fill="white"/>
<path d="M223.495 109.382C223.495 109.382 217.605 109.127 214.752 105.708C211.899 102.289 221.347 104.344 221.347 104.344L223.803 104.906L223.495 109.382Z" fill="#FFB0B1"/>
<path opacity="0.1" d="M251.003 148.509C250.688 149.623 250.637 150.794 250.855 151.93C244.429 152.385 237.555 150.653 237.555 150.653C236.275 151.828 232.902 153.561 232.902 153.561L231.063 130.82C229.888 127.754 229.427 111.69 229.427 111.69C229.427 111.69 229.532 110.849 229.683 109.589C229.683 109.559 229.683 109.526 229.696 109.495C230.154 105.976 231.063 99.3715 231.509 98.4797C232.123 97.2533 229.619 93.9904 229.619 93.9904L230.758 84.2937L230.897 83.1234C233.299 82.0528 235.14 78.6341 235.14 78.6341L236.554 76.1632C238.091 75.1795 238.17 84.82 238.17 84.82L236.633 107.584L241.725 106.181C241.725 106.181 251.871 145.601 251.003 148.509Z" fill="black"/>
<path d="M257.598 150.081C250.593 153.55 237.863 150.336 237.863 150.336C236.582 151.511 233.209 153.244 233.209 153.244L231.368 130.503C230.195 127.437 229.734 111.373 229.734 111.373C229.734 111.373 231.214 99.3869 231.829 98.163C232.008 97.8052 231.921 97.2738 231.708 96.7014C230.663 93.9772 230.279 91.045 230.587 88.1443L231.078 83.9769L231.214 82.8092C233.619 81.7361 235.46 78.3173 235.46 78.3173L236.741 76.079L239.097 71.955L240.213 70.0029L240.403 70.1741L241.85 71.4823C241.85 71.4823 242.465 71.9934 243.387 72.7599C245.392 74.4463 248.857 77.4153 250.644 79.232C252.217 80.8315 252.714 87.0533 252.857 91.7368C252.952 94.8209 252.896 97.238 252.896 97.238C251.31 99.8417 255.457 120.745 255.457 120.745C256.422 124.785 257.598 150.081 257.598 150.081Z" fill="white"/>
<path opacity="0.03" d="M244.152 78.2662C244.152 78.2662 239.345 87.3956 239.904 90.8655C240.462 94.3353 242.05 98.2626 241.284 99.1799C241.021 99.5274 240.681 99.8095 240.29 100.004C239.9 100.199 239.469 100.3 239.033 100.302C238.264 100.353 236.216 101.781 236.216 101.934C236.216 102.088 234.323 102.088 232.63 102.803C230.937 103.518 228.438 103.925 228.438 103.925C228.438 103.925 223.572 103.771 223.119 104.231C222.666 104.691 222.199 107.443 223.17 109.638C224.141 111.833 225.219 113.471 226.033 113.77C226.848 114.069 232.016 112.341 236.208 111.932C240.4 111.524 244.951 108.21 244.951 108.21C244.951 108.21 249.963 106.421 250.841 103.414C251.72 100.406 249.768 83.8772 249.768 83.8772C249.768 83.8772 248.293 76.1735 244.152 78.2662Z" fill="black"/>
<path opacity="0.03" d="M243.538 77.4996C243.538 77.4996 238.731 86.6316 239.294 90.0989C239.858 93.5662 241.44 97.496 240.672 98.4159C240.41 98.7638 240.07 99.0462 239.68 99.2408C239.29 99.4355 238.86 99.5371 238.424 99.5376C237.655 99.5887 235.606 101.017 235.606 101.17C235.606 101.324 233.714 101.324 232.021 102.036C230.328 102.749 227.829 103.158 227.829 103.158C227.829 103.158 222.963 103.005 222.512 103.465C222.061 103.925 221.59 106.679 222.563 108.871C223.537 111.064 224.612 112.704 225.427 113.003C226.241 113.302 231.409 111.575 235.601 111.169C239.794 110.762 244.345 107.443 244.345 107.443C244.345 107.443 249.354 105.655 250.222 102.65C251.09 99.6449 249.149 83.1106 249.149 83.1106C249.149 83.1106 247.679 75.4095 243.538 77.4996Z" fill="black"/>
<path d="M244.001 77.8061C244.001 77.8061 239.194 86.9381 239.758 90.4054C240.321 93.8727 241.904 97.8025 241.138 98.7198C240.876 99.0685 240.536 99.3516 240.145 99.5467C239.755 99.7419 239.324 99.8436 238.887 99.844C238.119 99.8951 236.07 101.323 236.07 101.474C236.07 101.625 234.18 101.628 232.484 102.343C230.789 103.058 228.292 103.465 228.292 103.465C228.292 103.465 223.426 103.311 222.973 103.771C222.519 104.231 222.053 106.986 223.024 109.178C223.995 111.37 225.073 113.011 225.887 113.31C226.702 113.608 231.87 111.881 236.062 111.472C240.254 111.064 244.805 107.75 244.805 107.75C244.805 107.75 249.817 105.961 250.696 102.954C251.574 99.9462 249.635 83.4171 249.635 83.4171C249.635 83.4171 248.14 75.7262 244.001 77.8061Z" fill="white"/>
<path opacity="0.1" d="M243.897 102.3C243.897 102.3 240.055 101.533 241.392 102.811C242.729 104.088 242.721 105.207 244.358 105.156C245.994 105.105 243.897 102.3 243.897 102.3Z" fill="black"/>
<path opacity="0.1" d="M250.388 129.788C250.388 129.788 248.652 130.96 251.973 133.664C255.295 136.367 250.388 129.788 250.388 129.788Z" fill="black"/>
<path opacity="0.1" d="M247.074 139.428C247.074 139.582 246.459 145.049 248.759 146.416C251.059 147.783 247.074 139.428 247.074 139.428Z" fill="black"/>
<path d="M210.56 96.5735C208.706 96.6374 204.7 97.202 206.777 101.068C208.613 104.489 211.699 102.202 213.436 100.467C213.012 98.85 211.983 97.4562 210.56 96.5735Z" fill="#FFB0B1"/>
<path d="M213.458 100.437L213.536 100.358L213.458 100.437Z" fill="#FFB0B1"/>
<path opacity="0.1" d="M243.386 72.9157C241.419 74.2571 239.77 75.389 239.447 75.6241C238.566 76.2757 236.886 80.1007 235.803 82.0528C234.94 83.6242 232.136 84.0279 231.078 84.1276L231.214 82.9599C233.619 81.8867 235.46 78.468 235.46 78.468L240.213 70.1536L241.85 71.6381C241.85 71.6381 242.464 72.1491 243.386 72.9157Z" fill="black"/>
<path d="M243.386 72.7623C241.419 74.1038 239.77 75.2357 239.447 75.4733C238.566 76.1223 236.886 79.9474 235.803 81.8995C234.94 83.4709 232.136 83.8746 231.078 83.9742L231.214 82.8065C233.619 81.7334 235.46 78.3146 235.46 78.3146L240.213 70.0002L241.85 71.4797C241.85 71.4797 242.464 71.9856 243.386 72.7623Z" fill="#DCE7FF"/>
<path d="M239.602 66.2519C239.603 67.7857 239.136 69.2836 238.265 70.5471C237.235 72.0409 235.703 73.117 233.946 73.5802C232.19 74.0434 230.325 73.8629 228.69 73.0716C227.055 72.2802 225.759 70.9304 225.036 69.2671C224.314 67.6037 224.213 65.737 224.751 64.0057C225.29 62.2744 226.433 60.7932 227.973 59.8308C229.513 58.8684 231.348 58.4886 233.144 58.7603C234.941 59.032 236.58 59.9373 237.765 61.3118C238.95 62.6863 239.601 64.439 239.602 66.2519Z" fill="#FFB0B1"/>
<path opacity="0.1" d="M252.857 91.7393C251.817 91.101 250.97 90.1932 250.406 89.1126C249.978 88.2695 249.694 87.2959 248.964 86.698C248.306 86.1615 247.428 86.0312 246.608 85.791C243.914 84.9963 241.655 82.5434 241.571 79.743C241.53 78.4245 241.942 77.1087 241.755 75.803C241.649 75.064 241.354 74.3646 240.9 73.7717C240.674 73.4881 240.426 73.2224 240.159 72.977C239.801 72.6397 239.424 72.3127 239.097 71.955C238.89 71.7335 238.71 71.4892 238.559 71.2268C238.437 71.012 238.338 70.7851 238.264 70.5496C237.752 68.9859 238.218 67.1309 237.655 65.5493L237.624 65.4624C237.412 64.9002 236.979 64.3381 236.377 64.2947C235.775 64.2513 235.26 64.7495 234.687 64.9718C233.486 65.4368 232.19 64.6447 231.188 63.8373C230.187 63.0299 229.058 62.1075 227.785 62.2864C226.942 62.4064 226.276 62.9788 225.5 63.2752C225.325 63.3429 225.144 63.395 224.96 63.4311C225.617 61.7971 226.823 60.4423 228.372 59.5994C229.921 58.7566 231.716 58.4783 233.449 58.8124C235.181 59.1464 236.743 60.072 237.866 61.4301C238.988 62.7882 239.602 64.494 239.601 66.2545C239.602 66.7861 239.546 67.3163 239.435 67.8361C239.447 67.8719 239.46 67.9051 239.476 67.9409C239.773 68.7074 240.108 69.4944 240.403 70.174L241.85 71.4823C241.85 71.4823 242.464 71.9933 243.386 72.7598C245.392 74.4462 248.857 77.4153 250.644 79.232C252.217 80.8366 252.708 87.0558 252.857 91.7393Z" fill="black"/>
<path d="M225.411 58.6069C225.777 57.8634 225.959 57.0304 226.397 56.3252C227.039 55.3032 228.161 54.649 229.314 54.253C232.323 53.2182 238.682 51.7158 240.582 54.253C240.956 54.764 241.266 55.3313 241.783 55.6839C242.177 55.9522 242.654 56.0671 243.087 56.269C244.298 56.8362 245.071 58.0729 245.484 59.3352C245.896 60.5974 246.019 61.9516 246.321 63.2522C246.708 64.9207 247.386 66.5023 248.063 68.0737C248.859 69.9287 249.704 71.8527 251.241 73.1635C253.338 74.9521 253.802 77.4842 255.748 79.4466C258.053 81.7768 257.979 85.6223 256.79 88.6757C256.634 89.0768 256.458 89.4959 256.519 89.9226C256.58 90.3493 256.898 90.7377 257.198 91.0775L258.458 92.4956C255.477 93.2136 252.104 91.6601 250.716 88.9337C250.288 88.0905 250.004 87.1196 249.271 86.5191C248.616 85.9826 247.735 85.8548 246.918 85.6146C244.224 84.8174 241.965 82.362 241.88 79.5615C241.839 78.2456 242.252 76.9298 242.065 75.6266C241.961 74.8827 241.665 74.1784 241.207 73.5825C240.503 72.6652 239.44 72.0495 238.866 71.0274C237.895 69.318 238.633 67.0976 237.934 65.263C237.719 64.7009 237.288 64.1388 236.687 64.0954C236.085 64.0519 235.57 64.5502 234.994 64.7725C233.795 65.2375 232.499 64.448 231.498 63.638C230.497 62.828 229.367 61.9082 228.092 62.0896C227.249 62.2071 226.586 62.7795 225.81 63.0784C225.236 63.2982 224.074 63.4949 223.572 63.012C222.512 62.0385 224.968 59.5166 225.411 58.6069Z" fill="#591D4B"/>
<path opacity="0.1" d="M251.428 88.0905C250.998 87.2473 250.716 86.2764 249.983 85.6785C249.328 85.1419 248.447 85.0116 247.627 84.7714C244.936 83.9767 242.677 81.5213 242.59 78.7209C242.549 77.405 242.961 76.0865 242.777 74.7834C242.669 74.0443 242.374 73.3449 241.919 72.7521C241.212 71.8348 240.149 71.219 239.578 70.1969C238.607 68.4901 239.345 66.2697 238.643 64.4326C238.431 63.873 237.998 63.3109 237.399 63.2649C236.799 63.2189 236.28 63.7223 235.706 63.9446C234.507 64.4096 233.209 63.6175 232.21 62.8101C231.211 62.0027 230.077 61.0803 228.804 61.2591C227.961 61.3792 227.296 61.9516 226.522 62.2479C225.948 62.4677 224.783 62.667 224.281 62.1841C223.226 61.162 225.682 58.6452 226.123 57.7407C226.489 56.9946 226.671 56.1642 227.111 55.459C227.134 55.4206 227.16 55.3823 227.185 55.344C226.856 55.6163 226.572 55.9388 226.343 56.2996C225.905 57.0048 225.723 57.8327 225.357 58.5813C224.914 59.4859 222.458 62.0103 223.516 63.0247C224.028 63.5102 225.18 63.3109 225.754 63.0911C226.522 62.7922 227.193 62.2198 228.036 62.1023C229.316 61.9209 230.443 62.8433 231.442 63.6507C232.441 64.4581 233.747 65.2502 234.94 64.7852C235.514 64.5629 236.016 64.0621 236.63 64.1081C237.245 64.1541 237.655 64.7136 237.878 65.2758C238.577 67.1104 237.839 69.3308 238.81 71.0401C239.383 72.0443 240.446 72.6729 241.151 73.5953C241.609 74.1912 241.904 74.8955 242.008 75.6394C242.195 76.9425 241.783 78.2584 241.824 79.5743C241.909 82.3849 244.167 84.8302 246.862 85.6274C247.673 85.8675 248.559 85.9953 249.215 86.5319C249.95 87.1323 250.239 88.1033 250.659 88.9465C252.048 91.6728 255.42 93.2263 258.401 92.5083L257.807 91.8389C255.223 91.8772 252.608 90.4106 251.428 88.0905Z" fill="black"/>
<path opacity="0.1" d="M233.773 76.429C233.437 76.94 232.477 79.5565 231.675 81.8408C230.925 81.5495 230.244 79.6919 230.244 79.6919L234.244 74.0144C234.654 74.5765 234.385 75.5092 233.773 76.429Z" fill="black"/>
<path d="M233.926 76.2756C233.591 76.7866 232.63 79.403 231.829 81.6873C231.078 81.3986 230.397 79.5385 230.397 79.5385L234.397 73.8635C234.807 74.4231 234.538 75.3583 233.926 76.2756Z" fill="#DCE7FF"/>
<path d="M210.667 102.379L208.45 95.4007C208.423 95.319 208.414 95.2329 208.421 95.1474C208.428 95.0619 208.452 94.9787 208.491 94.9025C208.531 94.8263 208.585 94.7586 208.651 94.7034C208.717 94.6481 208.793 94.6064 208.875 94.5805C209.04 94.5291 209.219 94.5448 209.372 94.6243C209.526 94.7037 209.641 94.8404 209.694 95.0047L211.912 101.975L211.692 103.434L210.667 102.379Z" fill="#BE8B87"/>
<path opacity="0.1" d="M208.66 94.7875C208.825 94.7353 209.004 94.7506 209.159 94.8301C209.313 94.9096 209.429 95.0468 209.482 95.2117L211.7 102.182L211.533 103.276L211.694 103.444L211.915 101.985L209.684 95.0149C209.631 94.8507 209.515 94.714 209.362 94.6345C209.208 94.5551 209.03 94.5393 208.865 94.5908C208.726 94.6357 208.606 94.7256 208.524 94.8463C208.567 94.823 208.613 94.8033 208.66 94.7875Z" fill="white"/>
<path d="M210.667 102.379L211.912 101.985L211.73 103.181L211.692 103.444L211.328 103.066L210.667 102.379Z" fill="#EFC8C4"/>
<path d="M211.328 103.066C211.35 103.039 211.377 103.016 211.408 103C211.426 102.988 211.446 102.982 211.468 102.982C211.489 102.982 211.51 102.988 211.528 103C211.545 103.021 211.56 103.044 211.571 103.069C211.588 103.097 211.611 103.121 211.639 103.139C211.666 103.157 211.698 103.169 211.73 103.173L211.692 103.429L211.328 103.066Z" fill="#727A9C"/>
<path d="M208.437 97.8794C208.437 97.8794 212.885 97.8539 211.838 99.7421C210.791 101.63 209.154 101.858 209.154 101.858L208.437 97.8794Z" fill="#FFB0B1"/>
<path d="M180.77 13.1384H180.578C172.936 13.1384 166.178 17.173 162.29 23.1264C158.403 17.173 151.644 13.1384 144.002 13.1384H143.81C138.075 13.193 132.593 15.5035 128.556 19.5678C124.519 23.6322 122.252 29.122 122.249 34.8442C122.249 41.95 125.368 52.0326 131.451 60.3291C143.039 76.1376 162.29 89.9685 162.29 89.9685C162.29 89.9685 181.541 76.1402 193.127 60.3291C199.212 52.0326 202.329 41.95 202.329 34.8442C202.326 29.1224 200.06 23.633 196.023 19.5687C191.986 15.5044 186.505 13.1936 180.77 13.1384ZM178.022 61.5453C177.152 61.542 176.303 61.2762 175.587 60.7828C174.871 60.2894 174.321 59.5915 174.009 58.7807H169.44C169.14 58.7788 168.847 58.6832 168.603 58.5073C168.359 58.3314 168.177 58.084 168.081 57.7995L166.677 53.581L162.236 69.0625C162.15 69.3605 161.969 69.6225 161.72 69.8091C161.472 69.9957 161.17 70.0968 160.859 70.0973H160.769C160.444 70.0817 160.135 69.9554 159.893 69.7396C159.65 69.5238 159.49 69.2316 159.437 68.9117L154.861 41.4492L151.516 57.6998C151.439 58.0085 151.261 58.2827 151.01 58.4786C150.759 58.6745 150.449 58.7809 150.131 58.7807H143.695C143.502 58.7888 143.309 58.7579 143.129 58.6899C142.948 58.6218 142.783 58.518 142.644 58.3847C142.504 58.2514 142.393 58.0913 142.317 57.9141C142.242 57.7369 142.203 57.5463 142.203 57.3536C142.203 57.161 142.242 56.9703 142.317 56.7931C142.393 56.6159 142.504 56.4558 142.644 56.3225C142.783 56.1892 142.948 56.0854 143.129 56.0173C143.309 55.9493 143.502 55.9184 143.695 55.9266H149.004L153.742 34.0777C153.819 33.7547 154.007 33.4686 154.273 33.2685C154.539 33.0683 154.866 32.9664 155.199 32.9803C155.531 32.9942 155.849 33.123 156.097 33.3446C156.345 33.5662 156.508 33.8668 156.559 34.1952L161.232 62.2096L165.212 48.3583C165.295 48.0666 165.47 47.8094 165.712 47.6252C165.953 47.441 166.248 47.3396 166.552 47.3362H166.58C166.881 47.3363 167.174 47.4312 167.418 47.6074C167.662 47.7836 167.843 48.0321 167.937 48.3174L170.475 55.9342H173.953C174.2 55.1847 174.65 54.5179 175.253 54.0075C175.856 53.497 176.589 53.1628 177.371 53.0416C178.152 52.9204 178.952 53.0169 179.682 53.3206C180.412 53.6243 181.044 54.1233 181.507 54.7626C181.971 55.4019 182.248 56.1565 182.309 56.9432C182.37 57.7299 182.212 58.5182 181.853 59.2209C181.493 59.9236 180.945 60.5135 180.271 60.9255C179.596 61.3375 178.821 61.5555 178.03 61.5555L178.022 61.5453Z" fill="#FE5172"/>
</g>
<defs>
<linearGradient id="paint0_linear" x1="91.2558" y1="197.989" x2="91.2558" y2="40.7619" gradientUnits="userSpaceOnUse">
<stop stop-color="#808080" stop-opacity="0.25"/>
<stop offset="0.54" stop-color="#808080" stop-opacity="0.12"/>
<stop offset="1" stop-color="#808080" stop-opacity="0.1"/>
</linearGradient>
<linearGradient id="paint1_linear" x1="57165.3" y1="118630" x2="57165.3" y2="37923.9" gradientUnits="userSpaceOnUse">
<stop stop-color="#808080" stop-opacity="0.25"/>
<stop offset="0.54" stop-color="#808080" stop-opacity="0.12"/>
<stop offset="1" stop-color="#808080" stop-opacity="0.1"/>
</linearGradient>
<clipPath id="clip0">
<rect width="283" height="200" fill="white"/>
</clipPath>
</defs>
</svg>
