<svg width="16" height="16" viewBox="0 0 16 16" fill="none" xmlns="http://www.w3.org/2000/svg">
<circle cx="8" cy="8" r="7.5" fill="#008372" stroke="#008372"/>
<path fill-rule="evenodd" clip-rule="evenodd" d="M10.7475 5.20072C10.8846 5.07261 11.0698 5.0005 11.2629 5C11.4561 4.9995 11.6416 5.07064 11.7795 5.19804C11.9174 5.32544 11.9966 5.49886 11.9999 5.68082C12.0032 5.86277 11.9303 6.03864 11.7971 6.17039L7.8847 10.7786C7.81746 10.8469 7.7363 10.9016 7.64608 10.9397C7.55587 10.9777 7.45844 10.9982 7.35963 10.9999C7.26082 11.0016 7.16265 10.9845 7.07101 10.9497C6.97936 10.9149 6.8961 10.863 6.82623 10.7971L4.23395 8.35353C4.16173 8.29013 4.10381 8.21366 4.06363 8.1287C4.02346 8.04374 4.00186 7.95202 4.00011 7.85902C3.99837 7.76603 4.01653 7.67365 4.0535 7.58741C4.09047 7.50116 4.14549 7.42282 4.21529 7.35705C4.28509 7.29128 4.36823 7.23943 4.45976 7.20459C4.55129 7.16976 4.64932 7.15265 4.74802 7.15429C4.84671 7.15593 4.94405 7.17629 5.03421 7.21414C5.12438 7.252 5.20553 7.30658 5.27282 7.37463L7.32508 9.30751L10.7289 5.22104C10.7349 5.21389 10.7415 5.2071 10.7485 5.20072H10.7475Z" fill="#FEFEFE"/>
</svg>
