<svg width="328" height="241" viewBox="0 0 328 241" fill="none" xmlns="http://www.w3.org/2000/svg">
<g clip-path="url(#clip0)">
<path opacity="0.1" d="M21.4674 94.4595H49.9747V133.095H23.5518C23.4843 133.495 23.4169 133.891 23.3411 134.291H49.9747V165.444C49.9297 165.444 49.8848 165.41 49.8427 165.393C49.0936 165.097 48.3444 164.784 47.5953 164.452C47.4352 164.38 47.2779 164.304 47.115 164.234C46.3659 163.882 45.6168 163.51 44.8676 163.117C44.6064 162.98 44.3451 162.838 44.0895 162.693C39.9307 160.385 36.151 157.46 32.881 154.018C32.7827 153.925 32.6928 153.825 32.6001 153.738C32.145 153.247 31.6983 152.749 31.2657 152.241C31.1028 152.054 30.9455 151.864 30.7853 151.683C30.2741 151.063 29.7797 150.42 29.3021 149.775C29.2291 149.677 29.1616 149.582 29.0914 149.496C27.1351 146.804 25.5128 143.888 24.2597 140.809C24.2203 140.717 24.1838 140.617 24.1473 140.53C23.7596 139.553 23.4085 138.561 23.1051 137.55C22.9759 137.128 22.8495 136.712 22.7427 136.274C22.7034 136.148 22.6725 136.019 22.6388 135.894C21.06 129.707 20.8774 123.278 20.8774 116.879C20.8774 116.134 20.8774 115.389 20.8774 114.645C20.8999 112.032 20.9308 109.423 20.9701 106.816C20.9851 106.145 20.9992 105.472 21.0123 104.796C21.0516 103.085 21.1078 101.37 21.1808 99.6517C21.1977 99.1769 21.2202 98.6993 21.2454 98.2272C21.2567 97.9535 21.2707 97.6798 21.2876 97.4061C21.3381 96.4174 21.3981 95.4352 21.4674 94.4595Z" fill="#008372"/>
<path opacity="0.1" d="M49.975 51.4417H34.3364C36.8797 47.4881 39.6573 43.6885 42.6543 40.063C44.9803 37.2253 47.4299 34.4602 49.975 31.7957V51.4417Z" fill="#008372"/>
<path opacity="0.1" d="M49.9746 52.6313V93.264H21.5571C21.5571 93.1467 21.574 93.0266 21.5852 92.9093C21.6105 92.5881 21.6358 92.2697 21.6639 91.9485C21.692 91.5742 21.7285 91.1999 21.765 90.8313C21.8015 90.4626 21.838 90.0157 21.883 89.6107C21.9279 89.2057 21.9645 88.7952 22.0094 88.3902C22.0543 87.9852 22.0993 87.5802 22.1499 87.178C22.2004 86.7758 22.2454 86.3681 22.3016 85.9659C22.3437 85.6335 22.3858 85.2983 22.4336 84.9632C22.4982 84.4912 22.5656 84.0191 22.6358 83.5499C22.6358 83.4773 22.6583 83.4075 22.6696 83.3376C23.183 79.903 23.8806 76.4982 24.7596 73.1376C25.6826 69.6129 26.8608 66.1591 28.2851 62.8035C29.7985 59.2875 31.5712 55.8875 33.5887 52.6313H49.9746Z" fill="#008372"/>
<path opacity="0.1" d="M56.7842 94.4595V133.095H117.675V94.4595H56.7842ZM56.7842 134.291V167.471C57.1325 167.541 57.4752 167.611 57.8208 167.67C58.2843 167.759 58.7506 167.84 59.2253 167.91L59.5063 167.949C59.6917 167.98 59.8799 168.005 60.0681 168.027C60.5372 168.094 61.0063 168.145 61.4727 168.189C61.6918 168.212 61.9193 168.228 62.1412 168.248L62.6834 168.287C62.9784 168.309 63.2705 168.326 63.5627 168.337C63.7425 168.337 63.9222 168.351 64.1048 168.357C64.2874 168.362 64.3858 168.357 64.5318 168.357H65.0628C65.3044 168.357 65.5459 168.357 65.7847 168.357H66.0937C66.3353 168.357 66.5769 168.357 66.8157 168.334H66.8297C66.9983 168.334 67.164 168.334 67.3326 168.315C67.3803 168.318 67.4281 168.318 67.4758 168.315C67.6163 168.315 67.7568 168.315 67.8916 168.298C67.9234 168.296 67.9553 168.296 67.9871 168.298C68.2989 168.279 68.6135 168.253 68.931 168.226C69.2484 168.198 69.549 168.164 69.8664 168.131L70.5041 168.052C73.1099 167.69 75.6866 167.145 78.2152 166.421C83.8982 164.846 89.4519 162.642 95.132 161.031C102.47 158.95 110.582 157.925 117.673 160.458V134.291H56.7842ZM117.675 51.4417V0.00568463C111.01 -0.0672328 104.362 0.707116 97.8934 2.30991C82.4739 6.16147 68.6276 14.5153 56.7842 25.1846V51.4389H59.849V52.6315H56.7842V93.2641H117.675V52.6315H72.3862V51.4361L117.675 51.4417ZM195.905 34.0664C192.09 33.9323 188.298 32.7341 184.865 30.8768C178.308 27.3324 173.066 21.8526 167.212 17.2329C155.049 7.60545 139.963 1.79321 124.488 0.352017V51.4417H211.406L211.622 51.2154L195.905 34.0664ZM203.824 32.6699L212.22 41.8337V30.2595C209.394 30.6142 206.934 31.4382 203.824 32.6587V32.6699ZM212.22 175.711V134.291H194.315C194.27 134.115 194.219 133.936 194.163 133.757C194.217 133.936 194.264 134.115 194.312 134.291H124.488V164.243C125.151 164.732 125.805 165.248 126.454 165.768C127.155 166.337 127.85 166.914 128.541 167.497L129.238 168.069C129.572 168.348 129.912 168.628 130.249 168.893C130.925 169.435 131.606 169.971 132.292 170.502C132.634 170.77 132.979 171.033 133.325 171.292C138.812 175.462 144.6 179.225 150.641 182.551C151.995 183.302 153.363 184.026 154.739 184.732C155.655 185.201 156.578 185.661 157.507 186.112C158.9 186.788 160.304 187.44 161.72 188.067C174.773 193.893 188.576 197.889 202.734 199.943C205.876 200.403 209.033 200.766 212.204 201.032V175.705H212.485L212.22 175.711ZM124.488 52.6315V93.2641H212.22V52.6315H124.488ZM124.488 94.4539V133.095H212.22V94.4595L124.488 94.4539ZM219.03 30.2037V43.1353L229.744 31.441C226.193 30.8581 222.622 30.4457 219.03 30.2037ZM219.03 94.4595V133.095H304.358V94.4595H219.03ZM304.057 178.775L304.358 134.291H219.03V201.482C224.526 201.709 230.031 201.643 235.52 201.284H235.615C238.237 201.116 240.847 200.878 243.444 200.569H243.503C257.365 198.964 270.919 195.365 283.739 189.883L304.057 178.775ZM320.82 100.805C320.496 100.06 320.163 99.3156 319.822 98.5708C319.188 97.1743 318.519 95.8169 317.828 94.4623H311.17V133.095H328C327.986 122.152 325.199 110.98 320.82 100.805V100.805ZM311.17 134.291V172.555C315.909 168.038 319.918 162.869 322.8 156.959C326.269 149.839 327.857 142.136 327.989 134.288L311.17 134.291ZM311.17 83.2009V93.2557H317.204C315.375 89.7993 313.361 86.4429 311.17 83.2009V83.2009ZM253.302 37.7867C252.858 37.6163 252.411 37.4459 251.964 37.2839C247.255 35.5534 242.442 34.115 237.553 32.9771L221.154 50.8691L220.833 51.2126L221.044 51.4389H279.413C271.283 45.8769 262.518 41.2941 253.302 37.7867V37.7867ZM281.126 52.6315H220.227L219.03 53.718V93.2641H229.522H304.358V74.1041C297.591 65.9679 289.781 58.7489 281.126 52.6315V52.6315Z" fill="#008372"/>
<path opacity="0.1" d="M49.9746 73.1292V93.2639H21.5571C21.5571 93.1466 21.574 93.0265 21.5852 92.9092C21.6105 92.588 21.6358 92.2696 21.6639 91.9484C21.692 91.5741 21.7285 91.1999 21.765 90.8312C21.8015 90.4625 21.838 90.0156 21.883 89.6107C21.9279 89.2057 21.9645 88.7951 22.0094 88.3901C22.0543 87.9851 22.0993 87.5802 22.1499 87.178C22.2004 86.7758 22.2454 86.368 22.3016 85.9658C22.3437 85.6334 22.3858 85.2983 22.4336 84.9631C22.4982 84.4911 22.5656 84.0191 22.6358 83.5498C22.6358 83.4772 22.6583 83.4074 22.6696 83.3376C23.183 79.903 23.8806 76.4981 24.7596 73.1375L49.9746 73.1292Z" fill="#008372"/>
<path opacity="0.1" d="M21.4674 94.4595H49.9747V133.095H23.5518C23.4843 133.495 23.4169 133.891 23.3411 134.291H49.9747V165.444C49.9297 165.444 49.8848 165.41 49.8427 165.393C49.0936 165.097 48.3444 164.784 47.5953 164.452C47.4352 164.38 47.2779 164.304 47.115 164.234C46.3659 163.882 45.6168 163.51 44.8676 163.117C44.6064 162.98 44.3451 162.838 44.0895 162.693C39.9307 160.385 36.151 157.46 32.881 154.018C32.7827 153.925 32.6928 153.825 32.6001 153.738C32.145 153.247 31.6983 152.749 31.2657 152.241C31.1028 152.054 30.9455 151.864 30.7853 151.683C30.2741 151.063 29.7797 150.42 29.3021 149.775C29.2291 149.677 29.1616 149.582 29.0914 149.496C27.1351 146.804 25.5128 143.888 24.2597 140.809C24.2203 140.717 24.1838 140.617 24.1473 140.53C23.7596 139.553 23.4085 138.561 23.1051 137.55C22.9759 137.128 22.8495 136.712 22.7427 136.274C22.7034 136.148 22.6725 136.019 22.6388 135.894C21.06 129.707 20.8774 123.278 20.8774 116.879C20.8774 116.134 20.8774 115.389 20.8774 114.645C20.8999 112.032 20.9308 109.423 20.9701 106.816C20.9851 106.145 20.9992 105.472 21.0123 104.796C21.0516 103.085 21.1078 101.37 21.1808 99.6517C21.1977 99.1769 21.2202 98.6993 21.2454 98.2272C21.2567 97.9535 21.2707 97.6798 21.2876 97.4061C21.3381 96.4174 21.3981 95.4352 21.4674 94.4595Z" fill="#008372"/>
<path opacity="0.1" d="M78.2184 58.452V93.264H56.7817V58.452H59.8381V46.6655H72.3838V58.452H78.2184Z" fill="#008372"/>
<path opacity="0.1" d="M78.2156 94.4565H56.7817V133.092H78.2156V94.4565Z" fill="#008372"/>
<path opacity="0.1" d="M56.7842 134.291H78.2181V166.41C75.6897 167.134 73.1129 167.678 70.5069 168.038C70.2934 168.069 70.0827 168.094 69.8692 168.117C69.5546 168.153 69.2428 168.186 68.931 168.214L67.9899 168.29H67.8944L67.4786 168.312H67.3354C67.1668 168.312 67.0011 168.332 66.8325 168.334H66.8185C66.5769 168.334 66.3381 168.351 66.0965 168.357H65.7875C65.5488 168.357 65.31 168.357 65.0656 168.357H64.5375H64.1077C63.9251 168.357 63.7453 168.357 63.5627 168.334C63.2743 168.323 62.9821 168.307 62.6862 168.284L62.1441 168.245C61.9193 168.228 61.6946 168.206 61.4727 168.184C61.0007 168.143 60.5325 168.09 60.0681 168.024L59.5063 167.946L59.2253 167.907C58.7562 167.837 58.2899 167.759 57.8208 167.67C57.4724 167.608 57.1297 167.538 56.7842 167.466V134.291Z" fill="#008372"/>
<path opacity="0.1" d="M212.218 54.3406H194.542V93.2611H212.218V54.3406Z" fill="#008372"/>
<path opacity="0.1" d="M212.221 94.4565V133.095H124.488V116.429H171.218V126.26H194.543V94.4565H212.221Z" fill="#008372"/>
<path opacity="0.1" d="M212.499 175.719C212.406 175.719 212.313 175.719 212.218 175.702V201.049C209.051 200.79 205.895 200.428 202.751 199.962C188.588 197.91 174.78 193.915 161.72 188.092C157.95 186.402 154.257 184.559 150.641 182.565C144.602 179.237 138.815 175.474 133.328 171.306C131.946 170.256 130.585 169.183 129.244 168.086C128.314 167.321 127.392 166.539 126.454 165.782C125.808 165.259 125.154 164.743 124.488 164.251V134.291H194.312C194.262 134.112 194.217 133.936 194.166 133.757C194.22 133.936 194.27 134.112 194.315 134.291H212.221V175.7C212.313 175.702 212.406 175.711 212.499 175.719Z" fill="#008372"/>
<path opacity="0.1" d="M258.319 51.4417H246.801V47.8834H251.962V37.2839C252.409 37.4478 252.855 37.6154 253.299 37.7867V47.8834H258.316L258.319 51.4417Z" fill="#008372"/>
<path opacity="0.1" d="M286.07 93.264H229.522C229.528 93.2653 229.533 93.2653 229.539 93.264H229.514H219.03V54.3435H222.002V83.1114H235.581V66.0741H246.804V52.6313H258.321V66.0825H269.538V83.1198H286.073L286.07 93.264Z" fill="#008372"/>
<path opacity="0.1" d="M219.03 94.4595V133.095H286.073V94.4595H219.03ZM304.262 178.571L304.358 147.987H286.073V134.302H219.03V201.482C224.526 201.709 230.03 201.643 235.52 201.284H235.615C238.237 201.116 240.847 200.878 243.444 200.569H243.503C257.365 198.964 270.919 195.365 283.739 189.883" fill="#008372"/>
<path opacity="0.1" d="M312.35 134.291H327.989C327.854 142.136 326.27 149.842 322.8 156.959C319.918 162.871 315.909 168.041 311.17 172.557V147.979H312.35V134.291Z" fill="#008372"/>
<path opacity="0.1" d="M328 133.095H312.35V100.805H320.82C325.199 110.98 327.986 122.152 328 133.095Z" fill="#008372"/>
<path opacity="0.1" d="M212.221 65.1609H202.751V77.3635H212.221V65.1609Z" fill="#008372"/>
<path opacity="0.1" d="M212.221 90.4543H202.751V93.2641H212.221V90.4543Z" fill="#008372"/>
<path opacity="0.1" d="M212.221 94.4565H202.751V102.654H212.221V94.4565Z" fill="#008372"/>
<path opacity="0.1" d="M212.221 115.748H202.751V127.95H212.221V115.748Z" fill="#008372"/>
<path opacity="0.1" d="M212.221 141.041H202.751V153.244H212.221V141.041Z" fill="#008372"/>
<path opacity="0.1" d="M212.221 175.699C212.313 175.699 212.406 175.699 212.502 175.719C212.409 175.719 212.316 175.719 212.221 175.702V178.537H202.751V166.334H212.221V175.699Z" fill="#008372"/>
<path opacity="0.1" d="M212.221 191.625V201.049C209.052 200.79 205.895 200.428 202.751 199.962V191.625H212.221Z" fill="#008372"/>
<path opacity="0.1" d="M165.072 132.198H124.488V133.095H165.072V132.198Z" fill="#008372"/>
<path opacity="0.1" d="M165.072 134.288H124.488V137.723H165.072V134.288Z" fill="#008372"/>
<path opacity="0.1" d="M165.072 148.984H124.488V154.509H165.072V148.984Z" fill="#008372"/>
<path opacity="0.1" d="M165.072 165.771V171.295H133.328C131.946 170.249 130.584 169.174 129.244 168.072C128.311 167.309 127.39 166.527 126.454 165.771H165.072Z" fill="#008372"/>
<path opacity="0.1" d="M165.072 182.553V188.092H161.72C157.951 186.401 154.257 184.559 150.641 182.565L165.072 182.553Z" fill="#008372"/>
<path opacity="0.1" d="M243.509 98.2021H235.52V106.145H243.509V98.2021Z" fill="#008372"/>
<path opacity="0.1" d="M70.5268 61.1919H62.5376V69.1352H70.5268V61.1919Z" fill="#008372"/>
<path opacity="0.1" d="M70.5268 79.6423H62.5376V87.5856H70.5268V79.6423Z" fill="#008372"/>
<path opacity="0.1" d="M70.5268 98.093H62.5376V106.036H70.5268V98.093Z" fill="#008372"/>
<path opacity="0.1" d="M70.5268 116.541H62.5376V124.484H70.5268V116.541Z" fill="#008372"/>
<path opacity="0.1" d="M70.5268 134.991H62.5376V142.935H70.5268V134.991Z" fill="#008372"/>
<path opacity="0.1" d="M70.5268 153.442H62.5376V161.385H70.5268V153.442Z" fill="#008372"/>
<path opacity="0.1" d="M274.008 98.2021H266.019V106.145H274.008V98.2021Z" fill="#008372"/>
<path opacity="0.1" d="M243.509 117.795H235.52V125.739H243.509V117.795Z" fill="#008372"/>
<path opacity="0.1" d="M274.008 117.795H266.019V125.739H274.008V117.795Z" fill="#008372"/>
<path opacity="0.1" d="M243.509 137.385H235.52V145.329H243.509V137.385Z" fill="#008372"/>
<path opacity="0.1" d="M274.008 137.385H266.019V145.329H274.008V137.385Z" fill="#008372"/>
<path opacity="0.1" d="M243.509 156.978H235.52V164.921H243.509V156.978Z" fill="#008372"/>
<path opacity="0.1" d="M274.008 156.978H266.019V164.921H274.008V156.978Z" fill="#008372"/>
<path opacity="0.1" d="M243.509 176.571H235.52V184.514H243.509V176.571Z" fill="#008372"/>
<path opacity="0.1" d="M274.008 176.571H266.019V184.514H274.008V176.571Z" fill="#008372"/>
<path opacity="0.1" d="M235.52 201.283V196.161H243.506V200.554L235.52 201.283Z" fill="#008372"/>
<path opacity="0.1" d="M22.6362 83.3293V87.8736H49.9749V83.3293H22.6362ZM25.3583 87.5887H23.111V83.617H25.3583V87.5887ZM28.0804 87.5887H25.8331V83.617H28.0804V87.5887ZM30.7968 87.5887H28.5495V83.617H30.7968V87.5887ZM33.5189 87.5887H31.2716V83.617H33.5189V87.5887ZM36.2382 87.5887H33.9908V83.617H36.2382V87.5887ZM38.9602 87.5887H36.7129V83.617H38.9602V87.5887ZM41.6823 87.5887H39.435V83.617H41.6823V87.5887ZM44.4016 87.5887H42.1543V83.617H44.4016V87.5887ZM47.1208 87.5887H44.8735V83.617H47.1208V87.5887ZM49.8429 87.5887H47.5956V83.617H49.8429V87.5887Z" fill="#008372"/>
<path opacity="0.1" d="M22.6362 96.5569V101.101H49.9749V96.5569H22.6362ZM25.3583 100.816H23.111V96.8446H25.3583V100.816ZM28.0804 100.816H25.8331V96.8446H28.0804V100.816ZM30.7968 100.816H28.5495V96.8446H30.7968V100.816ZM33.5189 100.816H31.2716V96.8446H33.5189V100.816ZM36.2382 100.816H33.9908V96.8446H36.2382V100.816ZM38.9602 100.816H36.7129V96.8446H38.9602V100.816ZM41.6823 100.816H39.435V96.8446H41.6823V100.816ZM44.4016 100.816H42.1543V96.8446H44.4016V100.816ZM47.1208 100.816H44.8735V96.8446H47.1208V100.816ZM49.8429 100.816H47.5956V96.8446H49.8429V100.816Z" fill="#008372"/>
<path opacity="0.1" d="M22.6362 109.787V114.329H49.9749V109.787H22.6362ZM25.3583 114.041H23.111V110.069H25.3583V114.041ZM28.0804 114.041H25.8331V110.069H28.0804V114.041ZM30.7968 114.041H28.5495V110.069H30.7968V114.041ZM33.5189 114.041H31.2716V110.069H33.5189V114.041ZM36.2382 114.041H33.9908V110.069H36.2382V114.041ZM38.9602 114.041H36.7129V110.069H38.9602V114.041ZM41.6823 114.041H39.435V110.069H41.6823V114.041ZM44.4016 114.041H42.1543V110.069H44.4016V114.041ZM47.1208 114.041H44.8735V110.069H47.1208V114.041ZM49.8429 114.041H47.5956V110.069H49.8429V114.041Z" fill="#008372"/>
<path opacity="0.1" d="M22.6362 123.015V127.557H49.9749V123.015H22.6362ZM25.3583 127.272H23.111V123.294H25.3583V127.272ZM28.0804 127.272H25.8331V123.294H28.0804V127.272ZM30.7968 127.272H28.5495V123.294H30.7968V127.272ZM33.5189 127.272H31.2716V123.294H33.5189V127.272ZM36.2382 127.272H33.9908V123.294H36.2382V127.272ZM38.9602 127.272H36.7129V123.294H38.9602V127.272ZM41.6823 127.272H39.435V123.294H41.6823V127.272ZM44.4016 127.272H42.1543V123.294H44.4016V127.272ZM47.1208 127.272H44.8735V123.294H47.1208V127.272ZM49.8429 127.272H47.5956V123.294H49.8429V127.272Z" fill="#008372"/>
<path opacity="0.1" d="M22.7681 136.237C22.8748 136.667 23.0012 137.092 23.1304 137.514V136.525H25.3778V140.494H24.1726C24.2064 140.589 24.2429 140.687 24.2822 140.773H49.986V136.237H22.7681ZM28.1055 140.494H25.8581V136.525H28.1055V140.494ZM30.8219 140.494H28.5746V136.525H30.8219V140.494ZM33.544 140.494H31.2967V136.525H33.544V140.494ZM36.2633 140.494H34.0159V136.525H36.2633V140.494ZM38.9853 140.494H36.738V136.525H38.9853V140.494ZM41.7074 140.494H39.4601V136.525H41.7074V140.494ZM44.4267 140.494H42.1793V136.525H44.4267V140.494ZM47.1459 140.494H44.8986V136.525H47.1459V140.494ZM49.868 140.494H47.6207V136.525H49.868V140.494Z" fill="#008372"/>
<path opacity="0.1" d="M29.1001 149.465C29.1731 149.554 29.2406 149.655 29.3108 149.744H30.7968V151.652L31.2772 152.21V149.733H33.5245V153.738H32.6003C32.6902 153.83 32.7773 153.928 32.8812 154.017H49.9693V149.465H29.1001ZM36.2522 153.738H34.0049V149.75H36.2522V153.738ZM38.9743 153.738H36.727V149.75H38.9743V153.738ZM41.6964 153.738H39.449V149.75H41.6964V153.738ZM44.4156 153.738H42.1683V149.75H44.4156V153.738ZM47.1349 153.738H44.8876V149.75H47.1349V153.738ZM49.857 153.738H47.6096V149.75H49.857V153.738Z" fill="#008372"/>
<path opacity="0.1" d="M44.0981 162.693C44.3566 162.838 44.6178 162.972 44.8791 163.114V162.975H47.1264V164.234C47.2893 164.304 47.4439 164.38 47.604 164.452V162.975H49.8513V165.393C49.894 165.413 49.9382 165.429 49.9833 165.441V162.693H44.0981Z" fill="#008372"/>
<path opacity="0.1" d="M212.218 175.7H212.499H212.218ZM194.163 133.757C194.217 133.936 194.264 134.115 194.312 134.291C194.27 134.115 194.22 133.936 194.163 133.757ZM59.8491 51.4416V52.6314H72.3976V51.436L59.8491 51.4416ZM212.221 175.7H212.502H212.221ZM194.163 133.757C194.217 133.936 194.264 134.115 194.312 134.291C194.27 134.115 194.22 133.936 194.163 133.757ZM212.218 175.7H212.499H212.218ZM194.163 133.757C194.217 133.936 194.264 134.115 194.312 134.291C194.27 134.115 194.22 133.936 194.163 133.757Z" fill="#008372"/>
<path opacity="0.1" d="M247.046 241C262.163 241 274.418 239.043 274.418 236.629C274.418 234.215 262.163 232.258 247.046 232.258C231.928 232.258 219.673 234.215 219.673 236.629C219.673 239.043 231.928 241 247.046 241Z" fill="#008372"/>
<path opacity="0.1" d="M123.595 236.629C138.712 236.629 150.967 234.672 150.967 232.258C150.967 229.844 138.712 227.887 123.595 227.887C108.477 227.887 96.2222 229.844 96.2222 232.258C96.2222 234.672 108.477 236.629 123.595 236.629Z" fill="#008372"/>
<path d="M155.107 116.678C155.101 116.65 155.086 116.625 155.065 116.605C154.647 116.195 149.309 108.69 149.309 108.69C149.309 108.69 149.028 107.852 148.573 106.763C148.719 106.575 148.829 106.362 148.896 106.134C148.921 106.038 148.939 105.94 148.95 105.841C148.95 105.81 148.972 105.785 148.981 105.754C149.078 105.375 149.069 104.977 148.953 104.604C148.921 104.699 148.883 104.793 148.837 104.883C148.732 104.558 148.59 104.245 148.416 103.95C147.708 102.738 146.697 101.716 145.952 100.534C144.825 98.6985 144.377 96.5295 144.685 94.4007C144.685 94.5097 144.685 94.6214 144.685 94.7303C144.714 94.3081 144.77 93.8882 144.854 93.4735C144.971 93.0013 145.128 92.5398 145.323 92.0937C145.992 90.5715 147.073 89.2448 147.731 87.7171C147.951 87.2018 148.119 86.6656 148.231 86.1167C148.462 85.2 148.547 84.2526 148.481 83.3097C148.481 83.5331 148.444 83.7566 148.41 83.9772C148.339 81.7102 147.419 79.5515 145.829 77.9248C143.534 75.6317 140.239 74.7408 137.087 74.2715C135.762 74.1179 134.497 73.6379 133.407 72.875C132.196 72.0958 130.631 71.9087 129.215 72.079C127.588 72.254 126.076 72.9972 124.948 74.1766C123.451 75.8133 122.802 78.1315 121.055 79.5112C119.996 80.3491 118.653 80.7401 117.42 81.3099C116.187 81.8797 115.021 82.7064 114.625 83.9298C114.625 83.9298 114.625 83.913 114.625 83.9046V83.9744L114.608 84.0191C114.198 85.4659 114.99 86.9378 115.403 88.3818C115.833 89.8761 115.861 91.4541 115.883 92.9986C115.914 94.8867 115.942 96.7776 115.911 98.6684C115.897 99.4114 115.872 100.163 115.816 100.903C115.151 101.103 114.505 101.361 113.886 101.674C113.257 102.081 110.903 104.609 110.903 104.609L106.298 122.099L106.36 122.169L106.298 122.406L106.531 122.353C107.183 123.051 109.13 125.04 111.231 126.28L111.428 129.71C111.428 129.71 111.664 133.151 114.847 134.573C114.92 135.765 115.147 140.608 114.094 142.527C113.364 143.929 113.021 145.498 113.099 147.074C113.099 147.074 113.467 149.984 113.049 151.515C112.804 152.538 112.786 153.601 112.995 154.632C112.995 154.632 112.995 154.97 112.995 155.551C112.995 158.648 113.032 168.575 112.995 169.697C112.942 171.024 112.995 190.645 112.995 190.645C112.995 190.645 112.734 200.451 111.897 203.107C111.06 205.763 111.271 214.559 111.271 214.559C111.271 214.559 110.745 225.035 112.602 227.102C112.602 227.194 112.585 227.289 112.582 227.381C112.582 227.423 112.582 227.471 112.582 227.513C112.56 228.309 112.714 229.155 113.403 229.415C114.807 229.951 116.664 231.56 117.015 232.02C117.366 232.481 119.409 233.629 122.072 233.322C123.74 233.136 125.419 233.059 127.097 233.093C127.097 233.093 128.148 232.903 127.808 231.604C127.589 230.794 126.769 229.549 126.184 228.73C126.291 228.758 126.395 228.781 126.493 228.8L126.595 228.82H126.673C126.716 228.822 126.759 228.822 126.802 228.82H126.859C126.911 228.824 126.964 228.824 127.016 228.82C127.721 228.753 130.35 229.97 130.819 230.775C131.289 231.579 132.943 232.191 134.19 232.344C134.932 232.434 136.803 232.283 138.373 232.082C139.164 232.001 139.947 231.859 140.716 231.657C141.087 231.518 141.166 231.071 141.059 230.568C140.933 229.93 140.59 229.354 140.087 228.937C139.632 228.616 139.031 227.77 138.587 227.077L138.469 226.89C139.253 226.147 140.668 223.717 141.098 223.214C141.621 222.602 140.255 200.233 140.255 200.233V189.019L142.348 178.406L143.812 172.789L145.068 164.31C145.068 164.31 147.264 154.406 146.587 153.434C146.587 153.414 146.025 143.217 145.436 140.767C145.18 139.675 145.245 137.217 145.396 134.827C145.555 134.67 145.665 134.472 145.715 134.255C145.765 134.039 145.752 133.813 145.677 133.603C145.635 133.46 145.581 133.321 145.514 133.187C145.514 133.145 145.514 133.101 145.514 133.059C146.728 132.504 147.996 132.075 149.298 131.78C151.391 131.372 150.868 130.299 150.868 130.299C150.868 130.299 151.34 129.38 151.652 128.819C151.964 128.258 151.706 123.303 151.652 122.895C151.633 122.73 151.503 121.82 151.354 120.786C152.026 120.311 152.899 119.722 153.852 119.164C155.664 118.097 155.256 116.971 155.107 116.678ZM127.802 187.489C127.802 187.489 126.232 191.472 126.861 192.491C127.491 193.51 126.757 197.295 126.757 197.295L126.232 202.912C126.232 202.912 124.769 213.33 125.291 215.779C125.701 217.701 125.853 223.44 125.901 225.834C125.865 225.848 125.83 225.865 125.797 225.884L125.726 225.921C125.968 224.979 125.867 223.074 124.667 219.242L124.566 203.414C124.566 203.414 124.381 185.131 125.833 183.087C127.286 181.043 127.8 177.571 127.8 177.571C127.8 177.571 127.485 182.579 127.28 183.905C127.075 185.232 127.802 187.489 127.802 187.489ZM124.878 226.831C124.864 226.865 124.847 226.898 124.836 226.929L124.757 226.828C124.797 226.832 124.838 226.833 124.878 226.831Z" fill="url(#paint0_linear)"/>
<path d="M140.893 233.104C140.081 233.414 135.679 233.942 134.449 233.794C133.218 233.646 131.589 233.026 131.125 232.216C130.662 231.406 128.063 230.183 127.367 230.261C127.081 230.269 126.796 230.23 126.524 230.144C126.043 229.999 125.574 229.82 125.12 229.607C125.056 229.255 125.067 228.894 125.15 228.546C125.167 228.476 125.187 228.407 125.212 228.339C125.376 227.881 125.715 227.506 126.156 227.295L126.257 227.247C126.452 227.164 126.655 227.102 126.864 227.063C129.072 226.641 138.182 227.487 138.182 227.487C138.182 227.487 138.438 227.943 138.789 228.507C139.227 229.205 139.823 230.057 140.272 230.378C140.77 230.801 141.108 231.381 141.23 232.02C141.337 232.515 141.258 232.967 140.893 233.104Z" fill="white"/>
<path opacity="0.1" d="M140.893 233.104C140.081 233.414 135.682 233.942 134.452 233.794C133.221 233.646 131.592 233.023 131.126 232.216C130.659 231.409 128.067 230.183 127.37 230.261C126.673 230.339 125.123 229.607 125.123 229.607C125.123 229.607 124.881 228.49 125.583 227.728L126.988 228.719C126.988 228.719 130.747 229.878 131.443 230.953C132.14 232.029 133.41 232.629 135.244 232.738C136.615 232.828 139.764 232.297 141.239 232.032C141.337 232.515 141.261 232.967 140.893 233.104Z" fill="black"/>
<path d="M127.446 234.529C125.789 234.496 124.132 234.574 122.485 234.76C119.847 235.068 117.833 233.923 117.482 233.451C117.131 232.978 115.313 231.384 113.917 230.825C113.234 230.563 113.074 229.708 113.105 228.909C113.105 228.867 113.105 228.82 113.105 228.778C113.131 228.272 113.206 227.769 113.33 227.278L124.26 227.046L125.207 228.323L125.353 228.518L125.929 229.297C125.929 229.297 126.19 229.638 126.533 230.135C127.112 230.973 127.921 232.21 128.137 233.029C128.482 234.339 127.446 234.529 127.446 234.529Z" fill="white"/>
<path opacity="0.1" d="M127.446 234.529C125.789 234.496 124.132 234.574 122.485 234.76C119.85 235.068 117.833 233.922 117.485 233.45C117.136 232.978 115.313 231.37 113.917 230.831C113.234 230.568 113.074 229.713 113.105 228.915C113.886 229.096 115.527 229.56 116.17 230.367C117.013 231.445 118.521 233.258 120.665 233.372C122.395 233.464 126.609 233.157 128.154 233.034C128.485 234.339 127.446 234.529 127.446 234.529Z" fill="black"/>
<path opacity="0.1" d="M126.145 227.284C126.019 228.216 125.628 228.468 125.347 228.524C125.279 228.537 125.208 228.537 125.139 228.524C125.102 228.521 125.066 228.515 125.03 228.507C125.03 228.507 115.215 230.663 113.231 228.917C113.181 228.873 113.134 228.824 113.091 228.772C113.117 228.266 113.192 227.764 113.316 227.272L124.246 227.041L125.193 228.317C125.357 227.859 125.696 227.483 126.137 227.272L126.145 227.284Z" fill="black"/>
<path opacity="0.1" d="M138.787 228.496C138.568 228.736 138.385 228.873 138.27 228.825C137.753 228.619 133.517 227.901 132.171 228.518C130.826 229.135 126.272 228.619 126.272 228.619C126.272 228.619 126.272 228.082 126.247 227.222C126.441 227.138 126.645 227.077 126.853 227.038C129.061 226.616 138.171 227.462 138.171 227.462C138.171 227.462 138.438 227.931 138.787 228.496Z" fill="black"/>
<path d="M145.197 165.318L143.955 173.848L142.511 179.501L140.444 190.187V201.499C140.444 201.499 141.786 224.005 141.27 224.619C140.753 225.234 138.789 228.733 138.272 228.529C137.755 228.325 133.519 227.605 132.174 228.219C130.828 228.834 126.274 228.323 126.274 228.323C126.274 228.323 126.17 219.589 125.653 217.123C125.137 214.656 126.583 204.174 126.583 204.174L127.1 198.524C127.1 198.524 127.825 194.72 127.204 193.692C126.583 192.664 128.134 188.665 128.134 188.665C128.134 188.665 127.412 186.4 127.62 185.065C127.828 183.729 128.134 178.694 128.134 178.694C128.134 178.694 127.62 182.191 126.184 184.243C124.749 186.296 124.931 204.694 124.931 204.694L125.033 220.614C127.62 229.043 125.033 228.219 125.033 228.219C125.033 228.219 115.217 230.378 113.234 228.63C111.251 226.881 111.818 215.877 111.818 215.877C111.818 215.877 111.613 207.04 112.439 204.37C113.265 201.7 113.526 191.832 113.526 191.832C113.526 191.832 113.473 172.099 113.526 170.767C113.566 169.65 113.526 159.648 113.526 156.523C113.526 155.942 113.526 155.598 113.526 155.598L114.712 152.671L128.758 150.923H135.477C135.477 150.923 145.59 153.286 146.635 154.305C146.657 154.322 146.676 154.343 146.691 154.367C147.368 155.353 145.197 165.318 145.197 165.318Z" fill="#008372"/>
<path opacity="0.1" d="M128.143 210.123C128.143 210.123 131.233 217.522 132.691 218.036C134.149 218.55 128.143 210.123 128.143 210.123Z" fill="black"/>
<path opacity="0.1" d="M129.286 221.016C129.286 221.016 139.719 221.53 139.615 222.661C139.511 223.792 129.286 221.016 129.286 221.016Z" fill="black"/>
<path opacity="0.1" d="M115.327 218.058C115.74 218.447 123.285 219.176 122.665 219.885C122.044 220.594 115.948 221.974 115.948 221.974L115.327 218.058Z" fill="black"/>
<path opacity="0.1" d="M114.088 205.294C114.088 205.601 115.639 215.159 116.055 215.57C116.471 215.98 119.878 216.391 119.878 216.391L114.088 205.294Z" fill="black"/>
<path d="M125.339 74.6543C123.859 76.2994 123.218 78.6315 121.493 80.0224C120.445 80.8603 119.119 81.2597 117.9 81.8295C116.681 82.3993 115.473 83.2679 115.111 84.5583C114.706 86.0106 115.487 87.4937 115.897 88.9461C116.322 90.4487 116.347 92.0184 116.372 93.5908C116.4 95.4929 116.431 97.3949 116.397 99.297C116.347 102.26 116.1 105.361 114.518 107.871C120.229 109.679 126.302 109.924 132.292 110.156C133.443 110.238 134.599 110.209 135.744 110.07C136.737 109.873 137.718 109.626 138.685 109.329C140.597 108.826 142.567 108.576 144.545 108.584C145.408 108.584 146.287 108.637 147.118 108.413C147.95 108.19 148.75 107.617 148.975 106.791C149.175 106.048 148.882 105.257 148.5 104.59C147.804 103.372 146.815 102.355 146.068 101.154C145.305 99.8857 144.852 98.4568 144.746 96.9825C144.641 95.5082 144.884 94.0298 145.458 92.6664C146.121 91.133 147.189 89.7979 147.84 88.2618C148.508 86.6125 148.685 84.8073 148.352 83.0607C148.018 81.314 147.187 79.6993 145.958 78.4081C143.691 76.101 140.438 75.2073 137.326 74.7325C136.015 74.5786 134.765 74.0982 133.691 73.336C132.497 72.5539 130.949 72.364 129.55 72.5372C127.936 72.717 126.441 73.4685 125.339 74.6543Z" fill="#3F3D56"/>
<g opacity="0.1">
<path opacity="0.1" d="M145.545 91.0547C144.972 92.4006 144.727 93.8618 144.829 95.3196C144.892 94.2771 145.134 93.2531 145.545 92.292C146.205 90.7587 147.273 89.4236 147.924 87.8875C148.457 86.6048 148.681 85.2161 148.579 83.832C148.521 84.8021 148.3 85.7557 147.924 86.653C147.273 88.1891 146.205 89.5214 145.545 91.0547Z" fill="black"/>
<path opacity="0.1" d="M116.456 93.2108C116.473 94.3057 116.49 95.4033 116.493 96.4982C116.493 94.99 116.479 93.4846 116.456 91.9791C116.434 90.4178 116.406 88.837 115.982 87.3316C115.701 86.3764 115.285 85.4072 115.139 84.4436C114.889 85.8122 115.6 87.2003 115.982 88.5661C116.406 90.0575 116.434 91.6496 116.456 93.2108Z" fill="black"/>
<path opacity="0.1" d="M147.214 106.816C146.371 107.042 145.506 106.992 144.643 106.986C142.667 106.973 140.698 107.219 138.786 107.718C137.819 108.013 136.837 108.259 135.845 108.455C134.699 108.597 133.542 108.627 132.39 108.544C126.603 108.318 120.735 108.075 115.192 106.43C115.028 106.795 114.84 107.15 114.63 107.491C120.341 109.296 126.415 109.544 132.401 109.776C133.553 109.858 134.71 109.828 135.856 109.687C136.845 109.493 137.823 109.247 138.786 108.952C140.694 108.452 142.659 108.203 144.632 108.212C145.495 108.212 146.371 108.265 147.203 108.039C148.034 107.813 148.835 107.246 149.059 106.419C149.154 106.036 149.144 105.635 149.031 105.257C148.781 106.039 148.009 106.584 147.214 106.816Z" fill="black"/>
</g>
<path d="M138.893 103.506C138.685 103.97 137.809 107.975 137.601 108.385C137.393 108.796 136.258 115.368 136.154 115.737C136.05 116.105 128.673 114.195 128.673 114.195L124.232 110.494L119.667 105.978C119.667 105.978 119.532 101.903 122.895 100.596C123.124 100.507 123.358 100.434 123.597 100.378C127.676 99.4031 127.266 87.072 127.266 87.072L135.637 90.6666C135.637 90.6666 134.087 97.8614 134.14 99.2495C134.154 99.716 134.522 100.006 135.002 100.182C135.745 100.392 136.518 100.476 137.289 100.428C137.289 100.428 139.101 103.045 138.893 103.506Z" fill="#FBBEBE"/>
<path d="M153.88 117.019L155.068 117.329C155.068 117.329 155.947 118.658 153.88 119.895C152.567 120.688 151.307 121.564 150.107 122.518L143.997 124.367L142.82 120.694L148.506 116.404L153.88 117.019Z" fill="#008372"/>
<path opacity="0.1" d="M153.88 117.019L155.068 117.329C155.068 117.329 155.947 118.658 153.88 119.895C152.567 120.688 151.307 121.564 150.107 122.518L143.997 124.367L142.82 120.694L148.506 116.404L153.88 117.019Z" fill="black"/>
<path d="M109.29 120.566L106.914 122.878C106.914 122.878 111.2 127.811 114.498 128.118C117.796 128.425 119.923 124.367 119.923 124.367L117.069 119.898L109.29 120.566Z" fill="#008372"/>
<path opacity="0.1" d="M109.29 120.566L106.914 122.878C106.914 122.878 111.2 127.811 114.498 128.118C117.796 128.425 119.923 124.367 119.923 124.367L117.069 119.898L109.29 120.566Z" fill="black"/>
<path opacity="0.1" d="M131.865 95.1298C136.43 95.1298 140.132 91.4497 140.132 86.91C140.132 82.3703 136.43 78.6902 131.865 78.6902C127.299 78.6902 123.597 82.3703 123.597 86.91C123.597 91.4497 127.299 95.1298 131.865 95.1298Z" fill="black"/>
<path d="M131.865 94.5124C136.43 94.5124 140.132 90.8322 140.132 86.2926C140.132 81.7529 136.43 78.0728 131.865 78.0728C127.299 78.0728 123.597 81.7529 123.597 86.2926C123.597 90.8322 127.299 94.5124 131.865 94.5124Z" fill="#FBBEBE"/>
<path opacity="0.1" d="M146.697 155.299C144.815 155.514 142.961 155.926 141.166 156.531C138.076 157.553 113.861 156.548 113.524 156.531C113.524 155.95 113.524 155.607 113.524 155.607L114.709 152.68L128.755 150.931H135.475C135.475 150.931 145.588 153.294 146.633 154.313C146.675 154.928 146.697 155.299 146.697 155.299Z" fill="black"/>
<path opacity="0.1" d="M138.893 103.506C138.685 103.97 137.809 107.975 137.601 108.385C137.393 108.796 136.258 115.368 136.154 115.737C136.05 116.105 128.673 114.195 128.673 114.195L124.232 110.494L119.667 105.978C119.667 105.978 119.532 101.903 122.895 100.596L131.244 110.139L135.002 100.182C135.745 100.392 136.518 100.476 137.289 100.428C137.289 100.428 139.101 103.045 138.893 103.506Z" fill="black"/>
<path d="M131.244 110.447L122.698 100.671C122.198 100.354 121.626 100.165 121.034 100.121C120.442 100.078 119.849 100.181 119.307 100.422C117.394 101.246 115.018 101.914 114.397 102.324C113.776 102.735 111.45 105.277 111.45 105.277L118.378 123.294L115.327 135.162C115.327 135.162 115.793 141.225 114.605 143.435C113.881 144.847 113.542 146.424 113.622 148.007C113.622 148.007 113.984 150.937 113.571 152.476C113.33 153.505 113.312 154.573 113.518 155.609C113.518 155.609 138.067 156.637 141.165 155.609C142.96 155.003 144.814 154.59 146.697 154.378C146.697 154.378 146.135 144.099 145.573 141.633C145.011 139.167 146.039 129.766 146.039 129.766L145.368 119.694L149.396 109.36C149.396 109.36 147.214 102.735 144.938 102.067C144.938 102.067 140.806 101.09 139.927 100.629C139.047 100.168 136.463 99.7549 136.463 99.7549L135.106 100.207L131.244 110.447Z" fill="#008372"/>
<path opacity="0.1" d="M143.166 119.354L125.184 118.138C124.729 118.108 124.335 118.45 124.304 118.902L122.374 147.13C122.343 147.582 122.687 147.974 123.142 148.005L141.124 149.221C141.579 149.251 141.973 148.91 142.004 148.457L143.934 120.229C143.965 119.777 143.621 119.385 143.166 119.354Z" fill="black"/>
<path d="M143.785 118.741L125.803 117.525C125.348 117.495 124.954 117.837 124.923 118.289L122.993 146.517C122.962 146.969 123.306 147.361 123.761 147.392L141.743 148.608C142.198 148.638 142.592 148.296 142.623 147.844L144.553 119.616C144.584 119.164 144.241 118.772 143.785 118.741Z" fill="#3F3D56"/>
<path d="M143.192 120.954L126.09 119.797L124.333 145.495L141.435 146.651L143.192 120.954Z" fill="white"/>
<path opacity="0.1" d="M141.659 127.513L127.689 126.541L127.416 130.412L141.386 131.384L141.659 127.513Z" fill="black"/>
<path opacity="0.1" d="M141.153 142.896L138.937 142.747L138.799 144.764L141.015 144.914L141.153 142.896Z" fill="black"/>
<path opacity="0.1" d="M138.967 138.027L127.619 137.26L127.481 139.278L138.829 140.045L138.967 138.027Z" fill="black"/>
<path d="M141.075 119.993L129.259 119.194L129.047 122.296L140.863 123.094L141.075 119.993Z" fill="#3F3D56"/>
<path opacity="0.1" d="M141.075 119.993L129.259 119.194L129.047 122.296L140.863 123.094L141.075 119.993Z" fill="black"/>
<path opacity="0.1" d="M132.278 154.732C132.278 154.732 132.174 169.943 128.143 178.677C128.143 178.677 133.002 167.167 133.002 166.706C133.002 166.245 135.688 161.413 134.969 159.975C134.25 158.536 132.278 154.732 132.278 154.732Z" fill="black"/>
<path opacity="0.1" d="M132.497 84.2371C132.342 82.8908 132.674 81.5337 133.432 80.4079C133.342 81.5364 133.663 82.6594 134.337 83.5721C135.01 84.4848 135.991 85.1263 137.101 85.3794C137.006 85.2977 136.939 85.1894 136.907 85.0688C136.876 84.9481 136.881 84.8208 136.924 84.7035C137.5 85.3515 137.941 86.1196 138.593 86.6893C139.244 87.2591 140.222 87.5999 140.989 87.1949C142.031 86.6363 142.042 85.1644 141.773 84.0192C141.194 81.5805 140.007 79.3261 138.32 77.4641C137.899 76.9012 137.353 76.4429 136.725 76.125C136.096 75.8071 135.402 75.6383 134.696 75.6319C133.101 75.509 131.443 75.6486 130.013 76.3608C129.209 76.7974 128.455 77.321 127.766 77.9221L123.833 81.1117C123.455 81.3828 123.131 81.7219 122.878 82.1116C122.709 82.4374 122.608 82.7936 122.58 83.159C122.48 84.2036 122.674 85.2554 123.142 86.1962C123.609 87.1371 124.331 87.9298 125.227 88.4852C125.208 87.6596 125.436 86.847 125.883 86.1508C126.329 85.4545 126.974 84.906 127.735 84.575C127.854 84.6741 127.951 84.7974 128.018 84.9366C128.086 85.0759 128.122 85.2278 128.126 85.3822L128.954 83.9131C129.078 83.6458 129.272 83.4169 129.516 83.2512C130.028 82.9719 130.665 83.3014 131.101 83.6953C131.536 84.0891 131.96 84.5806 132.545 84.6421L132.567 82.4552" fill="black"/>
<path d="M132.497 83.9298C132.342 82.5826 132.673 81.2245 133.432 80.0978C133.179 82.3322 134.873 84.6392 137.104 85.0694C137.009 84.9883 136.941 84.8805 136.91 84.7602C136.878 84.64 136.884 84.513 136.927 84.3962C137.503 85.0442 137.944 85.8095 138.595 86.3821C139.247 86.9546 140.225 87.2926 140.992 86.8848C142.034 86.3262 142.045 84.8543 141.775 83.7119C141.197 81.2732 140.009 79.0188 138.323 77.1568C137.8 76.5226 137.14 76.013 136.393 75.6653C135.852 75.4664 135.284 75.3515 134.707 75.3246C133.112 75.2017 131.454 75.3385 130.025 76.0507C129.221 76.4892 128.467 77.0137 127.777 77.6148L123.844 80.8044C123.465 81.0748 123.141 81.4141 122.889 81.8043C122.72 82.13 122.619 82.4862 122.592 82.8517C122.491 83.8959 122.686 84.9472 123.153 85.8876C123.621 86.8279 124.343 87.6201 125.238 88.1752C125.22 87.3497 125.448 86.5374 125.895 85.8413C126.341 85.1452 126.986 84.5966 127.746 84.265C127.865 84.3644 127.961 84.4878 128.029 84.6269C128.096 84.7661 128.133 84.9178 128.137 85.0721L128.963 83.6086C129.085 83.3408 129.28 83.1118 129.525 82.9467C130.036 82.6674 130.674 82.9969 131.109 83.3908C131.544 83.7846 131.969 84.2733 132.553 84.3376L132.575 82.1479" fill="#3F3D56"/>
<path d="M136.413 135.776C135.691 135.413 123.752 137.265 123.752 137.265C123.752 137.265 121.785 136.706 117.032 135.93C112.279 135.153 111.976 130.534 111.976 130.534L111.456 121.286L113.06 119.89L119.931 124.358C119.931 124.358 120.038 126.618 119.931 127.026C119.864 127.305 119.684 127.637 119.701 127.864C119.706 127.925 119.732 127.983 119.773 128.028C119.815 128.074 119.87 128.104 119.931 128.115C120.398 128.232 126.752 129.255 126.752 129.255C126.752 129.255 141.48 128.252 145.152 133.184C145.443 133.546 145.663 133.959 145.801 134.402C146.711 137.773 137.067 136.097 136.413 135.776Z" fill="#FBBEBE"/>
<path opacity="0.1" d="M145.809 134.422C145.247 134.67 144.899 134.849 144.899 134.849C144.899 134.849 139.629 134.695 136.668 133.629C133.707 132.562 130.109 132.752 130.109 132.752C130.109 132.752 117.771 130.64 119.684 127.883C119.689 127.945 119.715 128.002 119.756 128.048C119.798 128.093 119.853 128.124 119.914 128.135C120.381 128.252 126.735 129.274 126.735 129.274C126.735 129.274 141.463 128.272 145.135 133.204C145.435 133.564 145.664 133.977 145.809 134.422Z" fill="black"/>
<path d="M150.933 118.15C150.933 118.15 151.658 123.236 151.708 123.649C151.759 124.062 152.02 129.042 151.708 129.609C151.397 130.176 150.933 131.098 150.933 131.098C150.933 131.098 151.45 132.176 149.382 132.59C147.315 133.003 144.888 134.232 144.888 134.232C144.888 134.232 139.615 134.078 136.671 133C133.727 131.922 130.109 132.126 130.109 132.126C130.109 132.126 114.448 129.453 121.167 126.191C127.887 122.928 132.64 127.347 132.64 127.347L140.132 126.886C140.132 126.886 142.924 125.188 143.7 125.344C144.247 125.414 144.803 125.325 145.301 125.088L145.354 119.691L150.933 118.15Z" fill="#FBBEBE"/>
<path opacity="0.1" d="M112.942 105.665L111.442 105.587L106.897 123.183C106.897 123.183 111.805 121.948 113.92 123.183C116.035 124.417 119.915 124.671 119.915 124.671L118.468 110.645L112.942 105.665Z" fill="black"/>
<path d="M112.942 105.355L111.442 105.277L106.897 122.873C106.897 122.873 111.805 121.638 113.92 122.873C116.035 124.107 119.915 124.361 119.915 124.361L118.468 110.335L112.942 105.355Z" fill="#008372"/>
<path opacity="0.1" d="M147.318 109.209L149.383 109.673C149.383 109.673 154.656 117.214 155.068 117.636C155.481 118.058 153.102 119.591 152.122 119.591C151.141 119.591 146.335 120.15 144.939 121.44C143.543 122.73 144.124 116.237 144.124 116.089C144.124 115.941 145.857 111.843 145.857 111.843L147.318 109.209Z" fill="black"/>
<path d="M147.318 108.902L149.383 109.363C149.383 109.363 154.656 116.918 155.068 117.328C155.481 117.739 153.102 119.283 152.122 119.283C151.141 119.283 146.335 119.842 144.939 121.132C143.543 122.423 144.124 115.929 144.124 115.781C144.124 115.633 145.868 111.522 145.868 111.522L147.318 108.902Z" fill="#008372"/>
<g opacity="0.1">
<path opacity="0.1" d="M133.418 80.1229C133.406 79.9087 133.411 79.6939 133.432 79.4805C133.005 80.1186 132.71 80.8357 132.567 81.5892V82.2372C132.567 82.2372 132.567 82.2232 132.567 82.2148V82.3684C132.567 82.8209 132.567 83.2762 132.553 83.7286H132.514V83.9381C132.514 83.8655 132.514 83.7957 132.5 83.7231C131.938 83.6337 131.536 83.1644 131.118 82.7902C130.699 82.4159 130.044 82.0584 129.533 82.3461C129.288 82.5112 129.094 82.7402 128.971 83.008L128.137 84.4716C128.133 84.3176 128.097 84.1661 128.029 84.0274C127.962 83.8887 127.866 83.7659 127.747 83.6672C126.986 83.9982 126.341 84.5467 125.894 85.2429C125.447 85.9392 125.219 86.7518 125.238 87.5774C124.47 87.0993 123.828 86.4464 123.365 85.6727C122.901 84.8991 122.63 84.0269 122.572 83.1281C122.523 84.1316 122.745 85.1299 123.213 86.0201C123.682 86.9102 124.381 87.6599 125.238 88.1919C125.22 87.3664 125.448 86.5541 125.895 85.858C126.342 85.1619 126.986 84.6133 127.747 84.2817C127.865 84.3811 127.962 84.5045 128.029 84.6436C128.096 84.7827 128.133 84.9345 128.137 85.0888L128.963 83.6253C129.085 83.3575 129.28 83.1285 129.525 82.9634C130.036 82.6841 130.674 83.0136 131.109 83.4074C131.545 83.8013 131.969 84.29 132.553 84.3543C132.553 83.6393 132.561 82.9261 132.576 82.2148C132.713 81.4686 133 80.7573 133.418 80.1229Z" fill="black"/>
<path opacity="0.1" d="M132.469 82.9354C132.483 82.7455 132.505 82.5556 132.533 82.3768L132.564 81.606C132.48 82.0438 132.448 82.4901 132.469 82.9354Z" fill="black"/>
<path opacity="0.1" d="M140.991 86.2674C140.225 86.6752 139.247 86.3344 138.595 85.7646C137.944 85.1949 137.502 84.4268 136.927 83.7788C136.884 83.8961 136.878 84.0234 136.91 84.144C136.941 84.2647 137.009 84.373 137.104 84.4547C137.047 84.4547 136.994 84.4268 136.941 84.4128C137.502 85.0552 137.949 85.8093 138.595 86.3679C139.241 86.9265 140.225 87.2785 140.991 86.8707C141.758 86.4629 141.977 85.5077 141.91 84.5776C141.859 85.3094 141.595 85.9434 140.991 86.2674Z" fill="black"/>
<path opacity="0.1" d="M136.924 84.4072C135.985 84.1527 135.146 83.6187 134.52 82.8769C133.895 82.1351 133.512 81.2209 133.424 80.2568C133.264 82.4493 134.927 84.6474 137.104 85.0692C137.011 84.9891 136.944 84.8834 136.912 84.7655C136.88 84.6476 136.884 84.5228 136.924 84.4072Z" fill="black"/>
</g>
<path d="M271.831 130.056C271.831 130.056 270.724 129.903 270.724 128.302C270.724 126.702 269.932 123.705 269.932 123.705C269.932 123.705 269.246 118.49 268.3 117.664C267.353 116.837 266.137 111.983 266.137 111.983C266.137 111.983 265.929 109.349 265.505 108.782C265.08 108.215 264.507 106.827 263.662 104.847C262.816 102.866 259.299 101.509 259.299 101.509C259.299 101.509 252.925 97.8334 251.119 96.6352C250.954 96.5359 250.799 96.4198 250.658 96.2888C250.343 95.8811 248.973 95.8727 248.973 95.8727C248.829 94.9705 248.692 93.9371 248.647 93.0015C248.647 92.9009 248.647 92.8004 248.647 92.6998C250.661 91.5161 252.178 89.6497 252.919 87.4434C252.953 87.3373 252.981 87.2283 253.012 87.1194C253.135 87.0816 253.249 87.0182 253.346 86.9335C253.443 86.8488 253.521 86.7446 253.574 86.6278C253.734 86.2675 253.74 85.8486 253.942 85.5106C254.178 85.114 254.627 84.9018 254.981 84.6057C255.875 83.8488 256.105 82.578 256.063 81.4245C256.035 80.486 255.883 79.542 255.942 78.6119C255.942 78.5337 255.942 78.4555 255.959 78.3773C255.976 78.2404 255.996 78.098 256.021 77.9639C256.158 77.2713 256.459 76.6177 256.628 75.9306C256.796 75.2436 256.813 74.4699 256.42 73.8778C255.844 73.0092 254.644 72.836 253.591 72.7606C252.397 72.66 251.344 72.7885 250.565 71.8026C250.208 71.2876 249.806 70.8053 249.363 70.3614C249.206 70.2162 247.678 69.2861 247.678 69.2274C246.182 68.5362 244.486 68.4063 242.902 68.8615C242.107 69.0906 241.363 69.4648 240.556 69.652C238.826 70.0597 236.831 69.6184 235.359 70.6044C234.539 71.163 234.048 72.0539 233.587 72.917C233.212 73.6283 232.832 74.3405 232.446 75.0536C231.823 76.2239 231.194 77.4137 230.932 78.7097C230.878 78.9927 230.843 79.2793 230.828 79.5671C230.828 79.6705 230.828 79.7738 230.828 79.8771C230.828 79.9218 230.828 79.9665 230.828 80.0112C230.828 80.1062 230.828 80.2011 230.845 80.2905C230.862 80.3799 230.845 80.405 230.865 80.4637C230.884 80.5223 230.89 80.6536 230.907 80.743C230.924 80.8324 230.958 80.9916 230.991 81.1117C230.991 81.1647 231.025 81.215 231.042 81.2681C231.059 81.3211 231.104 81.4552 231.14 81.5474C231.177 81.6395 231.179 81.6451 231.202 81.6926C231.244 81.7904 231.295 81.8853 231.345 81.9719C231.368 82.0082 231.385 82.0445 231.407 82.0808C231.484 82.2116 231.57 82.3366 231.665 82.4551C232.264 83.2008 233.151 83.6756 233.806 84.3739C233.806 84.4018 233.806 84.4298 233.806 84.4577C233.806 84.5331 233.806 84.6085 233.806 84.6867C233.846 86.2441 234.268 87.7682 235.036 89.1263C235.804 90.4844 236.894 91.6354 238.211 92.4792C238.211 92.5853 238.225 92.6942 238.23 92.8032C238.285 93.6313 238.275 94.4624 238.2 95.2889C238.085 95.1553 237.942 95.0488 237.78 94.9773C237.619 94.9058 237.444 94.871 237.267 94.8756C237.146 94.8696 237.025 94.88 236.907 94.9063L236.882 94.8868V94.9119C236.264 95.0627 235.503 95.7023 234.775 97.5206C234.775 97.5206 232.562 100.001 230.876 99.8974C229.191 99.7941 224.923 102.481 224.923 102.481C224.923 102.481 220.76 105.165 219.867 107.902C219.368 109.455 218.768 110.973 218.072 112.449L212.912 122.984L211.965 131.363C211.965 131.363 212.49 135.081 212.386 135.651C212.282 136.22 214.546 141.332 214.546 141.332C214.546 141.332 222.027 154.397 225.084 155.068L225.303 154.917C225.434 154.983 225.573 155.033 225.716 155.068L226.345 154.629C226.384 155.12 226.367 155.614 226.294 156.101C225.876 157.394 226.454 165.812 227.19 167.463C227.926 169.114 227.665 190.759 227.665 190.759L227.561 192.667C227.561 192.667 227.561 192.728 227.587 192.835L227.561 193.287L227.637 193.326C227.716 193.933 227.69 194.549 227.561 195.147C227.297 195.985 227.19 198.351 227.19 198.351C227.19 198.351 225.084 211.724 226.084 214.411C227.084 217.097 227.929 220.041 227.929 220.041C227.929 220.041 228.983 223.393 227.98 223.951C226.977 224.51 224.137 225.502 224.716 226.895C225.249 228.186 227.275 231.643 227.575 232.149L227.55 232.428L227.137 236.877C227.204 237.465 227.364 238.038 227.612 238.576C228.064 239.548 228.941 240.55 230.615 240.441C230.896 240.422 231.219 240.391 231.536 240.349C234.595 239.939 238.36 238.581 238.36 238.581C238.164 238.458 237.986 238.311 237.829 238.143C237.678 237.998 237.559 237.824 237.479 237.632C237.398 237.44 237.357 237.234 237.36 237.026C237.405 236.213 235.879 232.356 235.497 231.403L235.41 231.191C235.41 231.191 238.888 227.574 238.309 224.373C238.309 224.373 234.461 222.139 235.727 220.91C236.994 219.681 239.259 216.162 239.259 216.162C239.259 216.162 239.363 202.993 239.259 201.029C239.15 199.664 239.215 198.29 239.452 196.94C239.495 196.739 239.545 196.541 239.598 196.343C241.352 196.606 243.123 196.739 244.897 196.742C245.545 196.742 246.2 196.729 246.863 196.703C246.863 196.889 246.871 197.09 246.888 197.306C247.034 200.568 247.307 206.291 247.529 208.417C247.843 211.461 249.582 219.675 249.582 219.675C249.582 219.675 246.265 221.79 250.161 227.01C250.161 227.01 250.161 228.898 249.902 229.174C249.626 230.07 249.404 230.981 249.237 231.903C249.074 232.883 249.006 233.881 249.27 234.395C249.902 235.629 253.695 235.528 253.695 235.528C253.725 235.521 253.756 235.517 253.788 235.514C254.503 235.439 255.227 235.507 255.916 235.713C256.606 235.919 257.247 236.26 257.802 236.715C259.243 237.866 264.71 237.363 267.673 236.995C268.833 236.847 269.609 236.715 269.609 236.715C269.646 236.585 269.659 236.449 269.648 236.313C269.617 235.59 269.047 234.003 265.181 232.587C265.181 232.587 261.546 230.158 261.597 228.04H261.516H261.097C261.361 228.032 261.546 228.032 261.546 228.032C261.546 228.032 260.122 222.868 260.704 222.446C261.285 222.024 259.543 216.301 259.543 216.301C259.543 216.301 258.546 206.693 258.49 206.023C258.494 205.445 258.583 204.871 258.754 204.319L258.49 199.049C258.49 199.049 258.439 197.298 258.49 196.728C258.484 196.233 258.445 195.74 258.372 195.251C258.347 195.055 258.321 194.851 258.293 194.65C259.656 194.307 260.541 193.991 260.541 193.991L260.383 175.655C261.541 173.42 261.754 168.516 261.749 165.041C261.749 162.807 261.648 161.154 261.648 161.154L263.229 158.587C263.229 158.587 263.594 155.514 263.016 154.841C262.76 154.537 262.875 154.221 263.086 153.962C263.197 153.871 263.314 153.789 263.437 153.716C263.423 153.696 263.411 153.676 263.4 153.654C263.511 153.563 263.628 153.48 263.752 153.406C263.752 153.406 263.19 152.54 263.693 152.174C264.165 152.492 264.586 152.747 264.906 152.928C264.884 153.132 264.861 153.249 264.861 153.249L264.996 152.97C265.305 153.143 265.493 153.249 265.493 153.249C265.493 153.249 267.971 148.342 267.918 147.621C267.864 146.901 269.603 143.851 269.603 143.851C269.603 143.851 269.814 142.248 270.763 141.577C271.713 140.907 271.499 136.05 271.499 136.05C271.499 136.05 271.763 133.52 272.395 132.489C273.027 131.458 271.831 130.056 271.831 130.056ZM224.423 127.903L224.471 129.073C224.19 128.623 223.988 128.302 223.988 128.302L224.423 127.903Z" fill="url(#paint1_linear)"/>
<path d="M265.639 151.127L265.033 153.696C265.033 153.696 260.173 151.225 259.299 148.096C258.425 144.968 260.763 143.776 260.763 143.776L265.294 145.68L265.639 151.127Z" fill="white"/>
<path opacity="0.1" d="M265.639 151.127L265.033 153.696C265.033 153.696 260.173 151.225 259.299 148.096C258.425 144.968 260.763 143.776 260.763 143.776L265.294 145.68L265.639 151.127Z" fill="black"/>
<path d="M238.365 238.578C238.365 238.578 233.87 240.221 230.78 240.427C229.14 240.536 228.277 239.536 227.834 238.573C227.592 238.041 227.435 237.476 227.367 236.897L227.775 232.47L227.988 230.116L234.553 228.417L235.483 231.247L235.57 231.459C235.941 232.406 237.441 236.243 237.396 237.045C237.392 237.252 237.431 237.458 237.51 237.65C237.588 237.842 237.705 238.016 237.854 238.162C238.006 238.322 238.178 238.462 238.365 238.578Z" fill="white"/>
<path d="M269.053 236.327C269.064 236.463 269.051 236.599 269.013 236.73C269.013 236.73 259.4 238.322 257.434 236.73C256.881 236.264 256.237 235.919 255.542 235.716C254.848 235.512 254.118 235.455 253.4 235.548C253.4 235.548 249.681 235.649 249.06 234.431C248.801 233.92 248.869 232.928 249.029 231.954C249.193 231.037 249.41 230.13 249.681 229.239L249.83 229.121L250.715 228.415L261.075 228.11H261.153C261.103 230.216 264.668 232.632 264.668 232.632C268.463 234.029 269.022 235.607 269.053 236.327Z" fill="white"/>
<path opacity="0.1" d="M269.055 236.327C269.065 236.463 269.051 236.599 269.013 236.73C269.013 236.73 259.4 238.322 257.437 236.73C256.883 236.264 256.239 235.919 255.544 235.715C254.848 235.512 254.118 235.455 253.4 235.548C253.4 235.548 249.678 235.649 249.057 234.431C248.801 233.92 248.866 232.928 249.026 231.951C250.459 232.093 252.72 232.448 253.608 233.297C254.95 234.582 257.226 235.866 258.619 235.97C259.72 236.037 266.269 236.244 269.055 236.327Z" fill="black"/>
<path opacity="0.1" d="M238.365 238.578C238.365 238.578 233.871 240.221 230.781 240.427C229.14 240.536 228.278 239.536 227.834 238.573C228.98 238.956 230.567 239.355 231.402 238.989C232.39 238.551 235.896 238.271 237.863 238.151C238.011 238.315 238.18 238.458 238.365 238.578Z" fill="black"/>
<path d="M245.034 106.221C241.326 104.788 236.556 100.054 237.747 97.8418C238.01 97.2831 238.168 96.6809 238.211 96.0654C238.287 95.2297 238.299 94.3892 238.244 93.5517C238.161 92.1792 237.995 90.8128 237.747 89.46C237.747 89.46 249.324 89.7197 248.65 91.4151C248.453 91.915 248.419 92.7781 248.475 93.7416C248.532 94.7052 248.669 95.8029 248.815 96.7274C249.015 97.9926 249.22 98.9618 249.22 98.9618C249.22 98.9618 248.509 99.9477 248.096 100.001C247.683 100.054 250.355 108.274 245.034 106.221Z" fill="#CF6F80"/>
<path opacity="0.1" d="M235.559 231.445L235.472 231.54C232.011 227.379 227.825 232.568 227.825 232.568L227.763 232.456L227.977 230.102L234.542 228.404L235.472 231.233L235.559 231.445Z" fill="black"/>
<path opacity="0.1" d="M261.159 228.404C261.159 228.404 258.63 228.353 257.282 229.538C255.934 230.722 249.416 229.792 249.697 229.538C249.779 229.409 249.829 229.262 249.843 229.11L250.728 228.404L261.088 228.099C261.128 228.295 261.159 228.404 261.159 228.404Z" fill="black"/>
<path d="M239.865 195.723C239.677 196.186 239.534 196.666 239.438 197.156C239.204 198.498 239.139 199.864 239.244 201.222C239.348 203.177 239.244 216.279 239.244 216.279C239.244 216.279 237.022 219.773 235.781 221.005C234.539 222.237 238.309 224.449 238.309 224.449C238.871 227.636 235.466 231.233 235.466 231.233C232.005 227.071 227.82 232.258 227.82 232.258C227.82 232.258 225.544 228.348 224.977 226.951C224.409 225.555 227.199 224.591 228.179 224.021C229.16 223.452 228.129 220.111 228.129 220.111C228.129 220.111 227.303 217.181 226.32 214.508C225.336 211.836 227.404 198.532 227.404 198.532C227.404 198.532 227.511 196.167 227.766 195.343C227.894 194.748 227.919 194.136 227.842 193.533C227.825 193.329 227.806 193.162 227.792 193.044C227.778 192.927 227.766 192.877 227.766 192.877L227.806 192.81L229.21 190.207C229.21 190.207 240.539 194.083 239.865 195.723Z" fill="#008372"/>
<path d="M261.159 228.096C261.159 228.096 258.631 228.043 257.282 229.213C255.934 230.384 249.417 229.47 249.697 229.213C249.978 228.957 249.953 227.057 249.953 227.057C246.13 221.865 249.391 219.759 249.391 219.759C249.391 219.759 247.686 211.59 247.377 208.559C247.161 206.445 246.894 200.739 246.751 197.507C246.689 196.111 246.652 195.147 246.652 195.147L249.748 194.536L250.15 194.457L257.684 192.952C257.684 192.952 257.892 194.348 258.032 195.491C258.103 195.978 258.142 196.47 258.147 196.963C258.1 197.521 258.147 199.272 258.147 199.272L258.406 204.512C258.239 205.062 258.152 205.633 258.147 206.207C258.201 206.878 259.181 216.433 259.181 216.433C259.181 216.433 260.886 222.136 260.305 222.547C259.723 222.957 261.159 228.096 261.159 228.096Z" fill="#008372"/>
<path opacity="0.1" d="M248.65 91.4234C248.453 91.9233 248.42 92.7863 248.476 93.7499C246.925 94.6783 245.142 95.153 243.333 95.1194C241.523 95.0858 239.759 94.5453 238.245 93.56C238.161 92.1875 237.995 90.8211 237.748 89.4683C237.748 89.4683 249.324 89.728 248.65 91.4234Z" fill="black"/>
<path d="M253.119 85.2564C253.15 87.7905 252.166 90.2329 250.386 92.0462C248.605 93.8596 246.173 94.8954 243.624 94.9258C241.075 94.9561 238.619 93.9786 236.795 92.2082C234.971 90.4378 233.929 88.0195 233.899 85.4854C233.899 85.4072 233.899 85.3346 233.899 85.2564C233.899 82.7215 234.912 80.2905 236.714 78.4981C238.517 76.7057 240.962 75.6987 243.512 75.6987C246.061 75.6987 248.506 76.7057 250.309 78.4981C252.112 80.2905 253.125 82.7215 253.125 85.2564H253.119Z" fill="#CF6F80"/>
<path opacity="0.1" d="M245.034 106.221C241.326 104.788 236.556 100.054 237.747 97.8418C238.01 97.2831 238.168 96.6809 238.211 96.0654L243.287 100.216L246.428 102.777L248.815 96.7357C249.015 98.001 249.22 98.9702 249.22 98.9702C249.22 98.9702 248.509 99.9561 248.096 100.009C247.683 100.062 250.355 108.274 245.034 106.221Z" fill="black"/>
<path d="M258.161 124.563L253.922 195.365L248.394 195.726L234.076 154.671L236.424 105.93L236.921 95.6326L243.287 100.83L246.428 103.392L248.886 97.1715L253.456 101.132L258.161 124.563Z" fill="#008372"/>
<path opacity="0.1" d="M239.865 195.723C239.677 196.186 239.534 196.665 239.438 197.155C235.412 196.539 231.501 195.325 227.837 193.555L227.761 193.516L227.786 193.066V192.832L229.191 190.229C229.191 190.229 240.54 194.083 239.865 195.723Z" fill="black"/>
<path opacity="0.1" d="M249.841 197.166C248.813 197.341 247.775 197.46 246.734 197.521C246.672 196.125 246.636 195.161 246.636 195.161L249.748 194.535L249.841 197.166Z" fill="black"/>
<path opacity="0.1" d="M258.044 195.491C256.046 196.007 252.959 196.588 250.2 196.225L250.161 194.457L257.695 192.952C257.695 192.952 257.895 194.337 258.044 195.491Z" fill="black"/>
<path opacity="0.1" d="M250.15 196.549C238.632 198.504 228.084 192.899 228.084 192.899L228.185 191C228.185 191 228.446 169.468 227.721 167.818C226.997 166.167 226.432 157.808 226.842 156.531C227.252 155.255 225.345 135.983 225.345 135.983L225.036 128.163L213.718 123.59L218.774 113.108C219.457 111.639 220.044 110.128 220.533 108.584C221.412 105.86 225.494 103.188 225.494 103.188C225.494 103.188 229.679 100.517 231.334 100.618C232.989 100.719 235.157 98.2551 235.157 98.2551C236.759 94.1969 238.208 96.0207 238.208 96.0207C238.208 96.2162 238.208 96.0207 238.129 96.6212C237.568 101.076 247.214 115.153 247.352 115.404L248.282 137.653L249.212 165.81L250.15 196.549Z" fill="black"/>
<path d="M249.841 196.549C238.323 198.504 227.772 192.899 227.772 192.899L227.876 191C227.876 191 228.134 169.468 227.41 167.818C226.685 166.167 226.12 157.799 226.533 156.512C226.946 155.224 225.028 135.972 225.028 135.972L224.716 128.151L213.4 123.579L218.457 113.097C219.138 111.628 219.725 110.118 220.215 108.575C221.095 105.86 225.19 103.185 225.19 103.185C225.19 103.185 229.376 100.515 231.028 100.615C232.68 100.716 234.86 98.2551 234.86 98.2551C236.464 94.1969 238.231 96.0207 238.231 96.0207C238.231 96.2162 238.062 96.3 238.152 96.6212C239.388 100.942 246.928 115.153 247.065 115.404L247.995 137.653L248.905 165.824L249.841 196.549Z" fill="white"/>
<path opacity="0.1" d="M246.737 116.033C245.498 115.519 238.936 108.07 238.936 108.07V106.374C238.697 105.816 237.275 106.157 236.126 106.548L236.621 96.2498L237.183 96.7134C238.41 101.031 246.602 115.784 246.737 116.033Z" fill="black"/>
<path d="M247.049 115.418C245.807 114.901 239.245 107.455 239.245 107.455V105.757C239.006 105.198 237.587 105.539 236.436 105.93L236.922 95.6436L237.483 96.1044C238.722 100.417 246.911 115.167 247.049 115.418Z" fill="white"/>
<path opacity="0.1" d="M228.084 152.565C228.239 152.565 236.093 151.744 236.093 151.744C236.093 151.744 240.849 161.045 240.537 163.304C240.225 165.564 239.661 167.569 237.748 167.214C235.835 166.86 227.452 167.494 227.452 167.494L228.084 152.565Z" fill="black"/>
<path d="M227.772 151.948C227.929 151.948 235.783 151.127 235.783 151.127C235.783 151.127 240.537 160.441 240.228 162.676C239.919 164.91 239.348 166.941 237.438 166.586C235.528 166.231 227.14 166.865 227.14 166.865L227.772 151.948Z" fill="white"/>
<path d="M233.691 147.594C233.691 147.594 240.899 151.448 241.054 152.621C241.208 153.794 237.385 152.107 236.559 151.901C236.015 151.772 235.462 151.686 234.904 151.644L229.396 151.792L233.691 147.594Z" fill="#CF6F80"/>
<path opacity="0.1" d="M244.722 116.513C245.141 116.513 245.481 116.175 245.481 115.759C245.481 115.343 245.141 115.005 244.722 115.005C244.303 115.005 243.964 115.343 243.964 115.759C243.964 116.175 244.303 116.513 244.722 116.513Z" fill="black"/>
<path d="M244.722 116.206C245.141 116.206 245.481 115.868 245.481 115.452C245.481 115.035 245.141 114.698 244.722 114.698C244.303 114.698 243.964 115.035 243.964 115.452C243.964 115.868 244.303 116.206 244.722 116.206Z" fill="#3F3D56"/>
<path opacity="0.1" d="M246.119 149.158C246.538 149.158 246.877 148.82 246.877 148.404C246.877 147.987 246.538 147.649 246.119 147.649C245.7 147.649 245.36 147.987 245.36 148.404C245.36 148.82 245.7 149.158 246.119 149.158Z" fill="black"/>
<path d="M246.119 148.848C246.538 148.848 246.877 148.51 246.877 148.093C246.877 147.677 246.538 147.339 246.119 147.339C245.7 147.339 245.36 147.677 245.36 148.093C245.36 148.51 245.7 148.848 246.119 148.848Z" fill="#3F3D56"/>
<path opacity="0.1" d="M245.481 132.835C245.9 132.835 246.24 132.498 246.24 132.081C246.24 131.665 245.9 131.327 245.481 131.327C245.062 131.327 244.723 131.665 244.723 132.081C244.723 132.498 245.062 132.835 245.481 132.835Z" fill="black"/>
<path d="M245.481 132.528C245.9 132.528 246.24 132.19 246.24 131.774C246.24 131.357 245.9 131.02 245.481 131.02C245.062 131.02 244.723 131.357 244.723 131.774C244.723 132.19 245.062 132.528 245.481 132.528Z" fill="#3F3D56"/>
<path d="M262.965 151.487C262.965 151.487 263.482 152.258 262.965 152.604C262.448 152.951 263.016 153.839 263.016 153.839C263.016 153.839 261.726 154.587 262.294 155.266C262.861 155.945 262.502 158.992 262.502 158.992L260.951 161.559C260.951 161.559 261.044 163.204 261.049 165.427C261.049 168.896 260.844 173.772 259.709 175.996L259.861 194.237C259.861 194.237 254.431 196.211 249.886 195.608L249.212 166.337C249.212 166.337 250.195 149.739 250.557 146.555C250.769 144.902 250.856 143.235 250.816 141.569C250.816 141.569 250.661 136.586 250.141 134.276C250.141 134.276 249.58 124.255 249.523 121.482C249.498 120.155 249.568 116.284 249.647 112.603C249.734 108.578 249.832 104.782 249.832 104.782L248.807 96.7134C248.807 96.7134 249.832 96.6128 250.141 97.0206C250.28 97.1491 250.43 97.2642 250.591 97.3641C252.364 98.554 258.617 102.213 258.617 102.213C258.617 102.213 262.078 103.581 262.906 105.542C263.735 107.503 264.311 108.894 264.713 109.452C265.114 110.011 265.333 112.636 265.333 112.636C265.333 112.636 266.524 117.468 267.454 118.287C268.384 119.105 269.053 124.3 269.053 124.3L260.836 130.724C260.836 130.724 260.114 141.41 259.959 141.823C259.805 142.237 262.965 151.487 262.965 151.487Z" fill="white"/>
<path d="M263.277 151.487C263.277 151.487 263.791 152.258 263.277 152.604C262.763 152.951 263.325 153.839 263.325 153.839C263.325 153.839 262.035 154.587 262.603 155.266C263.17 155.945 262.81 158.992 262.81 158.992L261.265 161.559C261.265 161.559 261.358 163.204 261.367 165.427C261.367 168.896 261.161 173.772 260.027 175.996L260.181 194.237C260.181 194.237 254.751 196.211 250.206 195.608L249.534 166.337C249.534 166.337 250.515 149.739 250.88 146.555C251.092 144.902 251.178 143.235 251.136 141.569C251.136 141.569 250.981 136.586 250.464 134.277C250.464 134.277 249.902 124.255 249.843 121.482C249.818 120.155 249.888 116.284 249.967 112.603C250.054 108.578 250.152 104.782 250.152 104.782L248.798 96.6045C248.798 96.6045 250.152 96.6045 250.464 97.0206C250.601 97.1507 250.752 97.2659 250.914 97.3642C252.683 98.554 258.937 102.213 258.937 102.213C258.937 102.213 262.389 103.581 263.232 105.542C264.075 107.503 264.636 108.894 265.038 109.452C265.44 110.011 265.659 112.636 265.659 112.636C265.659 112.636 266.85 117.468 267.78 118.287C268.71 119.105 269.381 124.3 269.381 124.3L261.164 130.724C261.164 130.724 260.442 141.41 260.285 141.823C260.128 142.237 263.277 151.487 263.277 151.487Z" fill="white"/>
<path opacity="0.1" d="M253.437 107.154L254.181 109.304L250.274 113.215C250.361 109.19 250.459 105.394 250.459 105.394L249.105 97.219C249.105 97.219 250.459 97.219 250.771 97.6351C250.908 97.7652 251.059 97.8804 251.22 97.9787L254.541 107.5L253.437 107.154Z" fill="black"/>
<path d="M253.119 106.536L253.864 108.684L249.959 112.594C250.043 108.57 250.144 104.774 250.144 104.774L248.788 96.5962C248.788 96.5962 250.144 96.5962 250.453 97.0123C250.591 97.1416 250.742 97.2567 250.903 97.3559L254.243 106.886L253.119 106.536Z" fill="white"/>
<path opacity="0.1" d="M253.119 85.2564C253.12 86.2628 252.961 87.263 252.647 88.2198C252.594 88.2286 252.54 88.2267 252.488 88.2142C252.436 88.2017 252.387 88.1789 252.344 88.1472C252.268 85.6335 251.026 83.2706 249.495 81.2624C249.065 80.6567 248.544 80.1198 247.95 79.6704C247.35 79.2221 246.603 79.0121 245.855 79.0811C245.012 79.1956 244.268 79.7654 243.416 79.838C242.293 79.9301 241.287 79.1565 240.172 79.1202C239.718 79.1239 239.271 79.224 238.86 79.4138C238.448 79.6036 238.082 79.8787 237.787 80.2206C237.2 80.9083 236.765 81.7103 236.509 82.5751C236.067 83.8874 235.826 85.2583 235.795 86.6417C235.781 87.4238 235.705 88.4041 234.975 88.689C235.03 88.1143 234.964 87.5344 234.782 86.9862C234.6 86.4381 234.305 85.9336 233.916 85.505L233.899 85.4854C233.899 85.4072 233.899 85.3346 233.899 85.2564C233.899 82.7216 234.912 80.2905 236.714 78.4981C238.517 76.7057 240.962 75.6987 243.512 75.6987C246.061 75.6987 248.506 76.7057 250.309 78.4981C252.112 80.2905 253.125 82.7216 253.125 85.2564H253.119Z" fill="black"/>
<path d="M247.501 70.0822C246.041 69.3995 244.381 69.2703 242.832 69.7191C242.054 69.9481 241.321 70.3196 240.531 70.5067C238.846 70.9117 236.879 70.4732 235.433 71.4536C234.629 72.0122 234.146 72.8947 233.697 73.755L232.573 75.8805C231.961 77.0451 231.343 78.2294 231.087 79.5114C230.831 80.7934 230.986 82.229 231.803 83.2624C232.396 84.0109 233.278 84.4829 233.924 85.1896C234.312 85.6204 234.607 86.1264 234.788 86.6758C234.97 87.2253 235.035 87.8062 234.98 88.382C235.711 88.1027 235.784 87.1167 235.801 86.3347C235.832 84.9513 236.073 83.5804 236.514 82.2681C236.771 81.4032 237.206 80.6013 237.792 79.9136C238.088 79.5713 238.453 79.2958 238.865 79.1055C239.276 78.9152 239.724 78.8146 240.177 78.8103C241.301 78.8494 242.309 79.6231 243.422 79.5281C244.265 79.4583 245.012 78.8885 245.86 78.774C246.608 78.7037 247.356 78.9138 247.956 79.3633C248.55 79.8114 249.07 80.3485 249.498 80.9554C251.032 82.9663 252.276 85.318 252.349 87.8401C252.667 88.0691 253.125 87.7675 253.282 87.41C253.439 87.0525 253.445 86.6335 253.644 86.2928C253.875 85.899 254.316 85.6867 254.661 85.3907C255.538 84.6393 255.757 83.3741 255.723 82.2262C255.689 81.0782 255.465 79.9136 255.684 78.7852C255.816 78.0953 256.114 77.4446 256.277 76.7603C256.439 76.076 256.459 75.3079 256.074 74.7186C255.512 73.8555 254.33 73.6824 253.299 73.6014C252.127 73.5008 251.08 73.6293 250.332 72.649C249.981 72.138 249.586 71.6578 249.153 71.2134C248.998 71.0653 247.501 70.1436 247.501 70.0822Z" fill="#512E4E"/>
<path opacity="0.1" d="M216.96 128.981L214.027 123.588L213.097 131.911C213.097 131.911 213.614 135.609 213.51 136.176C213.406 136.743 215.628 141.826 215.628 141.826C215.628 141.826 222.969 154.827 225.966 155.495L236.079 148.3L233.393 144.909C233.393 144.909 232.463 144.549 232.23 144.909C232.23 144.909 227.241 136.38 226.727 135.765C226.213 135.151 226.311 133.913 226.311 133.913C226.311 133.913 225.536 133.092 225.795 132.321C226.053 131.551 224.311 128.88 224.311 128.88L225.913 127.392L216.96 128.981Z" fill="black"/>
<path d="M214.181 122.97L213.406 123.588L212.476 131.911C212.476 131.911 212.993 135.609 212.889 136.176C212.785 136.743 215.01 141.826 215.01 141.826C215.01 141.826 222.347 154.827 225.345 155.495L235.475 148.3L232.786 144.91C232.786 144.91 231.856 144.549 231.623 144.91C231.623 144.91 226.637 136.38 226.12 135.765C225.603 135.151 225.707 133.913 225.707 133.913C225.707 133.913 224.932 133.092 225.19 132.321C225.449 131.551 223.69 128.88 223.69 128.88L225.291 127.392L214.181 122.97Z" fill="white"/>
<path opacity="0.1" d="M262.294 155.587C262.856 156.266 262.502 159.316 262.502 159.316L260.951 161.866C260.951 161.866 261.044 163.514 261.05 165.737L258.443 166.547C258.207 166.62 257.957 166.636 257.713 166.593C257.47 166.551 257.24 166.451 257.043 166.302C256.846 166.154 256.688 165.96 256.582 165.739C256.475 165.517 256.424 165.273 256.431 165.027L256.884 150.615L262.966 152.925C262.449 153.283 263.016 154.16 263.016 154.16C263.016 154.16 261.727 154.908 262.294 155.587Z" fill="black"/>
<path d="M262.603 155.28C263.165 155.956 262.811 159.006 262.811 159.006L261.266 161.559C261.266 161.559 261.358 163.204 261.367 165.427L258.712 166.251C258.482 166.323 258.237 166.339 257.999 166.297C257.761 166.256 257.537 166.159 257.344 166.014C257.152 165.869 256.997 165.68 256.893 165.463C256.789 165.246 256.738 165.008 256.746 164.768L257.198 150.306L263.277 152.621C262.757 152.979 263.325 153.856 263.325 153.856C263.325 153.856 262.036 154.601 262.603 155.28Z" fill="white"/>
<path d="M264.619 148.404C264.619 148.404 264.206 151.026 263.173 151.18C262.139 151.333 261.675 155.422 260.644 155.28C259.614 155.138 260.296 151.476 260.333 150.766C260.369 150.057 259.209 147.119 260.074 146.451C260.939 145.784 263.692 146.451 263.692 146.451L264.619 148.404Z" fill="#CF6F80"/>
<path opacity="0.1" d="M266.806 128.21L268.752 124.3C268.752 124.3 269.53 127.28 269.53 128.872C269.53 130.464 270.615 130.62 270.615 130.62C270.615 130.62 271.803 132.017 271.177 133.036C270.55 134.056 270.3 136.581 270.3 136.581C270.3 136.581 270.505 141.41 269.575 142.077C268.646 142.745 268.438 144.34 268.438 144.34C268.438 144.34 266.732 147.37 266.786 148.091C266.839 148.811 264.409 153.691 264.409 153.691C264.409 153.691 265.598 147.627 258.673 145.007C258.673 145.007 258.62 142.951 259.136 142.387C259.653 141.823 260.46 141.549 259.954 138.712C259.448 135.874 259.808 132.453 259.808 131.768C259.808 131.084 261.359 126.819 261.359 126.819L266.806 128.21Z" fill="black"/>
<path d="M267.671 123.741L269.373 124.3C269.373 124.3 270.151 127.28 270.151 128.872C270.151 130.464 271.236 130.621 271.236 130.621C271.236 130.621 272.424 132.017 271.797 133.037C271.171 134.056 270.918 136.581 270.918 136.581C270.918 136.581 271.126 141.41 270.196 142.078C269.266 142.745 269.072 144.34 269.072 144.34C269.072 144.34 267.367 147.37 267.421 148.091C267.474 148.811 265.041 153.691 265.041 153.691C265.041 153.691 266.23 147.627 259.305 145.007C259.305 145.007 259.254 142.952 259.771 142.388C260.288 141.823 261.094 141.55 260.589 138.712C260.083 135.874 260.443 132.453 260.443 131.769C260.443 131.084 261.993 126.819 261.993 126.819L267.671 123.741Z" fill="white"/>
<path opacity="0.1" d="M230.062 225.091C230.062 225.091 232.775 223.396 234.556 224.627C236.337 225.859 230.062 225.091 230.062 225.091Z" fill="black"/>
<path opacity="0.1" d="M251.152 219.849C251.152 219.849 253.554 219.541 255.571 221.7C257.588 223.859 251.152 219.849 251.152 219.849Z" fill="black"/>
<g opacity="0.1">
<path opacity="0.1" d="M254.661 84.7761C254.316 85.075 253.872 85.2844 253.641 85.6783C253.445 86.0162 253.439 86.4352 253.282 86.7955C253.125 87.1558 252.667 87.4546 252.346 87.2256C252.273 84.7119 251.029 82.3518 249.498 80.3408C249.07 79.7348 248.55 79.1986 247.956 78.7516C247.355 78.3012 246.607 78.09 245.857 78.1595C245.015 78.274 244.273 78.8437 243.422 78.9164C242.298 79.0085 241.29 78.2349 240.174 78.1986C239.721 78.202 239.274 78.302 238.863 78.4918C238.452 78.6816 238.087 78.9569 237.792 79.299C237.206 79.9867 236.77 80.7887 236.514 81.6535C236.073 82.9659 235.832 84.3367 235.8 85.7201C235.784 86.4994 235.711 87.4714 234.986 87.7618C235.003 87.9691 235.003 88.1774 234.986 88.3847C235.719 88.1054 235.792 87.1194 235.809 86.3374C235.84 84.954 236.081 83.5831 236.522 82.2708C236.779 81.406 237.214 80.604 237.801 79.9163C238.096 79.5742 238.461 79.2988 238.872 79.1085C239.283 78.9183 239.73 78.8175 240.183 78.813C241.306 78.8521 242.318 79.6258 243.43 79.5308C244.273 79.461 245.02 78.8912 245.866 78.7767C246.615 78.7065 247.363 78.9166 247.964 79.366C248.558 79.8141 249.078 80.3512 249.506 80.9581C251.037 82.969 252.282 85.3207 252.355 87.8428C252.675 88.0719 253.133 87.7702 253.29 87.4127C253.448 87.0552 253.453 86.6363 253.65 86.2955C253.88 85.9017 254.324 85.6894 254.67 85.3934C255.546 84.642 255.765 83.3768 255.731 82.2289C255.731 82.1926 255.731 82.1591 255.731 82.1227C255.675 83.1226 255.408 84.1365 254.661 84.7761Z" fill="black"/>
<path opacity="0.1" d="M233.921 84.5806C233.278 83.874 232.396 83.3992 231.803 82.6507C231.303 81.9899 231.017 81.1926 230.986 80.366C230.898 81.3996 231.188 82.4301 231.803 83.2679C232.396 84.0164 233.278 84.4884 233.921 85.1951C234.543 85.8859 234.916 86.7621 234.983 87.6864C235.025 87.1244 234.953 86.5596 234.771 86.0259C234.588 85.4922 234.299 85.0007 233.921 84.5806Z" fill="black"/>
<path opacity="0.1" d="M256.277 76.1457C256.111 76.83 255.816 77.4808 255.681 78.1707C255.6 78.6372 255.571 79.1111 255.594 79.5839C255.603 79.3168 255.632 79.0508 255.681 78.7879C255.816 78.098 256.111 77.4473 256.277 76.763C256.372 76.3853 256.403 75.9946 256.369 75.6067C256.351 75.7883 256.32 75.9684 256.277 76.1457Z" fill="black"/>
</g>
<path opacity="0.1" d="M37.286 234.299C52.4034 234.299 64.6584 232.342 64.6584 229.928C64.6584 227.514 52.4034 225.557 37.286 225.557C22.1686 225.557 9.91357 227.514 9.91357 229.928C9.91357 232.342 22.1686 234.299 37.286 234.299Z" fill="#008372"/>
<path d="M38.1681 146.191H36.4067V185.62H38.1681V146.191Z" fill="#535461"/>
<path d="M49.2392 185.503L49.1268 187.279L48.9723 189.793L48.9077 190.838L48.7504 193.351L48.683 194.396L48.5285 196.91L46.7503 225.418C46.6745 226.645 46.1309 227.796 45.2305 228.638C44.33 229.48 43.1405 229.948 41.9045 229.948H32.6708C31.4314 229.949 30.2388 229.478 29.3377 228.632C28.4366 227.786 27.8953 226.629 27.825 225.398L26.0468 196.89L25.8923 194.376L25.8277 193.332L25.6676 190.818L25.603 189.774L25.4485 187.26L25.3361 185.484C25.3167 185.143 25.3671 184.802 25.4844 184.482C25.6016 184.161 25.7832 183.868 26.0182 183.619C26.2531 183.371 26.5365 183.173 26.8509 183.036C27.1654 182.9 27.5045 182.829 27.8475 182.827H46.7306C47.0752 182.829 47.4156 182.901 47.7312 183.039C48.0467 183.176 48.3307 183.377 48.5656 183.627C48.8005 183.878 48.9814 184.173 49.0973 184.496C49.2131 184.819 49.2614 185.161 49.2392 185.503Z" fill="#3F3D56"/>
<path d="M49.1265 187.276L48.9692 189.785H25.6026L25.4453 187.276H49.1265Z" fill="#9D9CB5"/>
<path d="M48.9048 190.829L48.7503 193.337H25.8248L25.6675 190.829H48.9048Z" fill="#9D9CB5"/>
<path d="M48.6827 194.385L48.5282 196.89H26.0465L25.8892 194.385H48.6827Z" fill="#9D9CB5"/>
<path d="M22.7683 160.972C33.0273 168.351 37.3 179.892 37.3 179.892C37.3 179.892 24.9397 179.47 14.6779 172.091C4.41604 164.712 0.137695 153.18 0.137695 153.18C0.137695 153.18 12.498 153.593 22.7683 160.972Z" fill="#008372"/>
<path d="M0.137695 153.18C0.137695 153.18 12.9671 160.26 17.0825 166.122C21.1979 171.985 37.2888 179.898 37.2888 179.898" stroke="#535461" stroke-width="2" stroke-miterlimit="10"/>
<path d="M29.378 146.108C34.9626 150.121 37.2886 156.403 37.2886 156.403C37.2886 156.403 30.5466 156.174 24.976 152.16C19.4055 148.147 17.0654 141.862 17.0654 141.862C17.0654 141.862 23.7962 142.091 29.378 146.108Z" fill="#008372"/>
<path d="M17.0654 141.862C17.0654 141.862 24.049 145.717 26.2907 148.906C28.5324 152.096 37.2886 156.403 37.2886 156.403" stroke="#535461" stroke-width="2" stroke-miterlimit="10"/>
<path d="M45.4015 156.084C38.9882 163.092 37.6313 172.25 37.6313 172.25C37.6313 172.25 46.674 170.044 53.0817 163.033C59.4894 156.023 60.8519 146.867 60.8519 146.867C60.8519 146.867 51.8148 149.077 45.4015 156.084Z" fill="#008372"/>
<path d="M60.8575 146.87C60.8575 146.87 52.503 154.054 50.3793 159.003C48.2556 163.952 37.6313 172.25 37.6313 172.25" stroke="#535461" stroke-width="2" stroke-miterlimit="10"/>
</g>
<defs>
<linearGradient id="paint0_linear" x1="130.775" y1="233.372" x2="130.775" y2="72.0343" gradientUnits="userSpaceOnUse">
<stop stop-color="#808080" stop-opacity="0.25"/>
<stop offset="0.54" stop-color="#808080" stop-opacity="0.12"/>
<stop offset="1" stop-color="#808080" stop-opacity="0.1"/>
</linearGradient>
<linearGradient id="paint1_linear" x1="53452.3" y1="151200" x2="53452.3" y2="45450.4" gradientUnits="userSpaceOnUse">
<stop stop-color="#808080" stop-opacity="0.25"/>
<stop offset="0.54" stop-color="#808080" stop-opacity="0.12"/>
<stop offset="1" stop-color="#808080" stop-opacity="0.1"/>
</linearGradient>
<clipPath id="clip0">
<rect width="328" height="241" fill="white"/>
</clipPath>
</defs>
</svg>
