<svg width="29" height="32" viewBox="0 0 29 32" fill="none" xmlns="http://www.w3.org/2000/svg">
<g clip-path="url(#clip0)">
<path d="M7.15669 28.0008H1.32656V9.30709H7.15669V28.0008ZM4.23849 6.75709C2.3742 6.75709 0.862061 5.21959 0.862061 3.36334C0.862061 2.47171 1.21779 1.61661 1.85099 0.986135C2.4842 0.355661 3.343 0.00146484 4.23849 0.00146484C5.13397 0.00146484 5.99278 0.355661 6.62598 0.986135C7.25919 1.61661 7.61492 2.47171 7.61492 3.36334C7.61492 5.21959 6.10215 6.75709 4.23849 6.75709ZM28.977 28.0008H23.1594V18.9008C23.1594 16.7321 23.1155 13.9508 20.1282 13.9508C17.097 13.9508 16.6325 16.3071 16.6325 18.7446V28.0008H10.8087V9.30709H16.4003V11.8571H16.4819C17.2602 10.3883 19.1616 8.83834 21.9982 8.83834C27.8986 8.83834 28.9833 12.7071 28.9833 17.7321V28.0008H28.977Z" fill="#FEFEFE"/>
</g>
<defs>
<clipPath id="clip0">
<rect width="28.1212" height="32" fill="white" transform="translate(0.862061)"/>
</clipPath>
</defs>
</svg>
