<svg width="275" height="258" viewBox="0 0 275 258" fill="none" xmlns="http://www.w3.org/2000/svg">
<path fill-rule="evenodd" clip-rule="evenodd" d="M109.471 227.98C131.019 233.761 152.458 223.326 173.802 216.84C197.011 209.788 229.164 210.829 238.948 188.637C249.043 165.739 222.84 143.092 217.051 118.744C212.757 100.678 219.196 80.7824 209.537 64.9205C199.17 47.8949 181.815 36.191 162.917 29.8436C143.165 23.2097 120.345 19.0063 101.95 28.7852C84.1055 38.271 83.4807 63.3599 70.5921 78.9227C54.9802 97.774 21.7066 104.429 19.1459 128.77C16.643 152.561 43.2066 168.432 59.3146 186.124C74.3417 202.63 87.9107 222.196 109.471 227.98Z" fill="#00BFA6" fill-opacity="0.16"/>
<path d="M91 91.4999V38.4999L94 35.4999L176.5 34.9999V94.4999L95 93.9999L91 91.4999Z" fill="#FEFEFE"/>
<path d="M168 111L163 105.5V103.5L168 98.4999L174.5 104L179 98.9999L183 99.4999L186.5 105L181 111L186.5 116.5L184 121.5L180.5 123L174.5 117.5L168 123.5L163.5 119.5L163 117L168 111Z" fill="#FEFEFE"/>
<path d="M110.5 125.5L87.5 112.5L93 101L116 113.5L119 120.5L118 124.5L110.5 125.5Z" fill="#FEFEFE"/>
<path d="M167.572 119.309C167.38 119.512 167.383 119.838 167.578 120.038C167.773 120.237 168.087 120.235 168.278 120.032C168.47 119.829 168.467 119.502 168.272 119.303C168.077 119.104 167.764 119.106 167.572 119.309ZM171.136 111.972C170.863 111.972 170.641 112.202 170.641 112.487C170.641 112.771 170.863 113.002 171.136 113.002C171.41 113.002 171.632 112.771 171.632 112.487C171.632 112.202 171.41 111.972 171.136 111.972ZM172.887 108.912C172.614 108.912 172.392 109.142 172.392 109.427C172.392 109.712 172.614 109.942 172.887 109.942C173.161 109.942 173.382 109.712 173.382 109.427C173.382 109.142 173.161 108.912 172.887 108.912ZM170.304 117.311C170.112 117.514 170.115 117.84 170.31 118.04C170.505 118.239 170.818 118.236 171.01 118.034C171.202 117.831 171.199 117.504 171.004 117.305C170.809 117.105 170.495 117.108 170.304 117.311ZM173.835 114.814C173.562 114.814 173.34 115.044 173.34 115.329C173.34 115.613 173.561 115.844 173.835 115.844C174.109 115.844 174.331 115.613 174.331 115.329C174.33 115.044 174.109 114.814 173.835 114.814ZM167.695 116.044C167.501 115.844 167.187 115.847 166.995 116.05C166.803 116.253 166.806 116.579 167.001 116.778C167.196 116.978 167.51 116.975 167.701 116.772C167.893 116.569 167.891 116.243 167.695 116.044ZM166.948 101.655C166.756 101.857 166.759 102.184 166.954 102.383C167.149 102.583 167.462 102.58 167.654 102.377C167.846 102.174 167.843 101.848 167.648 101.648C167.453 101.449 167.14 101.452 166.948 101.655ZM165.477 104.746C165.286 104.949 165.288 105.275 165.483 105.474C165.678 105.674 165.992 105.671 166.184 105.468C166.376 105.265 166.373 104.939 166.178 104.739C165.983 104.54 165.669 104.543 165.477 104.746ZM169.783 103.053C169.975 102.85 169.972 102.524 169.777 102.324C169.582 102.125 169.268 102.128 169.077 102.33C168.885 102.533 168.887 102.859 169.082 103.059C169.278 103.258 169.591 103.255 169.783 103.053ZM169.712 106.634C169.903 106.431 169.901 106.105 169.706 105.905C169.511 105.706 169.197 105.709 169.005 105.912C168.814 106.114 168.816 106.441 169.011 106.64C169.206 106.84 169.52 106.837 169.712 106.634ZM174.844 111.24C174.571 111.24 174.349 111.471 174.349 111.755C174.349 112.04 174.57 112.27 174.844 112.27C175.118 112.27 175.34 112.04 175.34 111.755C175.34 111.471 175.118 111.24 174.844 111.24ZM176.848 107.094C176.575 107.094 176.353 107.324 176.353 107.609C176.353 107.894 176.575 108.124 176.848 108.124C177.122 108.124 177.344 107.894 177.344 107.609C177.344 107.324 177.122 107.094 176.848 107.094ZM180.822 116.752C180.559 116.677 180.286 116.839 180.214 117.114C180.142 117.388 180.298 117.671 180.562 117.746C180.826 117.821 181.098 117.659 181.17 117.385C181.242 117.11 181.086 116.827 180.822 116.752ZM177.182 117.059C176.918 116.984 176.646 117.145 176.574 117.42C176.502 117.694 176.658 117.978 176.922 118.053C177.186 118.128 177.458 117.966 177.53 117.691C177.602 117.417 177.446 117.133 177.182 117.059ZM184.258 116.761C183.994 116.686 183.722 116.848 183.65 117.122C183.578 117.397 183.733 117.68 183.997 117.755C184.261 117.83 184.533 117.668 184.606 117.393C184.677 117.119 184.522 116.836 184.258 116.761ZM181.159 113.615C180.895 113.54 180.623 113.702 180.551 113.977C180.479 114.252 180.635 114.535 180.899 114.61C181.163 114.684 181.435 114.523 181.507 114.248C181.579 113.973 181.423 113.69 181.159 113.615ZM180.728 119.602C180.464 119.527 180.191 119.689 180.119 119.964C180.047 120.238 180.203 120.521 180.467 120.596C180.731 120.671 181.003 120.509 181.075 120.234C181.147 119.96 180.991 119.677 180.728 119.602ZM177.971 104.42C178.043 104.145 177.888 103.862 177.624 103.787C177.36 103.712 177.088 103.874 177.016 104.149C176.944 104.423 177.099 104.706 177.363 104.781C177.627 104.856 177.9 104.694 177.971 104.42ZM178.126 110.343C177.853 110.342 177.631 110.573 177.631 110.858C177.631 111.142 177.853 111.373 178.126 111.373C178.4 111.373 178.622 111.142 178.622 110.858C178.622 110.573 178.4 110.343 178.126 110.343ZM181.591 100.754C181.327 100.679 181.055 100.841 180.982 101.116C180.91 101.39 181.066 101.673 181.33 101.748C181.594 101.823 181.866 101.661 181.938 101.386C182.01 101.112 181.854 100.829 181.591 100.754ZM183.221 103.912C182.957 103.837 182.685 103.999 182.612 104.273C182.54 104.548 182.696 104.831 182.96 104.906C183.224 104.981 183.496 104.819 183.568 104.545C183.64 104.27 183.484 103.987 183.221 103.912ZM180.416 105.453C180.152 105.378 179.88 105.54 179.807 105.815C179.736 106.089 179.891 106.372 180.155 106.447C180.419 106.522 180.691 106.36 180.763 106.086C180.835 105.811 180.679 105.528 180.416 105.453ZM181.958 111L186.092 106.701C186.697 106.071 187 105.239 187 104.415C187 103.59 186.697 102.757 186.092 102.129L183.03 98.9434C182.425 98.3144 181.624 97.9988 180.832 97.9999C180.039 97.999 179.239 98.3144 178.634 98.9434L174.5 103.243L170.366 98.9434C169.761 98.3144 168.96 97.9988 168.168 97.9999C167.376 97.999 166.575 98.3144 165.97 98.9434L162.908 102.129C162.303 102.757 161.999 103.59 162 104.415C161.999 105.239 162.303 106.071 162.908 106.701L167.042 111L162.908 115.299C162.303 115.928 161.999 116.761 162 117.585C161.999 118.409 162.303 119.242 162.908 119.871L165.97 123.056C166.575 123.685 167.375 124 168.168 124H168.171C168.962 124 169.762 123.685 170.366 123.056L174.5 118.756L178.634 123.056C179.239 123.685 180.039 124 180.832 124H180.834C181.626 124 182.426 123.685 183.03 123.056L186.093 119.871C186.697 119.242 187.001 118.409 187 117.585C187.001 116.761 186.697 115.928 186.093 115.299L181.958 111ZM163.992 105.572C163.686 105.254 163.535 104.839 163.534 104.415C163.535 103.991 163.686 103.575 163.992 103.257L167.055 100.072C167.361 99.7543 167.76 99.5964 168.168 99.5955C168.576 99.5964 168.975 99.7543 169.281 100.072L173.415 104.371L168.126 109.872L163.992 105.572ZM169.281 121.928C168.975 122.246 168.575 122.404 168.168 122.404C167.76 122.404 167.36 122.246 167.055 121.928L163.992 118.743C163.686 118.425 163.535 118.009 163.534 117.585C163.535 117.161 163.686 116.746 163.992 116.428L179.719 100.072C180.025 99.7543 180.424 99.5964 180.832 99.5955C181.239 99.5964 181.639 99.7543 181.945 100.072L185.007 103.257C185.313 103.575 185.465 103.991 185.465 104.415C185.465 104.838 185.313 105.254 185.007 105.573L169.281 121.928ZM185.007 118.743L181.945 121.928C181.639 122.246 181.24 122.404 180.832 122.404C180.424 122.404 180.025 122.246 179.719 121.928L175.585 117.628L180.874 112.128L185.007 116.428C185.313 116.746 185.465 117.161 185.466 117.585C185.465 118.009 185.313 118.425 185.007 118.743Z" fill="#008372"/>
<path d="M118.998 118.134L118.583 117.895C118.757 117.175 118.744 116.43 118.557 115.737L118.556 115.732C118.268 114.658 117.564 113.684 116.524 113.084L100.793 104.008L100.793 104.009L93.9697 100.071L94.2699 99.5519C94.5451 99.0765 94.4562 98.5111 94.0711 98.2892C93.6865 98.0679 93.1518 98.2726 92.8766 98.748L90.6398 102.62L88.4097 101.334L88.7762 100.7C89.28 99.8276 89.3852 98.8223 89.1424 97.9206L89.1408 97.9148C88.8997 97.0153 88.3064 96.1995 87.4348 95.6969L87.4343 95.6977L87.4333 95.6966C86.5616 95.1936 85.5556 95.0885 84.6538 95.331C83.7514 95.5712 82.9319 96.1641 82.4279 97.0375L77.9527 104.783C77.4483 105.655 77.3439 106.661 77.5865 107.562C77.8269 108.464 78.4209 109.283 79.2943 109.786C80.1671 110.291 81.1735 110.395 82.0753 110.152C82.9777 109.912 83.797 109.319 84.3006 108.446L84.6666 107.812L86.8966 109.099L84.6597 112.971C84.3844 113.446 84.474 114.011 84.8591 114.233C85.2433 114.455 85.7778 114.25 86.0523 113.775L86.3525 113.255L108.906 126.267C109.948 126.868 111.147 126.989 112.223 126.699C112.917 126.514 113.569 126.153 114.107 125.642L114.522 125.882C115.348 126.36 116.301 126.456 117.154 126.226C118.007 125.999 118.785 125.44 119.262 124.613L119.49 124.218L125.745 127.826C126.008 127.978 126.343 127.888 126.495 127.625C126.647 127.362 126.557 127.026 126.294 126.875L120.04 123.267L120.268 122.872C120.745 122.046 120.842 121.094 120.612 120.242L120.611 120.237C120.383 119.387 119.921 118.666 119.094 118.19L118.998 118.134ZM117.766 120.265C118.005 120.403 118.163 120.622 118.233 120.879C118.301 121.134 118.273 121.403 118.136 121.641L117.129 123.382C116.991 123.622 116.773 123.78 116.517 123.849C116.26 123.917 115.993 123.889 115.753 123.752L115.494 123.602L117.508 120.117L117.766 120.265ZM115.293 115.215C115.746 115.477 116.049 115.896 116.179 116.374C116.306 116.853 116.253 117.367 115.992 117.821L112.746 123.437C112.484 123.891 112.065 124.193 111.586 124.323C111.106 124.45 110.592 124.397 110.138 124.136L108.463 123.169L109.261 121.788C109.413 121.525 109.323 121.19 109.06 121.038C108.798 120.886 108.462 120.976 108.31 121.239L107.512 122.62L103.826 120.493L106.115 116.53C106.267 116.268 106.177 115.932 105.914 115.781C105.651 115.629 105.315 115.719 105.163 115.981L102.874 119.944L99.7843 118.162L100.582 116.781C100.734 116.518 100.644 116.182 100.381 116.031C100.119 115.879 99.7822 115.969 99.6305 116.232L98.8324 117.613L96.5404 116.291L101.695 107.37L115.293 115.215ZM99.562 106.139L94.4077 115.06L91.7372 113.52L93.9821 109.635C94.1337 109.373 94.0437 109.037 93.7811 108.886C93.5181 108.734 93.1819 108.824 93.0301 109.086L90.786 112.971L88.6301 111.727L93.7844 102.806L99.562 106.139ZM89.4096 104.751L88.128 106.968L85.9154 105.691L87.1964 103.474L89.4096 104.751ZM86.7643 98.5577C86.8437 98.859 86.8117 99.1785 86.6442 99.4693L82.1692 107.216C82.0003 107.506 81.7388 107.694 81.4386 107.775C81.1367 107.855 80.8173 107.823 80.5272 107.656C80.2353 107.487 80.0483 107.227 79.9661 106.925C79.8867 106.624 79.9181 106.305 80.086 106.013L84.5613 98.2681C84.7294 97.9772 84.9898 97.7905 85.2918 97.7076C85.5929 97.6291 85.9124 97.6604 86.2048 97.8281C86.4955 97.9968 86.6824 98.2577 86.7643 98.5577Z" fill="#008372"/>
<path d="M171.539 30.5112H160.87L159.384 25.7771C158.227 22.4079 155.073 20.0948 151.51 19.9999H116.035C112.472 20.0941 109.319 22.4079 108.161 25.7771L106.675 30.5112H96.0035C95.0265 30.5126 94.0811 30.663 93.1927 30.9364C91.4726 31.4644 89.9643 32.4652 88.8051 33.7825C87.3162 35.4725 86.4032 37.682 86.3989 40.1094V87.9124C86.409 93.2091 90.7044 97.4999 96.0035 97.5107H171.539C176.84 97.4999 181.133 93.2091 181.145 87.9124V40.1094C181.133 34.8128 176.84 30.5212 171.539 30.5112ZM112.389 27.1031C112.69 25.8232 114.721 24.3339 116.035 24.4274L151.51 24.4289C152.824 24.3339 154.853 25.8232 155.154 27.1031L156.224 30.5112H111.32L112.389 27.1031ZM175.811 87.9117C175.807 90.2413 173.871 92.1766 171.539 92.1802H96.0027C93.6714 92.1766 91.7347 90.2413 91.7318 87.9117V57.0764C93.0184 57.7196 94.4656 58.0909 96.0027 58.0945H101.031V60.1903C101.038 63.8595 104.008 66.8244 107.679 66.8316H109.23C112.901 66.8244 115.869 63.8595 115.877 60.1903V58.0945H151.665V60.1903C151.674 63.8595 154.639 66.8244 158.312 66.8316H159.864C163.535 66.8244 166.503 63.8595 166.51 60.1903V58.0945H171.537C173.074 58.0916 174.522 57.7196 175.809 57.0764V87.9117H175.811ZM105.463 60.1903V52.7719C105.463 52.7698 105.463 52.7676 105.463 52.7647C105.47 51.5647 106.478 50.5589 107.679 50.5574H109.23C110.431 50.5589 111.439 51.5639 111.445 52.7647C111.445 52.7669 111.446 52.769 111.446 52.7719V60.1903C111.443 61.3932 110.434 62.4026 109.23 62.404H107.679C106.476 62.4026 105.465 61.3939 105.463 60.1903ZM156.097 60.1903V52.7719C156.097 52.7698 156.099 52.7676 156.099 52.7647C156.104 51.5647 157.112 50.5589 158.313 50.5574H159.866C161.067 50.5589 162.073 51.5639 162.079 52.7647C162.079 52.7669 162.08 52.769 162.08 52.7719V60.1903C162.079 61.3932 161.068 62.4026 159.866 62.404H158.313C157.11 62.4026 156.099 61.3939 156.097 60.1903ZM175.811 48.4976C175.807 50.8272 173.872 52.7611 171.539 52.7654H166.512C166.5 49.0998 163.533 46.1392 159.866 46.1313H158.314C154.644 46.1392 151.68 49.0998 151.667 52.7654H115.879C115.866 49.0998 112.899 46.1392 109.232 46.1313H107.682C104.013 46.1392 101.044 49.0998 101.033 52.7654H96.0049C93.6765 52.7618 91.7412 50.8308 91.734 48.5041V40.1102C91.734 39.5274 91.8564 38.9705 92.0745 38.4612C92.7297 36.9338 94.2568 35.8452 96.0049 35.8423H171.539C172.269 35.8438 172.958 36.0337 173.563 36.3647C174.848 37.069 175.741 38.4144 175.802 39.9483C175.805 40.003 175.811 40.0562 175.811 40.1116V48.4976V48.4976ZM140.702 61.3536H126.838V68.218H119.969V82.0719H126.838V88.9362H140.702V82.0719H147.573V68.218H140.702V61.3536ZM142.241 73.5477V76.7435H135.37V83.6079H132.172V76.7435H125.302V73.5477H132.172V66.6834H135.37V73.5477H142.241Z" fill="#008372"/>
</svg>
